<svg width="38" height="38" viewBox="0 0 38 38" fill="none" xmlns="http://www.w3.org/2000/svg">
<path d="M5.7 10.45C5.7 8.87656 6.97656 7.6 8.55 7.6C10.1234 7.6 11.4 8.87656 11.4 10.45V17.1H26.6V10.45C26.6 8.87656 27.8766 7.6 29.45 7.6C31.0234 7.6 32.3 8.87656 32.3 10.45V11.4H33.25C34.8234 11.4 36.1 12.6766 36.1 14.25V17.1C37.1509 17.1 38 17.9491 38 19C38 20.0509 37.1509 20.9 36.1 20.9V23.75C36.1 25.3234 34.8234 26.6 33.25 26.6H32.3V27.55C32.3 29.1234 31.0234 30.4 29.45 30.4C27.8766 30.4 26.6 29.1234 26.6 27.55V20.9H11.4V27.55C11.4 29.1234 10.1234 30.4 8.55 30.4C6.97656 30.4 5.7 29.1234 5.7 27.55V26.6H4.75C3.17656 26.6 1.9 25.3234 1.9 23.75V20.9C0.849062 20.9 0 20.0509 0 19C0 17.9491 0.849062 17.1 1.9 17.1V14.25C1.9 12.6766 3.17656 11.4 4.75 11.4H5.7V10.45Z" fill="black"/>
</svg>
