<svg width="383" height="436" viewBox="0 0 383 436" fill="none" xmlns="http://www.w3.org/2000/svg">
<path d="M94.5479 212.527C96.313 211.186 97.425 210.371 97.425 210.371C97.425 210.371 96.1547 211.279 94.5479 212.527Z" fill="#1B326D"/>
<path d="M194.197 141.133C194.375 141.28 194.573 141.432 194.798 141.59C194.586 141.44 194.398 141.285 194.197 141.133Z" fill="#1B326D"/>
<path d="M180.594 217.211C180.551 216.797 180.518 216.536 180.518 216.536C180.518 216.536 180.546 216.785 180.594 217.211Z" fill="#1B326D"/>
<path d="M197.811 221.21C192.67 224.014 188.93 230.09 183.79 208.123C183.79 208.123 184.725 223.079 184.725 228.221C184.725 233.362 189.866 250.187 189.866 250.187C189.866 250.187 191.268 246.916 197.344 249.253C203.42 251.589 208.56 253.927 208.56 253.927C208.56 253.927 200.148 248.785 202.017 242.709C203.887 236.633 210.898 220.275 210.898 220.275C210.898 220.275 202.953 218.405 197.811 221.21Z" fill="#1B326D"/>
<path d="M176.778 260.938C185.191 257.665 182.854 264.21 182.854 264.21L186.125 256.731C186.125 256.731 186.125 256.731 182.854 257.665C179.582 258.6 176.778 260.938 176.778 260.938Z" fill="#1B326D"/>
<path d="M322.133 141.286C305.511 149.906 297.404 157.714 293.806 162.041C290.045 158.618 284.796 153.542 283.342 150.634C281.005 145.962 283.342 137.08 286.614 129.135C289.885 121.19 302.972 116.516 302.972 116.516C302.972 116.516 291.287 117.918 283.809 114.178C276.331 110.44 272.591 101.56 272.591 101.56C272.591 101.56 273.993 109.038 273.526 114.647C273.06 120.254 258.103 123.526 247.821 124.461C237.538 125.396 212.766 134.744 201.081 141.286C189.398 147.831 188.929 146.429 189.865 142.689C190.8 138.95 199.212 127.266 199.212 127.266C189.465 136.779 177.738 155.316 191.722 165.879C186.478 161.532 201.106 161.55 203.414 161.385C216.506 160.449 247.821 160.449 247.821 160.449C247.821 160.449 245.483 156.243 253.428 153.907C261.375 151.569 278.2 153.438 278.2 153.438C278.2 153.438 267.917 152.971 258.57 155.309C249.223 157.645 255.299 162.32 255.299 162.32L247.821 165.592C247.821 165.592 242.678 171.199 246.418 173.07C250.157 174.939 261.842 176.808 261.842 176.808C261.842 176.808 251.092 178.21 248.287 181.95C245.483 185.688 251.092 187.091 251.092 187.091C251.092 187.091 245.016 189.895 238.005 191.297C230.994 192.7 216.973 190.83 213.233 187.091C209.495 183.352 187.527 166.525 187.527 166.525C187.527 166.525 202.016 180.079 207.157 186.624C212.299 193.166 223.515 205.787 223.515 205.787C223.515 205.787 224.451 209.058 222.582 214.199C220.713 219.341 216.973 230.557 216.973 230.557L222.582 226.819L228.658 214.199C228.658 214.199 236.136 205.787 241.276 201.58C246.418 197.373 288.483 178.677 288.483 178.677C288.483 178.677 303.906 171.667 322.133 166.525C322.133 166.525 302.753 170.475 292.297 173.339L297.83 165.592C297.83 165.592 297.738 165.512 297.606 165.399C299.973 162.071 303.332 157.549 306.243 154.374C311.384 148.765 322.133 141.286 322.133 141.286Z" fill="#1B326D"/>
<path d="M192.201 176.808C201.081 187.557 215.104 212.329 215.104 212.329C215.104 212.329 216.973 204.384 213.233 198.775C209.495 193.166 192.201 176.808 192.201 176.808Z" fill="#1B326D"/>
<path d="M380.027 176.948C379.981 178.67 379.732 180.391 379.301 182.042C378.857 183.679 378.217 185.273 377.289 186.571C377.058 186.919 376.823 187.17 376.602 187.44L376.117 187.91C376.117 187.91 375.994 188.029 375.98 188.042L375.923 188.09L375.669 188.303C374.995 188.872 374.283 189.43 373.567 189.982C372.039 191.155 370.479 192.304 368.903 193.437C365.107 193.887 360.993 189.398 358.729 186.65C361.112 188.006 363.319 189.235 364.667 189.428C371.209 190.362 375.883 190.83 378.221 183.819C379.272 180.665 378.711 176.968 377.506 173.462C376.551 170.683 375.193 168.023 373.913 165.851C377.732 174.988 360.947 183.473 361.488 170.422C361.598 167.769 361.707 165.118 361.818 162.465C361.052 169.75 357.124 176.621 351.33 181.084C347.602 180.945 342.526 182.974 339.624 183.672C333.98 185.028 328.431 186.749 322.776 188.067C313.021 190.342 303.208 192.576 293.624 195.504C276.798 200.645 247.821 215.601 247.821 215.601C258.104 211.863 255.299 221.21 255.299 221.21C258.051 220.786 260.801 220.364 263.553 219.94C266.76 219.446 269.165 219.509 271.737 219.951C269.384 220.294 267.256 220.872 265.059 221.428C262.65 222.066 260.266 222.746 257.879 223.46L257.294 223.637L257.177 224.255C257.111 224.607 256.97 225.101 256.837 225.532C256.7 225.977 256.54 226.423 256.378 226.867C256.048 227.758 255.677 228.638 255.284 229.514C254.895 230.39 254.469 231.257 254.044 232.111L253.372 233.409L252.678 234.625C251.698 236.229 250.52 237.714 249.203 239.065C248.535 239.731 247.839 240.37 247.107 240.963C246.381 241.547 245.587 242.122 244.835 242.565L244.076 243.012L244.523 243.756C246.156 246.477 247.696 249.436 248.379 252.457C248.478 252.835 248.496 253.206 248.553 253.579C248.54 253.947 248.626 254.184 248.535 254.631C248.459 255.316 248.187 256.175 247.968 256.89C247.762 257.545 247.486 258.135 247.146 258.66C246.142 259.462 245.064 260.153 243.938 260.725C242.968 260.961 241.92 261.072 240.828 261.2L235.94 261.793C234.879 261.916 233.817 262.025 232.754 262.139C237.618 261.504 242.562 260.62 244.081 259.536C247.353 257.198 245.95 253.927 244.081 248.318C242.212 242.709 238.005 239.904 238.005 239.904C238.005 239.904 239.874 243.644 240.343 246.449C240.81 249.253 236.136 245.982 234.267 245.046C232.396 244.111 230.527 245.982 228.191 247.851C225.854 249.72 223.984 245.513 223.984 245.513C223.984 245.513 222.115 248.318 219.311 249.253C216.637 250.144 211.344 245.777 211.765 243.108C212.052 241.29 212.803 239.583 213.568 237.91C215.467 233.761 217.504 229.674 219.675 225.661C215.769 231.253 211.516 237.961 210.313 244.784C210.168 245.602 210.218 246.508 210.47 247.293C210.96 248.927 211.803 250.352 212.626 251.782L215.195 255.981C215.279 256.128 215.361 256.271 215.442 256.415C216.109 259.665 217.382 267.072 215.571 268.883C213.233 271.219 197.343 281.502 195.474 284.773C193.872 287.576 192.96 291.055 192.729 291.999C188.526 292.985 182.818 294.416 180.049 295.524C175.376 297.393 171.169 297.86 169.3 295.056C168.302 293.559 168.503 286.068 168.907 279.41C170.672 270.569 172.576 261.746 174.528 252.942L174.569 252.756L174.533 252.586C174.104 250.563 173.521 248.668 172.838 246.769C172.489 245.827 172.127 244.89 171.718 243.971C171.332 243.042 170.88 242.141 170.428 241.242C169.963 240.348 169.478 239.464 168.942 238.606C168.439 237.732 167.837 236.913 167.266 236.079C166.639 235.279 166.058 234.457 165.344 233.696C164.664 232.89 163.955 232.208 163.244 231.53L161.102 229.501C160.426 228.807 159.735 228.129 159.095 227.398C157.78 225.973 156.556 224.46 155.386 222.907C154.215 221.355 153.116 219.748 152.085 218.098C151.633 217.376 151.194 216.635 150.767 215.893C151.681 216.173 152.552 216.609 153.408 217.041C155.68 218.191 157.951 219.339 160.221 220.489C162.536 223.83 165.745 228.495 168.366 232.426C173.04 239.437 177.245 251.122 177.713 253.46C178.18 255.796 178.18 255.796 178.18 255.796C178.18 255.796 182.854 250.655 185.191 250.655C187.527 250.655 187.527 250.655 187.527 250.655C187.527 250.655 184.725 247.851 183.321 238.502C182.11 230.425 180.901 219.921 180.594 217.211C180.826 219.506 181.348 227.104 178.18 228.688C174.442 230.557 168.833 227.753 168.833 227.753L159.943 218.862C154.24 207.568 159.928 195.332 163.224 183.818C164.163 180.538 175.227 164.46 178.08 167.805C178.964 168.843 178.995 170.336 178.982 171.699C178.898 180.035 178.814 188.372 178.73 196.708C180.59 184.979 182.455 173.08 181.158 161.274C180.906 158.978 180.534 156.686 180.508 154.375C180.424 146.481 184.924 141.004 188.93 134.744C188.93 134.744 172.104 141.286 157.615 148.764C143.127 156.243 137.051 148.764 137.986 143.157C138.92 137.548 153.877 133.341 153.877 133.341C149.775 133.528 145.483 134.433 141.695 135.996C139.087 137.071 130.854 144.19 128.746 143.515C127.187 143.017 126.929 141.22 127.234 139.482C127.575 139.196 127.901 138.893 128.25 138.619C129.137 137.919 130.045 137.246 130.988 136.629C131.916 135.987 132.892 135.425 133.862 134.856C134.857 134.334 135.851 133.8 136.855 133.379C137.791 132.921 139.038 132.508 140.006 132.162C141.068 131.865 142.121 131.538 143.231 131.365C144.318 131.121 145.447 131.024 146.562 130.878C147.689 130.789 148.817 130.694 149.954 130.669C152.225 130.59 154.512 130.675 156.797 130.812C159.08 130.981 161.363 131.212 163.638 131.532C164.535 131.66 165.435 131.807 166.334 131.957L153.877 133.341C153.877 133.341 169.3 135.21 179.116 132.408C184.2 130.954 189.746 128.625 193.922 126.714L200.852 124.728L201.317 124.595L201.552 124.217C201.911 123.634 202.081 123.204 202.281 122.688C202.466 122.191 202.601 121.685 202.72 121.178C202.919 120.261 202.998 119.33 203.005 118.407C204.531 116.821 207.639 113.159 208.5 108.851C209.657 103.077 209.657 78.2444 211.389 74.7784C213.121 71.314 216.008 68.4253 216.008 68.4253C216.008 68.4253 213.014 66.9389 210.15 70.1921C210.965 69.0489 211.981 68.0162 213.253 67.3101C218.253 64.5337 222.698 70.0882 222.698 70.0882C222.698 70.0882 218.809 85.6416 218.253 92.8624C217.697 100.083 218.253 102.305 218.253 102.305L221.586 87.8638L226.03 98.417C226.03 98.417 230.474 96.7508 234.917 96.1949C237.849 95.8286 241.395 96.157 243.476 96.4242C240.879 96.8993 238.437 97.7571 236.042 98.7238C233.454 99.8028 230.931 101.017 228.478 102.36C225.999 103.658 223.674 105.248 221.363 106.786L207.466 116.066L221.627 107.19C223.986 105.692 226.301 104.183 228.79 102.947C231.251 101.667 233.78 100.517 236.356 99.5091C238.929 98.5308 241.597 97.6615 244.264 97.3117L246.358 97.0923C247.069 96.9834 247.785 96.8629 248.474 96.6534C249.862 96.2723 251.2 95.7263 252.458 95.0598C254.991 93.7434 257.246 92.0144 259.529 90.5082C260.118 90.1222 260.628 89.8105 261.271 89.4789C261.796 89.2067 262.413 88.8586 262.941 88.4643C263.373 89.6241 264.643 92.7684 266.516 95.0154C268.853 97.8199 268.853 97.8198 268.853 97.8198C268.853 97.8198 264.646 88.9394 266.982 84.7343C267.395 83.9952 267.799 83.37 268.198 82.7975C268.404 82.5682 268.607 82.3208 268.82 82.1112C269.32 81.6064 269.831 81.2551 270.363 80.7998C270.872 80.3544 271.417 79.9518 271.988 79.5872C274.208 78.0497 276.643 76.8108 279.223 75.9843C284.375 74.2934 289.923 73.9056 295.341 74.5193C298.045 74.8163 300.765 75.3161 303.365 76.0321C304.693 76.4148 306.059 76.781 307.234 77.276C308.451 77.761 309.606 78.4209 310.731 79.1302C312.958 80.6002 314.967 82.438 316.805 84.4259C318.633 86.4105 320.331 88.6128 321.741 90.8514L321.929 91.1517L322.234 91.3068L322.719 91.5526C322.559 94.334 321.962 100.864 319.798 104.831C316.993 109.972 315.591 111.842 315.591 111.842C315.591 111.842 317.544 109.886 319.663 107.002C321.058 105.908 322.63 104.758 324.278 103.803C326.893 102.292 329.671 101.283 332.131 101.817C340.817 103.709 342.97 111.224 338.606 118.27C345.101 107.784 357.736 123.582 361.05 129.659C365.341 137.523 369.619 144.853 371.686 148.355C373.044 152.508 374.281 156.716 375.365 160.929C372.496 158.819 368.405 157.645 368.405 157.645C371.732 160.141 375.378 163.942 377.802 166.629C377.831 166.702 377.864 166.773 377.892 166.844C378.556 168.5 379.13 170.186 379.531 171.87C379.641 172.299 379.712 172.698 379.785 173.093C379.865 173.451 379.912 174.033 379.961 174.371C380.019 175.226 380.067 176.085 380.027 176.948ZM355.892 208.835C354.851 210.122 353.767 211.389 352.637 212.564C348.653 214.781 340.36 218.653 328.678 220.274C311.853 222.612 283.809 216.536 281.472 214.667C279.136 212.796 297.83 205.318 323.069 199.242C327.259 198.234 356.321 190.524 356.616 197.226C356.695 199.021 355.663 200.656 354.645 202.138C351.929 206.087 349.036 209.914 345.977 213.603C351.411 207.694 357.411 202.304 363.862 197.525C361.404 201.417 358.757 205.255 355.892 208.835ZM296.2 234.879C294.698 237.763 292.439 240.139 290.242 242.506C288.011 244.857 285.693 247.127 283.341 249.356C282.158 250.464 280.985 251.581 279.764 252.647C278.557 253.742 277.409 254.899 276.308 256.101C274.107 258.505 272.111 261.098 270.445 263.924C269.599 265.297 268.929 266.847 268.317 268.345C267.74 269.873 267.207 271.414 266.73 272.971C265.772 276.082 264.953 279.232 264.201 282.394C263.449 285.558 262.764 288.731 262.152 291.93L262.114 292.133L262.246 292.317C264.462 295.384 266.438 298.677 268.248 302.027C269.158 303.702 270.011 305.409 270.826 307.132C271.649 308.852 272.398 310.604 273.133 312.363C273.82 314.14 274.543 315.905 275.127 317.718C275.77 319.511 276.292 321.341 276.825 323.167C277.305 325.01 277.785 326.819 278.158 328.702L278.705 331.524C278.869 332.427 278.933 333.387 279.052 334.314C279.35 336.175 279.26 338.069 279.317 339.948C279.309 340.89 279.195 341.83 279.141 342.77C279.081 343.711 279.014 344.651 278.842 345.581L278.417 348.381L277.8 351.148C277.616 352.075 277.352 352.984 277.084 353.891C276.806 354.795 276.592 355.717 276.265 356.608L275.332 359.289C275.003 360.176 274.632 361.049 274.284 361.93C273.947 362.816 273.54 363.672 273.152 364.537C272.773 365.404 272.37 366.262 271.936 367.105C271.103 368.808 270.206 370.479 269.252 372.114C268.312 373.747 267.294 375.377 266.237 376.881L266.176 376.969L266.113 377.109C265.925 377.523 265.6 378.096 265.298 378.584C264.99 379.094 264.656 379.597 264.315 380.095C263.629 381.09 262.898 382.068 262.145 383.028C261.401 383.983 260.6 384.95 259.818 385.821C258.996 386.702 258.147 387.568 257.256 388.406C253.757 391.712 249.969 394.804 246.132 397.749C248.75 392.577 254.644 387.393 258.571 383.86C263.244 379.653 267.451 365.163 266.049 359.088C266.049 359.088 272.125 349.74 273.06 340.86C273.994 331.98 274.154 322.466 274.154 322.466C270.917 316.121 267.679 309.778 264.44 303.433C262.84 300.297 261.228 297.133 260.323 293.729C258.778 287.916 259.392 281.706 260.994 275.909C266.106 257.398 280.484 243.116 294.448 229.935C290.405 228.238 285.822 227.358 281.939 225.415C279.545 224.219 277.532 223.338 275.935 222.698C277.146 223.018 278.354 223.308 279.566 223.595C281.995 224.161 284.436 224.669 286.889 225.118C291.091 225.893 295.331 226.494 299.609 226.844C298.711 229.618 297.589 232.322 296.2 234.879ZM187.996 313.752C184.777 313.752 189.979 309.321 193.531 306.561C190.947 308.524 186.955 311.624 182.902 315.034C178.174 319.011 173.381 323.394 170.702 326.839C164.159 335.251 154.344 348.805 154.344 348.805L144.996 352.078C144.996 352.078 144.996 352.078 144.529 349.273C144.219 347.411 144.526 341.446 144.767 337.635C145.376 335.47 146.022 333.314 146.712 331.173C147.53 328.632 148.401 326.108 149.368 323.629C149.853 322.391 150.351 321.157 150.904 319.956C151.45 318.741 152.042 317.584 152.719 316.535C153.41 315.459 154.413 314.633 155.422 313.801C156.445 312.986 157.527 312.228 158.634 311.503C160.855 310.073 163.181 308.753 165.534 307.561L165.921 307.366L165.925 306.929C165.926 306.81 165.933 306.693 165.934 306.574L175.054 302.075L168.366 305.807C168.366 305.807 204.821 287.111 210.43 286.175C216.038 285.242 230.06 286.644 238.472 290.851C246.886 295.056 257.168 296.927 263.244 306.274C266.586 311.414 271.352 317.032 274.099 322.367C273.368 321.047 264.574 305.507 252.495 298.796C239.874 291.784 216.038 287.578 216.038 287.578C216.038 287.578 223.984 291.784 223.984 296.458C223.984 301.132 218.842 311.883 218.842 311.883C218.842 311.883 236.136 318.426 247.352 329.644C252.808 335.098 257.374 342.208 260.631 348.076C257.897 344.026 254.314 339.639 250.157 335.251C241.745 326.371 225.853 318.892 217.908 315.621C209.962 312.35 192.67 313.752 187.996 313.752ZM131.909 391.338C131.533 393.372 131.279 395.921 131.115 398.757C131.131 398.364 131.135 397.971 131.154 397.579C131.227 396.038 131.331 394.492 131.483 392.963L131.751 390.675L132.17 388.405C132.885 385.41 133.877 382.482 134.974 379.6C137.133 373.996 139.686 368.532 142.464 363.214C142.579 363.873 142.659 364.23 142.659 364.23C142.659 364.23 134.246 378.717 131.909 391.338ZM118.476 228.526C117.201 229.016 115.977 229.643 114.661 230.024L110.731 231.214L106.704 232.05C105.366 232.349 103.984 232.42 102.627 232.618C101.269 232.829 99.8923 232.862 98.519 232.933L96.4587 233.035L94.3934 233.009C91.6404 233.015 88.8862 232.794 86.1456 232.505C80.6614 231.897 75.2291 230.767 69.9301 229.221C67.2872 228.469 64.6335 227.556 62.1551 226.545C61.55 226.319 60.8784 225.977 60.2799 225.717C59.5569 225.375 58.8318 225.126 58.1069 224.908C56.6621 224.513 55.2341 224.278 53.819 224.077C50.9939 223.696 48.2144 223.475 45.5111 223.062C42.8425 222.635 40.1167 222.053 38.1614 220.733C36.2592 219.263 34.8633 216.904 33.7755 214.472C32.7092 212.019 31.8624 209.368 31.3005 206.768L31.1934 206.272L30.7803 205.963C29.808 205.237 28.8419 204.432 27.8991 203.591C32.9353 205.272 37.6518 199.826 41.4996 196.987C40.328 198.968 39.1565 200.95 37.9849 202.929C36.1483 206.034 34.246 209.645 35.3647 213.077C36.6226 216.932 41.3746 222.327 45.7973 222.401C51.4855 222.497 51.7484 215.269 52.619 211.229C51.9636 218.103 66.9934 222.79 71.7847 225.186C73.8854 226.235 75.9888 227.287 78.1676 228.163C91.5606 233.555 106.332 232.256 120.138 227.814C119.585 228.066 119.032 228.31 118.476 228.526ZM16.9944 190.006C17.2456 190.461 17.5183 190.957 17.8134 191.492C17.7979 191.467 17.7811 191.444 17.7663 191.419C17.5099 190.949 17.2496 190.484 16.9944 190.006ZM15.8176 187.577C15.8267 187.59 15.7783 187.473 15.7615 187.427L15.6706 187.19C15.7666 187.429 15.8633 187.655 15.9606 187.881L15.9072 187.769L15.8176 187.577ZM14.8735 185.027C15.0418 185.522 15.2132 185.993 15.3859 186.45L15.0353 185.541C14.9786 185.372 14.9296 185.197 14.8735 185.027ZM14.0442 182.387C14.0544 182.424 14.0655 182.458 14.0763 182.494C14.0679 182.466 14.059 182.44 14.0506 182.414C14.0486 182.405 14.0462 182.395 14.0442 182.387ZM2.94856 93.9693C2.98914 93.4497 3.04391 92.8509 3.11485 92.3229C3.18958 91.8297 3.28757 91.3299 3.43836 90.8317C3.72838 89.8336 4.14146 88.8371 4.63753 87.872C4.88565 87.3887 5.15438 86.9136 5.43533 86.4467C5.71446 85.9898 6.03088 85.5064 6.31628 85.1138L6.40206 84.9983L6.45172 84.896C6.51226 84.7722 6.55416 84.6568 6.61075 84.5363C7.51297 84.8234 8.72518 85.4057 9.92254 86.6034C12.2592 88.9394 12.2592 88.9395 12.2592 88.9395C12.2592 88.9395 9.1607 81.8506 9.00217 78.8927C9.05001 78.8201 9.0835 78.7508 9.13299 78.6766C10.3627 76.8339 11.8009 75.0027 13.2399 73.2524L13.4519 72.9933L13.5313 72.6766L13.8766 71.3024L14.0442 70.6557C14.0719 70.5501 14.1273 70.433 14.1865 70.3109C14.4663 69.8144 15.0178 69.3128 15.6597 68.9548C16.3081 68.5985 17.0485 68.3692 17.803 68.2768L18.3702 68.2389C18.5518 68.2488 18.6742 68.2307 18.9057 68.2521L19.5958 68.3197C19.8949 68.3477 20.1874 68.3824 20.5166 68.3576C20.9253 68.3543 21.3634 68.2603 21.794 68.1251L27.2155 74.45L26.2063 64.8883C26.2146 64.8867 26.2185 64.8834 26.2276 64.8801L26.5569 64.7498C26.4897 64.7811 26.6405 64.7448 26.6702 64.7399C26.8951 64.6755 27.2013 64.6937 27.5286 64.7432C28.1969 64.8553 28.9632 65.1852 29.7035 65.5861C31.1992 66.4077 32.6433 67.5427 34.0321 68.7288C34.7281 69.3243 35.4086 69.9513 36.084 70.5815C36.7328 71.2035 37.4443 71.8831 38.0597 72.5231C38.728 73.2193 39.3144 73.9783 39.8158 74.785C40.0916 76.692 40.0052 78.7756 38.4727 79.2853C35.4911 80.2801 33.0054 81.7714 31.5143 80.7767C30.0231 79.7819 27.5383 78.2922 27.5383 78.2922C27.5383 78.2922 32.5087 85.7472 31.5143 87.2386C30.5206 88.7282 29.5264 91.7109 26.5439 90.2196C23.5615 88.7282 19.5855 85.7472 19.5855 85.7472C19.5855 85.7472 26.5439 93.2023 24.556 94.6936C22.5679 96.1849 20.5792 97.6763 18.5911 96.185C16.6032 94.6936 13.6209 91.7109 13.6209 91.7109C13.6209 91.7109 21.5736 102.149 18.0944 101.652C14.6151 101.156 9.14784 104.635 6.16549 102.149C4.90248 101.096 3.8262 100.482 2.95829 99.7153C2.89065 98.9284 2.84611 98.1299 2.83836 97.3232C2.82929 96.208 2.86475 95.0829 2.94856 93.9693ZM71.5649 161.492L72.5058 163.084L73.7927 161.738C74.3617 161.142 75.0757 160.491 75.7737 159.91C76.483 159.321 77.2106 158.747 77.9666 158.209C79.4725 157.127 81.0559 156.145 82.6947 155.268C83.5111 154.822 84.3526 154.428 85.193 154.03C86.0385 153.672 86.8492 153.303 87.7733 152.973L88.4467 152.72L88.6148 152.656L88.6574 152.641C88.6137 152.658 88.6685 152.64 88.6685 152.64L88.7483 152.618L89.0667 152.529L90.3381 152.171C91.2255 152.034 92.0934 151.813 93.0118 151.772C93.9178 151.683 94.8323 151.632 95.7596 151.648C96.6791 151.614 97.6122 151.699 98.5397 151.736C100.399 151.874 102.262 152.092 104.116 152.419C105.974 152.72 107.819 153.13 109.653 153.573C111.345 153.987 113.045 154.468 114.68 154.992C114.655 155.017 114.635 155.05 114.611 155.075C115.104 155.175 115.586 155.315 116.074 155.441L116.199 155.482L116.203 155.474C122.259 157.059 127.811 160.486 131.929 165.202C132.32 165.992 132.647 166.822 132.872 167.713C134.07 172.477 131.986 179.141 126.195 178.845C122.262 178.644 118.228 173.888 122.938 171.364C112.44 176.991 101.407 181.618 90.0366 185.162C87.8274 185.852 85.579 186.503 83.2675 186.606C77.0573 186.881 71.4366 183.23 66.3018 179.726C68.513 175.209 70.7232 170.694 72.9337 166.177C66.1446 170.064 59.9087 174.916 54.4711 180.54C51.3327 174.742 49.683 168.147 49.7211 161.555C49.73 160.037 49.8196 158.476 49.3034 157.051C48.7196 155.438 47.4359 154.199 46.2889 152.923C41.5782 147.682 38.7131 141.046 34.4084 135.466C30.1031 129.887 23.4107 125.172 16.473 126.409C12.3738 128.716 10.7273 133.821 9.98375 138.647C10.0565 137.847 10.1487 137.058 10.2596 136.283C10.3645 135.234 10.6082 134.127 10.837 133.026L11.5554 129.715C11.7333 128.575 11.9685 127.442 12.0794 126.294C12.1084 126.074 12.1257 125.853 12.1515 125.632C13.0898 123.738 13.8089 122.528 14.1182 122.528C15.6094 122.528 19.5855 127.002 24.556 125.51C29.5264 124.019 41.4551 126.007 44.9343 130.977C45.4055 131.65 46.2013 132.444 47.2155 133.31C48.3679 135.597 49.3648 137.787 49.9433 139.523C52.1653 146.189 52.7208 149.522 52.7208 149.522V137.533C52.9618 137.761 53.1926 137.993 53.4407 138.221L55.1064 139.645C55.6098 140.1 56.1401 140.504 56.6235 140.999C58.6005 142.91 60.4074 145.084 62.1294 147.321C65.5537 151.815 68.6824 156.622 71.5649 161.492ZM145.148 71.0847C145.24 70.5353 145.402 69.9562 145.598 69.3771C145.994 68.2191 146.501 67.0593 147.032 65.9095C147.571 64.7613 148.142 63.6164 148.718 62.4665C149.3 61.2985 149.871 60.2032 150.43 58.8966C150.534 58.6558 150.683 58.2697 150.772 57.8309C151.191 57.4845 151.664 57.2403 152.215 57.1924C158.76 56.6332 160.499 66.2295 160.162 70.7283C160.289 69.0324 167.187 68.5309 168.26 69.5322L176.592 77.309C176.592 77.309 188.758 86.7106 188.813 86.7519C185.041 83.8385 179.241 78.9537 179.384 73.5427C179.508 68.9037 186.13 65.0863 189.369 62.3115C189.369 62.3115 176.357 62.8526 176.042 62.8674C175.232 62.9004 172.185 57.5703 171.598 56.752C175.037 53.8336 176.212 50.3692 180.325 48.2724C184.027 48.4027 187.755 48.2032 191.396 48.863C195.847 49.6714 200.402 52.1822 201.857 56.4649C200.931 53.7445 206.141 47.1704 207.764 45.3013C210.548 42.0959 214.131 39.0159 218.537 38.5869C220.098 38.4368 221.795 38.8443 222.838 40.0156C223.778 41.0731 224.044 42.5513 224.247 43.9502C224.879 48.2856 225.156 53.1193 222.526 56.6233C220.753 58.9873 210.47 68.554 207.698 65.0879C206.271 63.3046 205.537 61.5327 205.191 60.4836C205.554 61.8611 206.202 64.7299 206.588 68.9763C206.912 72.5331 207.044 74.9268 207.101 76.3357C206.496 78.373 205.981 80.8938 205.613 84.0183L196.192 101.436L195.962 101.063L194.966 101.599C193.714 102.274 192.429 102.914 191.134 103.533C189.901 103.66 187.905 103.932 184.924 104.527C179.37 105.638 172.703 105.083 167.705 102.861C162.706 100.639 163.26 95.0846 163.26 95.0846C165.126 94.3373 167.319 92.9763 169.283 92.676C173.125 92.0904 174.655 93.9579 177.619 96.8267C176.494 94.6342 175.371 92.4401 174.247 90.246C172.193 86.2355 164.908 87.9892 161.038 88.4181C157.113 88.8553 154.908 86.2158 154.137 85.0593C159.827 83.926 167.48 82.7613 171.91 85.2144C167.048 82.5221 161.597 80.8971 156.054 80.4913C155.216 77.1572 159.174 74.1531 161.038 71.7544C161.038 71.7544 156.039 75.0869 152.707 73.4206C150.322 72.2279 147.075 72.4374 145.415 72.6519C145.338 72.5529 145.259 72.4439 145.179 72.3202C145.097 72.1569 145.051 71.6191 145.148 71.0847ZM145.98 44.4831C145.914 44.4732 145.841 44.4666 145.775 44.4583C145.701 44.4485 145.684 44.3 145.712 44.0541C145.795 44.2043 145.882 44.3478 145.98 44.4831ZM154.093 19.0923C154.226 18.9323 154.362 18.7723 154.497 18.614C154.347 18.8317 154.188 19.0611 154.025 19.297C154.048 19.2293 154.071 19.1584 154.093 19.0923ZM164.46 10.2335C168.039 8.01129 171.86 6.16693 175.801 4.63928C177.271 4.09158 178.761 3.58838 180.259 3.12811C186.807 2.47977 193.773 4.35886 197.742 9.60162C199.087 11.38 200.001 13.5857 199.805 15.8078C199.196 22.6294 192.369 29.0517 186.843 32.1449C181.29 35.2513 177.289 37.2474 171.077 39.0324C173.158 39.986 174.462 40.989 175.735 42.7773C175.966 43.1039 176.7 44.9581 177.24 46.395C175.259 45.3475 173.218 44.0113 172.089 43.5823C168.831 42.3401 165.464 41.1968 162.15 40.0915C161.332 39.8193 158.135 43.2656 157.184 43.6714C156.282 44.0558 155.281 44.3164 154.238 44.4946C159.217 41.314 163.188 36.5776 165.426 31.1039C164.006 32.3098 162.587 33.5174 161.168 34.7234C159.944 35.7643 158.692 36.8218 157.207 37.4355C150.168 40.3472 150.795 32.0525 152.394 25.1501C153.692 21.915 154.903 19.0495 155.733 17.2893C158.313 14.5887 161.253 12.2082 164.46 10.2335ZM238.822 69.9315C239.147 70.946 239.625 71.9227 240.051 72.9042C240.595 73.8297 241.094 74.7849 241.76 75.6296C241.889 75.8077 242.029 75.976 242.163 76.1493C241.506 75.364 240.897 74.582 240.317 73.81C238.012 69.3772 236.459 64.0783 236.102 59.2793C236.596 62.9252 237.598 66.4819 238.822 69.9315ZM247.758 95.6373C247.409 95.7379 247.079 95.8319 246.764 95.9194C245.927 96.0794 245.078 96.175 244.149 96.2889C244.104 96.2971 244.061 96.3087 244.017 96.3152C241.178 95.4129 234.102 92.8096 231.029 88.4181C227.14 82.8635 228.252 77.309 228.252 77.309C230.103 76.3835 232.655 74.3098 234.676 74.0294C234.858 74.0046 235.08 74.0063 235.324 74.0244C237.74 77.794 241.326 82.8849 244.779 85.8445C250.739 90.9537 250.739 94.786 247.758 95.6373ZM382.899 174.106C382.822 173.536 382.802 173.2 382.696 172.659C382.606 172.151 382.507 171.648 382.388 171.187C381.929 169.302 381.304 167.508 380.598 165.76C379.908 164.061 379.164 162.429 378.31 160.781C376.965 155.583 375.428 150.493 373.696 145.432C372.823 142.877 371.869 140.344 370.874 137.825L369.286 134.079C368.699 132.85 368.176 131.598 367.534 130.388C366.902 129.176 366.3 127.95 365.566 126.777C365.206 126.188 364.879 125.586 364.492 125.009L363.288 123.296C362.915 122.711 362.415 122.189 361.95 121.65C361.484 121.124 361.006 120.545 360.526 120.102L357.634 117.283C355.686 115.419 353.709 113.584 351.685 111.796C349.697 110.044 347.713 108.342 345.573 106.689C344.115 104.828 342.613 103.064 341.035 101.332C339.416 99.5619 337.72 97.8512 335.868 96.2625C334.941 95.4706 333.979 94.7051 332.918 94.0205C332.415 93.6576 331.811 93.3722 331.265 93.0538L329.678 92.2653L323.599 89.271C322.065 86.9465 320.382 84.8432 318.501 82.8454C316.535 80.7751 314.379 78.8481 311.932 77.2792C310.693 76.5187 309.411 75.8078 308.034 75.2799C306.627 74.719 305.287 74.389 303.936 74.0162C301.156 73.2903 298.373 72.8201 295.539 72.5446C289.894 71.9821 284.078 72.4555 278.656 74.3164C275.94 75.2287 273.372 76.5748 271.039 78.2344C270.442 78.6304 269.871 79.0642 269.337 79.541C268.815 79.998 268.192 80.4649 267.718 80.9582C266.661 82.0239 265.828 83.1539 264.97 84.2394C264.118 85.3183 263.252 86.3477 262.236 87.1528C261.923 87.4151 261.603 87.6229 261.265 87.8242C258.371 87.3606 251.822 85.7538 246.056 80.3098C245.744 80.0145 245.447 79.7126 245.147 79.4106C245.475 79.7126 245.808 80.0112 246.152 80.295C249.433 83.0417 253.189 85.1996 257.17 86.7404C253.206 85.1599 249.476 82.9642 246.236 80.196C244.609 78.8217 243.142 77.2512 241.918 75.5157C241.267 74.6727 240.783 73.7225 240.255 72.802C239.841 71.8221 239.386 70.8701 239.068 69.8457C237.684 65.822 236.565 61.668 236.255 57.4283C236.087 55.3101 236.184 53.1852 236.448 51.0769C236.723 48.9752 237.197 46.8801 237.397 44.7371C237.882 40.4677 237.637 36.1174 236.776 31.9023C235.887 27.689 234.328 23.6208 232.24 19.8561C231.157 18.0002 230.064 16.1393 228.765 14.422C227.568 12.6304 226.146 11.0038 224.554 9.4993C221.361 6.55292 217.516 4.3555 213.443 2.90869C209.373 1.43219 205.094 0.620605 200.803 0.24942C196.507 -0.125061 192.183 -0.0640259 187.895 0.340149C185.746 0.571106 183.626 0.775635 181.468 1.33325C179.366 1.87766 177.327 2.56726 175.298 3.30139C171.258 4.81085 167.343 6.67169 163.653 8.93674C159.956 11.1837 156.541 13.9452 153.616 17.1787C150.739 20.422 148.218 24.1422 146.897 28.3539C145.598 32.1845 144.595 36.0612 143.823 40.0338C142.947 43.4668 142.108 47.573 143.124 50.3841C143.139 50.4995 143.145 50.6167 143.162 50.7338C143.274 51.303 143.401 51.8754 143.622 52.4511C143.741 52.7398 143.863 53.0286 144.046 53.3189C144.143 53.4641 144.219 53.6059 144.355 53.7527C144.496 53.9095 144.559 54.0167 144.894 54.2345L144.952 54.2741L145.097 54.317C146.187 54.6519 147.365 55.1699 148.184 55.8495C148.589 56.191 148.876 56.5787 148.956 56.9251C149.031 57.298 148.97 57.5405 148.687 58.2367C148.223 59.2942 147.609 60.4852 147.034 61.6169C146.451 62.7635 145.866 63.9199 145.305 65.0978C144.75 66.2823 144.214 67.4833 143.771 68.7569C143.551 69.397 143.356 70.0569 143.231 70.7761C143.145 71.5003 143 72.3087 143.503 73.3216C143.858 73.9238 144.503 74.5853 145.031 74.9977C145.589 75.4563 146.181 75.8176 146.778 76.1558C147.718 76.6755 148.677 77.078 149.67 77.4409C149.363 79.122 149.147 80.7915 149.129 82.5517C149.129 83.0648 149.149 83.5877 149.218 84.1288C149.286 84.6667 149.403 85.2326 149.678 85.838L149.945 86.2982C150.035 86.4401 150.094 86.5045 150.17 86.6117L150.604 87.1924L151.47 88.3538L151.559 88.4726L151.702 88.5797C152.552 89.2066 153.418 89.9837 154.177 90.7805C154.937 91.5905 155.625 92.4583 156.173 93.3837C156.741 94.3373 157.08 95.2215 157.323 96.3466C157.592 97.5063 157.92 98.6925 158.298 99.8358C159.088 102.121 160.043 104.405 161.632 106.421C162.425 107.419 163.394 108.355 164.611 109.007C165.228 109.336 165.867 109.548 166.593 109.713C167.157 109.817 167.752 109.909 168.401 109.972C170.859 110.204 173.246 110.155 175.636 109.986C178.023 109.816 180.394 109.513 182.76 109.041C183.938 108.797 185.134 108.505 186.307 108.102C187.43 107.718 188.582 107.259 189.667 106.796C191.51 106.002 193.295 105.135 195.073 104.217C196.749 107.071 198.32 110.047 199.478 113.08C199.778 113.919 200.07 114.769 200.24 115.595C200.318 115.92 200.415 116.514 200.455 116.889C200.504 117.286 200.524 117.707 200.537 118.134C200.544 118.982 200.464 119.824 200.281 120.635C200.184 121.038 200.075 121.439 199.932 121.818C199.852 122.031 199.753 122.255 199.654 122.46L185.309 126.545L177.888 128.648C176.669 128.981 175.432 129.298 174.204 129.577C173.589 129.712 172.975 129.846 172.367 129.956C171.829 130.057 171.169 130.154 170.77 130.184C168.5 129.689 166.268 129.308 164.001 128.978C161.67 128.645 159.326 128.402 156.973 128.226C154.617 128.079 152.253 127.986 149.876 128.064C148.688 128.087 147.497 128.184 146.308 128.278C145.117 128.429 143.926 128.531 142.739 128.793C141.548 128.978 140.374 129.331 139.199 129.663C137.98 130.095 137.007 130.405 135.844 130.949C134.701 131.426 133.645 131.992 132.582 132.548C131.545 133.152 130.503 133.75 129.517 134.428C128.514 135.083 127.551 135.796 126.611 136.534C125.668 137.268 124.757 138.041 123.874 138.845C122.988 139.645 122.134 140.481 121.309 141.347C120.48 142.225 119.701 143.089 118.918 144.092L118.852 144.178L118.792 144.297L114.82 152.221C113.316 151.752 111.822 151.327 110.303 150.95C108.409 150.488 106.505 150.061 104.573 149.744C102.646 149.401 100.694 149.169 98.7264 149.017C97.7366 148.976 96.7545 148.887 95.7545 148.918C94.76 148.901 93.7593 148.953 92.754 149.05C91.7526 149.096 90.7415 149.335 89.7381 149.497L88.2372 149.916L87.8629 150.022L87.7687 150.048L87.6516 150.088L87.4833 150.15L86.8086 150.403C85.9225 150.714 84.981 151.132 84.0608 151.523C83.165 151.943 82.2687 152.364 81.398 152.836C79.651 153.766 77.9633 154.807 76.3511 155.964C75.5415 156.536 74.7599 157.15 73.9925 157.785C73.6721 158.052 73.3661 158.323 73.0599 158.597C70.3714 154.126 67.5289 149.789 64.3623 145.615C62.5889 143.304 60.7277 141.044 58.5806 138.959C58.0617 138.427 57.4522 137.951 56.8903 137.446L55.2869 136.07C54.3068 135.159 53.3163 134.183 52.3902 133.138C51.4571 132.106 50.5646 131.028 49.7205 129.912C48.8639 128.805 48.0617 127.653 47.2845 126.485C45.7354 124.148 44.3421 121.698 43.1518 119.179C42.552 117.92 42.017 116.638 41.5788 115.35C41.3571 114.724 41.1677 114.053 40.9712 113.358C40.7952 112.703 40.6289 112.035 40.4763 111.354C40.1759 109.996 39.9324 108.624 39.7546 107.245C39.6373 106.321 39.5554 105.382 39.498 104.458C39.6881 104.437 39.8776 104.415 40.071 104.389C40.732 104.302 41.3926 104.181 42.0538 104.047C42.7156 103.906 43.3786 103.731 44.0432 103.523C44.7088 103.298 45.3764 103.043 46.0447 102.683C46.704 102.295 47.3973 101.893 47.9779 101.131C48.2918 100.812 48.4916 100.303 48.6932 99.8539C48.7635 99.6115 48.7963 99.3524 48.8351 99.0984L48.8801 98.7155C48.8859 98.7535 48.8892 98.5886 48.8936 98.5358L48.9194 98.0607L48.9748 97.7175C48.9923 97.5162 49.083 97.2226 49.1366 96.9719C49.2932 96.4423 49.4846 95.9045 49.7198 95.3254C49.9498 94.7398 50.2063 94.1311 50.4254 93.4283C50.638 92.7239 50.8023 91.9188 50.7702 91.0527C50.7425 90.1751 50.4435 89.3288 50.0671 88.6029C49.6218 87.8457 49.2693 87.3969 48.8814 86.8641C47.4643 84.9488 46.0009 83.1193 44.4787 81.3013C44.5458 80.3874 44.4897 79.5938 44.3756 78.7359C44.2217 77.6884 43.962 76.6574 43.572 75.6791C42.8201 73.7077 41.6098 71.9441 40.1772 70.4643C39.4819 69.745 38.8233 69.1215 38.1067 68.4369C37.4018 67.7803 36.6896 67.127 35.9485 66.4968C34.4631 65.2381 32.9269 64.0123 31.1058 63.011C30.1869 62.5226 29.2053 62.064 28.0075 61.8561C27.4068 61.7654 26.7476 61.7176 26.0536 61.8809C25.8538 61.932 25.77 61.9337 25.4781 62.0326L25.1487 62.163C24.9735 62.2191 24.5713 62.4385 24.3007 62.5853C23.2451 63.2238 22.497 64.1212 21.9313 64.6854C21.3332 65.2595 21.029 65.4228 20.4078 65.4492C20.2641 65.4673 20.0869 65.4409 19.9155 65.4278L19.1951 65.3585C18.9565 65.3354 18.6046 65.337 18.3154 65.3321C18.0272 65.3453 17.7502 65.3618 17.4693 65.3914C16.3493 65.5267 15.2518 65.8666 14.2459 66.4225C13.2497 66.9933 12.312 67.7588 11.6521 68.9136C11.4955 69.2122 11.3543 69.5257 11.257 69.8771L11.0709 70.6013L10.8033 71.6752C9.37863 73.4256 8.01119 75.1726 6.72936 77.0978C6.39233 77.6027 6.06948 78.1388 5.75752 78.7211C5.60624 79.0379 5.45018 79.3397 5.31622 79.7852L5.08411 80.6002C4.92821 81.1083 4.7446 81.6213 4.54284 82.1295C4.35279 82.6078 4.13503 83.1061 3.92288 83.5465C3.57759 84.0299 3.28493 84.4819 2.99112 84.9636C2.67603 85.4882 2.37512 86.0228 2.09533 86.5705C1.53476 87.6659 1.05337 88.819 0.698849 90.0464C0.517216 90.6568 0.387714 91.2968 0.292856 91.9485C0.21235 92.5687 0.163356 93.1231 0.113205 93.7599C0.02544 94.956 -0.00986578 96.1487 0.00234207 97.3497C0.0165296 98.5507 0.0750949 99.7549 0.234952 100.987C0.317437 101.604 0.41477 102.221 0.591949 102.87C0.75824 103.508 0.972868 104.183 1.47735 104.925C1.63985 105.12 1.72612 105.295 1.97094 105.486C2.18755 105.659 2.48532 105.877 2.67405 105.953C2.90534 106.065 3.26118 106.21 3.59046 106.331C4.20448 106.55 4.80135 106.712 5.39739 106.859C6.28411 107.073 7.154 107.231 8.0389 107.372C8.52788 109.137 8.90236 111.036 9.164 112.897C9.46112 115.061 9.65117 117.245 9.66865 119.429C9.67377 121.612 9.61322 123.801 9.327 125.964C9.22653 127.049 9.00283 128.118 8.83984 129.196L8.13558 132.465C7.9099 133.564 7.67019 134.65 7.54333 135.836C7.37704 137 7.23533 138.159 7.16951 139.29C6.96461 141.572 6.90852 143.847 6.8879 146.118C6.86282 148.39 6.94069 150.655 7.02004 152.92C7.15086 155.18 7.27707 157.442 7.49367 159.694C7.68504 161.949 7.94025 164.198 8.23472 166.441C8.51765 168.686 8.87976 170.922 9.25292 173.155C9.66205 175.386 10.1055 177.611 10.6288 179.827C10.8904 180.935 11.2035 182.036 11.4891 183.139C11.8184 184.24 12.1605 185.337 12.5324 186.431L13.1645 188.062L13.3231 188.47L13.4204 188.711L13.51 188.902L13.8708 189.661C14.3167 190.667 14.907 191.708 15.4773 192.741C16.6604 194.739 17.9693 196.639 19.3986 198.445C20.8383 200.242 22.3861 201.943 24.0229 203.551C25.5509 205.044 27.1259 206.433 28.8625 207.758C29.4798 210.445 30.3106 212.998 31.4093 215.523C32.6156 218.151 34.0811 220.814 36.6361 222.807C39.3717 224.621 42.3187 225.115 45.1244 225.59C47.9535 226.015 50.7553 226.233 53.4749 226.596C54.8281 226.784 56.1652 227.007 57.42 227.347C58.0366 227.533 58.6327 227.738 59.1779 227.993C59.8604 228.292 60.4365 228.587 61.1401 228.858C63.8421 229.955 66.4908 230.852 69.2289 231.629C71.9457 232.434 74.7078 233.07 77.4826 233.634C80.2614 234.177 83.0626 234.612 85.8826 234.911C88.7019 235.193 91.5355 235.402 94.3766 235.381L96.5057 235.394L98.6357 235.277C100.055 235.196 101.477 235.15 102.886 234.926C104.294 234.714 105.72 234.63 107.112 234.312L111.296 233.416L115.39 232.154C116.759 231.745 118.042 231.087 119.37 230.565C120.711 230.034 121.969 229.407 123.217 228.792L126.985 226.931C129.498 225.679 131.996 224.409 134.478 223.095C136.962 221.789 139.429 220.441 141.865 219.024C143.086 218.321 144.292 217.584 145.49 216.822C145.993 216.493 146.494 216.157 146.994 215.809C147.428 215.706 147.867 215.639 148.309 215.611C148.972 216.82 149.658 218.003 150.392 219.164C151.463 220.855 152.601 222.502 153.819 224.092C155.031 225.684 156.302 227.235 157.669 228.703C158.336 229.453 159.057 230.153 159.761 230.867L161.927 232.898C162.65 233.578 163.366 234.261 163.956 234.967C164.601 235.642 165.167 236.432 165.763 237.179C166.307 237.971 166.885 238.74 167.37 239.574C167.884 240.388 168.353 241.231 168.803 242.085C169.242 242.945 169.681 243.806 170.059 244.698C170.456 245.579 170.811 246.482 171.152 247.387C171.799 249.146 172.363 250.979 172.763 252.769C170.847 261.664 168.978 270.563 167.251 279.499L165.999 286.269C165.614 288.541 165.209 290.785 164.987 293.135C164.658 297.601 164.531 302.042 164.517 306.508C162.246 307.702 160.045 308.979 157.902 310.39C156.775 311.144 155.67 311.934 154.609 312.798C153.57 313.668 152.481 314.592 151.719 315.783C150.948 316.985 150.338 318.229 149.8 319.46C149.248 320.697 148.754 321.953 148.276 323.211C147.324 325.73 146.474 328.279 145.676 330.843C144.879 333.408 144.13 335.987 143.451 338.585C143.116 339.887 142.794 341.192 142.497 342.505C142.22 343.82 141.928 345.151 141.784 346.499C141.476 349.206 141.453 351.897 141.509 354.586C141.568 357.238 141.727 359.878 141.967 362.521C139.156 368.013 136.6 373.622 134.441 379.399C133.368 382.309 132.4 385.265 131.708 388.299L131.308 390.594L131.058 392.918C130.921 394.467 130.833 396.013 130.775 397.562C130.658 400.659 130.647 403.755 130.679 406.85C130.709 409.945 130.796 413.038 130.905 416.131C130.952 417.372 131.022 418.611 131.077 419.851C131.379 428.882 131.909 436.207 131.909 436.207L143.594 439.011C143.594 439.011 143.127 423.586 146.399 411.903C149.67 400.218 154.344 389.469 149.203 395.076C144.061 400.685 145.93 395.076 148.735 384.793C151.539 374.512 156.213 360.49 161.355 353.012C166.495 345.534 191.267 322.632 206.224 322.632C221.18 322.632 207.157 345.067 204.354 351.143C201.55 357.218 173.04 389.936 173.04 389.936C173.04 389.936 202.952 361.892 209.495 360.023C216.038 358.154 182.854 438.076 182.854 438.076L239.874 435.74C239.874 435.74 239.998 434.791 240.204 433.217L241.252 433.318C241.788 427.488 242.38 421.645 243.128 415.852C243.319 414.404 243.52 412.961 243.75 411.532C243.872 410.822 243.982 410.102 244.127 409.412C244.263 408.694 244.414 408.076 244.612 407.396C244.827 406.677 245.038 406.045 245.279 405.359C245.516 404.686 245.769 404.016 246.039 403.354C246.307 402.691 246.592 402.036 246.891 401.389C247.156 400.815 247.443 400.233 247.727 399.7C251.587 396.658 255.329 393.525 258.877 390.087C259.783 389.215 260.661 388.299 261.517 387.355C262.38 386.369 263.148 385.414 263.917 384.402C264.683 383.399 265.425 382.381 266.133 381.326C266.486 380.796 266.831 380.26 267.159 379.706C267.469 379.173 267.75 378.688 268.038 378.048C269.14 376.429 270.117 374.816 271.054 373.145C272.011 371.457 272.906 369.735 273.736 367.983C274.169 367.115 274.569 366.232 274.949 365.338C275.333 364.449 275.739 363.568 276.074 362.656C276.419 361.75 276.787 360.851 277.112 359.937L278.034 357.176C278.355 356.26 278.567 355.308 278.839 354.376C279.103 353.442 279.36 352.505 279.54 351.548L280.137 348.693L280.54 345.801C280.703 344.841 280.762 343.867 280.812 342.894C280.856 341.921 280.959 340.951 280.955 339.976C280.876 338.026 280.939 336.069 280.609 334.136C280.47 333.164 280.396 332.206 280.205 331.224L279.622 328.408C279.228 326.536 278.702 324.638 278.192 322.781C277.628 320.933 277.074 319.082 276.399 317.272C275.784 315.441 275.03 313.665 274.31 311.875C273.545 310.104 272.765 308.341 271.91 306.612C271.064 304.88 270.181 303.166 269.238 301.485C267.396 298.18 265.418 294.97 263.16 291.903C263.718 288.79 264.348 285.679 265.039 282.587C265.75 279.43 266.524 276.285 267.436 273.186C267.89 271.633 268.4 270.102 268.949 268.588C269.548 267.08 270.142 265.63 270.981 264.224C272.577 261.44 274.525 258.838 276.674 256.431C277.748 255.227 278.874 254.064 280.055 252.965C281.264 251.883 282.427 250.746 283.597 249.623C285.924 247.359 288.216 245.058 290.421 242.674C292.591 240.277 294.834 237.855 296.308 234.939C297.67 232.354 298.759 229.633 299.62 226.845C300.333 226.903 301.042 226.971 301.755 227.014C304.23 227.17 306.826 227.218 309.276 227.147C311.792 227.066 314.317 226.888 316.794 226.623C319.281 226.359 321.761 226.035 324.224 225.626C326.692 225.24 329.143 224.76 331.588 224.254C336.47 223.173 341.32 221.965 346.069 220.139C348.427 219.24 350.888 218.052 352.86 216.206C354.82 214.449 356.464 212.549 358.063 210.594C361.164 206.752 363.939 202.748 366.572 198.591C369.533 196.545 372.455 194.48 375.337 192.29C376.076 191.723 376.812 191.152 377.543 190.542L377.818 190.312L378.006 190.147L378.132 190.029L378.636 189.544C379.017 189.121 379.397 188.687 379.676 188.272C380.888 186.579 381.629 184.702 382.155 182.811C382.66 180.912 382.949 178.977 382.987 177.031C383.026 176.057 382.972 175.082 382.899 174.106Z" fill="#1B326D"/>
<path d="M209.101 59.6469C209.101 59.6469 214.937 59.6469 218.438 56.9232C221.94 54.1996 221.551 51.8652 221.162 49.9186C220.772 47.9736 215.714 48.3629 214.159 46.4179C212.601 44.4712 219.606 42.1385 219.606 42.1385C216.493 41.7492 212.601 42.9155 210.267 46.8072C207.933 50.6972 211.046 52.2545 211.046 52.2545C211.046 52.2545 217.661 52.2545 216.493 54.9766C215.325 57.7002 209.101 59.6469 209.101 59.6469Z" fill="#1B326D"/>
</svg>
