<svg width="252" height="257" viewBox="0 0 252 257" fill="none" xmlns="http://www.w3.org/2000/svg">
<path d="M134.128 96.0513C132.474 95.0064 131.44 95.6761 129.109 93.2091C128.19 92.236 127.409 91.2242 125.953 88.5806C125.305 87.4125 122.777 81.4355 121.907 80.4126C120.923 79.2647 126.043 92.293 126.043 92.293C126.784 93.6488 127.656 94.9917 128.786 96.0642C131.755 98.8752 135.171 96.7118 134.128 96.0513Z" fill="#1B326D"/>
<path d="M135.044 95.5343C136.019 97.786 137.816 88.5382 137.564 88.8344C136.159 90.4974 134.926 95.2491 135.044 95.5343Z" fill="#1B326D"/>
<path d="M113.244 50.388C112.641 50.6492 112.098 50.8645 111.682 50.9804C111.263 51.0981 110.98 51.1294 110.98 51.1349C110.98 51.1294 111.245 51.2453 111.714 51.2655C112.175 51.2913 112.83 51.1937 113.471 50.916C114.113 50.6419 114.622 50.2795 114.975 50.0035C115.33 49.7257 115.535 49.5326 115.537 49.5326C115.537 49.5326 115.259 49.6025 114.837 49.7515C114.411 49.9005 113.851 50.1305 113.244 50.388Z" fill="#1B326D"/>
<path d="M129.417 45.0715C129.419 45.0697 130.248 45.0531 131.144 44.6963C132.048 44.3394 132.644 43.7451 132.642 43.747C132.642 43.7488 131.816 43.8132 130.931 44.1646C130.041 44.5178 129.417 45.0715 129.417 45.0715Z" fill="#1B326D"/>
<path d="M125.082 40.1762C125.048 40.0474 124.919 40.0327 124.659 40.2038C122.684 41.4603 122.102 42.7407 122.145 43.7525C121.854 42.829 121.76 42.6045 121.628 41.9331C121.451 41.0114 121.376 40.9507 121.412 41.9036C121.471 43.5887 122.032 45.995 123.305 47.1319C123.304 47.1319 123.304 47.13 123.304 47.1282C122.673 44.8434 124.244 44.0523 124.109 43.5851C124.085 43.506 124.096 43.3827 124.126 43.2337C124.275 43.1914 124.407 43.07 124.457 42.8529C125.456 39.0908 129.634 38.6604 129.634 38.6604C129.634 38.6604 126.933 38.5132 125.082 40.1762Z" fill="#1B326D"/>
<path d="M122.042 56.0541C121.527 56.0486 121.181 56.1663 120.824 56.525C120.747 56.6023 120.791 56.7366 120.894 56.7605C121.245 56.8396 121.595 56.9077 121.946 56.9757C122.294 57.0438 122.654 57.2646 122.998 57.1137C123.175 57.0364 123.34 56.8414 123.252 56.6317C123.057 56.1681 122.518 56.0559 122.042 56.0541Z" fill="#1B326D"/>
<path d="M120.375 95.4203C119.691 95.4332 113.554 98.005 111.521 98.2589C110.434 98.3932 121.034 100.661 121.361 96.1801C121.392 95.7238 121.019 95.4093 120.375 95.4203Z" fill="#1B326D"/>
<path d="M133.738 143.679C132.294 148.402 125.899 151.468 123.732 151.93C123.535 151.971 123.642 152.304 123.85 152.307C127.423 152.364 135.116 150.714 136.242 145.905C136.371 145.366 133.909 143.115 133.738 143.679Z" fill="#1B326D"/>
<path d="M145.614 201.39C145.476 200.632 145.081 200.325 144.179 201.164C143.589 201.707 143.388 203.212 143.186 203.955C142.818 205.292 142.171 208.05 144.084 208.642C145.986 209.227 145.469 206.896 145.329 205.863C145.289 205.581 145.87 202.755 145.614 201.39Z" fill="#1B326D"/>
<path d="M130.842 177.554C126.742 180.7 125.071 175.862 120.971 175.713C123.596 176.408 125.272 179.526 126.69 181.64C127.472 182.803 128.984 184.363 129.615 183.491C129.911 183.08 131.714 176.883 130.842 177.554Z" fill="#1B326D"/>
<path d="M123.515 194.451C122.594 197.413 122.165 201.056 122.507 204.12C123.265 210.927 126.67 216.251 127.365 214.032C128.07 211.795 124.225 208.793 123.771 203.245C123.482 199.748 123.265 197.902 123.515 194.451Z" fill="#1B326D"/>
<path d="M104.447 44.2436C103.533 45.307 103.104 46.2875 103.049 47.6672C103.007 48.69 103.259 46.7014 104.456 45.3161C106.127 43.3827 108.097 42.2072 109.869 42.5181C112.542 42.9853 115.008 43.3367 115.45 43.2465C115.763 43.184 115.989 42.0673 115.818 41.7344C114.985 40.11 107.72 40.4485 104.447 44.2436Z" fill="#1B326D"/>
<path d="M110.772 44.4073C109.502 44.8267 108.533 45.6178 108.533 45.6178C108.533 45.6178 109.644 45.0383 110.878 44.8249C111.572 44.7017 112.376 44.6888 113.139 44.8783C114.97 45.3198 115.351 46.4364 115.869 45.8901C116.017 45.7374 116.033 45.4522 115.737 45.2278C114.385 44.1571 112.58 43.8058 110.772 44.4073Z" fill="#1B326D"/>
<path d="M126.832 64.568C123.526 65.5779 121.76 65.026 123.434 65.6681C123.485 65.6883 123.54 65.6975 123.594 65.7177C123.036 66.3947 125.774 67.171 126.046 67.1563C126.563 67.125 127.08 66.6725 127.632 66.4812C128.206 66.2825 128.811 66.3377 129.289 65.9845C129.429 65.8778 131.002 63.4642 130.239 63.3152C130.27 63.2692 130.303 63.225 130.332 63.1753C131.324 61.3891 129.865 63.6408 126.832 64.568Z" fill="#1B326D"/>
<path d="M132.507 58.0776C131.676 57.8495 131.678 58.3793 131.194 58.7105C130.618 59.1023 130.009 58.8871 129.327 58.9441C128.589 59.003 127.886 59.1281 127.217 59.45C126.714 59.691 126.218 60.5262 125.726 60.7414C125.106 61.0082 124.483 60.6402 123.819 60.8242C122.919 61.0689 122.244 61.8176 121.398 62.1653C120.802 62.4118 119.68 62.0825 119.223 62.3492C119.065 62.4394 118.89 62.5902 118.78 62.7374C118.511 63.0924 118.964 63.6094 119.337 63.3187C120.404 62.5038 121.392 63.5284 122.496 62.9839C124.501 61.9942 125.474 62.5277 126.53 62.077C127.11 61.8286 127.652 60.929 128.41 60.5942C129.816 59.9688 131.172 60.0295 131.928 58.8006C132.088 58.8466 132.261 58.8797 132.426 58.8797C132.903 58.8797 132.943 58.1972 132.507 58.0776Z" fill="#1B326D"/>
<path d="M119.602 56.411C119.536 56.1608 119.545 55.9878 119.538 55.9878C119.545 55.9878 119.463 56.1424 119.455 56.4257C119.444 56.7072 119.577 57.1303 119.915 57.4246C120.246 57.7226 120.631 57.8441 120.901 57.8919C121.173 57.9397 121.346 57.925 121.346 57.925C121.357 57.9158 120.679 57.7208 120.106 57.2167C119.827 56.9647 119.661 56.6593 119.602 56.411Z" fill="#1B326D"/>
<path d="M128.795 52.4723C127.891 51.8799 126.58 51.6573 127.636 53.0389C127.803 53.2615 128.018 53.6405 127.969 54.082C127.923 54.5235 127.479 55.3771 127.279 55.5574C125.986 56.6998 127.238 55.0147 127.479 54.1776C127.849 52.9065 123.364 49.4681 124.795 51.2839C125.088 51.6499 126.284 53.2063 125.239 54.3046C125.478 54.1132 125.772 53.9145 126.114 53.7306C125.894 54.3266 124.99 54.8988 124.328 55.1379C124.402 55.504 124.645 56.1975 124.604 56.8727C124.573 57.4172 127.433 57.4797 128.098 57.2663C130.261 56.5783 128.635 54.6394 128.263 53.8354C127.702 52.6139 135.559 56.8929 128.795 52.4723Z" fill="#1B326D"/>
<path d="M114.402 46.8265C113.421 46.4807 112.685 46.5064 111.881 46.6113C112.016 46.5635 112.264 46.3777 112.538 46.1459C112.648 46.0465 111.307 46.2084 110.148 46.7125C109.414 47.0307 108.263 47.796 108.11 48.4859C108.07 48.6606 108.441 48.3075 108.59 48.3718C108.209 48.806 107.806 49.0543 107.477 49.1757C108.106 48.2467 108.128 46.9958 108.892 46.3317C109.241 46.0337 108.43 46.225 107.663 47.452C107.1 48.3571 106.613 50.1121 105.168 49.6706C104.475 49.4572 105.868 50.5775 107.608 49.781C107.604 49.7828 107.597 49.7865 107.593 49.7902C107.209 50.1342 107.606 50.274 107.709 50.3494C108.616 50.9786 110.375 50.5095 109.902 50.5389C109.723 50.55 109.39 50.5352 108.829 50.2354C108.726 50.1802 108.489 50.0809 108.373 50.0698C108.408 50.0349 108.443 49.9999 108.476 49.9594C108.623 49.7755 108.737 49.1905 109.882 48.3369C109.885 48.3498 109.889 48.3608 109.889 48.3737C110.005 48.2431 110.169 48.1566 110.356 48.1566C110.7 48.1566 110.972 48.4325 110.972 48.7673C110.972 49.0451 110.79 49.2733 110.536 49.3487C111.011 49.6633 111.642 49.6927 112.157 49.3965C112.185 49.3818 112.212 49.3652 112.244 49.3469C112.253 49.3413 112.26 49.3376 112.268 49.3321C112.273 49.3284 112.277 49.3229 112.282 49.3192C112.345 49.2769 112.402 49.2309 112.452 49.1757C112.981 48.6643 113.079 47.8347 112.636 47.2147C112.634 47.2092 112.63 47.2055 112.626 47.2018C112.884 47.1871 113.152 47.2 113.427 47.2404C113.714 47.2846 114.089 47.3085 114.324 47.5035C114.731 47.8365 114.357 48.1216 115.044 47.8604C114.935 47.9708 114.823 48.0756 114.742 48.2136C114.584 48.4932 114.919 48.7526 115.172 48.679C115.638 48.5484 116.23 47.7666 116.083 47.2736C115.927 46.7548 115.778 47.314 114.402 46.8265Z" fill="#1B326D"/>
<path d="M135.133 39.731C134.207 40.9176 132.793 39.7623 131.805 39.3465C130.469 38.7817 129.689 39.089 130.149 39.135C131.161 39.2398 131.904 40.2461 132.955 40.649C132.616 40.7373 132.145 40.7667 131.582 40.6306C131.661 40.4908 132.175 40.568 132.038 40.4466C131.516 39.9683 130.131 40.0032 129.345 40.1651C128.103 40.4135 126.913 41.0519 127.062 41.0666C127.423 41.1034 127.732 41.1089 127.872 41.0739C127.15 41.4473 126.534 41.8502 125.934 42.6909C125.09 43.8793 124.65 43.504 124.823 44.0191C124.985 44.5085 125.923 44.8065 126.376 44.6502C126.632 44.56 126.753 44.159 126.459 44.021C126.317 43.9529 126.161 43.9309 126.01 43.907C126.726 43.7285 126.255 43.7064 126.391 43.2005C126.47 42.9043 126.755 42.6726 126.972 42.4702C127.06 42.3874 127.149 42.3083 127.242 42.2384C127.242 42.2458 127.239 42.2568 127.239 42.266C127.32 42.2255 127.414 42.1998 127.515 42.1998C127.853 42.1998 128.129 42.472 128.129 42.8105C128.129 43.103 127.921 43.3477 127.647 43.4066C127.925 43.7009 128.319 43.8885 128.756 43.8885C129.601 43.8885 130.287 43.206 130.287 42.369C130.287 41.9716 130.131 41.6148 129.882 41.3462C131.816 41.2671 132.338 41.7877 132.594 41.8613C132.644 41.876 132.695 41.8852 132.743 41.8926C132.655 41.9662 132.519 42.1851 132.467 42.2881C132.18 42.8547 131.917 43.0552 131.762 43.1508C131.36 43.3974 133.072 42.7719 133.446 41.7399C133.488 41.6184 133.729 41.2799 133.218 41.2156C133.21 41.2137 133.205 41.2156 133.197 41.2192C135.085 40.8734 135.576 39.1626 135.133 39.731Z" fill="#1B326D"/>
<path d="M250.518 250.805C250.47 250.974 250.389 251.173 250.278 251.364C249.268 252.295 247.227 252.085 246.062 251.938C243.731 251.647 241.393 251.029 239.031 251.364C236.562 251.715 234.506 253.375 232.156 253.5C226.251 253.814 222.456 250.913 217.555 248.805C215.931 248.102 214.5 248.864 213.26 247.951C210.611 245.996 207.062 236.79 204.669 232.158C195.783 214.965 183.239 199.97 181.903 177.107C181.108 163.431 172.709 152.029 176.32 139.551C177.317 140.127 176.237 142.763 177.609 142.966C178.15 135.007 178.752 127.52 177.58 120.741C177.598 120.449 177.6 120.154 177.573 119.858C177.161 115.662 174.808 111.749 175.137 113.508C175.645 116.205 175.847 118.096 175.812 119.361C175.682 119.937 175.439 120.43 175.032 120.774C171.117 119.648 163.542 105.284 163.391 96.2832C163.477 93.6599 164.338 91.4578 166.583 90.4C174.729 86.5644 186.213 91.261 188.861 98.7796C192.834 110.088 190.22 119.486 191.353 128.883C192.474 138.157 191.751 150.729 192.211 159.182C192.558 165.429 198.543 171.515 201.661 178.386C208.475 193.394 209.597 215.145 216.163 230.313C219.575 238.203 224.663 242.907 224.947 243.062C225.234 243.22 225.449 242.896 224.781 241.776C226.15 241.52 227.618 241.757 229.049 242.054C229.169 242.1 229.292 242.149 229.412 242.19C230.394 242.534 231.498 242.696 232.739 242.721C233.595 242.817 234.494 242.846 235.26 242.569C235.473 242.491 235.642 242.387 235.804 242.282C236.104 242.206 236.397 242.138 236.685 242.114C236.987 242.089 237.289 242.101 237.589 242.107C238.034 242.265 238.47 242.504 238.849 242.712C238.996 242.789 239.204 242.622 239.097 242.466C238.983 242.306 238.843 242.21 238.709 242.101C239.239 242.098 239.739 242.078 240.161 241.997C240.53 241.927 240.895 241.837 241.261 241.746C241.682 241.643 242.101 241.537 242.534 241.469C242.868 241.415 243.233 241.375 243.593 241.375C244.13 241.375 244.485 241.465 244.738 241.588C245.05 241.884 245.041 242.306 245.139 242.788C245.576 245.006 245.567 247.46 242.896 247.525C242.699 246.875 241.713 246.704 242.317 245.262C237.776 249.009 233.933 242.937 227.864 243.257C232.331 247.048 237.861 248.941 245.753 248.448C245.93 248.472 246.11 248.487 246.288 248.507C246.386 248.612 246.502 248.698 246.643 248.726C246.989 248.796 247.342 248.842 247.858 248.904C248.742 249.007 249.671 249.064 250.475 248.993C250.652 249.576 250.67 250.242 250.518 250.805ZM227.988 255.636L227.986 255.626C227.988 255.626 227.988 255.625 227.988 255.625V255.636ZM178.824 241.621C177.746 238.227 176.524 234.564 174.364 231.772C174.541 231.639 174.672 231.437 174.672 231.15C174.802 210.857 173.912 197.505 171.563 192.656C169.254 187.893 169.596 183.553 173.17 168.715C173.494 167.355 173.816 165.99 174.103 164.62C174.208 164.877 174.305 165.139 174.377 165.402C174.675 164.164 174.909 162.95 175.032 161.745C178.835 169.366 179.885 173.518 180.617 184.363C181.96 204.29 196.57 217.39 204.231 234.743C205.263 237.079 206.372 239.384 207.606 241.621H178.824ZM142.778 241.621C150.328 236.833 166.857 231.752 172.024 231.978C172.024 231.978 174.922 236.108 176.349 241.621H142.778ZM165.834 228.107C163.435 229.132 162.009 229.697 156.623 232.234C157.719 231.202 158.996 229.932 159.988 228.806C164.979 228.037 163.843 228.363 165.834 228.107ZM125.894 215.318C126.122 216.461 126.547 217.885 127.584 218.563C127.222 218.324 126.891 218.054 126.563 217.772C124.893 216.308 123.223 215.182 121.961 212.583C121.784 213.574 123.186 217.59 124.612 218.006C119.289 216.461 116.653 212.666 112.645 209.194C109.803 206.725 107.111 204.957 104.019 203.911C98.3747 201.999 101.609 203.537 103.007 204.165C107.164 206.05 111.55 209.365 113.309 213.51C109.887 211.884 106.515 210.462 103.456 209.573C100.299 208.655 96.9748 208.203 93.6966 208.589C91.9011 208.804 89.0901 209.428 89.184 207.68C89.3109 205.434 92.5192 199.518 93.6653 197.562C96.3235 193.026 99.0315 189.641 101.734 185.056C105.869 178.049 112.512 173.469 118.467 173.156C119.003 173.126 119.295 172.287 114.606 172.832C113.482 172.963 114.289 172.602 114.74 172.157C115.551 171.355 115.928 169.78 116.467 167.926C118.475 161.097 124.753 157.857 131.841 155.762C134.365 155.017 137.279 154.366 138.602 154.737C140.294 155.214 141.133 156.413 141.343 157.854C142.044 162.576 139.347 167.446 138.515 169.015C137.32 171.278 141.347 166.274 142.2 163.395C142.465 162.493 142.653 161.533 142.76 160.551C142.886 161.016 143.056 161.456 143.284 161.835C143.389 162.006 143.696 161.943 143.683 161.726C143.63 160.942 143.344 160.181 143.186 159.401C142.55 156.242 145.409 155.674 148.672 156.014C156.226 156.798 167.412 161.283 168.478 169.804C169.167 175.345 167.089 174.802 166.568 184.113C166.379 187.512 163.899 190.485 167.374 193.743C169.028 195.29 170.251 201.589 170.915 210.197C171.211 214.038 172.957 223.512 172.977 227.335C172.008 225.065 162.951 225.536 156.676 225.563C155.061 225.571 153.041 224.246 154.13 223.098C156.788 220.296 158.566 216.319 158.775 212.923C155.727 222.467 148.036 225.651 136.882 221.853C132.715 220.431 128.14 217.055 125.894 215.318ZM78.7624 241.621C84.3586 225.206 85.7862 206.823 103.115 215.335C115.838 221.582 124.363 234.888 129.877 241.621H78.7624ZM86.9764 183.934C77.5226 180.825 70.3572 165.507 62.0641 163.877C71.2586 170.959 78.0487 180.432 88.6964 186.07C73.6556 181.237 61.7735 173.275 53.4749 161.745C53.8336 160.679 56.8304 162.236 56.4827 160.464C53.8281 159.629 52.2497 158.518 51.019 157.28C43.2686 149.447 38.2887 147.143 37.3781 147.143C36.4694 147.143 35.2074 146.523 34.8707 144.314C33.7854 137.189 37.2457 121.232 43.1656 129.308C40.3951 130.53 39.9205 136.323 41.3554 139.492C41.5081 139.831 41.7951 139.733 41.7694 139.408C41.6902 138.493 41.5412 137.634 41.7436 136.902C42.1906 135.267 42.7094 132.34 43.7322 131.492C44.79 130.629 47.6598 131.58 47.0325 133.848C46.9424 134.17 46.4199 139.518 45.5443 140.786C45.0733 141.468 46.0189 141.766 46.1863 140.764C46.5469 138.628 47.7297 134.231 47.8125 133.905C48.552 130.879 53.3259 131.874 52.7317 134.765C52.6452 135.167 51.8763 139.627 51.2931 141.599C51.0668 142.368 52.086 142.644 52.0437 141.836C51.9351 139.971 53.0536 135.27 53.1824 134.862C53.8078 132.87 55.2097 132.518 56.2435 132.986C56.2472 132.975 56.2509 132.964 56.2546 132.956C56.0761 133.644 55.9271 134.334 55.802 135.006C54.9208 139.68 54.7571 148.606 57.7814 152.232C58.3021 152.797 58.7252 153.181 59.439 153.413C59.7351 153.507 60.4269 153.599 62.2591 153.777C62.765 155.148 63.1164 156.422 63.3537 157.902C64.7537 156.625 63.9534 159.535 71.9448 163.45C84.8111 169.752 98.9781 167.394 99.0039 178.386C99.0131 182.821 92.9589 185.903 86.9764 183.934ZM32.7404 140.385C32.6632 140.212 32.608 140.053 32.5546 139.866L33.9638 139.987C33.9711 139.917 33.9767 139.846 33.9859 139.778L32.5013 139.654C32.1168 137.984 32.3854 135.372 33.1838 134.237L34.7659 134.358C34.7935 134.224 34.8266 134.093 34.8523 133.957C34.3943 136.179 34.0944 138.501 33.9123 140.558C33.9123 140.534 33.9141 140.51 33.9178 140.484L32.7404 140.385ZM43.482 126.462C44.2675 126.536 44.8709 126.578 44.9206 126.582C44.9813 126.589 45.0383 126.584 45.0991 126.571C45.3952 126.514 46.8577 126.295 47.3563 126.295C47.3581 126.295 47.3581 126.295 47.3581 126.295C48.013 126.324 48.4325 126.534 48.6624 126.9C48.8188 127.375 48.6882 127.862 48.5428 128.133C47.6193 129.877 43.4857 129.189 43.1656 126.747C43.2171 126.6 43.3385 126.519 43.482 126.462ZM57.2572 131.19C57.4448 131.122 57.603 130.988 57.6785 130.791C58.1917 129.466 58.7546 128.433 59.4095 127.623C59.4445 127.579 59.4941 127.533 59.5328 127.487L88.7351 129.551C88.7203 129.568 88.5493 129.818 88.5088 129.879H88.5106C87.9679 130.697 87.5173 131.657 87.1659 132.57C85.8248 136.039 85.0632 140.927 85.2913 145.723C85.317 146.301 85.3612 146.862 85.4146 147.408C85.5378 148.674 85.7365 149.833 85.9903 150.87C85.9848 150.845 85.9793 150.821 85.9738 150.802C85.9683 150.793 85.9683 150.784 85.9628 150.773L56.3926 148.17C55.252 143.335 55.585 136.21 57.2572 131.19ZM90.6317 143.418C90.6961 144.18 90.8507 144.802 91.0622 145.239C91.0622 145.239 91.0604 145.239 91.0604 145.238C91.0585 145.236 91.0604 145.238 91.0585 145.236L90.479 145.188C90.4036 145.041 90.3411 144.882 90.2712 144.645L90.858 144.693C90.847 144.673 90.7955 144.472 90.7955 144.467L90.2104 144.417C90.2031 144.378 90.0173 143.405 90.0541 143.407C89.8959 141.586 90.3061 139.625 90.9555 138.734L91.5387 138.784C91.5387 138.784 90.3852 140.34 90.6317 143.418ZM87.107 153.97C87.1162 153.981 87.1217 153.994 87.1328 154.009H87.1309C87.1217 153.994 87.1162 153.981 87.107 153.97ZM68.6941 154.822C71.6872 155.089 75.6388 155.442 80.8652 155.917C81.1135 156.439 81.3563 156.932 81.59 157.401C82.7434 159.734 83.5988 161.465 83.1978 163.713C81.5201 163.2 79.7687 162.804 78.0707 162.423C72.7487 161.228 67.7228 160.096 65.484 155.565C65.3184 155.23 65.1676 154.877 65.0296 154.495L68.6941 154.822ZM86.0915 151.246C86.3362 152.164 86.6287 152.981 86.9598 153.669C86.958 153.665 86.958 153.661 86.9543 153.658C86.9727 153.7 86.9911 153.731 87.004 153.764C86.9764 153.707 86.9543 153.665 86.9488 153.648L57.3271 150.972C57.0272 150.346 56.7917 149.632 56.6059 148.992L86.1909 151.617C86.1615 151.52 86.1099 151.321 86.0915 151.246ZM104.251 176.467C104.12 176.627 103.986 176.789 103.855 176.951C105.099 171.587 106.543 162.07 107.063 158.643C107.089 158.476 107.113 158.321 107.133 158.178C111.776 167.241 108.778 170.915 104.251 176.467ZM91.638 95.7699C90.9261 96.0826 90.2399 96.3696 89.6347 96.6033C89.1012 96.8093 89.3256 97.6665 89.8775 97.4605C94.5134 95.7368 98.6728 97.6224 100.834 97.6224C101.143 97.6224 100.969 97.1607 100.279 96.7449C100.334 96.1544 100.08 95.8251 99.5282 95.6448C98.8108 95.4112 97.6315 95.6228 96.7945 94.6018C96.6032 94.3663 96.6842 94.1327 97.0539 93.8622C104.028 91.5866 102.036 91.8405 105.785 90.7772C107.165 96.2427 108.507 101.736 110.331 107.087C111.824 111.488 113.436 114.873 116.221 118.677C115.513 118.727 116.49 119.54 118.287 119.972C120.384 120.478 123.554 121.46 128.191 123.489C136.908 127.294 136.768 139.526 138.58 126.225C142.086 126.116 142.471 125.156 144.96 123.134C146.411 121.955 156.112 113.458 156.875 109.869C159.029 99.6939 157.147 86.5405 156.996 86.259C157.534 86.3326 158.672 86.4246 159.474 86.4651C159.393 86.7484 160.661 101.892 163.148 107.792C166.608 115.993 169.112 118.434 171.406 123.346C171.41 123.353 171.414 123.359 171.417 123.366C171.831 124.367 172.208 125.371 172.514 126.372C174.381 133.291 171.732 139.895 167.569 143.023C162.291 146.989 154.734 146.709 150.977 144.441C154.084 151.939 165.784 152.259 168.283 151.617C169.278 154.623 168.783 159.642 168.242 160.838C162.957 156.91 151.52 153.424 145.455 154.117C151.384 152.811 152.841 151.939 152.497 152.013C149.077 152.751 145.526 152.916 142.044 153.161C141.372 153.211 140.697 153.26 140.026 153.314C140.39 153.192 140.754 153.076 141.109 152.971C141.422 152.881 153.118 149.675 149.745 150.098C146.893 150.453 144.091 151.003 141.328 151.785C139.61 152.27 137.737 152.66 135.953 153.207C133.986 153.807 111.898 159.517 113.949 163.312C113.21 161.943 110.467 152.944 110.106 152.821C113.094 153.367 114.804 153.65 117.766 152.797C117.544 152.901 111.534 151.871 107.542 147.521C104.361 143.304 104.017 137.285 104.464 130.572C104.973 128.589 105.597 126.494 106.064 123.953C107.258 117.476 106.296 109.538 105.351 103.138C105.104 101.449 104.817 99.7619 104.471 98.0897C104.149 96.5223 103.526 95.0911 103.055 93.5734C102.983 93.3434 102.654 93.4391 102.696 93.6727C103.184 96.4395 103.491 99.2781 103.927 102.061C104.44 105.308 104.799 108.583 104.988 111.863C105.148 114.659 105.148 117.47 104.896 120.257C104.795 121.381 104.431 123.364 103.726 125.049C102.977 126.626 101.874 127.581 100.295 127.601C97.626 127.64 96.7283 124.858 96.0476 121.933C95.8452 120.537 95.8306 119.133 95.8931 117.994C95.9924 115.513 94.3478 122.001 93.8529 122.481C99.6257 132.364 103.312 142.36 101.394 153.702C100.886 156.71 100.834 160.012 100.218 162.951C99.0977 168.308 90.4036 166.831 86.66 165.074L85.2545 159.178C84.3126 158.201 83.4682 156.998 82.7416 155.626C84.8737 155.819 87.1898 156.033 89.7285 156.266C89.7285 156.266 89.7285 156.266 89.7303 156.266C90.2657 156.294 90.7495 156.231 91.2278 155.992C95.6907 153.897 96.8792 143.427 96.64 138.47C96.4763 138.127 96.434 129.172 92.269 127.866C91.8606 127.737 91.6104 127.73 91.3051 127.708C87.9146 127.474 84.5683 127.242 81.2147 127.012C73.3263 113.268 77.907 96.87 91.638 95.7699ZM111.173 87.0703C114.264 84.8186 115.316 83.2696 115.504 85.9776C115.746 89.5391 116.534 97.4127 118.467 92.1109C120.721 85.9481 115.421 76.176 113.329 69.592C113.666 69.8955 114.006 70.1935 114.35 70.486C116.9 72.6035 120.106 74.1855 123.443 74.7098C129.43 80.3372 135.522 84.5445 137.266 76.7978C138.917 77.5245 140.046 80.6187 140.511 82.6147C140.824 84.7634 141.268 86.925 141.88 89.1178C142.292 90.5674 143.089 91.9637 144.467 92.6922C145.523 93.2478 152.189 93.8843 156.641 93.0804C156.82 96.1176 155.199 96.6143 155.011 98.6784C154.726 101.855 156.099 102.777 155.037 107.349C153.551 113.736 147.655 117.647 143.53 122.056C143.619 121.959 144.399 118.664 144.101 118.425C143.918 119.875 142.899 121.907 140.58 122.711C140.318 122.801 138.111 123.186 138.045 122.961C137.634 121.503 135.648 118.699 135.267 119.731C133.547 117.829 131.722 117.45 131.722 117.45C132.34 118.353 134.608 120.94 133.72 122.147C132.873 123.293 129.198 122.351 128.171 121.988C125.631 121.087 123.083 120.176 120.454 119.582C118.18 119.071 116.664 117.097 115.87 114.503C114.873 111.265 114.661 107.617 112.751 105.145C109.683 101.167 108.333 95.9631 106.706 91.1929C106.243 89.8353 107.038 90.0836 111.173 87.0703ZM110.858 77.0204C110.154 76.7721 109.455 76.4556 109.12 75.8191C108.978 75.5487 108.964 75.2231 109.012 74.9177C110.08 76.2128 110.625 76.9266 110.743 76.8567C111.087 76.6672 107.409 69.6159 100.468 65.9145C92.4364 61.7515 89.8646 57.5038 90.2418 53.7951C90.3282 53.2285 90.4717 52.6563 90.7163 52.0824C91.8238 49.5253 94.4012 47.6084 95.8397 46.6922C95.9796 46.6039 96.0586 46.466 96.1065 46.3152C96.4854 46.4384 96.8662 46.5653 97.2415 46.6684C97.6757 46.7824 98.0381 46.8726 98.3563 46.9443C98.1282 47.0933 97.9222 47.2957 97.8008 47.6176C97.3059 48.955 97.856 50.2501 98.2257 51.5894C99.2982 55.4986 102.95 61.2401 106.499 61.7165C106.587 61.7294 106.721 61.6981 106.762 61.5914C108.195 63.7861 109.753 65.8906 111.537 67.8038C111.948 69.809 113.657 74.1267 114.034 75.9663C114.15 76.5256 114.234 77.0572 114.297 77.5741L114.019 77.5797C112.862 77.5797 111.627 77.2908 110.858 77.0204ZM140.27 36.1862C139.956 36.5688 139.654 36.9367 139.424 37.2623C139.202 37.575 139.054 37.8271 139.049 37.8234C139.054 37.8234 138.905 37.575 138.865 37.128C138.815 36.6865 138.922 36.015 139.376 35.465C139.599 35.1927 139.844 35.0695 140.042 35.0419C140.237 35.018 140.388 35.0879 140.475 35.2019C140.646 35.4429 140.587 35.809 140.27 36.1862ZM111.34 30.5477C111.81 30.5201 116.206 27.974 116.675 27.8765C124.547 26.2576 130.073 31.6036 133.683 32.8362C124.54 31.1419 118.567 28.3806 118.567 28.3806C117.454 28.3272 112.43 30.7022 111.34 30.5477ZM104 57.0788C104.688 58.2543 105.391 59.428 106.118 60.5815C102.806 59.9339 100.814 56.5012 99.5447 53.6682C99.0076 52.4742 98.6194 51.2306 98.5127 49.93C98.5017 49.7957 98.4943 49.6725 98.4869 49.551L101.995 53.5284C101.16 52.1652 100.106 49.746 98.4723 49.1371C98.4686 48.1713 98.7372 47.6893 99.8557 48.0334C100.536 48.2431 101.055 49.0028 101.412 49.5621C102.692 51.5691 103.237 53.9901 104.53 55.999C105.288 57.1763 106.132 58.2967 106.968 59.4152C111.837 65.9219 111.125 64.4576 108.375 59.6856C107.643 58.4236 106.596 57.3732 105.746 56.1884C105.036 55.1969 104.394 52.7722 104.212 52.4135C103.329 50.6696 102.6 48.8575 101.712 47.1135C99.048 41.9037 104.006 40.5737 107.382 37.9614C108.736 36.9146 110.007 35.7538 111.059 34.398C111.403 33.951 111.795 33.4525 112.141 32.9208C119.026 29.4071 121.195 33.8608 125.658 33.8075C131.31 33.7413 133.686 32.8693 135.327 36.7675C134.52 35.7961 133.631 35.2792 132.344 34.9536C127.472 33.7211 121.335 37.6027 121.598 39.4073C121.652 39.7789 122.481 40.5626 122.781 40.4357C123.186 40.2572 125.002 38.5556 126.915 36.6442C128.186 35.3749 130.48 35.2074 132.962 35.8311C134.108 36.1199 135.072 36.8318 135.454 37.0894C135.734 37.8124 135.995 38.6825 136.242 39.7366C136.549 41.017 138.045 43.2356 138.528 46.9627C138.865 49.6099 139.213 54.106 139.63 52.7925C139.8 52.2572 139.95 51.7071 140.081 51.146C140.333 50.0772 140.594 51.4937 140.526 53.3149C140.407 56.4938 140.083 59.6525 139.139 62.721C138.442 64.9745 136.547 67.3458 135.028 69.1634C131.247 73.6852 127.56 74.5958 121.668 72.7451C119.269 71.9927 116.278 70.8135 114.383 69.213C110.319 65.7876 107.444 61.1223 104.352 56.8746C104.201 56.6686 103.866 56.8488 104 57.0788ZM96.3824 25.4556C96.445 25.1796 96.3493 24.9405 96.1469 24.8283C96.5829 23.9784 97.2176 23.202 97.8781 22.7035C97.9057 23.5939 97.9866 24.2157 97.9866 24.2157C97.9921 24.2212 98.1816 23.7742 98.6194 23.0273C102.885 15.9281 110.514 13.9156 115.96 12.534C117.135 12.2434 117.693 11.9619 117.658 11.8239C117.625 11.6823 117.021 11.6823 115.838 11.754C107.444 12.3353 107.847 13.9744 107.431 8.85292C107.764 7.32419 109.126 5.57103 113 4.2281C117.98 2.50621 123.673 2.31853 127.678 3.68353C127.914 3.76263 128.094 3.83807 128.287 3.9135C128.569 4.0901 128.821 4.27406 129.027 4.4709C129.12 4.56288 129.163 4.61624 129.17 4.61624V4.6144C129.192 4.68799 129.253 4.7395 129.297 4.8002C124.126 3.41681 118.412 4.6273 115.927 7.99382C114.733 9.5943 114.663 11.2592 114.663 11.2592C114.674 11.2647 114.996 11.3511 115.998 9.6274C119.201 4.10483 128.421 4.30168 134.2 9.36433C137.949 12.6481 137.288 12.764 135.765 12.7952C133.289 12.8486 130.885 12.5303 128.385 10.1701C127.307 9.14172 126.473 7.9754 126.473 7.9754C126.477 7.9754 126.609 8.19615 126.895 8.60638C133.447 17.9094 138.777 10.2179 146.685 17.8984C151.844 22.847 151.976 33.423 146.299 39.159C145.764 39.5802 145.215 39.9574 144.632 40.2223C143.931 40.513 144.264 41.7676 144.342 42.5255C144.389 43.0001 144.435 43.4214 144.41 43.8224C144.399 43.9935 144.502 44.2216 144.607 44.3559C144.664 44.4479 144.719 44.5767 144.768 44.7367C144.776 44.8655 144.783 44.9906 144.79 45.1065C144.96 47.5495 144.651 48.99 143.407 50.8425C142.535 52.1376 142.811 53.0243 143.641 53.7583C143.201 54.2955 142.577 54.8087 141.818 55.2944C141.786 53.4308 141.637 51.5912 141.615 50.2189C144.489 51.4698 145.414 33.0496 139.181 33.7725C139.165 33.6861 139.143 33.5978 139.119 33.5021C139.169 33.4064 139.218 33.3181 139.281 33.1673C141.153 28.6565 142.438 24.372 140.53 19.8465C137.529 12.6205 126.488 11.1341 119.387 13.0105C118.062 13.3655 117.378 13.6746 117.374 13.6672C117.374 13.6746 118.09 13.4318 119.426 13.1834C126.098 11.9766 135.099 13.7095 137.866 20.5419C140.335 26.5649 139.323 29.9792 138.951 32.4811C138.716 29.9976 139.768 28.3879 136.168 23.34C136.157 23.3271 136.135 23.3289 136.12 23.3216C136.326 23.1156 136.72 22.8985 136.63 22.6189C135.175 18.1375 128.648 15.1849 125.973 14.5944C120.138 13.3067 112.95 14.4178 109.192 17.3115C109.633 19.7987 109.241 22.5526 108.268 24.5818C107.187 26.8574 105.525 28.7227 103.586 30.2809L103.537 30.5992C104.819 30.6304 106.088 30.8512 107.348 31.1253C107.35 31.1658 107.361 31.2063 107.383 31.2412C106.901 31.8924 106.355 32.5271 105.737 33.1508C104.745 34.1534 103.662 35.0621 102.58 35.9636C101.59 36.7877 100.189 37.6247 99.5319 38.7414C99.3461 39.0578 99.6018 39.3522 99.9035 39.3669C99.3829 39.7127 98.8678 40.0641 98.3692 40.4412C98.108 40.638 98.3251 41.0428 98.6323 40.8883C101.62 39.3908 104.534 37.7664 107.183 35.717C108.397 34.777 109.532 33.6953 110.459 32.472C110.636 32.5271 110.812 32.5786 110.991 32.6283C110.706 33.1397 110.399 33.6438 110.018 34.111C108.993 35.3785 107.751 36.4768 106.447 37.4536C105.213 38.3826 103.864 39.1572 102.47 39.8231C101.193 40.4339 99.8115 40.7816 98.5385 41.3923C98.4686 41.4254 98.4373 41.4787 98.4263 41.5358C98.3085 41.5358 98.1816 41.6369 98.2276 41.7694C98.728 43.2724 99.0278 44.8342 99.5558 46.3354C99.622 46.5249 99.6883 46.7217 99.7637 46.9167C99.6257 46.8394 99.4785 46.8027 99.3332 46.7695C98.4631 46.2747 96.1727 45.4156 94.7489 44.6963C86.2093 40.3382 94.7433 33.0716 96.3824 25.4556ZM146.884 81.2185C148.392 83.0268 150.173 84.4231 152.39 85.2527C153.654 85.7274 155.021 85.9058 156.336 86.1983C156.647 86.2701 156.838 89.0939 156.755 89.7985C156.49 92.0171 152.346 91.697 151.021 91.4725C149.349 91.1874 147.848 90.8452 146.485 89.8389C143.052 87.3021 144.711 78.6117 146.884 81.2185ZM161.463 86.7907C162.203 86.8091 163.159 86.7888 164.143 86.8017C165.065 86.8882 165.992 86.9581 166.923 87.0041C168.104 87.2046 168.974 87.602 169.015 88.3875C169.066 89.3882 164.899 89.4508 164.206 89.4729C162.142 89.5391 160.628 86.7686 161.463 86.7907ZM30.9652 125.8C30.4703 126.584 30.0656 127.491 29.7418 128.368H29.7437C26.7911 136.374 28.3897 144.678 28.6307 145.727L2.09587 143.389C0.603926 137.377 1.42075 127.342 4.6585 123.615L4.6603 123.613L31.1712 125.487C31.1602 125.498 31.002 125.747 30.9634 125.8H30.9652ZM3.05983 146.069C2.95129 145.87 2.85382 145.668 2.7692 145.471C2.59811 145.076 2.4491 144.636 2.30929 144.174L28.8367 146.527C28.9195 146.818 29.19 147.719 29.5266 148.459L3.05983 146.069ZM250.707 247.582C250.702 247.582 250.694 247.582 250.687 247.582C249.785 247.703 249.005 247.648 247.863 247.515C247.685 247.493 247.504 247.471 247.324 247.446C247.278 247.166 247.247 246.78 247.221 246.447C247.199 246.173 247.175 245.891 247.144 245.613C247.092 245.179 247.015 244.721 246.938 244.257C246.831 243.625 246.719 242.977 246.686 242.364C246.557 240.86 245.431 239.995 243.593 239.995C243.157 239.995 242.718 240.041 242.315 240.107C241.847 240.181 241.388 240.293 240.929 240.407C240.587 240.492 240.249 240.575 239.901 240.643C239.41 240.736 238.753 240.74 238.056 240.724C237.565 240.713 237.072 240.698 236.57 240.738C236.014 240.788 235.503 240.928 235.006 241.064C234.487 241.204 233.998 241.34 233.512 241.353L233.028 241.36C231.816 241.362 230.78 241.206 229.862 240.885C229.529 240.771 229.2 240.643 228.869 240.512C228.104 240.212 227.313 239.903 226.448 239.763C223.131 237.23 221.426 232.228 219.779 227.39C219.268 225.891 218.756 224.391 218.197 222.947C216.186 217.748 214.709 211.045 213.144 203.944C211.414 196.089 209.624 187.965 207.021 181.951C205.862 179.278 203.936 176.681 202.077 174.169C199.503 170.696 197.075 167.418 196.767 164.237C196.537 161.871 196.258 159.233 195.958 156.441C194.946 146.958 193.684 135.156 193.761 126.755C193.793 123.554 194.113 120.176 194.42 116.909C195.312 107.496 196.232 97.7622 190.124 91.6896C186.304 87.8963 180.233 85.6317 173.877 85.6317C173.509 85.6317 173.145 85.6409 172.782 85.6575C166.15 85.9426 159.281 85.1442 153.402 83.3634C151.43 82.7674 149.669 81.5422 148.015 79.6143C143.115 73.9243 141.807 64.4061 141.68 63.4384L141.722 61.3136C142.217 60.1491 142.467 58.6112 142.506 56.5104C143.219 56.0597 143.828 55.5777 144.321 55.0681C144.877 55.3845 145.499 55.677 146.146 55.9824C149.331 57.4817 149.264 56.5306 146.766 54.0269C146.682 53.9423 146.614 53.8742 146.555 53.8171C146.553 53.8153 146.551 53.8134 146.549 53.8134C146.534 53.7987 146.518 53.784 146.505 53.7711C146.518 53.7711 146.529 53.7711 146.542 53.7711C146.886 53.8226 147.809 54.1115 147.809 53.7233C147.809 53.7233 146.728 52.2443 146.236 51.2472L146.008 50.7873C146.759 48.0168 146.512 44.8526 145.795 43.6532C145.8 43.2337 145.756 42.8033 145.714 42.3857C145.677 42.0215 145.648 41.6554 145.618 41.2893C149.355 39.411 152.351 34.2214 152.957 28.537C153.582 22.6557 151.619 17.547 147.57 14.519C144.123 11.9527 141.198 11.8901 138.688 11.9748C138.539 11.6749 138.328 11.4192 138.081 11.2389C136.661 6.55705 132.412 5.81018 129.981 3.47752C128.261 1.82002 124.437 0.747498 120.239 0.747498C117.282 0.747498 114.381 1.26994 111.848 2.25966C108.98 3.38368 107.15 4.86276 106.405 6.6564C105.897 7.87793 105.906 9.24109 106.431 10.6134C106.236 11.2757 106.338 11.8589 106.451 12.3795C103.027 13.2772 100.494 14.6514 98.7169 16.5702C97.7897 17.5636 97.2783 19.2101 97.1937 21.4709C94.7175 22.1921 93.2091 25.8548 92.109 28.8221C91.6693 30.0399 91.1597 31.1805 90.6648 32.2825C88.9797 36.0408 87.3903 39.5913 90.3393 43.5759C90.8194 44.1996 91.3694 44.7165 92.0722 45.2022C92.6388 45.594 93.2808 45.949 94.0093 46.2728C92.4456 47.4189 90.4496 49.2273 89.4489 51.5379C86.7281 57.9103 92.5578 63.7898 98.9211 67.1692C101.051 68.2895 102.989 69.5552 105.535 72.0883C106.405 72.9566 107.1 73.7348 107.674 74.4026C107.496 75.0741 107.573 75.8394 107.899 76.4612C108.456 77.5208 109.477 77.9973 110.399 78.321C111.427 78.6853 112.636 78.9152 113.697 78.9557C113.839 83.9117 110.66 85.7807 107.492 87.8006C106.938 88.1538 106.394 88.5015 105.971 88.7793C105.566 88.6689 105.077 88.8805 104.891 89.3091C104.891 89.3091 102.249 90.7753 94.3975 93.2643C93.9008 93.4226 93.1447 93.5771 92.2672 93.7555C89.0681 94.4067 83.7147 95.4976 80.3243 99.0334C74.7281 104.869 73.7053 116.324 77.7948 126.083L61.6888 124.981C60.4213 124.981 59.2605 125.598 58.3352 126.758C57.7263 127.513 57.1891 128.423 56.7035 129.534C55.9326 129.452 55.0312 129.5 54.1776 129.564C53.6938 129.597 53.2118 129.634 52.7262 129.634C51.661 129.634 50.8258 129.446 50.0293 129.019C50.1967 128.501 50.2739 127.958 50.2463 127.47C50.1654 125.949 49.1076 124.994 47.3269 124.913C46.7529 124.913 45.3621 125.125 44.9298 125.2C44.4736 125.165 42.2476 124.998 40.8256 124.731C39.0412 124.393 37.9742 124.992 37.2512 125.818C36.611 124.556 35.8292 123.719 34.9112 123.322C34.5709 123.112 34.0815 123.063 33.824 123.052C33.8203 123.052 33.8166 123.052 33.813 123.052C25.439 122.474 19.7287 122.005 15.5565 121.663C11.3069 121.313 8.96688 121.122 7.47678 121.122C5.66843 121.122 5.0264 121.4 4.1213 122.193C4.01092 122.294 3.81041 122.491 3.62093 122.709C-0.413382 127.349 -1.01127 140.18 1.50167 146.016C2.58153 148.521 3.97599 149.097 4.9234 149.134C13.4023 149.918 19.2504 150.51 23.3252 150.92C28.3198 151.424 30.5991 151.654 31.8997 151.654C32.7515 151.654 33.2629 151.553 33.6989 151.31C34.4292 150.951 35.1025 150.35 35.7114 149.513C36.4381 150.194 37.2236 150.738 37.9392 151.233C38.6365 151.715 39.2932 152.171 39.7641 152.659C55.9805 169.528 71.1629 184.238 92.5964 193.298C92.6222 193.401 92.6682 193.5 92.7399 193.583C89.6751 199.043 87.2395 204.093 85.3115 208.983C82.7066 215.6 80.4604 222.451 79.1506 227.774C78.9777 228.475 78.6484 229.574 78.2492 230.909C77.4103 233.713 76.2771 237.501 75.5725 240.931H55.241C54.8602 240.931 54.5511 241.24 54.5511 241.621V245.015C54.5511 245.396 54.8602 245.705 55.241 245.705H209.255L209.284 245.748C209.444 245.987 209.604 246.241 209.77 246.5C210.574 247.755 211.483 249.177 212.752 250.01C213.618 250.575 214.586 250.748 215.522 250.915C216.304 251.053 217.04 251.184 217.638 251.535C218.964 252.31 219.88 253.049 220.692 253.7C222.467 255.13 223.867 256.259 227.853 256.324C227.857 256.324 227.984 256.325 227.988 256.325C229.796 256.325 231.496 255.77 233.462 255.13C235.705 254.399 238.245 253.57 241.66 253.336C242.442 253.279 243.29 253.371 244.097 253.459L245.549 253.614C246.239 253.697 246.951 253.779 247.679 253.779C248.792 253.779 249.688 253.57 250.42 253.139C251.112 252.729 251.607 252.05 251.848 251.169C252.114 250.192 252.028 249.048 251.61 248.089C251.471 247.791 251.141 247.582 250.707 247.582Z" fill="#1B326D"/>
</svg>
