<svg width="339" height="97" viewBox="0 0 339 97" fill="none" xmlns="http://www.w3.org/2000/svg">
<path d="M277.22 41.8111C256.568 38.5731 235.806 36.2716 214.998 34.9069C184.689 32.9192 154.284 32.9192 123.975 34.9069C103.168 36.2716 82.4053 38.5731 61.7528 41.8111C61.7522 41.8111 60.7581 43.0517 61.316 45.8998C61.9282 49.0282 62.9687 49.5659 62.969 49.5659C83.3881 46.3647 103.916 44.0891 124.489 42.7394C154.455 40.7744 184.518 40.7744 214.484 42.7394C235.057 44.0891 255.585 46.3647 276.004 49.5659C276.004 49.5659 277.045 49.0282 277.657 45.8998C278.215 43.0517 277.22 41.8111 277.22 41.8111Z" fill="white" fill-opacity="0.5"/>
<path d="M3.93091 48.9808L5.89661 61.8317L6.85595 61.6843L4.89027 48.8344L3.93091 48.9808Z" fill="white" fill-opacity="0.5"/>
<path d="M1.96965 54.6443C1.32736 55.1422 1.34676 57.0943 1.34676 57.0943C1.34676 57.0943 0.658501 55.2042 0.998714 53.5161C1.12949 52.8676 1.49661 51.8998 2.07215 51.3682C2.2145 51.2374 2.36912 51.1325 2.53599 51.0654C2.70218 52.0697 2.8711 53.0761 3.02537 54.0837C3.02537 54.0837 2.61193 54.1475 1.96965 54.6443ZM0.0795535 56.2685C0.490946 58.9599 2.41884 61.0366 4.85927 61.781L2.99268 49.5788C0.886336 51.0194 -0.33218 53.5774 0.0795535 56.2685Z" fill="white" fill-opacity="0.5"/>
<path d="M55.5719 92.158C55.0373 92.111 54.2438 91.9026 53.4319 91.3118C52.619 90.725 51.8067 89.7878 51.094 88.5801C50.8437 88.1633 50.6056 87.7056 50.373 87.2306C51.1764 88.6561 52.0203 89.832 52.8887 90.6848C53.8477 91.6192 54.8618 92.043 55.5627 92.1318C55.7402 92.1485 55.8958 92.1713 56.0297 92.1764C55.9033 92.1809 55.7572 92.1816 55.5719 92.158ZM56.6413 92.126C56.6413 92.126 56.5476 92.1284 56.3657 92.1328C56.2748 92.1346 56.1621 92.1373 56.0279 92.1407C55.8951 92.1284 55.7433 92.096 55.5716 92.0702C54.8874 91.9462 53.9434 91.4684 53.0467 90.5278C52.1565 89.5817 51.3014 88.2341 50.512 86.6012C49.7188 84.9672 49.0006 83.0396 48.2983 80.9125C46.8987 76.6518 45.7336 71.5349 44.6275 66.0311C43.5264 60.524 42.5657 54.6025 41.7256 48.6672C40.837 42.7333 40.0377 36.7903 39.4891 31.199C38.9469 25.6107 38.5581 20.3781 38.6633 15.8951C38.7147 13.6554 38.8597 11.6049 39.1598 9.81413C39.4629 8.0295 39.9019 6.48899 40.539 5.35823C41.1643 4.2205 41.9674 3.53001 42.5984 3.2362C42.7581 3.16733 42.893 3.08624 43.0214 3.0505C43.1504 3.01562 43.2591 2.98685 43.3466 2.96332C43.5223 2.91624 43.6133 2.89271 43.6133 2.89271C43.6133 2.89271 43.5213 2.91101 43.3432 2.94763C43.2537 2.96594 43.1426 2.98947 43.0108 3.01649C42.8787 3.04527 42.7391 3.1185 42.5725 3.17953C41.92 3.44108 41.0339 4.09583 40.3456 5.24577C39.64 6.38175 39.1254 7.93447 38.7389 9.73479C38.3516 11.5395 38.114 13.6109 38.0162 15.8716C37.8235 20.2124 37.9791 25.2543 38.4395 30.6203C38.5097 31.7231 38.5969 32.914 38.7093 34.1833C39.0028 37.675 39.4653 41.7379 40.0146 46.0776C40.2955 48.2476 40.5742 50.4936 40.9185 52.7672C41.2563 55.0418 41.6125 57.3514 42.0147 59.6546C42.8306 64.2589 43.7897 68.8428 44.9193 73.0852C45.4711 75.216 46.0912 77.2396 46.6729 79.1555C47.2437 81.0824 47.8488 82.8966 48.5204 84.5289C49.1828 86.1635 49.9238 87.616 50.7347 88.8094C51.5343 90.0074 52.4286 90.933 53.3069 91.4956C54.1838 92.0709 55.026 92.2088 55.5699 92.22C55.8471 92.235 56.0535 92.2034 56.1942 92.1853C56.3344 92.1686 56.407 92.1598 56.407 92.1598C56.407 92.1598 56.3341 92.1635 56.1931 92.1696C56.1492 92.172 56.0868 92.1737 56.0304 92.1764C56.1638 92.1652 56.2762 92.1557 56.3664 92.1485C56.548 92.1339 56.6413 92.126 56.6413 92.126Z" fill="white" fill-opacity="0.5"/>
<path d="M68.4288 44.3602C68.0832 42.0168 67.7225 39.7371 67.352 37.5419L69.1467 38.7876C69.4593 40.689 69.7652 42.6192 70.0543 44.5999C70.0859 44.8155 70.1152 45.028 70.1463 45.2425L68.4288 44.3602ZM69.1219 78.6335C68.6938 78.6962 68.2125 77.8958 67.6928 76.4053C67.5965 71.412 66.2908 59.4087 64.2525 45.4466C62.1942 31.3492 59.9908 19.3789 58.6592 14.6589C58.7448 13.1715 58.9892 12.318 59.4303 12.2535C60.36 12.1175 63.2837 26.8671 65.9598 45.1973C68.6363 63.528 70.0519 78.4977 69.1219 78.6335ZM70.7841 87.8016C64.9589 88.6527 60.4053 69.9275 56.9858 46.5077C53.7467 24.3221 52.3658 5.94237 57.4908 3.29812C55.7822 7.98244 54.4837 16.1584 56.1974 29.8L58.7965 31.6036C59.0689 34.2139 59.4095 37.0072 59.7984 39.9278L56.8679 38.4222C57.2034 40.9995 57.5715 43.6515 57.9675 46.3647C61.3303 69.3966 65.6614 87.8932 70.9286 87.7512C70.8805 87.7686 70.8341 87.7945 70.7841 87.8016ZM38.0794 94.8366L38.0726 94.7885C31.4777 94.7449 26.6254 75.4636 23.1198 51.4526C19.6086 27.4059 18.341 7.57965 25.0578 5.64768L25.051 5.60235L25.1188 5.59276C25.0071 5.72179 24.8985 5.85693 24.7905 5.99554C24.6069 6.26058 24.4224 6.53433 24.2763 6.8325C24.109 7.12019 23.996 7.43493 23.8642 7.7392C23.6322 8.35994 23.4589 8.99288 23.3315 9.58921C23.2093 10.1873 23.1218 10.747 23.0662 11.2282C22.9528 12.1899 22.9212 12.8324 22.9212 12.8324C22.9212 12.8324 23.0247 12.196 23.2433 11.2596C23.351 10.7915 23.4991 10.2509 23.683 9.68424C23.8717 9.11843 24.1074 8.53082 24.3893 7.97372C24.5449 7.70433 24.6816 7.42359 24.8627 7.1821C25.0248 6.92578 25.2165 6.70435 25.4001 6.49162C25.5963 6.29372 25.7843 6.10017 25.9876 5.95631C26.1456 5.83949 26.2971 5.73923 26.4501 5.65727C26.4215 5.69389 26.3918 5.72876 26.3632 5.76538C26.1796 6.03129 25.9951 6.30504 25.8489 6.6032C25.6817 6.89091 25.5686 7.20564 25.4369 7.5099C25.2049 8.13065 25.0316 8.76272 24.9046 9.35992C24.782 9.95712 24.6941 10.5168 24.6389 10.9981C24.5256 11.9606 24.4939 12.6022 24.4939 12.6022C24.4939 12.6022 24.5974 11.9667 24.8161 11.0295C24.9237 10.5613 25.0721 10.0216 25.2557 9.45408C25.4444 8.88914 25.6801 8.30066 25.962 7.74443C26.1176 7.47504 26.2543 7.19431 26.4354 6.9528C26.5975 6.69649 26.7892 6.47505 26.9728 6.26233C27.169 6.06442 27.3569 5.87 27.5602 5.72615C27.7183 5.6102 27.8698 5.50993 28.0228 5.42799C27.9942 5.4646 27.9645 5.49947 27.9359 5.53609C27.7523 5.80112 27.5677 6.07487 27.4216 6.37304C27.2544 6.66074 27.1413 6.97635 27.0096 7.27974C26.778 7.90135 26.6043 8.53342 26.4769 9.12975C26.355 9.72783 26.2672 10.2875 26.2116 10.7688C26.0983 11.7304 26.0665 12.373 26.0665 12.373C26.0665 12.373 26.1701 11.7365 26.3888 10.8002C26.4964 10.332 26.6448 9.79148 26.8287 9.22479C27.0171 8.65985 27.2528 8.07137 27.5347 7.51427C27.6903 7.24487 27.8269 6.96414 28.0081 6.72264C28.1702 6.4672 28.3619 6.24489 28.5455 6.03304C28.7417 5.83513 28.9296 5.64071 29.1329 5.49686C29.291 5.38004 29.4429 5.27977 29.5958 5.19782C29.5668 5.23444 29.5375 5.26931 29.5086 5.3068C29.325 5.57183 29.1404 5.84559 28.9943 6.14375C28.8271 6.43145 28.714 6.74619 28.5823 7.05045C28.3507 7.67119 28.177 8.30415 28.05 8.90047C27.9277 9.49855 27.8398 10.0583 27.7847 10.5395C27.671 11.5011 27.6392 12.1437 27.6392 12.1437C27.6392 12.1437 27.7428 11.5072 27.9615 10.5709C28.069 10.1027 28.2175 9.56219 28.4015 8.9955C28.5898 8.42969 28.8254 7.84207 29.1074 7.28498C29.263 7.01559 29.3996 6.73485 29.5808 6.49335C29.7429 6.23704 29.9346 6.0156 30.1182 5.80287C30.3147 5.60497 30.5023 5.41142 30.7056 5.2667C30.8637 5.15074 31.0152 5.05048 31.1685 4.96853C31.1395 5.00515 31.1102 5.04002 31.0813 5.07664C30.898 5.34254 30.7131 5.6163 30.567 5.91447C30.4001 6.20217 30.2868 6.51689 30.155 6.82029C29.9234 7.4419 29.75 8.07398 29.6226 8.67118C29.5004 9.26839 29.4125 9.82809 29.3573 10.3093C29.2437 11.2718 29.2119 11.9135 29.2119 11.9135C29.2119 11.9135 29.3155 11.2771 29.5341 10.3407C29.6417 9.87255 29.7902 9.33289 29.9742 8.76534C30.1625 8.20039 30.3985 7.61191 30.6801 7.05482C30.8357 6.78629 30.9723 6.50469 31.1535 6.2632C31.3156 6.00775 31.5074 5.78631 31.6909 5.57359C31.8874 5.37568 32.0753 5.18126 32.2783 5.03741C32.4364 4.92146 32.5879 4.82032 32.7412 4.73924C32.7122 4.77586 32.6829 4.81073 32.654 4.84734C32.4707 5.11238 32.2858 5.38614 32.14 5.6843C31.9725 5.97201 31.8598 6.28673 31.7277 6.591C31.4961 7.21261 31.3227 7.84469 31.1953 8.44102C31.0731 9.03909 30.9852 9.5988 30.93 10.08C30.8163 11.0417 30.785 11.6842 30.785 11.6842C30.785 11.6842 30.8882 11.0478 31.1072 10.1114C31.2144 9.64326 31.3629 9.10273 31.5468 8.53605C31.7355 7.97023 31.9712 7.38262 32.2528 6.82552C32.4084 6.55613 32.545 6.27541 32.7262 6.03391C32.8882 5.77847 33.08 5.55614 33.2636 5.34342C33.4601 5.14639 33.6477 4.95197 33.8513 4.80811C34.0091 4.69129 34.1609 4.59103 34.3139 4.50908C34.2849 4.54569 34.2556 4.58057 34.2267 4.6172C34.0434 4.88309 33.8585 5.15685 33.7127 5.45502C33.5455 5.74272 33.4325 6.05744 33.3004 6.36171C33.0688 6.98244 32.8954 7.61452 32.768 8.21173C32.6458 8.80893 32.5579 9.36864 32.5028 9.85075C32.389 10.8124 32.3576 11.454 32.3576 11.454C32.3576 11.454 32.4612 10.8185 32.6799 9.88214C32.7875 9.4131 32.9356 8.87344 33.1195 8.30676C33.3082 7.74094 33.5439 7.15246 33.8258 6.59623C33.9812 6.32684 34.118 6.04611 34.2989 5.80462C34.4609 5.5483 34.6527 5.32685 34.8362 5.11413C35.0328 4.91622 35.2207 4.7218 35.424 4.57795C35.5821 4.462 35.7336 4.36175 35.8865 4.27979C35.8579 4.31641 35.8283 4.35129 35.7994 4.3879C35.6161 4.65294 35.4315 4.92756 35.2854 5.22485C35.1183 5.51256 35.0052 5.82816 34.8734 6.13155C34.6415 6.75317 34.4681 7.38524 34.3408 7.98157C34.2185 8.57964 34.1306 9.13934 34.0755 9.62059C33.9617 10.5822 33.9304 11.2248 33.9304 11.2248C33.9304 11.2248 34.0336 10.5883 34.2526 9.65199C34.3601 9.18382 34.5083 8.64328 34.6922 8.07659C34.8809 7.51165 35.1165 6.92316 35.3985 6.36607C35.5542 6.09755 35.6907 5.81595 35.8715 5.57446C36.0337 5.31901 36.2258 5.09669 36.4093 4.88483C36.6054 4.68694 36.7934 4.49252 36.9967 4.34866C37.1548 4.23183 37.3063 4.13158 37.4592 4.04963C37.4306 4.08625 37.401 4.12112 37.3724 4.15861C37.1889 4.42365 37.0042 4.6974 36.8582 4.99556C36.691 5.28326 36.5779 5.59799 36.4461 5.90226C36.2142 6.523 36.0408 7.15594 35.9135 7.75227C35.7912 8.35035 35.7033 8.91006 35.6482 9.3913C35.5348 10.3529 35.5031 10.9955 35.5031 10.9955C35.5031 10.9955 35.6062 10.359 35.8252 9.4227C35.9328 8.95453 36.081 8.41399 36.2649 7.8473C36.4536 7.28149 36.6892 6.69388 36.9712 6.13678C37.1269 5.86739 37.2634 5.58666 37.4442 5.34516C37.6067 5.08884 37.7985 4.8674 37.982 4.65467C38.1781 4.45677 38.3661 4.26322 38.5694 4.11937C38.7275 4.00255 38.8786 3.90229 39.0319 3.82034C39.003 3.85696 38.9737 3.89183 38.9447 3.92844C38.7616 4.19435 38.5769 4.46811 38.4309 4.76627C38.2637 5.05397 38.1506 5.36871 38.0184 5.67297C37.7869 6.29371 37.6135 6.92578 37.4862 7.52299C37.3638 8.12019 37.2761 8.6799 37.2209 9.16115C37.1074 10.1236 37.0758 10.7653 37.0758 10.7653C37.0758 10.7653 37.1793 10.1289 37.3979 9.19254C37.5055 8.72437 37.6537 8.1847 37.8376 7.61713C38.0263 7.05219 38.2619 6.46371 38.5439 5.90749C38.6996 5.63809 38.8361 5.3565 39.0169 5.11588C39.1794 4.85956 39.3711 4.63811 39.5547 4.42538C39.7508 4.22748 39.9388 4.03306 40.1422 3.88921C40.3431 3.741 40.5335 3.60674 40.7303 3.52217C40.9186 3.41145 41.0923 3.35827 41.2415 3.3138C41.3154 3.28765 41.3845 3.26411 41.4485 3.24145C41.5313 3.2275 41.6075 3.21442 41.6767 3.20221C41.9543 3.15688 42.1129 3.12985 42.1129 3.12985L42.1088 3.11155L43.8225 2.86221C43.6897 3.02349 43.5572 3.18913 43.4527 3.37832C43.2814 3.63987 43.1393 3.92322 43.0069 4.21441C42.8788 4.50647 42.7627 4.80811 42.667 5.11151C42.2771 6.32945 42.1167 7.57529 42.0349 8.50466C41.9532 9.43578 41.9368 10.0556 41.9368 10.0556C41.9368 10.0556 42.0251 9.44012 42.2128 8.53168C42.3986 7.62498 42.7032 6.41925 43.2038 5.31901C43.3267 5.04438 43.467 4.77848 43.6138 4.52739C43.7646 4.27718 43.92 4.04004 44.0943 3.83255C44.2513 3.61023 44.4512 3.4472 44.618 3.27545C44.7056 3.21268 44.7853 3.14729 44.865 3.08539C44.8442 3.11852 44.8183 3.14729 44.7992 3.18128C44.6276 3.44283 44.486 3.72706 44.3535 4.01825C44.2254 4.31031 44.1093 4.61108 44.0136 4.91535C43.6236 6.13329 43.4632 7.37827 43.3812 8.3085C43.2994 9.23874 43.2831 9.85948 43.2831 9.85948C43.2831 9.85948 43.3716 9.24397 43.5593 8.33465C43.7453 7.42795 44.0497 6.22221 44.55 5.12197C44.6732 4.84734 44.8136 4.58144 44.9603 4.33036C45.1112 4.08102 45.2665 3.84301 45.4409 3.63639C45.5979 3.41407 45.7978 3.25017 45.9647 3.07929C46.0519 3.01652 46.1319 2.95026 46.2116 2.88835C46.1905 2.92149 46.1646 2.95025 46.1455 2.98512C45.9742 3.24667 45.8322 3.53002 45.7001 3.82121C45.572 4.11327 45.4559 4.41492 45.3598 4.71832C44.9702 5.93626 44.8095 7.1821 44.7277 8.11147C44.646 9.04258 44.6296 9.66245 44.6296 9.66245C44.6296 9.66245 44.7182 9.04693 44.9055 8.13849C45.0918 7.23179 45.3962 6.02605 45.8965 4.92581C46.0198 4.65118 46.1601 4.38528 46.3069 4.13419C46.4574 3.88398 46.6131 3.64685 46.7871 3.43935C46.9441 3.21704 47.1443 3.05401 47.3112 2.88226C47.3987 2.81948 47.4784 2.75409 47.5578 2.69219C47.537 2.72532 47.5111 2.75409 47.492 2.78809C47.3207 3.04964 47.1787 3.33386 47.0466 3.62505C46.9185 3.91711 46.8024 4.21789 46.7063 4.52216C46.3165 5.7401 46.156 6.98507 46.0743 7.91531C45.9926 8.84554 45.9762 9.46629 45.9762 9.46629C45.9762 9.46629 46.0644 8.85078 46.2521 7.94147C46.4383 7.03477 46.7428 5.82903 47.2431 4.72878C47.3664 4.45415 47.5063 4.18825 47.6531 3.93716C47.804 3.68782 47.9596 3.44981 48.1337 3.24319C48.2906 3.02087 48.4905 2.85697 48.6574 2.6861C48.7449 2.62332 48.825 2.55706 48.9043 2.49516C48.8835 2.52829 48.8577 2.55706 48.8386 2.59193C48.6673 2.85348 48.5253 3.13683 48.3928 3.42802C48.2651 3.72008 48.1486 4.02173 48.053 4.32512C47.663 5.54306 47.5026 6.7889 47.4209 7.71827C47.3391 8.64938 47.3228 9.26926 47.3228 9.26926C47.3228 9.26926 47.411 8.65375 47.5987 7.74531C47.785 6.83861 48.0891 5.63286 48.5897 4.53262C48.7126 4.25799 48.8529 3.99209 48.9997 3.741C49.1506 3.49079 49.3059 3.25365 49.4802 3.04616C49.6372 2.82384 49.8372 2.66081 50.004 2.48906C50.0916 2.42629 50.1712 2.3609 50.2509 2.299C50.2301 2.33213 50.2043 2.36089 50.1852 2.3949C50.0135 2.65732 49.8719 2.94067 49.7394 3.23186C49.6114 3.52392 49.4952 3.82469 49.3991 4.12896C49.0095 5.3469 48.8492 6.59187 48.7671 7.52211C48.6857 8.45235 48.669 9.0731 48.669 9.0731C48.669 9.0731 48.7576 8.45759 48.9448 7.54827C49.1315 6.64157 49.4356 5.4367 49.9358 4.33559C50.0592 4.06096 50.1995 3.79505 50.3462 3.54397C50.4971 3.29462 50.6524 3.05662 50.8264 2.85C50.9838 2.62769 51.1837 2.46378 51.3506 2.2929C51.4381 2.23013 51.5178 2.16386 51.5975 2.10197C51.5767 2.13509 51.5508 2.16386 51.5314 2.19874C51.3601 2.46028 51.2184 2.74364 51.086 3.0357C50.9579 3.32689 50.8418 3.62853 50.7458 3.93193C50.3562 5.14987 50.1957 6.39571 50.1137 7.32508C50.0323 8.25619 50.0156 8.87606 50.0156 8.87606C50.0156 8.87606 50.1041 8.26055 50.2915 7.35211C50.4777 6.44541 50.7821 5.23967 51.2825 4.13942C51.4057 3.8648 51.546 3.59889 51.6928 3.34781C51.8433 3.0976 51.999 2.86046 52.173 2.65296C52.33 2.43065 52.5302 2.26762 52.6967 2.09586C52.7843 2.0331 52.8643 1.9677 52.944 1.9058C52.9229 1.93893 52.897 1.96771 52.878 2.00172C52.7067 2.26413 52.5647 2.54748 52.4325 2.83866C52.3044 3.13072 52.1883 3.4315 52.0923 3.73576C51.7023 4.9537 51.5419 6.19868 51.4602 7.12891C51.3785 8.06003 51.3622 8.6799 51.3622 8.6799C51.3622 8.6799 51.4506 8.06439 51.638 7.15508C51.8243 6.24837 52.1287 5.0435 52.629 3.94239C52.7519 3.66776 52.8923 3.40186 53.039 3.15077C53.1899 2.90143 53.3456 2.66343 53.5196 2.4568C53.6766 2.23449 53.8769 2.07059 54.0434 1.8997C54.2367 1.76109 54.3979 1.60242 54.5842 1.52134C54.6717 1.47251 54.7558 1.4263 54.8355 1.38184C54.9148 1.34871 54.9894 1.33041 55.0578 1.30425C55.1253 1.27984 55.1883 1.25629 55.2468 1.2345C55.2806 1.22143 55.3245 1.21358 55.3685 1.20661C55.0027 1.58237 54.6767 2.04791 54.3829 2.58496C54.2099 2.80205 54.0413 3.04093 53.8833 3.30946C53.1943 4.44196 52.6974 5.99032 52.33 7.78715C51.9626 9.58747 51.7463 11.6537 51.6608 13.9091C51.4837 18.4217 51.7112 23.69 52.2268 29.3004C52.5984 33.3534 53.0987 37.5896 53.6694 41.8687C53.757 42.5862 53.8465 43.3095 53.9394 44.0448C54.2208 46.2155 54.499 48.4605 54.8434 50.734C55.1812 53.0086 55.5373 55.3182 55.9396 57.6214C56.7555 62.2258 57.7145 66.8107 58.8442 71.052C59.3955 73.1829 60.0161 75.2065 60.5977 77.1228C61.1685 79.0493 61.7737 80.8634 62.4452 82.4958C63.1076 84.1304 63.8486 85.5836 64.6595 86.7763C65.4591 87.9743 66.3535 88.901 67.2314 89.4625C67.3397 89.534 67.4473 89.5977 67.5539 89.656C67.8645 89.9349 68.1792 90.1702 68.4983 90.3579C68.3689 90.363 68.2163 90.3657 68.0205 90.3405C67.4858 90.2931 66.6923 90.0851 65.8801 89.4938C65.0675 88.9081 64.2553 87.9699 63.5425 86.7633C62.8206 85.5601 62.1779 84.1015 61.5822 82.474C60.988 80.8427 60.4652 79.0347 59.9441 77.1033C59.4153 75.169 58.8647 73.1288 58.347 71.019C57.8185 68.9048 57.3563 66.7 56.8822 64.4602C56.4132 62.2203 55.9948 59.9312 55.5956 57.6392C55.1848 55.3489 54.8147 53.0498 54.4653 50.7847C54.1254 48.5163 53.7906 46.2843 53.4667 44.1242C53.2052 42.3237 52.9525 40.5793 52.7138 38.9C52.6593 37.2167 52.5657 35.696 52.5361 34.6968C52.5513 35.9419 52.5929 37.186 52.647 38.4294C52.3378 36.247 52.0545 34.1853 51.8144 32.2959C51.3792 28.8288 51.0458 25.9333 50.8731 23.9002C50.696 21.8663 50.5949 20.7041 50.5949 20.7041C50.5949 20.7041 50.5969 20.9962 50.6013 21.5428C50.6081 22.0903 50.6092 22.8932 50.6497 23.9142C50.724 25.9551 50.8493 28.8751 51.1574 32.3658C51.4513 35.8575 51.9138 39.92 52.4632 44.2607C52.4955 44.5111 52.5295 44.7709 52.562 45.0235C52.4989 45.5477 52.4168 46.0402 52.3126 46.4883C52.205 45.769 52.0964 45.0453 51.9905 44.3394C51.3618 40.0133 50.7787 35.9777 50.3381 32.5112C49.9032 29.0439 49.5694 26.1485 49.3968 24.1154C49.2197 22.0816 49.1185 20.9195 49.1185 20.9195C49.1185 20.9195 49.1209 21.2115 49.125 21.759C49.1322 22.3057 49.1332 23.1087 49.1733 24.1293C49.248 26.1703 49.3729 29.0903 49.6812 32.581C49.9751 36.0734 50.4371 40.1352 50.9868 44.4763C51.1534 45.7622 51.3243 47.0802 51.5035 48.4101C51.4997 48.4142 51.4963 48.4203 51.4926 48.4247C51.3792 48.5606 51.2637 48.674 51.1472 48.7761C50.933 47.3489 50.7208 45.9339 50.5141 44.5556C49.8855 40.2285 49.3025 36.1939 48.8618 32.7268C48.4269 29.2595 48.0935 26.3641 47.9204 24.331C47.7434 22.2978 47.6422 21.1357 47.6422 21.1357C47.6422 21.1357 47.6446 21.4269 47.6487 21.9744C47.6555 22.5209 47.6569 23.325 47.6971 24.345C47.7713 26.3866 47.8966 29.3055 48.2052 32.7962C48.4987 36.289 48.9609 40.3515 49.5106 44.6916C49.7043 46.1894 49.9056 47.73 50.1195 49.2836C49.986 49.3033 49.8515 49.3054 49.7162 49.2949C49.4867 47.7637 49.2592 46.2462 49.0379 44.7709C48.4092 40.4441 47.8261 36.4092 47.3855 32.9419C46.9505 29.4748 46.6168 26.5804 46.4442 24.5472C46.267 22.5131 46.1659 21.351 46.1659 21.351C46.1659 21.351 46.1683 21.6431 46.1723 22.1897C46.1796 22.7372 46.1802 23.5402 46.2207 24.5612C46.2954 26.6022 46.4203 29.5211 46.7285 33.0125C47.0224 36.5042 47.4845 40.567 48.0342 44.9068C48.2031 46.2121 48.3768 47.5495 48.5587 48.8981C48.4054 48.8075 48.2532 48.7047 48.1016 48.5896C47.9195 47.3717 47.7386 46.1669 47.5615 44.9861C46.9328 40.6594 46.3498 36.6245 45.9091 33.1572C45.4743 29.691 45.1405 26.7956 44.9678 24.7625C44.7908 22.7287 44.6896 21.5664 44.6896 21.5664C44.6896 21.5664 44.692 21.8584 44.6961 22.4051C44.7032 22.9524 44.7043 23.7554 44.7445 24.7764C44.8187 26.8174 44.944 29.737 45.2526 33.2281C45.5461 36.7194 46.0083 40.7823 46.5579 45.123C46.6536 45.8617 46.7517 46.6201 46.8498 47.3751C46.6638 47.1572 46.4837 46.9287 46.3093 46.696C46.2347 46.1982 46.1587 45.6924 46.0852 45.2017C45.4568 40.8746 44.8735 36.84 44.4328 33.3735C43.9979 29.9062 43.6645 27.0108 43.4915 24.9777C43.3144 22.9439 43.2133 21.7817 43.2133 21.7817C43.2133 21.7817 43.2156 22.0738 43.2197 22.6214C43.2269 23.168 43.2276 23.971 43.2681 24.9917C43.3424 27.0326 43.4677 29.9525 43.7762 33.4432C44.0548 36.7562 44.4863 40.5861 44.9989 44.6759C44.708 44.1633 44.4723 43.6968 44.3072 43.3341C43.7953 39.7963 43.3253 36.4919 42.9565 33.589C42.5216 30.1215 42.1878 27.2264 42.0152 25.1932C41.8381 23.1601 41.7369 21.9979 41.7369 21.9979C41.7369 21.9979 41.7394 22.2891 41.7435 22.8366C41.7506 23.3832 41.7516 24.1869 41.7918 25.2073C41.8664 27.2489 41.9913 30.1678 42.3 33.6585C42.4552 35.505 42.6585 37.514 42.8958 39.635C42.4708 38.3916 42.0888 37.1335 41.7503 35.8643C41.6559 35.16 41.5647 34.4683 41.4802 33.8043C41.0453 30.337 40.7119 27.4416 40.5389 25.4095C40.3618 23.3754 40.2607 22.2133 40.2607 22.2133C40.2607 22.2133 40.263 22.5052 40.2671 23.0519C40.2743 23.5984 40.2753 24.4025 40.3155 25.4224C40.3897 27.4641 40.5151 30.3831 40.8236 33.8741C41.1171 37.3665 41.5797 41.4293 42.129 45.769C42.4102 47.9391 42.6885 50.1851 43.0328 52.4586C43.371 54.7332 43.7272 57.0429 44.129 59.3461C44.945 63.95 45.904 68.5343 47.0336 72.7766C47.5854 74.9075 48.2055 76.9307 48.7872 78.847C49.358 80.7739 49.9635 82.5881 50.6347 84.22C51.2971 85.8547 52.0382 87.3071 52.8493 88.5008C53.6486 89.6985 54.5429 90.6245 55.4212 91.1867C56.2985 91.7623 57.1404 91.8999 57.6842 91.9115C57.9614 91.9261 58.1678 91.8948 58.3085 91.8764C58.4491 91.8601 58.5213 91.8512 58.5213 91.8512C58.5213 91.8512 58.4484 91.8546 58.3075 91.8607C58.1665 91.8686 57.9553 91.8842 57.6863 91.8495C57.1516 91.8025 56.3582 91.5941 55.5462 91.0029C54.7333 90.4161 53.9211 89.4789 53.2083 88.2716C52.4863 87.0695 51.8437 85.6108 51.248 83.983C50.7828 82.7059 50.3616 81.3171 49.9502 79.8479C50.3922 80.6258 50.8264 81.4015 51.1683 82.2584C51.2106 82.1174 51.2514 81.9743 51.2937 81.833C51.5566 82.5836 51.827 83.3134 52.1111 84.0041C52.7734 85.6395 53.5144 87.0919 54.3257 88.2856C55.1253 89.4827 56.0193 90.4092 56.8972 90.9716C57.7745 91.5471 58.6167 91.6846 59.1605 91.6959C59.4378 91.7098 59.6445 91.6796 59.7848 91.6612C59.9251 91.6444 59.9977 91.636 59.9977 91.636C59.9977 91.636 59.9248 91.6394 59.7837 91.6455C59.6428 91.6533 59.4316 91.669 59.1626 91.6342C58.6279 91.5869 57.8344 91.3778 57.0226 90.7867C56.2096 90.2009 55.3974 89.2626 54.6846 88.056C53.9626 86.8532 53.32 85.3953 52.7244 83.7667C52.3542 82.7502 52.0126 81.658 51.6809 80.5168C51.796 80.1279 51.9104 79.7383 52.0248 79.3483C52.5122 80.9265 53.0258 82.4243 53.5873 83.7885C54.2497 85.4242 54.9908 86.8767 55.802 88.0694C56.6013 89.2671 57.4955 90.1941 58.3739 90.7563C59.2508 91.3315 60.093 91.4684 60.6369 91.4807C60.9141 91.4947 61.1208 91.464 61.2611 91.4459C61.4014 91.4293 61.4739 91.4207 61.4739 91.4207C61.4739 91.4207 61.4011 91.4241 61.2597 91.4302C61.1191 91.4381 60.908 91.4527 60.6389 91.4187C60.1042 91.371 59.3108 91.1626 58.4988 90.5714C57.6859 89.9856 56.8738 89.0474 56.1609 87.8408C55.439 86.6376 54.7963 85.18 54.2006 83.5515C53.6068 81.9212 53.0837 80.1122 52.5626 78.1819C52.5316 78.0685 52.5003 77.9517 52.4689 77.8376C52.5731 77.4828 52.6787 77.1269 52.783 76.7714C52.9287 77.2543 53.0735 77.7311 53.2161 78.201C53.7869 80.1268 54.3921 81.9414 55.0637 83.5733C55.7261 85.2079 56.4671 86.6614 57.2783 87.8541C58.0776 89.0518 58.9719 89.9785 59.8498 90.54C60.7271 91.1163 61.5693 91.2532 62.1132 91.2644C62.3904 91.2794 62.5968 91.2487 62.7374 91.2303C62.8778 91.214 62.9503 91.2051 62.9503 91.2051C62.9503 91.2051 62.8774 91.2079 62.7364 91.2147C62.5954 91.2226 62.3843 91.2375 62.1153 91.2028C61.5806 91.1554 60.787 90.947 59.9752 90.3562C59.1623 89.77 58.35 88.8322 57.6372 87.6256C56.9152 86.4224 56.2726 84.9638 55.677 83.3363C55.0828 81.705 54.56 79.8966 54.0389 77.9657C53.7856 77.039 53.5274 76.0868 53.2703 75.1156C53.29 75.0485 53.3098 74.9807 53.3295 74.9132C53.3915 74.7035 53.4726 74.4766 53.5938 74.2945C53.9582 75.5637 54.3321 76.7976 54.6924 77.9848C55.2632 79.9116 55.8684 81.7258 56.5399 83.3581C57.2023 84.9928 57.9434 86.4452 58.7546 87.6385C59.5539 88.8366 60.4482 89.7632 61.3265 90.3249C62.2034 90.9 63.0457 91.0379 63.5895 91.0492C63.8668 91.0638 64.0735 91.0325 64.2137 91.0145C64.354 90.9977 64.4266 90.9889 64.4266 90.9889C64.4266 90.9889 64.3537 90.9927 64.2123 90.9984C64.0717 91.0063 63.8606 91.0223 63.5915 90.9872C63.0568 90.9402 62.2634 90.7318 61.4515 90.1405C60.6386 89.5542 59.8264 88.6169 59.1136 87.4093C58.3916 86.2071 57.749 84.7486 57.1533 83.1207C56.559 81.4898 56.0366 79.6814 55.5153 77.7504C55.1889 76.5561 54.8549 75.3189 54.5249 74.053C54.7814 74.2079 54.9918 74.5073 55.1434 74.7818C55.237 74.9511 55.329 75.1172 55.4206 75.2838C55.6716 76.1304 55.9235 76.9613 56.1688 77.7695C56.7396 79.6954 57.3447 81.5095 58.0163 83.1418C58.6787 84.7772 59.4197 86.2296 60.2309 87.4232C61.0302 88.6203 61.9245 89.547 62.8028 90.1092C63.6797 90.6848 64.5219 90.8224 65.0658 90.834C65.343 90.8486 65.5494 90.8173 65.6901 90.7989C65.8304 90.7826 65.9029 90.7737 65.9029 90.7737C65.9029 90.7737 65.83 90.7771 65.689 90.7833C65.5481 90.791 65.3369 90.8067 65.0679 90.772C64.5332 90.725 63.7396 90.5155 62.9278 89.9247C62.1149 89.3386 61.3026 88.4006 60.5899 87.1941C59.8679 85.9909 59.2252 84.5333 58.6296 82.9054C58.1276 81.5273 57.6771 80.0162 57.2347 78.4182C57.6182 79.0187 58.0227 79.5959 58.4651 80.1497C58.792 81.1192 59.1323 82.051 59.4926 82.9262C60.155 84.5619 60.896 86.0144 61.7069 87.2081C62.5065 88.4051 63.4009 89.3318 64.2791 89.894C65.1561 90.4696 65.9983 90.6061 66.5421 90.6184C66.8194 90.6323 67.0257 90.602 67.1664 90.5836C67.3067 90.567 67.3793 90.5584 67.3793 90.5584C67.3793 90.5584 67.3064 90.5618 67.1651 90.568C67.0243 90.5758 66.8132 90.5905 66.5441 90.5568C66.0095 90.5087 65.216 90.3003 64.4041 89.7091C63.5912 89.1233 62.779 88.1851 62.0662 86.9785C61.3442 85.7753 60.7016 84.3177 60.106 82.6892C59.9673 82.3091 59.8332 81.9168 59.7013 81.5173C60.0763 81.8837 60.4778 82.2387 60.9171 82.5785C60.9345 82.6221 60.9512 82.6684 60.9689 82.711C61.6313 84.3457 62.3724 85.7992 63.1832 86.9918C63.9829 88.1896 64.8771 89.1162 65.7551 89.6778C66.6324 90.254 67.4745 90.3909 68.0185 90.4031C68.237 90.4144 68.3999 90.397 68.533 90.3803C68.5368 90.3831 68.5409 90.3858 68.5446 90.3881L38.0794 94.8366ZM26.3942 85.8764L26.3891 85.841C19.8279 86.0274 15.6445 71.3275 12.9592 52.9354C10.2702 34.5174 9.67185 19.2769 16.4203 17.5629L16.4152 17.5289L19.076 17.1401C19.0633 17.4313 19.0508 17.7216 19.0419 18.0215C18.1429 18.0285 17.2359 18.0686 16.3934 18.372C11.5762 20.106 12.0363 28.5951 12.244 32.5705C12.1232 30.7474 12.5032 28.8941 13.3321 27.2663C13.6346 26.6716 14.0459 26.0668 14.6811 25.8628C16.6342 25.2341 18.1408 27.9273 18.5947 29.4189C18.9629 30.6282 19.1396 31.8907 19.4155 33.1208C19.5115 33.5506 19.6614 33.9786 19.8221 34.405C19.9802 36.0117 20.1599 37.6645 20.3564 39.3527C20.7661 48.1894 19.3065 57.8213 16.8201 58.4708C14.3211 59.1237 13.0726 46.6235 13.0726 46.6235C13.3321 52.3506 16.3692 69.2021 18.7691 75.7695C20.1361 79.508 23.589 86.3247 28.601 83.6002C28.807 84.2418 29.0155 84.8643 29.2266 85.4634L26.3942 85.8764ZM53.9793 37.1921C53.7263 35.3875 53.493 33.6718 53.2907 32.0797C52.8559 28.6125 52.5221 25.7181 52.3494 23.685C52.1995 21.9622 52.1045 20.8741 52.079 20.5786C51.9673 18.2273 51.9247 15.991 51.9844 13.9204C52.048 11.6764 52.2142 9.61972 52.534 7.82551C52.8565 6.03652 53.3129 4.49165 53.9667 3.35827C54.0144 3.27283 54.0652 3.19524 54.1145 3.11503C51.4871 8.76794 52.0382 21.5637 53.9793 37.1921ZM65.0188 86.5471C64.2968 85.3449 63.6542 83.8862 63.0586 82.2584C62.6928 81.2541 62.3554 80.1765 62.0274 79.051C63.3923 83.1949 64.8666 86.4353 66.4597 88.4701C65.957 87.9447 65.4673 87.3071 65.0188 86.5471ZM67.8247 31.2749C67.0356 27.1198 66.207 23.2664 65.3707 19.8236C66.2073 23.2657 67.0352 27.1198 67.8247 31.2749ZM8.04021 56.626L7.96187 56.1141L10.6863 55.6973L10.7647 56.2092L8.04021 56.626ZM9.7096 49.0081L9.78798 49.5196L7.06348 49.9365L6.98516 49.4246L9.7096 49.0081ZM57.6056 0.0156937C57.5316 0.0261536 57.4639 0.0514297 57.3917 0.0662537L57.4278 0.0374832L55.6818 0.280716L55.6164 -7.62939e-06C55.6164 -7.62939e-06 55.4676 0.0435867 55.207 0.120308C55.0878 0.144714 54.9005 0.224922 54.686 0.328674C54.6063 0.367905 54.5191 0.410622 54.4339 0.455086L54.3335 0.469032L54.2698 0.196152C54.2698 0.196152 54.121 0.239746 53.8605 0.316467C53.7413 0.341751 53.5539 0.421089 53.3397 0.525703C53.2675 0.560577 53.1889 0.599815 53.1116 0.639046L52.9849 0.657356L52.9236 0.393188C52.9236 0.393188 52.7748 0.436783 52.5139 0.513496C52.3947 0.53791 52.2074 0.618118 51.9932 0.72187C51.9285 0.75325 51.8583 0.789871 51.7892 0.823875L51.6366 0.844795L51.5771 0.589348C51.5771 0.589348 51.4282 0.632942 51.1673 0.709663C51.0481 0.734947 50.8609 0.814285 50.6466 0.9189C50.5897 0.9468 50.5278 0.979057 50.4668 1.00871L50.2881 1.0331L50.2304 0.786385C50.2304 0.786385 50.0816 0.829971 49.8211 0.906693C49.7019 0.931107 49.5146 1.01131 49.3 1.11506C49.251 1.13947 49.1972 1.16737 49.1444 1.19266L48.9398 1.22142L48.8839 0.982544C48.8839 0.982544 48.7351 1.02613 48.4746 1.10285C48.3554 1.12814 48.168 1.20747 47.9538 1.3121C47.912 1.33215 47.8663 1.35656 47.822 1.37748L47.5912 1.40974L47.5374 1.17957C47.5374 1.17957 47.3885 1.22317 47.128 1.29989C47.0088 1.3243 46.8215 1.40451 46.6073 1.50826C46.5732 1.52482 46.5357 1.54488 46.4996 1.56231L46.2429 1.59806L46.1911 1.37574C46.1911 1.37574 46.0419 1.41933 45.7814 1.49605C45.6626 1.52133 45.4749 1.60067 45.2607 1.70529C45.2345 1.7175 45.2052 1.73318 45.1776 1.74626L41.9039 2.2031L41.8599 2.00781C41.8599 2.00781 41.7053 2.05141 41.4346 2.129C41.3664 2.14818 41.2912 2.16997 41.2095 2.19351C41.1157 2.23361 41.015 2.27721 40.907 2.32429C40.8886 2.33213 40.8692 2.3426 40.8508 2.35044L40.3291 2.4228L40.2873 2.23798C40.2873 2.23798 40.1326 2.28156 39.8619 2.35828C39.7937 2.37746 39.7185 2.39926 39.6364 2.4228C39.5431 2.46378 39.4419 2.50737 39.3344 2.55357C39.3262 2.55706 39.3176 2.56229 39.3095 2.56578L38.7541 2.6425L38.7146 2.46726C38.7146 2.46726 38.5596 2.51086 38.2892 2.58758C38.221 2.60763 38.1458 2.62943 38.0637 2.65296C37.9728 2.6922 37.874 2.73492 37.7688 2.78025L37.1789 2.86308L37.1418 2.69656C37.1418 2.69656 36.9869 2.74102 36.7162 2.81774C36.6483 2.83692 36.5731 2.85872 36.4911 2.88226C36.4107 2.91713 36.3221 2.95548 36.2308 2.99471L35.6042 3.08277L35.5691 2.92672C35.5691 2.92672 35.4145 2.97031 35.1435 3.04704C35.0757 3.06709 35.0004 3.08888 34.9184 3.11242C34.8489 3.14206 34.7705 3.17606 34.6929 3.20919L34.0291 3.30247L33.9964 3.15601C33.9964 3.15601 33.8415 3.1996 33.5708 3.2772C33.503 3.29638 33.4277 3.31817 33.3456 3.34171C33.2868 3.36699 33.2196 3.39576 33.1546 3.42453L32.4544 3.52217L32.4234 3.3853C32.4234 3.3853 32.2688 3.42976 31.998 3.50648C31.9299 3.52566 31.855 3.54746 31.7729 3.571C31.7246 3.59193 31.6691 3.61633 31.6166 3.63899L30.8793 3.74187L30.8507 3.61546C30.8507 3.61546 30.6961 3.65904 30.4253 3.73576C30.3572 3.75582 30.282 3.77761 30.2002 3.80116C30.1628 3.81685 30.1185 3.83604 30.0787 3.85347L29.3046 3.96158L29.278 3.84474C29.278 3.84474 29.1234 3.88921 28.8526 3.96593C28.7846 3.98511 28.7093 4.0069 28.6275 4.03044C28.6007 4.04178 28.5687 4.05573 28.5407 4.06794L27.7296 4.18128L27.7053 4.07491C27.7053 4.07491 27.5507 4.1185 27.28 4.19522C27.2119 4.21527 27.1366 4.2362 27.0545 4.25974C27.0385 4.26671 27.0191 4.27543 27.0025 4.2824L23.762 4.73489L23.7685 4.7811C20.9361 5.60497 19.5401 9.70081 19.138 15.9989L15.1149 16.5856L15.1204 16.6214C9.00299 18.1968 8.98424 31.2804 11.1049 47.8877L9.57342 48.1179L8.88372 43.6079L6.15896 44.0247L6.84893 48.5347L5.7915 48.6959L7.75754 61.5467L8.81459 61.3853L8.81494 61.3881L8.439 61.4456L8.51732 61.9564L8.89331 61.8989L9.50464 65.8943L12.2291 65.4778L11.6178 61.482L11.8316 61.4497L11.7533 60.9381L11.5397 60.9712L11.5394 60.9678L13.0617 60.7403C15.8175 75.9996 19.7571 87.254 25.4123 87.1147L25.4182 87.1522L29.6183 86.5382C31.8271 92.4346 34.3067 95.9594 37.0849 95.9873L37.0921 96.036L69.3558 91.3254L69.2666 90.7144C69.7911 90.8939 70.3254 90.962 70.8723 90.8816C74.4254 90.3629 74.3355 69.6013 70.6721 44.5093C67.0084 19.4173 61.1586 -0.503044 57.6056 0.0156937Z" fill="white" fill-opacity="0.5"/>
<path d="M54.0958 92.3736C53.5611 92.3263 52.7676 92.1178 51.9557 91.527C51.1428 90.9402 50.3306 90.003 49.6178 88.7963C48.8958 87.5932 48.2532 86.1346 47.6576 84.507C47.0633 82.8758 46.5405 81.0678 46.0195 79.1365C45.4906 77.2011 44.9399 75.1619 44.4222 73.0521C43.8937 70.9379 43.4316 68.7332 42.9578 66.4933C42.4886 64.2535 42.0701 61.9642 41.6709 59.6723C41.2606 57.3817 40.89 55.0829 40.541 52.8179C40.2007 50.5494 39.866 48.3175 39.5421 46.1569C38.9134 41.8302 38.3304 37.7952 37.8897 34.328C37.4548 30.8618 37.121 27.9664 36.9484 25.9333C36.7713 23.8995 36.6701 22.7372 36.6701 22.7372C36.6701 22.7372 36.6726 23.0294 36.6767 23.576C36.6838 24.1236 36.6848 24.9263 36.725 25.9473C36.7996 27.9882 36.9245 30.9078 37.2327 34.3988C37.4272 36.7065 37.6959 39.2671 38.0136 41.9889C38.0116 43.0183 37.9772 44.0806 37.8819 45.1039C37.324 41.2584 36.8105 37.6689 36.4134 34.5443C35.9785 31.0771 35.645 28.1817 35.4721 26.1485C35.295 24.1147 35.1939 22.9524 35.1939 22.9524C35.1939 22.9524 35.1962 23.2446 35.2003 23.7922C35.2075 24.3388 35.2085 25.1419 35.2487 26.1625C35.3229 28.2035 35.4483 31.1234 35.7568 34.6141C36.0504 38.1065 36.5125 42.1683 37.0621 46.5094C37.1378 47.0918 37.2157 47.6925 37.292 48.2851C37.197 48.5834 37.0908 48.8674 36.9712 49.1327C36.8428 48.2782 36.7148 47.4238 36.5895 46.5878C35.9611 42.2617 35.3777 38.227 34.937 34.7599C34.5022 31.2923 34.1688 28.3972 33.9958 26.3641C33.8187 24.331 33.7175 23.1687 33.7175 23.1687C33.7175 23.1687 33.7199 23.4599 33.724 24.0075C33.7311 24.554 33.7318 25.3581 33.7724 26.378C33.8469 28.4197 33.9719 31.3386 34.2801 34.8293C34.574 38.3221 35.0362 42.3846 35.5858 46.7246C35.7452 47.9548 35.9076 49.2138 36.0779 50.484C36.0193 50.5433 35.9614 50.6026 35.8994 50.6567C35.8368 50.7105 35.7752 50.7524 35.7129 50.8022C35.5103 49.4501 35.3093 48.1107 35.1131 46.804C34.4848 42.4772 33.9014 38.4423 33.4608 34.9751C33.0259 31.5079 32.6924 28.6124 32.5195 26.5804C32.3424 24.5462 32.2413 23.3842 32.2413 23.3842C32.2413 23.3842 32.2436 23.6761 32.2477 24.2227C32.2549 24.7693 32.2558 25.5733 32.296 26.5933C32.3706 28.6353 32.4956 31.5538 32.8042 35.0449C33.0977 38.5373 33.5599 42.6002 34.1095 46.9399C34.2996 48.4056 34.4961 49.9119 34.7044 51.4314C34.5761 51.4891 34.4484 51.5404 34.321 51.5824C34.0894 50.0376 33.8602 48.5074 33.6368 47.0192C33.0085 42.6924 32.4251 38.6575 31.9844 35.1903C31.5496 31.7242 31.2162 28.8287 31.0431 26.7956C30.866 24.7618 30.7649 23.5994 30.7649 23.5994C30.7649 23.5994 30.7673 23.8917 30.7714 24.4382C30.7785 24.9856 30.7796 25.7886 30.8197 26.8095C30.8939 28.8505 31.0193 31.7701 31.3278 35.2612C31.6214 38.7526 32.0839 42.8154 32.6332 47.1555C32.8277 48.6566 33.0293 50.1997 33.2439 51.7567C33.1065 51.7567 32.9704 51.7482 32.8348 51.7315C32.6066 50.2092 32.3805 48.7019 32.1605 47.2348C31.5322 42.9077 30.9488 38.8731 30.5082 35.4066C30.0732 31.9393 29.7395 29.0439 29.5668 27.0108C29.3897 24.977 29.2886 23.8147 29.2886 23.8147C29.2886 23.8147 29.291 24.1068 29.2951 24.6545C29.3022 25.2011 29.3032 26.0038 29.3434 27.0248C29.418 29.0657 29.543 31.9857 29.8515 35.4764C30.1451 38.9681 30.6072 43.0306 31.1569 47.3717C31.3282 48.6941 31.5042 50.0499 31.6891 51.4168C31.5407 51.3542 31.3936 51.2833 31.2475 51.205C31.0571 49.9364 30.8687 48.6794 30.6842 47.45C30.0559 43.1239 29.4725 39.0894 29.0318 35.6218C28.5969 32.1546 28.2636 29.2595 28.0905 27.2264C27.9138 25.1932 27.8123 24.0309 27.8123 24.0309C27.8123 24.0309 27.8147 24.3221 27.8187 24.8697C27.8259 25.4163 27.8269 26.2194 27.8671 27.2404C27.9417 29.2813 28.0667 32.2009 28.3752 35.6916C28.6688 39.1844 29.1313 43.2462 29.6805 47.587C29.8004 48.5129 29.922 49.4587 30.046 50.4081C29.8811 50.2791 29.7191 50.1431 29.5583 50.0029C29.4411 49.2189 29.3233 48.4336 29.2082 47.6663C28.5796 43.3395 27.9962 39.3046 27.5555 35.8373C27.1206 32.3702 26.7872 29.4748 26.6142 27.4416C26.4371 25.4085 26.3359 24.2465 26.3359 24.2465C26.3359 24.2465 26.3383 24.5377 26.3424 25.0849C26.3495 25.6316 26.3506 26.4356 26.3908 27.4556C26.4654 29.4973 26.5903 32.4161 26.8989 35.9072C27.1924 39.3996 27.6549 43.4621 28.2043 47.8022C28.2482 48.1413 28.2938 48.4928 28.3381 48.8354C28.1508 48.6416 27.9679 48.4499 27.7884 48.2599C27.7697 48.1352 27.7503 48.0055 27.7319 47.8815C27.1032 43.5548 26.5199 39.5199 26.0792 36.0526C25.6443 32.5854 25.3109 29.691 25.1379 27.6579C24.9608 25.6237 24.8597 24.4618 24.8597 24.4618C24.8597 24.4618 24.862 24.7536 24.8661 25.3005C24.8733 25.8478 24.8743 26.6508 24.9144 27.6718C24.9891 29.7128 25.1141 32.6324 25.4226 36.1231C25.6937 39.3448 26.1088 43.0551 26.603 47.0185C26.401 46.8163 26.2062 46.6313 26.0192 46.4692C25.4815 42.7589 24.9877 39.2968 24.6028 36.2688C24.168 32.8016 23.8346 29.9062 23.6615 27.8731C23.4845 25.8393 23.3837 24.677 23.3837 24.677C23.3837 24.677 23.3857 24.9692 23.3898 25.5158C23.3969 26.0634 23.398 26.8661 23.4382 27.8871C23.5127 29.928 23.6377 32.8476 23.9463 36.3386C24.1846 39.1745 24.5358 42.3907 24.953 45.8222C24.7643 45.7779 24.5872 45.7864 24.4247 45.8668C23.9334 42.4666 23.4831 39.2873 23.1269 36.4841C22.6916 33.0169 22.3582 30.1215 22.1853 28.0883C22.0082 26.0545 21.907 24.8922 21.907 24.8922C21.907 24.8922 21.9094 25.1844 21.9135 25.732C21.9207 26.2786 21.9216 27.0817 21.9618 28.1023C22.0364 30.1433 22.1614 33.0632 22.4699 36.5539C22.7281 39.6219 23.1163 43.1301 23.5791 46.8806C23.2621 47.8825 23.6585 49.2329 23.8111 50.1431C23.9589 51.0262 24.1087 51.9086 24.2609 52.7917C24.5103 54.2373 24.7517 55.7089 24.9935 57.1971C25.2397 58.8021 25.4941 60.4133 25.7754 62.0262C25.8112 62.2265 25.8507 62.4253 25.8868 62.6249C27.0222 69.3451 28.384 76.1934 30.7152 82.4477C31.2035 84.03 31.7184 85.5314 32.2811 86.8992C32.9434 88.5348 33.6845 89.9873 34.4957 91.181C35.2954 92.3777 36.1893 93.3046 37.0676 93.867C37.9445 94.4421 38.7871 94.5791 39.3306 94.5913C39.6078 94.6052 39.8146 94.575 39.9552 94.5566C40.0951 94.5398 40.1676 94.5314 40.1676 94.5314C40.1676 94.5314 40.0948 94.5348 39.9538 94.5409C39.8128 94.5487 39.6017 94.5634 39.3326 94.5293C38.798 94.4823 38.0048 94.2732 37.1925 93.6821C36.3796 93.0963 35.5675 92.158 34.8546 90.9514C34.133 89.7482 33.4901 88.2907 32.8944 86.6621C32.8225 86.4649 32.7544 86.2569 32.6846 86.0545C32.5957 85.2209 32.576 84.3814 32.6111 83.5443C32.9745 84.6446 33.3528 85.7004 33.7574 86.6839C34.4198 88.3186 35.1608 89.7721 35.972 90.9647C36.7713 92.1625 37.6656 93.0891 38.5439 93.6507C39.4208 94.2269 40.263 94.3638 40.807 94.376C41.0841 94.3901 41.2908 94.3594 41.4312 94.3413C41.5718 94.3247 41.644 94.3158 41.644 94.3158C41.644 94.3158 41.5711 94.3185 41.4301 94.3253C41.2892 94.3331 41.0784 94.3481 40.809 94.3134C40.2743 94.2661 39.4811 94.0576 38.6689 93.4668C37.856 92.8807 37.0437 91.9428 36.331 90.7362C35.609 89.533 34.9663 88.0744 34.3707 86.4469C33.8142 84.9195 33.3208 83.2313 32.8321 81.4373C32.9087 81.0953 33.0293 80.7544 33.191 80.4514C33.2561 80.6656 33.3222 80.8836 33.3861 81.0953C33.9569 83.0222 34.5625 84.8364 35.2337 86.4687C35.896 88.1033 36.6371 89.5565 37.4483 90.7491C38.248 91.9472 39.1419 92.8739 40.0202 93.4354C40.8972 94.0117 41.7394 94.1486 42.2832 94.1598C42.5605 94.1748 42.7672 94.1432 42.9074 94.1257C43.0482 94.1084 43.1203 94.0996 43.1203 94.0996C43.1203 94.0996 43.0475 94.1033 42.9065 94.1094C42.7654 94.1173 42.5543 94.1329 42.2853 94.0978C41.7506 94.0508 40.9571 93.8424 40.1452 93.2515C39.3323 92.6648 38.5204 91.7276 37.8073 90.5199C37.0857 89.3178 36.4427 87.8591 35.847 86.2313C35.2531 84.6004 34.73 82.792 34.209 80.8611C34.1034 80.4748 33.9964 80.0809 33.8895 79.6858C34.0577 79.5925 34.2413 79.5288 34.4518 79.5244C34.5897 79.9821 34.7273 80.4347 34.8625 80.8802C35.4336 82.806 36.0388 84.6212 36.71 86.2531C37.3724 87.8878 38.1134 89.3403 38.9247 90.5339C39.7243 91.7316 40.6182 92.6577 41.4966 93.2199C42.3734 93.7954 43.2156 93.933 43.7596 93.9446C44.0367 93.9592 44.2434 93.9279 44.3841 93.9095C44.5241 93.8931 44.5966 93.8843 44.5966 93.8843C44.5966 93.8843 44.5237 93.8877 44.3824 93.8938C44.2418 93.9017 44.031 93.9174 43.7616 93.8826C43.2269 93.8356 42.4334 93.6272 41.6215 93.0353C40.8086 92.4492 39.9964 91.512 39.2836 90.3047C38.5617 89.1015 37.919 87.644 37.3233 86.0161C36.7294 84.3848 36.2067 82.5768 35.6852 80.6455C35.6291 80.4391 35.5719 80.2273 35.515 80.0189C35.8985 80.4085 36.2131 80.9588 36.5735 81.4322C37.0761 83.071 37.6057 84.6256 38.1863 86.0372C38.8487 87.6726 39.5898 89.125 40.4009 90.3186C41.2002 91.5157 42.0946 92.4424 42.9728 93.0046C43.8501 93.5802 44.692 93.7178 45.2358 93.729C45.5131 93.743 45.7194 93.7127 45.8601 93.6943C46.0008 93.6776 46.073 93.6691 46.073 93.6691C46.073 93.6691 46.0001 93.6725 45.8591 93.6786C45.7181 93.6864 45.507 93.7011 45.2379 93.6674C44.7032 93.6201 43.9097 93.4109 43.0978 92.8197C42.285 92.234 41.4727 91.2957 40.7599 90.0892C40.0379 88.8863 39.3953 87.4284 38.7997 85.7998C38.4036 84.7128 38.0402 83.5402 37.6867 82.3108C37.7204 82.3203 37.7521 82.3353 37.7876 82.3421C37.9939 82.3841 38.1992 82.3711 38.3971 82.3187C38.7963 83.5525 39.2138 84.7301 39.6627 85.8216C40.325 87.4563 41.0661 88.9098 41.8773 90.1024C42.6769 91.3001 43.5709 92.2268 44.4492 92.7884C45.3261 93.3646 46.1683 93.5015 46.7122 93.5138C46.9894 93.5277 47.1961 93.4971 47.3368 93.479C47.4767 93.4624 47.5492 93.4535 47.5492 93.4535C47.5492 93.4535 47.4764 93.4563 47.3354 93.4634C47.1944 93.4712 46.9832 93.4859 46.7142 93.4511C46.1796 93.4038 45.386 93.1957 44.5741 92.6045C43.7612 92.0187 42.949 91.0805 42.2362 89.8739C41.5143 88.6707 40.8716 87.2121 40.276 85.5846C39.8615 84.4468 39.4825 83.2184 39.114 81.9273C39.319 81.7475 39.4886 81.5244 39.6126 81.2837C40.0894 82.8182 40.5914 84.2751 41.1389 85.6064C41.8014 87.2411 42.5424 88.6943 43.3536 89.8868C44.1528 91.0849 45.0472 92.0116 45.9254 92.5732C46.8028 93.1494 47.6446 93.2862 48.1884 93.2975C48.4657 93.3125 48.6724 93.2819 48.8128 93.2635C48.9534 93.2461 49.0256 93.2383 49.0256 93.2383C49.0256 93.2383 48.9527 93.241 48.8117 93.2471C48.6707 93.2556 48.4596 93.2706 48.1905 93.2355C47.6558 93.1885 46.8624 92.9801 46.0505 92.3892C45.2376 91.8025 44.4253 90.8653 43.7126 89.6576C42.9905 88.4555 42.3479 86.9969 41.7523 85.3694C41.1584 83.7381 40.6356 81.9298 40.1142 79.9987C40.0622 79.8077 40.009 79.6116 39.9562 79.4181C39.9552 79.2192 39.9491 79.0207 39.9423 78.8235C39.9218 78.2384 39.9017 77.6537 39.8812 77.0686C40.1776 78.078 40.4776 79.0615 40.7677 80.0178C41.3385 81.9447 41.944 83.7588 42.6153 85.3912C43.2776 87.0258 44.0187 88.4783 44.8299 89.6717C45.6292 90.8697 46.5235 91.7953 47.4014 92.3579C48.2788 92.9332 49.1209 93.0711 49.6648 93.0823C49.942 93.097 50.1487 93.0656 50.289 93.0472C50.4294 93.0309 50.5019 93.022 50.5019 93.022C50.5019 93.022 50.429 93.0254 50.2881 93.0316C50.147 93.0393 49.9358 93.0554 49.6669 93.0203C49.1322 92.9733 48.3387 92.7649 47.5268 92.1737C46.7138 91.5869 45.9016 90.6497 45.1888 89.4425C44.4669 88.2403 43.8243 86.7816 43.2286 85.1538C42.6343 83.5225 42.1116 81.7145 41.5905 79.7836C41.062 77.8478 40.5113 75.8089 39.9933 73.6988C39.8989 73.3205 39.8149 72.9264 39.7243 72.543C39.699 71.821 39.6742 71.099 39.6493 70.3774C39.9191 71.5141 40.1987 72.6352 40.4906 73.7321C41.0423 75.8627 41.6624 77.8863 42.2441 79.8026C42.8149 81.7284 43.42 83.5426 44.0916 85.1749C44.754 86.8102 45.495 88.2627 46.3063 89.4564C47.1055 90.6534 47.9998 91.5801 48.8781 92.1423C49.755 92.7179 50.5972 92.8555 51.1411 92.8671C51.4183 92.8807 51.625 92.8503 51.7654 92.832C51.9056 92.8156 51.9782 92.8067 51.9782 92.8067C51.9782 92.8067 51.9053 92.8102 51.764 92.8163C51.6234 92.8242 51.4122 92.8398 51.1431 92.8051C50.6085 92.7581 49.815 92.5487 49.0031 91.9574C48.1902 91.3717 47.378 90.4338 46.6652 89.2272C45.9432 88.024 45.3005 86.566 44.7049 84.9376C44.111 83.3073 43.5883 81.4983 43.0668 79.568C42.5383 77.6326 41.9876 75.5926 41.4696 73.4825C40.9701 71.4845 40.5301 69.4017 40.0833 67.2892C40.1714 67.1656 40.2818 67.0617 40.4043 66.9694C40.8852 69.2099 41.4049 71.4062 41.9668 73.5159C42.5185 75.6475 43.1387 77.67 43.7203 79.5874C44.2911 81.5132 44.8963 83.3274 45.5679 84.9593C46.2303 86.595 46.9714 88.0475 47.7825 89.2401C48.5818 90.4379 49.4761 91.3648 50.3544 91.9272C51.2314 92.5023 52.0736 92.6393 52.6174 92.6515C52.8946 92.6654 53.101 92.6352 53.2416 92.6168C53.382 92.6 53.4545 92.5916 53.4545 92.5916C53.4545 92.5916 53.3817 92.595 53.2407 92.6011C53.0997 92.6089 52.8885 92.6236 52.6195 92.5895C52.0848 92.5418 51.2913 92.3334 50.4794 91.7422C49.6665 91.1565 48.8543 90.2182 48.1415 89.0116C47.4195 87.8084 46.7769 86.3509 46.1812 84.7223C45.587 83.0921 45.0643 81.283 44.5432 79.3527C44.3409 78.6127 44.1355 77.8522 43.9298 77.0843C44.4437 78.3791 45.0186 79.65 45.6547 80.889C45.6445 80.8488 45.6343 80.8086 45.6241 80.7684C46.0689 82.1774 46.5378 83.513 47.0442 84.7441C47.7066 86.3788 48.4476 87.8323 49.2589 89.0249C50.0582 90.2227 50.9525 91.1493 51.8308 91.7109C52.7076 92.2871 53.5499 92.424 54.0938 92.4353C54.371 92.4503 54.5777 92.4196 54.718 92.4015C54.8583 92.3838 54.9308 92.376 54.9308 92.376C54.9308 92.376 54.8579 92.3787 54.7166 92.3855C54.576 92.3933 54.3648 92.4083 54.0958 92.3736Z" fill="white" fill-opacity="0.5"/>
<path d="M335.069 48.9808L333.103 61.8317L332.144 61.6843L334.11 48.8344L335.069 48.9808Z" fill="white" fill-opacity="0.5"/>
<path d="M335.975 54.0837C336.129 53.0761 336.297 52.0697 336.464 51.0654C336.631 51.1325 336.786 51.2374 336.928 51.3682C337.503 51.8998 337.87 52.8676 338.001 53.5161C338.342 55.2042 337.653 57.0943 337.653 57.0943C337.653 57.0943 337.672 55.1422 337.03 54.6443C336.388 54.1475 335.975 54.0837 335.975 54.0837ZM336.007 49.5788L334.14 61.781C336.581 61.0366 338.509 58.9599 338.921 56.2685C339.332 53.5774 338.113 51.0194 336.007 49.5788Z" fill="white" fill-opacity="0.5"/>
<path d="M282.97 92.1764C283.104 92.1713 283.26 92.1485 283.437 92.1318C284.138 92.043 285.151 91.6192 286.11 90.6848C286.98 89.832 287.824 88.6561 288.627 87.2306C288.394 87.7056 288.156 88.1633 287.906 88.5801C287.193 89.7878 286.381 90.725 285.568 91.3118C284.756 91.9026 283.962 92.111 283.428 92.158C283.242 92.1816 283.097 92.1809 282.97 92.1764ZM282.633 92.1485C282.723 92.1557 282.836 92.1652 282.969 92.1764C282.913 92.1737 282.851 92.172 282.807 92.1696C282.666 92.1635 282.593 92.1598 282.593 92.1598C282.593 92.1598 282.665 92.1686 282.805 92.1853C282.946 92.2034 283.152 92.235 283.43 92.22C283.974 92.2088 284.816 92.0709 285.693 91.4956C286.572 90.933 287.465 90.0074 288.265 88.8094C289.076 87.616 289.817 86.1635 290.479 84.5289C291.151 82.8966 291.756 81.0824 292.327 79.1555C292.908 77.2396 293.529 75.216 294.081 73.0852C295.21 68.8428 296.169 64.2589 296.985 59.6546C297.387 57.3514 297.743 55.0418 298.082 52.7672C298.426 50.4936 298.704 48.2476 298.985 46.0776C299.535 41.7379 299.997 37.675 300.291 34.1833C300.403 32.914 300.49 31.7231 300.56 30.6203C301.02 25.2543 301.177 20.2124 300.984 15.8716C300.885 13.6109 300.648 11.5395 300.261 9.73479C299.874 7.93447 299.36 6.38175 298.654 5.24577C297.966 4.09583 297.08 3.44108 296.427 3.17953C296.261 3.1185 296.121 3.04527 295.989 3.01649C295.858 2.98947 295.746 2.96594 295.657 2.94763C295.478 2.91101 295.387 2.89271 295.387 2.89271C295.387 2.89271 295.477 2.91624 295.654 2.96332C295.741 2.98685 295.85 3.01562 295.979 3.0505C296.107 3.08624 296.242 3.16733 296.402 3.2362C297.033 3.53001 297.836 4.2205 298.461 5.35823C299.098 6.48899 299.537 8.0295 299.84 9.81413C300.14 11.6049 300.285 13.6554 300.336 15.8951C300.442 20.3781 300.053 25.6107 299.51 31.199C298.962 36.7903 298.163 42.7333 297.274 48.6672C296.434 54.6025 295.474 60.524 294.372 66.0311C293.266 71.5349 292.102 76.6518 290.702 80.9125C289.999 83.0396 289.281 84.9672 288.488 86.6012C287.698 88.2341 286.843 89.5817 285.953 90.5278C285.056 91.4684 284.112 91.9462 283.428 92.0702C283.257 92.096 283.104 92.1284 282.972 92.1407C282.838 92.1373 282.725 92.1346 282.634 92.1328C282.452 92.1284 282.358 92.126 282.358 92.126C282.358 92.126 282.452 92.1339 282.633 92.1485Z" fill="white" fill-opacity="0.5"/>
<path d="M268.854 45.2425C268.885 45.028 268.914 44.8155 268.945 44.5999C269.235 42.6192 269.541 40.689 269.854 38.7876L271.648 37.5419C271.277 39.7371 270.916 42.0168 270.571 44.3602L268.854 45.2425ZM273.04 45.1973C275.717 26.8672 278.64 12.1175 279.57 12.2535C280.01 12.318 280.255 13.1715 280.341 14.6589C279.01 19.379 276.806 31.3492 274.747 45.4466C272.709 59.4087 271.404 71.412 271.307 76.4053C270.787 77.8958 270.306 78.6962 269.878 78.6335C268.948 78.4977 270.364 63.5281 273.04 45.1973ZM268.072 87.7512C273.338 87.8932 277.67 69.3966 281.032 46.3647C281.429 43.6515 281.797 40.9995 282.132 38.4222L279.201 39.9278C279.59 37.0072 279.931 34.2139 280.203 31.6036L282.803 29.8C284.516 16.1584 283.218 7.98245 281.509 3.29813C286.635 5.94238 285.254 24.3221 282.014 46.5077C278.595 69.9275 274.041 88.6527 268.215 87.8016C268.166 87.7945 268.12 87.7686 268.072 87.7512ZM270.455 90.3881C270.46 90.3858 270.463 90.3831 270.467 90.3803C270.6 90.397 270.763 90.4144 270.982 90.4031C271.526 90.3909 272.368 90.254 273.245 89.6778C274.123 89.1162 275.017 88.1896 275.817 86.9918C276.628 85.7992 277.369 84.3457 278.031 82.711C278.049 82.6684 278.065 82.6221 278.083 82.5785C278.522 82.2387 278.923 81.8837 279.299 81.5173C279.166 81.9168 279.033 82.3091 278.894 82.6892C278.298 84.3177 277.656 85.7753 276.934 86.9785C276.221 88.1851 275.409 89.1233 274.596 89.7091C273.784 90.3003 272.99 90.5087 272.456 90.5568C272.187 90.5905 271.976 90.5759 271.835 90.568C271.694 90.5618 271.621 90.5584 271.621 90.5584C271.621 90.5584 271.693 90.567 271.834 90.5836C271.974 90.602 272.18 90.6323 272.458 90.6184C273.002 90.6061 273.844 90.4696 274.721 89.894C275.599 89.3318 276.493 88.4051 277.293 87.2081C278.104 86.0144 278.845 84.5619 279.507 82.9262C279.867 82.051 280.207 81.1192 280.535 80.1497C280.977 79.5959 281.382 79.0187 281.765 78.4182C281.323 80.0162 280.873 81.5273 280.37 82.9054C279.775 84.5333 279.132 85.9909 278.411 87.1941C277.697 88.4006 276.885 89.3386 276.072 89.9247C275.26 90.5155 274.466 90.725 273.932 90.772C273.663 90.8067 273.452 90.791 273.311 90.7833C273.17 90.7771 273.097 90.7737 273.097 90.7737C273.097 90.7737 273.169 90.7826 273.31 90.7989C273.451 90.8173 273.657 90.8486 273.935 90.834C274.478 90.8224 275.32 90.6848 276.197 90.1092C277.076 89.547 277.969 88.6203 278.769 87.4232C279.581 86.2296 280.322 84.7772 280.983 83.1418C281.656 81.5095 282.261 79.6954 282.832 77.7695C283.077 76.9613 283.329 76.1304 283.58 75.2838C283.671 75.1172 283.763 74.9511 283.857 74.7818C284.009 74.5073 284.219 74.2079 284.475 74.053C284.145 75.3189 283.811 76.5561 283.485 77.7504C282.963 79.6814 282.441 81.4898 281.846 83.1207C281.251 84.7486 280.608 86.2071 279.887 87.4093C279.173 88.6169 278.362 89.5542 277.548 90.1405C276.737 90.7318 275.943 90.9402 275.409 90.9872C275.139 91.0223 274.929 91.0063 274.787 90.9984C274.646 90.9927 274.574 90.9889 274.574 90.9889C274.574 90.9889 274.646 90.9977 274.786 91.0145C274.927 91.0325 275.133 91.0638 275.411 91.0492C275.955 91.0379 276.797 90.9 277.674 90.3249C278.552 89.7632 279.446 88.8366 280.246 87.6385C281.057 86.4452 281.798 84.9928 282.46 83.3581C283.132 81.7258 283.737 79.9116 284.308 77.9848C284.668 76.7976 285.042 75.5637 285.406 74.2945C285.527 74.4766 285.608 74.7035 285.67 74.9132C285.69 74.9807 285.71 75.0485 285.73 75.1156C285.472 76.0868 285.214 77.039 284.961 77.9657C284.44 79.8966 283.917 81.705 283.323 83.3363C282.727 84.9638 282.084 86.4224 281.363 87.6256C280.65 88.8322 279.838 89.77 279.025 90.3562C278.213 90.947 277.419 91.1554 276.885 91.2028C276.615 91.2375 276.405 91.2226 276.264 91.2147C276.123 91.2079 276.05 91.2051 276.05 91.2051C276.05 91.2051 276.122 91.214 276.262 91.2303C276.403 91.2487 276.609 91.2794 276.887 91.2644C277.431 91.2532 278.273 91.1163 279.15 90.54C280.028 89.9785 280.922 89.0518 281.722 87.8541C282.533 86.6614 283.274 85.2079 283.936 83.5733C284.608 81.9414 285.213 80.1268 285.784 78.201C285.927 77.7311 286.071 77.2543 286.217 76.7714C286.322 77.1269 286.427 77.4828 286.531 77.8376C286.499 77.9517 286.468 78.0685 286.437 78.1819C285.916 80.1122 285.393 81.9212 284.799 83.5515C284.204 85.18 283.561 86.6376 282.839 87.8408C282.126 89.0474 281.314 89.9856 280.501 90.5714C279.69 91.1626 278.895 91.371 278.361 91.4187C278.092 91.4527 277.881 91.4381 277.74 91.4302C277.599 91.4241 277.526 91.4207 277.526 91.4207C277.526 91.4207 277.598 91.4293 277.738 91.4459C277.88 91.464 278.086 91.4947 278.363 91.4807C278.907 91.4684 279.749 91.3315 280.626 90.7563C281.505 90.1941 282.398 89.2671 283.198 88.0694C284.009 86.8767 284.75 85.4242 285.412 83.7885C285.975 82.4243 286.488 80.9265 286.975 79.3483C287.09 79.7383 287.204 80.1279 287.319 80.5168C286.988 81.658 286.646 82.7502 286.275 83.7667C285.68 85.3953 285.037 86.8532 284.315 88.056C283.602 89.2626 282.791 90.2009 281.977 90.7867C281.166 91.3778 280.372 91.5869 279.838 91.6342C279.568 91.669 279.357 91.6533 279.216 91.6455C279.075 91.6394 279.003 91.636 279.003 91.636C279.003 91.636 279.075 91.6444 279.215 91.6612C279.356 91.6796 279.562 91.7098 279.84 91.6959C280.384 91.6846 281.226 91.5471 282.103 90.9716C282.981 90.4092 283.875 89.4827 284.675 88.2856C285.485 87.0919 286.226 85.6395 286.889 84.0041C287.173 83.3135 287.444 82.5836 287.706 81.833C287.749 81.9743 287.79 82.1174 287.832 82.2584C288.173 81.4015 288.607 80.6258 289.049 79.8479C288.639 81.3171 288.217 82.7059 287.752 83.983C287.156 85.6108 286.513 87.0695 285.791 88.2716C285.079 89.4789 284.267 90.4161 283.454 91.0029C282.642 91.5941 281.848 91.8025 281.314 91.8495C281.044 91.8842 280.833 91.8686 280.693 91.8607C280.552 91.8546 280.479 91.8512 280.479 91.8512C280.479 91.8512 280.551 91.8601 280.691 91.8764C280.832 91.8948 281.038 91.9261 281.315 91.9115C281.86 91.8999 282.702 91.7623 283.579 91.1867C284.457 90.6245 285.351 89.6985 286.151 88.5008C286.961 87.3071 287.703 85.8547 288.365 84.22C289.036 82.5881 289.641 80.7739 290.212 78.847C290.794 76.9307 291.415 74.9075 291.967 72.7766C293.096 68.5343 294.055 63.95 294.871 59.3461C295.273 57.0429 295.629 54.7332 295.967 52.4587C296.312 50.1851 296.59 47.9391 296.871 45.769C297.421 41.4294 297.883 37.3665 298.177 33.8741C298.485 30.3831 298.61 27.4641 298.684 25.4224C298.725 24.4025 298.726 23.5984 298.733 23.0519C298.737 22.5052 298.739 22.2133 298.739 22.2133C298.739 22.2133 298.638 23.3754 298.461 25.4096C298.288 27.4416 297.954 30.337 297.519 33.8043C297.436 34.4683 297.344 35.1601 297.25 35.8643C296.912 37.1335 296.529 38.3916 296.104 39.635C296.341 37.514 296.545 35.505 296.7 33.6585C297.008 30.1678 297.134 27.2489 297.208 25.2073C297.248 24.1869 297.25 23.3832 297.257 22.8366C297.26 22.2891 297.263 21.9979 297.263 21.9979C297.263 21.9979 297.162 23.1601 296.985 25.1932C296.812 27.2264 296.478 30.1215 296.043 33.589C295.674 36.4919 295.205 39.7963 294.693 43.3341C294.527 43.6968 294.292 44.1633 294.001 44.6759C294.514 40.5861 294.945 36.7562 295.224 33.4433C295.532 29.9526 295.657 27.0326 295.732 24.9917C295.772 23.971 295.773 23.168 295.78 22.6214C295.784 22.0738 295.787 21.7817 295.787 21.7817C295.787 21.7817 295.686 22.9439 295.509 24.9777C295.335 27.0108 295.002 29.9063 294.567 33.3735C294.126 36.84 293.543 40.8746 292.914 45.2017C292.841 45.6924 292.765 46.1982 292.69 46.6961C292.517 46.9287 292.336 47.1572 292.151 47.3751C292.248 46.6201 292.347 45.8617 292.442 45.123C292.992 40.7823 293.454 36.7194 293.748 33.2281C294.056 29.737 294.181 26.8174 294.255 24.7764C294.296 23.7554 294.297 22.9524 294.304 22.4051C294.308 21.8584 294.31 21.5664 294.31 21.5664C294.31 21.5664 294.209 22.7287 294.032 24.7625C293.859 26.7956 293.526 29.691 293.09 33.1572C292.65 36.6245 292.067 40.6594 291.438 44.9861C291.261 46.1669 291.081 47.3717 290.898 48.5896C290.747 48.7047 290.594 48.8075 290.441 48.8981C290.623 47.5495 290.797 46.2121 290.966 44.9068C291.515 40.567 291.978 36.5042 292.271 33.0125C292.579 29.5211 292.705 26.6022 292.779 24.5612C292.819 23.5402 292.82 22.7372 292.828 22.1897C292.831 21.6431 292.834 21.351 292.834 21.351C292.834 21.351 292.733 22.5131 292.556 24.5472C292.383 26.5804 292.049 29.4748 291.614 32.942C291.174 36.4092 290.591 40.4441 289.962 44.7709C289.741 46.2462 289.513 47.7637 289.284 49.2949C289.149 49.3054 289.014 49.3033 288.88 49.2836C289.095 47.73 289.295 46.1894 289.49 44.6916C290.039 40.3515 290.501 36.289 290.795 32.7962C291.103 29.3055 291.228 26.3866 291.303 24.345C291.343 23.325 291.344 22.5209 291.351 21.9744C291.355 21.4269 291.358 21.1357 291.358 21.1357C291.358 21.1357 291.257 22.2978 291.079 24.331C290.906 26.3641 290.573 29.2595 290.138 32.7268C289.697 36.194 289.114 40.2285 288.485 44.5556C288.279 45.9339 288.067 47.3489 287.852 48.7761C287.736 48.6741 287.621 48.5606 287.507 48.4247C287.504 48.4203 287.5 48.4142 287.497 48.4101C287.675 47.0802 287.846 45.7622 288.013 44.4763C288.563 40.1352 289.025 36.0734 289.319 32.581C289.627 29.0903 289.752 26.1703 289.826 24.1294C289.867 23.1087 289.868 22.3057 289.875 21.759C289.879 21.2115 289.881 20.9195 289.881 20.9195C289.881 20.9195 289.78 22.0816 289.603 24.1154C289.43 26.1485 289.097 29.0439 288.662 32.5112C288.221 35.9777 287.638 40.0133 287.009 44.3394C286.904 45.0453 286.795 45.769 286.687 46.4883C286.583 46.0402 286.501 45.5477 286.438 45.0235C286.471 44.7709 286.505 44.5111 286.537 44.2607C287.086 39.92 287.548 35.8575 287.842 32.3658C288.151 28.8751 288.276 25.9551 288.35 23.9142C288.39 22.8932 288.391 22.0903 288.398 21.5428C288.403 20.9962 288.405 20.7041 288.405 20.7041C288.405 20.7041 288.304 21.8663 288.127 23.9002C287.954 25.9333 287.621 28.8288 287.186 32.2959C286.946 34.1854 286.662 36.247 286.353 38.4294C286.407 37.186 286.449 35.9419 286.464 34.6968C286.434 35.6961 286.341 37.2167 286.286 38.9C286.048 40.5793 285.795 42.3237 285.533 44.1242C285.209 46.2843 284.874 48.5163 284.534 50.7847C284.186 53.0498 283.815 55.3489 283.404 57.6392C283.005 59.9312 282.587 62.2203 282.118 64.4602C281.643 66.7 281.181 68.9048 280.653 71.019C280.135 73.1288 279.585 75.169 279.056 77.1033C278.534 79.0347 278.012 80.8427 277.418 82.474C276.822 84.1015 276.18 85.5601 275.458 86.7633C274.745 87.9699 273.933 88.9081 273.119 89.4938C272.308 90.0851 271.514 90.2931 270.979 90.3405C270.784 90.3657 270.631 90.363 270.501 90.3579C270.82 90.1702 271.135 89.9349 271.446 89.656C271.553 89.5977 271.66 89.534 271.768 89.4625C272.647 88.901 273.541 87.9743 274.34 86.7763C275.152 85.5836 275.893 84.1304 276.554 82.4958C277.227 80.8634 277.832 79.0494 278.403 77.1228C278.984 75.2065 279.604 73.1829 280.156 71.052C281.285 66.8107 282.245 62.2258 283.061 57.6214C283.463 55.3182 283.819 53.0086 284.157 50.734C284.501 48.4605 284.779 46.2155 285.061 44.0448C285.153 43.3095 285.243 42.5862 285.331 41.8687C285.901 37.5896 286.402 33.3534 286.773 29.3004C287.288 23.69 287.516 18.4217 287.339 13.9091C287.254 11.6537 287.037 9.58748 286.67 7.78716C286.302 5.99033 285.805 4.44196 285.117 3.30946C284.959 3.04094 284.791 2.80205 284.617 2.58496C284.323 2.04792 283.997 1.58237 283.632 1.20662C283.676 1.21359 283.719 1.22144 283.753 1.23451C283.812 1.25631 283.874 1.27985 283.942 1.30426C284.01 1.33042 284.085 1.34872 284.165 1.38184C284.244 1.42631 284.329 1.47252 284.416 1.52134C284.602 1.60242 284.764 1.76109 284.956 1.89972C285.124 2.07059 285.323 2.23449 285.48 2.45681C285.655 2.66343 285.81 2.90144 285.961 3.15079C286.108 3.40187 286.248 3.66776 286.371 3.94239C286.872 5.04351 287.176 6.24839 287.362 7.15509C287.549 8.0644 287.638 8.6799 287.638 8.6799C287.638 8.6799 287.621 8.06004 287.539 7.12893C287.458 6.19869 287.297 4.95371 286.907 3.73577C286.811 3.4315 286.696 3.13073 286.567 2.83867C286.435 2.54748 286.294 2.26414 286.122 2.00172C286.103 1.96772 286.077 1.93894 286.056 1.90582C286.136 1.96771 286.215 2.0331 286.303 2.09587C286.47 2.26762 286.67 2.43066 286.827 2.65297C287.001 2.86047 287.157 3.0976 287.308 3.34782C287.454 3.5989 287.594 3.86481 287.717 4.13943C288.218 5.23968 288.522 6.44542 288.709 7.35212C288.896 8.26056 288.984 8.87607 288.984 8.87607C288.984 8.87607 288.968 8.25619 288.886 7.32508C288.804 6.39571 288.644 5.14987 288.254 3.93194C288.158 3.62854 288.042 3.3269 287.914 3.03571C287.782 2.74364 287.64 2.46029 287.469 2.19875C287.45 2.16387 287.424 2.1351 287.403 2.10197C287.482 2.16387 287.562 2.23014 287.649 2.29291C287.816 2.46379 288.016 2.62769 288.173 2.85C288.348 3.05663 288.503 3.29464 288.654 3.54398C288.8 3.79507 288.941 4.06097 289.064 4.33559C289.565 5.43671 289.869 6.64159 290.055 7.54828C290.242 8.4576 290.331 9.0731 290.331 9.0731C290.331 9.0731 290.314 8.45236 290.233 7.52212C290.151 6.59188 289.99 5.34691 289.6 4.12897C289.505 3.8247 289.389 3.52393 289.26 3.23187C289.128 2.94068 288.987 2.65733 288.815 2.39491C288.796 2.36091 288.77 2.33214 288.749 2.299C288.829 2.36091 288.908 2.42629 288.996 2.48906C289.163 2.66081 289.362 2.82384 289.52 3.04617C289.694 3.25365 289.85 3.4908 290 3.74101C290.147 3.9921 290.287 4.258 290.41 4.53262C290.911 5.63287 291.215 6.83862 291.402 7.74532C291.589 8.65376 291.677 9.26926 291.677 9.26926C291.677 9.26926 291.661 8.64939 291.58 7.71828C291.498 6.78892 291.337 5.54307 290.947 4.32513C290.852 4.02174 290.735 3.72009 290.607 3.42802C290.475 3.13683 290.333 2.85349 290.161 2.59194C290.143 2.55707 290.117 2.5283 290.096 2.49517C290.175 2.55707 290.255 2.62333 290.342 2.6861C290.509 2.85698 290.709 3.02089 290.866 3.2432C291.041 3.44983 291.196 3.68783 291.347 3.93717C291.493 4.18826 291.634 4.45416 291.756 4.72879C292.257 5.82903 292.562 7.03477 292.748 7.94147C292.935 8.85079 293.024 9.4663 293.024 9.4663C293.024 9.4663 293.008 8.84555 292.926 7.91531C292.844 6.98508 292.683 5.7401 292.294 4.52216C292.198 4.2179 292.082 3.91712 291.954 3.62506C291.821 3.33388 291.679 3.04965 291.508 2.7881C291.489 2.7541 291.463 2.72533 291.442 2.6922C291.521 2.7541 291.601 2.8195 291.689 2.88226C291.856 3.05402 292.056 3.21704 292.212 3.43935C292.387 3.64685 292.543 3.88399 292.693 4.1342C292.84 4.38529 292.981 4.65119 293.103 4.92582C293.604 6.02606 293.908 7.2318 294.095 8.1385C294.282 9.04694 294.37 9.66245 294.37 9.66245C294.37 9.66245 294.354 9.04259 294.272 8.11148C294.191 7.18211 294.03 5.93626 293.641 4.71832C293.544 4.41492 293.428 4.11328 293.3 3.82122C293.168 3.53003 293.026 3.24668 292.854 2.98513C292.835 2.95026 292.81 2.92149 292.789 2.88837C292.868 2.95026 292.948 3.01653 293.035 3.0793C293.202 3.25018 293.402 3.41409 293.559 3.6364C293.734 3.84302 293.889 4.08102 294.04 4.33037C294.186 4.58145 294.327 4.84736 294.45 5.12198C294.95 6.22223 295.254 7.42796 295.441 8.33466C295.628 9.24397 295.716 9.8595 295.716 9.8595C295.716 9.8595 295.701 9.23875 295.619 8.30851C295.537 7.37827 295.376 6.13329 294.987 4.91535C294.891 4.61108 294.775 4.31032 294.647 4.01826C294.514 3.72707 294.372 3.44284 294.201 3.1813C294.182 3.14729 294.156 3.11852 294.135 3.0854C294.214 3.14729 294.294 3.21269 294.382 3.27546C294.549 3.44721 294.749 3.61024 294.906 3.83255C295.08 4.04005 295.235 4.27718 295.386 4.5274C295.533 4.77848 295.674 5.04439 295.797 5.31902C296.297 6.41926 296.601 7.62499 296.788 8.53169C296.975 9.44013 297.063 10.0556 297.063 10.0556C297.063 10.0556 297.047 9.43578 296.965 8.50467C296.884 7.5753 296.723 6.32946 296.333 5.11152C296.237 4.80812 296.121 4.50647 295.993 4.21441C295.86 3.92322 295.719 3.63988 295.547 3.37833C295.443 3.18914 295.31 3.0235 295.178 2.86221L296.891 3.11156L296.887 3.12986C296.887 3.12986 297.046 3.15688 297.323 3.20222C297.392 3.21442 297.469 3.22751 297.552 3.24146C297.615 3.26412 297.685 3.28766 297.759 3.31381C297.908 3.35828 298.082 3.41145 298.27 3.52218C298.467 3.60674 298.657 3.741 298.858 3.88921C299.062 4.03307 299.249 4.22749 299.445 4.42539C299.629 4.63811 299.821 4.85956 299.983 5.11588C300.164 5.3565 300.3 5.6381 300.456 5.90749C300.738 6.46371 300.973 7.0522 301.163 7.61714C301.346 8.1847 301.495 8.72437 301.602 9.19254C301.821 10.1289 301.925 10.7653 301.925 10.7653C301.925 10.7653 301.892 10.1236 301.779 9.16116C301.724 8.67991 301.636 8.12019 301.514 7.52299C301.387 6.92579 301.213 6.29372 300.981 5.67297C300.85 5.36871 300.736 5.05398 300.569 4.76627C300.423 4.46811 300.238 4.19436 300.055 3.92845C300.027 3.89184 299.997 3.85696 299.968 3.82035C300.121 3.9023 300.272 4.00256 300.43 4.11938C300.633 4.26323 300.822 4.45677 301.018 4.65468C301.202 4.8674 301.394 5.08886 301.556 5.34518C301.736 5.58667 301.873 5.86739 302.029 6.13679C302.311 6.69389 302.546 7.28149 302.735 7.84731C302.918 8.41399 303.068 8.95453 303.175 9.4227C303.394 10.359 303.497 10.9955 303.497 10.9955C303.497 10.9955 303.465 10.3529 303.352 9.39131C303.297 8.91006 303.209 8.35036 303.087 7.75229C302.959 7.15596 302.786 6.52301 302.554 5.90228C302.422 5.59801 302.309 5.28327 302.142 4.99557C301.996 4.6974 301.811 4.42365 301.628 4.15862C301.599 4.12113 301.57 4.08625 301.541 4.04964C301.694 4.13158 301.845 4.23184 302.003 4.34866C302.206 4.49252 302.395 4.68694 302.591 4.88484C302.775 5.09669 302.966 5.31902 303.129 5.57446C303.309 5.81596 303.446 6.09756 303.602 6.36607C303.884 6.92317 304.119 7.51166 304.307 8.0766C304.491 8.64329 304.639 9.18382 304.748 9.652C304.966 10.5883 305.069 11.2248 305.069 11.2248C305.069 11.2248 305.038 10.5822 304.925 9.6206C304.87 9.13935 304.782 8.57964 304.66 7.98158C304.532 7.38525 304.359 6.75317 304.127 6.13156C303.995 5.82816 303.882 5.51256 303.714 5.22486C303.569 4.92757 303.384 4.65294 303.2 4.3879C303.171 4.35129 303.143 4.31642 303.114 4.2798C303.266 4.36176 303.418 4.46201 303.576 4.57796C303.779 4.72182 303.967 4.91624 304.163 5.11414C304.347 5.32687 304.539 5.54831 304.701 5.80463C304.882 6.04612 305.019 6.32685 305.174 6.59624C305.456 7.15247 305.692 7.74094 305.88 8.30676C306.064 8.87345 306.212 9.41311 306.32 9.88215C306.539 10.8185 306.642 11.454 306.642 11.454C306.642 11.454 306.611 10.8124 306.497 9.85076C306.442 9.36864 306.354 8.80894 306.232 8.21174C306.104 7.61454 305.932 6.98246 305.7 6.36172C305.568 6.05745 305.455 5.74273 305.287 5.45502C305.142 5.15686 304.957 4.88311 304.773 4.6172C304.744 4.58059 304.715 4.54569 304.687 4.50908C304.839 4.59103 304.991 4.6913 305.149 4.80813C305.352 4.95198 305.54 5.14639 305.736 5.34343C305.92 5.55615 306.112 5.77847 306.274 6.03391C306.455 6.27541 306.591 6.55614 306.747 6.82553C307.029 7.38263 307.265 7.97024 307.453 8.53605C307.637 9.10274 307.785 9.64327 307.893 10.1114C308.112 11.0478 308.215 11.6842 308.215 11.6842C308.215 11.6842 308.183 11.0417 308.07 10.08C308.014 9.5988 307.927 9.0391 307.804 8.44102C307.677 7.8447 307.504 7.21262 307.272 6.591C307.141 6.28674 307.027 5.97202 306.86 5.68431C306.714 5.38615 306.53 5.11238 306.346 4.84735C306.317 4.81073 306.288 4.77586 306.259 4.73924C306.412 4.82033 306.564 4.92146 306.721 5.03741C306.925 5.18127 307.113 5.37569 307.309 5.57359C307.493 5.78632 307.685 6.00777 307.847 6.26321C308.027 6.50471 308.164 6.78629 308.319 7.05482C308.602 7.61192 308.837 8.2004 309.026 8.76535C309.21 9.33291 309.358 9.87256 309.466 10.3407C309.685 11.2771 309.788 11.9135 309.788 11.9135C309.788 11.9135 309.756 11.2718 309.643 10.3093C309.587 9.8281 309.5 9.26839 309.377 8.6712C309.25 8.07399 309.077 7.4419 308.845 6.82029C308.713 6.5169 308.6 6.20218 308.433 5.91447C308.287 5.61631 308.102 5.34255 307.918 5.07664C307.89 5.04003 307.86 5.00515 307.831 4.96853C307.985 5.05048 308.136 5.15075 308.294 5.2667C308.497 5.41142 308.686 5.60497 308.882 5.80288C309.066 6.0156 309.257 6.23704 309.42 6.49335C309.6 6.73486 309.737 7.01559 309.892 7.28498C310.175 7.84208 310.41 8.42969 310.598 8.99551C310.782 9.56219 310.931 10.1027 311.039 10.5709C311.257 11.5072 311.36 12.1437 311.36 12.1437C311.36 12.1437 311.329 11.5011 311.216 10.5395C311.16 10.0583 311.073 9.49855 310.95 8.90048C310.822 8.30415 310.65 7.6712 310.418 7.05045C310.285 6.74619 310.173 6.43146 310.006 6.14375C309.859 5.84559 309.675 5.57184 309.491 5.3068C309.462 5.26931 309.433 5.23444 309.404 5.19783C309.557 5.27978 309.709 5.38004 309.867 5.49686C310.07 5.64072 310.258 5.83514 310.455 6.03304C310.638 6.2449 310.829 6.46721 310.992 6.72266C311.173 6.96415 311.31 7.24489 311.465 7.51428C311.747 8.07137 311.983 8.65986 312.171 9.2248C312.355 9.79149 312.503 10.332 312.611 10.8002C312.83 11.7365 312.933 12.373 312.933 12.373C312.933 12.373 312.902 11.7304 312.788 10.7688C312.733 10.2876 312.645 9.72783 312.523 9.12976C312.395 8.53342 312.222 7.90136 311.991 7.27975C311.858 6.97635 311.746 6.66075 311.578 6.37305C311.432 6.07488 311.247 5.80113 311.064 5.53609C311.035 5.49948 311.006 5.46461 310.977 5.42799C311.13 5.50995 311.282 5.6102 311.44 5.72616C311.643 5.87 311.831 6.06443 312.027 6.26233C312.21 6.47506 312.402 6.6965 312.564 6.95281C312.746 7.19431 312.883 7.47504 313.038 7.74444C313.32 8.30066 313.556 8.88914 313.744 9.45409C313.928 10.0216 314.076 10.5613 314.184 11.0295C314.402 11.9667 314.506 12.6022 314.506 12.6022C314.506 12.6022 314.475 11.9606 314.361 10.9981C314.305 10.5168 314.218 9.95712 314.095 9.35992C313.968 8.76272 313.795 8.13065 313.563 7.50991C313.431 7.20564 313.318 6.89091 313.151 6.6032C313.005 6.30504 312.82 6.0313 312.637 5.76539C312.608 5.72877 312.578 5.6939 312.55 5.65728C312.703 5.73923 312.855 5.83949 313.012 5.95632C313.216 6.10017 313.404 6.29372 313.6 6.49162C313.783 6.70435 313.975 6.92579 314.137 7.18211C314.318 7.4236 314.455 7.70434 314.611 7.97373C314.893 8.53083 315.128 9.11844 315.317 9.68425C315.501 10.2509 315.649 10.7915 315.757 11.2596C315.975 12.196 316.079 12.8324 316.079 12.8324C316.079 12.8324 316.047 12.1899 315.934 11.2283C315.878 10.747 315.791 10.1873 315.668 9.58922C315.541 8.99289 315.367 8.35995 315.136 7.7392C315.004 7.43494 314.891 7.12021 314.724 6.8325C314.577 6.53434 314.393 6.26059 314.21 5.99555C314.101 5.85693 313.993 5.7218 313.881 5.59277L313.949 5.60236L313.943 5.6477C320.659 7.57966 319.392 27.4059 315.88 51.4526C312.374 75.4636 307.523 94.7449 300.927 94.7885L300.92 94.8366L270.455 90.3881ZM309.774 85.4634C309.985 84.8643 310.193 84.2418 310.399 83.6002C315.411 86.3247 318.864 79.508 320.23 75.7695C322.63 69.2021 325.668 52.3506 325.928 46.6235C325.928 46.6235 324.678 59.1237 322.18 58.4709C319.693 57.8213 318.234 48.1894 318.644 39.3527C318.84 37.6645 319.019 36.0117 319.178 34.4051C319.338 33.9786 319.488 33.5506 319.584 33.1208C319.861 31.8907 320.038 30.6282 320.406 29.4189C320.859 27.9273 322.365 25.2341 324.319 25.8628C324.954 26.0668 325.365 26.6716 325.668 27.2663C326.497 28.8941 326.877 30.7474 326.756 32.5705C326.963 28.5951 327.424 20.1061 322.606 18.372C321.764 18.0686 320.857 18.0285 319.958 18.0215C319.95 17.7216 319.937 17.4313 319.923 17.1401L322.584 17.5289L322.58 17.5629C329.328 19.277 328.73 34.5174 326.041 52.9354C323.356 71.3275 319.172 86.0274 312.611 85.8411L312.605 85.8764L309.774 85.4634ZM284.886 3.11504C284.935 3.19524 284.986 3.27283 285.033 3.35827C285.687 4.49165 286.144 6.03652 286.465 7.82551C286.786 9.61973 286.952 11.6764 287.016 13.9205C287.075 15.991 287.033 18.2273 286.921 20.5786C286.895 20.8741 286.8 21.9622 286.65 23.685C286.478 25.7181 286.145 28.6125 285.709 32.0797C285.507 33.6718 285.274 35.3875 285.021 37.1921C286.962 21.5638 287.512 8.76796 284.886 3.11504ZM272.541 88.4701C274.133 86.4353 275.608 83.1949 276.973 79.051C276.644 80.1765 276.307 81.2541 275.942 82.2584C275.346 83.8862 274.704 85.3449 273.981 86.5471C273.533 87.3071 273.043 87.9447 272.541 88.4701ZM273.629 19.8236C272.793 23.2664 271.964 27.1198 271.175 31.2749C271.964 27.1198 272.793 23.2657 273.629 19.8236ZM328.235 56.2092L328.314 55.6973L331.038 56.1141L330.96 56.626L328.235 56.2092ZM332.015 49.4246L331.936 49.9365L329.212 49.5196L329.29 49.0081L332.015 49.4246ZM268.328 44.5093C264.664 69.6013 264.575 90.363 268.127 90.8816C268.675 90.962 269.209 90.8939 269.733 90.7144L269.644 91.3254L301.908 96.036L301.915 95.9873C304.694 95.9594 307.173 92.4346 309.381 86.5382L313.582 87.1522L313.588 87.1147C319.243 87.254 323.182 75.9996 325.938 60.7403L327.46 60.9678V60.9712L327.247 60.9381L327.168 61.4497L327.382 61.4821L326.771 65.4778L329.495 65.8943L330.106 61.8989L330.483 61.9564L330.561 61.4456L330.185 61.3881V61.3853L331.242 61.5467L333.208 48.6959L332.151 48.5347L332.84 44.0247L330.116 43.6079L329.426 48.1179L327.895 47.8877C330.016 31.2804 329.997 18.1968 323.88 16.6214L323.885 16.5856L319.862 15.9989C319.46 9.70081 318.064 5.60497 315.231 4.7811L315.238 4.73489L311.998 4.2824C311.981 4.27543 311.961 4.26671 311.945 4.25974C311.863 4.2362 311.788 4.21528 311.72 4.19522C311.449 4.11851 311.295 4.07492 311.295 4.07492L311.271 4.18129L310.46 4.06795C310.431 4.05574 310.4 4.04179 310.373 4.03045C310.291 4.00691 310.216 3.98512 310.148 3.96593C309.877 3.88921 309.722 3.84475 309.722 3.84475L309.695 3.96159L308.921 3.85347C308.882 3.83604 308.837 3.81686 308.8 3.80116C308.718 3.77763 308.643 3.75582 308.575 3.73577C308.304 3.65905 308.149 3.61546 308.149 3.61546L308.121 3.74187L307.383 3.639C307.331 3.61633 307.275 3.59193 307.227 3.57101C307.145 3.54747 307.07 3.52567 307.002 3.50648C306.731 3.42976 306.577 3.38531 306.577 3.38531L306.545 3.52218L305.845 3.42453C305.781 3.39576 305.714 3.367 305.654 3.34172C305.572 3.31818 305.497 3.29639 305.429 3.27721C305.158 3.19962 305.004 3.15601 305.004 3.15601L304.971 3.30248L304.307 3.2092C304.23 3.17607 304.151 3.14207 304.082 3.11242C304 3.08888 303.925 3.06709 303.857 3.04704C303.585 2.97032 303.431 2.92673 303.431 2.92673L303.395 3.08278L302.769 2.99472C302.678 2.95549 302.589 2.91714 302.509 2.88226C302.427 2.85873 302.352 2.83692 302.284 2.81774C302.013 2.74102 301.858 2.69656 301.858 2.69656L301.821 2.86308L301.231 2.78026C301.126 2.73492 301.027 2.6922 300.936 2.65297C300.854 2.62943 300.779 2.60764 300.711 2.58759C300.44 2.51086 300.286 2.46727 300.286 2.46727L300.245 2.64252L299.69 2.56579C299.682 2.5623 299.674 2.55708 299.666 2.55359C299.558 2.50738 299.456 2.46378 299.363 2.42281C299.281 2.39926 299.206 2.37747 299.138 2.35829C298.867 2.28157 298.713 2.23798 298.713 2.23798L298.671 2.42281L298.149 2.35045C298.13 2.34261 298.111 2.33214 298.093 2.32429C297.985 2.27721 297.884 2.23362 297.79 2.19352C297.708 2.16998 297.633 2.14819 297.565 2.12901C297.294 2.05141 297.14 2.00782 297.14 2.00782L297.096 2.2031L293.823 1.74627C293.795 1.73319 293.765 1.71751 293.739 1.7053C293.525 1.60068 293.338 1.52134 293.219 1.49606C292.958 1.41933 292.809 1.37574 292.809 1.37574L292.757 1.59806L292.5 1.56232C292.464 1.54488 292.427 1.52483 292.393 1.50826C292.178 1.40451 291.991 1.3243 291.872 1.2999C291.612 1.22318 291.463 1.17959 291.463 1.17959L291.409 1.40974L291.178 1.37749C291.134 1.35656 291.088 1.33216 291.046 1.3121C290.831 1.20749 290.645 1.12814 290.525 1.10286C290.265 1.02614 290.116 0.982544 290.116 0.982544L290.06 1.22144L289.855 1.19266C289.803 1.16737 289.749 1.13947 289.7 1.11507C289.485 1.01131 289.298 0.931114 289.178 0.9067C288.919 0.829979 288.77 0.786392 288.77 0.786392L288.712 1.03311L288.533 1.00871C288.472 0.979065 288.41 0.946808 288.354 0.918915C288.139 0.814293 287.952 0.734955 287.832 0.709671C287.572 0.63295 287.423 0.589355 287.423 0.589355L287.363 0.844803L287.211 0.823875C287.142 0.789879 287.071 0.753258 287.007 0.72187C286.792 0.618126 286.605 0.537918 286.486 0.513504C286.226 0.436783 286.077 0.393188 286.077 0.393188L286.015 0.657356L285.888 0.639061C285.812 0.599831 285.732 0.560593 285.661 0.525719C285.446 0.421097 285.259 0.341759 285.139 0.316475C284.879 0.239754 284.73 0.196159 284.73 0.196159L284.667 0.469048L284.566 0.455086C284.481 0.410629 284.394 0.367912 284.314 0.328674C284.099 0.22493 283.912 0.144722 283.793 0.120316C283.533 0.0435944 283.383 0 283.383 0L283.318 0.280724L281.572 0.0374908L281.608 0.0662537C281.536 0.0514374 281.468 0.0261612 281.394 0.0157013C277.841 -0.503036 271.991 19.4173 268.328 44.5093Z" fill="white" fill-opacity="0.5"/>
<path d="M284.904 92.3736C285.439 92.3263 286.232 92.1178 287.044 91.527C287.857 90.9402 288.669 90.003 289.382 88.7963C290.104 87.5932 290.747 86.1346 291.342 84.507C291.937 82.8758 292.459 81.0678 292.98 79.1365C293.509 77.2011 294.06 75.1619 294.578 73.0521C295.106 70.9379 295.568 68.7332 296.042 66.4933C296.511 64.2535 296.93 61.9642 297.329 59.6723C297.74 57.3817 298.109 55.0829 298.459 52.8179C298.799 50.5494 299.134 48.3175 299.457 46.1569C300.087 41.8302 300.67 37.7952 301.11 34.328C301.545 30.8618 301.878 27.9664 302.052 25.9333C302.229 23.8995 302.33 22.7372 302.33 22.7372C302.33 22.7372 302.327 23.0294 302.323 23.576C302.316 24.1236 302.315 24.9263 302.275 25.9473C302.201 27.9882 302.075 30.9078 301.767 34.3988C301.573 36.7065 301.304 39.2671 300.986 41.9889C300.988 43.0183 301.023 44.0806 301.118 45.1039C301.676 41.2584 302.19 37.6689 302.586 34.5443C303.021 31.0771 303.355 28.1817 303.528 26.1485C303.705 24.1147 303.806 22.9524 303.806 22.9524C303.806 22.9524 303.803 23.2446 303.8 23.7922C303.793 24.3388 303.791 25.1419 303.751 26.1625C303.677 28.2035 303.551 31.1234 303.244 34.6141C302.95 38.1065 302.487 42.1683 301.938 46.5094C301.863 47.0918 301.784 47.6925 301.707 48.2851C301.802 48.5834 301.909 48.8674 302.029 49.1327C302.157 48.2782 302.285 47.4238 302.41 46.5878C303.039 42.2617 303.622 38.227 304.063 34.7599C304.498 31.2923 304.831 28.3972 305.004 26.3641C305.181 24.331 305.282 23.1687 305.282 23.1687C305.282 23.1687 305.28 23.4599 305.276 24.0075C305.269 24.554 305.268 25.3581 305.228 26.378C305.153 28.4197 305.028 31.3386 304.72 34.8293C304.426 38.3221 303.964 42.3846 303.414 46.7246C303.255 47.9548 303.092 49.2138 302.922 50.484C302.98 50.5433 303.039 50.6026 303.101 50.6567C303.162 50.7105 303.224 50.7524 303.287 50.8022C303.489 49.4501 303.691 48.1107 303.887 46.804C304.516 42.4772 305.099 38.4423 305.539 34.9751C305.974 31.5079 306.307 28.6124 306.481 26.5804C306.658 24.5462 306.759 23.3842 306.759 23.3842C306.759 23.3842 306.756 23.6761 306.752 24.2227C306.745 24.7693 306.744 25.5733 306.704 26.5933C306.63 28.6353 306.504 31.5538 306.196 35.0449C305.902 38.5373 305.44 42.6002 304.89 46.9399C304.7 48.4056 304.504 49.9119 304.296 51.4314C304.424 51.4891 304.551 51.5404 304.679 51.5824C304.91 50.0376 305.14 48.5074 305.363 47.0192C305.992 42.6924 306.575 38.6575 307.015 35.1903C307.45 31.7242 307.784 28.8287 307.957 26.7956C308.134 24.7618 308.235 23.5994 308.235 23.5994C308.235 23.5994 308.233 23.8917 308.229 24.4382C308.222 24.9856 308.221 25.7886 308.18 26.8095C308.106 28.8505 307.98 31.7701 307.672 35.2612C307.379 38.7526 306.917 42.8154 306.366 47.1555C306.172 48.6566 305.971 50.1997 305.756 51.7567C305.893 51.7567 306.03 51.7482 306.165 51.7315C306.393 50.2092 306.619 48.7019 306.839 47.2348C307.468 42.9077 308.051 38.8731 308.492 35.4066C308.927 31.9393 309.26 29.0439 309.433 27.0108C309.61 24.977 309.711 23.8147 309.711 23.8147C309.711 23.8147 309.709 24.1068 309.705 24.6545C309.698 25.2011 309.697 26.0038 309.657 27.0248C309.582 29.0657 309.457 31.9857 309.148 35.4764C308.855 38.9681 308.393 43.0306 307.843 47.3717C307.672 48.6941 307.495 50.0499 307.311 51.4168C307.459 51.3542 307.606 51.2833 307.753 51.205C307.943 49.9364 308.131 48.6794 308.316 47.45C308.944 43.1239 309.528 39.0894 309.968 35.6218C310.403 32.1546 310.737 29.2595 310.91 27.2264C311.086 25.1932 311.188 24.0309 311.188 24.0309C311.188 24.0309 311.185 24.3221 311.181 24.8697C311.174 25.4163 311.173 26.2194 311.133 27.2404C311.059 29.2813 310.933 32.2009 310.624 35.6916C310.331 39.1844 309.869 43.2462 309.319 47.587C309.199 48.5129 309.078 49.4587 308.954 50.4081C309.119 50.2791 309.281 50.1431 309.441 50.0029C309.559 49.2189 309.677 48.4336 309.792 47.6663C310.42 43.3395 311.004 39.3046 311.444 35.8373C311.879 32.3702 312.213 29.4748 312.386 27.4416C312.563 25.4085 312.664 24.2465 312.664 24.2465C312.664 24.2465 312.662 24.5377 312.658 25.0849C312.651 25.6316 312.65 26.4356 312.609 27.4556C312.535 29.4973 312.409 32.4161 312.101 35.9072C311.808 39.3996 311.345 43.4621 310.795 47.8022C310.752 48.1413 310.706 48.4928 310.662 48.8354C310.849 48.6416 311.032 48.4499 311.211 48.2599C311.23 48.1352 311.25 48.0055 311.268 47.8815C311.896 43.5548 312.48 39.5199 312.921 36.0526C313.356 32.5854 313.689 29.691 313.862 27.6579C314.039 25.6237 314.14 24.4618 314.14 24.4618C314.14 24.4618 314.138 24.7536 314.134 25.3005C314.127 25.8478 314.126 26.6508 314.086 27.6718C314.011 29.7128 313.886 32.6324 313.577 36.1231C313.306 39.3448 312.891 43.0551 312.397 47.0185C312.599 46.8163 312.794 46.6313 312.981 46.4692C313.518 42.7589 314.012 39.2968 314.397 36.2688C314.832 32.8016 315.166 29.9062 315.338 27.8731C315.515 25.8393 315.616 24.677 315.616 24.677C315.616 24.677 315.614 24.9692 315.61 25.5158C315.603 26.0634 315.602 26.8661 315.562 27.8871C315.487 29.928 315.362 32.8476 315.053 36.3386C314.815 39.1745 314.464 42.3907 314.047 45.8222C314.236 45.7779 314.413 45.7864 314.576 45.8668C315.066 42.4666 315.517 39.2873 315.873 36.4841C316.308 33.0169 316.642 30.1215 316.814 28.0883C316.991 26.0545 317.093 24.8922 317.093 24.8922C317.093 24.8922 317.091 25.1844 317.086 25.732C317.079 26.2786 317.079 27.0817 317.038 28.1023C316.963 30.1433 316.838 33.0632 316.53 36.5539C316.272 39.6219 315.883 43.1301 315.42 46.8806C315.738 47.8825 315.341 49.2329 315.188 50.1431C315.041 51.0262 314.891 51.9086 314.739 52.7917C314.489 54.2373 314.249 55.7089 314.006 57.1971C313.76 58.8021 313.506 60.4133 313.224 62.0262C313.188 62.2265 313.149 62.4253 313.113 62.6249C311.977 69.3451 310.616 76.1934 308.284 82.4477C307.796 84.03 307.282 85.5314 306.719 86.8992C306.056 88.5348 305.315 89.9873 304.504 91.181C303.705 92.3777 302.81 93.3046 301.932 93.867C301.055 94.4421 300.213 94.5791 299.669 94.5913C299.392 94.6052 299.185 94.575 299.045 94.5566C298.904 94.5398 298.832 94.5314 298.832 94.5314C298.832 94.5314 298.905 94.5348 299.046 94.5409C299.187 94.5487 299.398 94.5634 299.667 94.5293C300.202 94.4823 300.995 94.2732 301.808 93.6821C302.62 93.0963 303.432 92.158 304.145 90.9514C304.867 89.7482 305.509 88.2907 306.106 86.6621C306.177 86.4649 306.245 86.2569 306.315 86.0545C306.404 85.2209 306.424 84.3814 306.389 83.5443C306.026 84.6446 305.647 85.7004 305.243 86.6839C304.58 88.3186 303.839 89.7721 303.028 90.9647C302.229 92.1625 301.334 93.0891 300.456 93.6507C299.579 94.2269 298.736 94.3638 298.193 94.376C297.916 94.3901 297.709 94.3594 297.569 94.3413C297.428 94.3247 297.356 94.3158 297.356 94.3158C297.356 94.3158 297.428 94.3185 297.57 94.3253C297.711 94.3331 297.922 94.3481 298.19 94.3134C298.726 94.2661 299.519 94.0576 300.331 93.4668C301.144 92.8807 301.956 91.9428 302.669 90.7362C303.391 89.533 304.033 88.0744 304.629 86.4469C305.186 84.9195 305.679 83.2313 306.168 81.4373C306.091 81.0953 305.971 80.7544 305.808 80.4514C305.744 80.6656 305.678 80.8836 305.613 81.0953C305.043 83.0222 304.437 84.8364 303.766 86.4687C303.104 88.1033 302.363 89.5565 301.551 90.7491C300.752 91.9472 299.858 92.8739 298.979 93.4354C298.102 94.0117 297.26 94.1486 296.717 94.1598C296.439 94.1748 296.232 94.1432 296.092 94.1257C295.952 94.1084 295.879 94.0996 295.879 94.0996C295.879 94.0996 295.952 94.1033 296.094 94.1094C296.234 94.1173 296.445 94.1329 296.714 94.0978C297.249 94.0508 298.042 93.8424 298.855 93.2515C299.667 92.6648 300.48 91.7276 301.192 90.5199C301.914 89.3178 302.557 87.8591 303.153 86.2313C303.747 84.6004 304.27 82.792 304.791 80.8611C304.897 80.4748 305.003 80.0809 305.11 79.6858C304.942 79.5925 304.759 79.5288 304.549 79.5244C304.41 79.9821 304.272 80.4347 304.137 80.8802C303.566 82.806 302.961 84.6212 302.29 86.2531C301.627 87.8878 300.886 89.3403 300.075 90.5339C299.276 91.7316 298.381 92.6577 297.503 93.2199C296.626 93.7954 295.784 93.933 295.24 93.9446C294.963 93.9592 294.756 93.9279 294.616 93.9095C294.476 93.8931 294.403 93.8843 294.403 93.8843C294.403 93.8843 294.476 93.8877 294.617 93.8938C294.758 93.9017 294.969 93.9174 295.238 93.8826C295.773 93.8356 296.566 93.6272 297.378 93.0353C298.191 92.4492 299.003 91.512 299.716 90.3047C300.438 89.1015 301.081 87.644 301.677 86.0161C302.271 84.3848 302.794 82.5768 303.314 80.6455C303.371 80.4391 303.428 80.2273 303.485 80.0189C303.101 80.4085 302.787 80.9588 302.427 81.4322C301.924 83.071 301.394 84.6256 300.814 86.0372C300.151 87.6726 299.41 89.125 298.599 90.3186C297.799 91.5157 296.905 92.4424 296.027 93.0046C295.15 93.5802 294.307 93.7178 293.764 93.729C293.487 93.743 293.28 93.7127 293.14 93.6943C293 93.6776 292.927 93.6691 292.927 93.6691C292.927 93.6691 293 93.6725 293.141 93.6786C293.282 93.6864 293.493 93.7011 293.762 93.6674C294.297 93.6201 295.09 93.4109 295.902 92.8197C296.714 92.234 297.527 91.2957 298.24 90.0892C298.962 88.8863 299.605 87.4284 300.2 85.7998C300.597 84.7128 300.959 83.5402 301.313 82.3108C301.279 82.3203 301.248 82.3353 301.212 82.3421C301.006 82.3841 300.801 82.3711 300.603 82.3187C300.203 83.5525 299.786 84.7301 299.337 85.8216C298.675 87.4563 297.934 88.9098 297.122 90.1024C296.323 91.3001 295.429 92.2268 294.551 92.7884C293.674 93.3646 292.831 93.5015 292.287 93.5138C292.01 93.5277 291.803 93.4971 291.663 93.479C291.523 93.4624 291.45 93.4535 291.45 93.4535C291.45 93.4535 291.524 93.4563 291.665 93.4634C291.805 93.4712 292.016 93.4859 292.286 93.4511C292.82 93.4038 293.613 93.1957 294.426 92.6045C295.238 92.0187 296.051 91.0805 296.763 89.8739C297.485 88.6707 298.129 87.2121 298.724 85.5846C299.138 84.4468 299.517 83.2184 299.886 81.9273C299.68 81.7475 299.511 81.5244 299.387 81.2837C298.911 82.8182 298.408 84.2751 297.861 85.6064C297.198 87.2411 296.457 88.6943 295.646 89.8868C294.847 91.0849 293.953 92.0116 293.075 92.5732C292.198 93.1494 291.355 93.2862 290.811 93.2975C290.534 93.3125 290.327 93.2819 290.187 93.2635C290.047 93.2461 289.974 93.2383 289.974 93.2383C289.974 93.2383 290.047 93.241 290.188 93.2471C290.329 93.2556 290.54 93.2706 290.81 93.2355C291.344 93.1885 292.137 92.9801 292.949 92.3892C293.762 91.8025 294.574 90.8653 295.287 89.6576C296.009 88.4555 296.652 86.9969 297.247 85.3694C297.842 83.7381 298.365 81.9298 298.885 79.9987C298.938 79.8077 298.991 79.6116 299.043 79.4181C299.045 79.2192 299.051 79.0207 299.058 78.8235C299.078 78.2384 299.098 77.6537 299.119 77.0686C298.823 78.078 298.523 79.0615 298.232 80.0178C297.661 81.9447 297.056 83.7588 296.385 85.3912C295.722 87.0258 294.981 88.4783 294.17 89.6717C293.37 90.8697 292.476 91.7953 291.599 92.3579C290.721 92.9332 289.878 93.0711 289.335 93.0823C289.058 93.097 288.851 93.0656 288.711 93.0472C288.571 93.0309 288.498 93.022 288.498 93.022C288.498 93.022 288.571 93.0254 288.712 93.0316C288.853 93.0393 289.064 93.0554 289.333 93.0203C289.868 92.9733 290.661 92.7649 291.473 92.1737C292.286 91.5869 293.098 90.6497 293.811 89.4425C294.533 88.2403 295.176 86.7816 295.771 85.1538C296.366 83.5225 296.888 81.7145 297.409 79.7836C297.938 77.8478 298.489 75.8089 299.006 73.6988C299.101 73.3205 299.185 72.9264 299.276 72.543C299.3 71.821 299.326 71.099 299.351 70.3774C299.081 71.5141 298.802 72.6352 298.51 73.7321C297.958 75.8627 297.337 77.8863 296.755 79.8026C296.185 81.7284 295.579 83.5426 294.908 85.1749C294.245 86.8102 293.504 88.2627 292.694 89.4564C291.894 90.6534 291 91.5801 290.122 92.1423C289.245 92.7179 288.402 92.8555 287.858 92.8671C287.581 92.8807 287.375 92.8503 287.234 92.832C287.094 92.8156 287.021 92.8067 287.021 92.8067C287.021 92.8067 287.095 92.8102 287.236 92.8163C287.376 92.8242 287.587 92.8398 287.857 92.8051C288.391 92.7581 289.184 92.5487 289.997 91.9574C290.81 91.3717 291.622 90.4338 292.334 89.2272C293.056 88.024 293.7 86.566 294.295 84.9376C294.889 83.3073 295.412 81.4983 295.933 79.568C296.462 77.6326 297.013 75.5926 297.53 73.4825C298.03 71.4845 298.469 69.4017 298.917 67.2892C298.829 67.1656 298.718 67.0617 298.596 66.9694C298.115 69.2099 297.595 71.4062 297.033 73.5159C296.482 75.6475 295.861 77.67 295.279 79.5874C294.708 81.5132 294.103 83.3274 293.432 84.9593C292.769 86.595 292.028 88.0475 291.218 89.2401C290.418 90.4379 289.524 91.3648 288.646 91.9272C287.769 92.5023 286.926 92.6393 286.382 92.6515C286.105 92.6654 285.899 92.6352 285.758 92.6168C285.618 92.6 285.545 92.5916 285.545 92.5916C285.545 92.5916 285.618 92.595 285.759 92.6011C285.9 92.6089 286.111 92.6236 286.381 92.5895C286.915 92.5418 287.708 92.3334 288.52 91.7422C289.334 91.1565 290.145 90.2182 290.858 89.0116C291.58 87.8084 292.223 86.3509 292.818 84.7223C293.413 83.0921 293.935 81.283 294.456 79.3527C294.659 78.6127 294.864 77.8522 295.07 77.0843C294.557 78.3791 293.981 79.65 293.345 80.889C293.355 80.8488 293.366 80.8086 293.376 80.7684C292.931 82.1774 292.463 83.513 291.956 84.7441C291.293 86.3788 290.552 87.8323 289.741 89.0249C288.941 90.2227 288.048 91.1493 287.169 91.7109C286.292 92.2871 285.45 92.424 284.906 92.4353C284.629 92.4503 284.423 92.4196 284.282 92.4015C284.142 92.3838 284.069 92.376 284.069 92.376C284.069 92.376 284.142 92.3787 284.283 92.3855C284.424 92.3933 284.635 92.4083 284.904 92.3736Z" fill="white" fill-opacity="0.5"/>
<path d="M118.969 38.049C152.611 36.0615 186.362 36.0615 220.004 38.049C239.206 39.1834 258.372 40.9758 277.463 43.4056C277.334 43.1076 277.22 42.9612 277.22 42.9612C256.568 39.7232 235.806 37.4213 214.998 36.0571C184.689 34.0703 154.284 34.0703 123.975 36.0571C103.167 37.4213 82.4052 39.7232 61.7528 42.9612C61.7525 42.9612 61.6384 43.1076 61.5093 43.4056C80.601 40.9758 99.7674 39.1834 118.969 38.049Z" fill="white" fill-opacity="0.5"/>
<path d="M62.0142 42.2113C61.8147 42.5747 61.3335 43.723 61.7435 45.8171C62.1873 48.0821 62.8507 48.8851 63.0915 49.11C83.3127 45.939 103.982 43.6481 124.46 42.3053C154.337 40.3481 184.635 40.3481 214.513 42.3053C234.97 43.6464 255.618 45.9349 275.889 49.1065C276.123 48.8851 276.786 48.0811 277.229 45.8171C277.638 43.7274 277.159 42.5774 276.958 42.2113C256.496 39.0079 235.641 36.697 214.97 35.3412C184.789 33.3629 154.184 33.3629 124.004 35.3412C103.332 36.697 82.4764 39.0079 62.0142 42.2113ZM276.078 50.0185L275.937 49.9967C255.634 46.8136 234.948 44.5188 214.456 43.1754C184.616 41.2192 154.357 41.2192 124.518 43.1754C104.024 44.5188 83.3386 46.8136 63.0366 49.9967C63.0352 49.9967 63.0336 49.9967 63.0322 49.9967C62.6865 49.9967 61.5388 49.3071 60.888 45.9836C60.2907 42.9312 61.373 41.5199 61.5481 41.4266L61.6853 41.3803C82.2359 38.1579 103.183 35.8336 123.947 34.471C154.164 32.491 184.809 32.491 215.026 34.471C235.79 35.8336 256.737 38.1579 277.288 41.3803L277.398 41.3977L277.485 41.4651C277.498 41.4753 278.713 42.7708 278.085 45.9836C277.451 49.225 276.33 49.8884 276.204 49.9531L276.078 50.0185Z" fill="white" fill-opacity="0.5"/>
</svg>
