<svg width="55" height="55" viewBox="0 0 55 55" fill="none" xmlns="http://www.w3.org/2000/svg">
<path d="M24.8016 6.59999C29.6313 1.7703 37.4688 1.7703 42.2985 6.59999C47.1282 11.4297 47.1282 19.2672 42.2985 24.0969L28.2047 38.1906C25.2485 41.1469 20.4618 41.1469 17.5055 38.1906C14.5493 35.2344 14.5493 30.4476 17.5055 27.4914L30.6368 14.3773C31.711 13.3031 33.4555 13.3031 34.5297 14.3773C35.604 15.4515 35.604 17.1961 34.5297 18.2703L21.3985 31.393C20.5907 32.2008 20.5907 33.507 21.3985 34.3062C22.2063 35.1055 23.5125 35.1141 24.3118 34.3062L38.4055 20.2125C41.0868 17.5312 41.0868 13.1742 38.4055 10.493C35.7243 7.81171 31.3672 7.81171 28.686 10.493L14.5922 24.5867C10.029 29.15 10.029 36.5492 14.5922 41.1125C19.1555 45.6758 26.5547 45.6758 31.118 41.1125L42.3071 29.932C43.3813 28.8578 45.1258 28.8578 46.2 29.932C47.2743 31.0062 47.2743 32.7508 46.2 33.825L35.011 44.9969C28.2993 51.7086 17.4196 51.7086 10.7079 44.9969C3.99614 38.2851 3.99614 27.4055 10.7079 20.6937L24.8016 6.59999Z" fill="#A6368A"/>
</svg>
