<svg width="333" height="347" viewBox="0 0 333 347" fill="none" xmlns="http://www.w3.org/2000/svg">
<path d="M84.655 74.0337C84.4864 74.0608 84.4443 74.2565 84.4563 74.4221C85.2573 81.6794 83.056 89.3945 78.3193 95.2426C78.2169 95.3781 78.1567 95.5768 78.2862 95.6852C78.3284 95.7244 78.2741 95.7726 78.241 95.8147C74.6998 99.9222 69.924 102.593 65.5124 103.193C63.7388 103.436 63.263 103.455 62.3656 103.394C59.2248 103.196 54.2533 101.925 52.8289 101.467C52.8079 101.461 52.7778 101.458 52.7627 101.452L52.8139 101.265C52.844 101.157 52.9675 101.118 53.0699 101.145C53.2897 101.211 53.5456 101.28 53.8769 101.377C56.846 102.283 61.7965 101.843 66.2622 99.2778C82.3545 90.0299 78.6024 68.7819 78.8734 72.6033C79.3281 78.8097 77.7622 82.5738 77.1389 83.2423C76.9793 83.423 76.7203 83.2393 76.6872 83.0014C76.6119 82.4594 76.7836 81.5168 76.8287 81.1856C77.8857 72.8201 76.3259 68.3181 75.4737 65.9602C75.2538 65.3369 75.7146 63.9788 76.1242 64.4967C76.3681 64.8189 76.633 65.2285 76.907 65.7404C76.9492 65.8157 77.1058 65.9903 77.0787 65.912C75.1545 61.401 71.824 57.7242 67.1806 56.1161C65.4883 55.562 63.7689 55.3 61.9952 55.285C61.8959 55.285 61.8206 55.1977 61.8206 55.0923C61.8206 54.9959 61.8989 54.9116 61.9952 54.9116C63.8351 54.9026 65.6419 55.1796 67.3613 55.7818C72.1252 57.4561 75.546 58.206 78.9788 61.7443C80.629 63.4427 81.981 65.4874 82.9386 67.6917C83.7758 69.613 84.3479 71.6878 84.6882 73.9222C84.6912 73.9704 84.7062 74.0276 84.655 74.0337ZM48.5529 97.4469C44.834 95.0197 41.7475 90.6653 40.7989 84.6306C40.6182 83.4893 39.8353 82.5016 38.7211 82.1974L27.3536 79.1168C27.2512 79.0927 27.1879 78.9813 27.212 78.8759C27.2361 78.7675 27.3415 78.6952 27.456 78.7193C36.1947 80.2641 40.6092 63.5602 32.2258 60.7566C32.1174 60.7234 32.0452 60.6241 32.0783 60.5157C32.1084 60.4254 32.2048 60.3591 32.3011 60.3892C33.4635 60.7476 40.5008 62.9609 43.9698 64.048C45.1231 64.4154 46.3818 63.9878 47.1949 63.0904C49.5708 60.4615 52.5157 58.4017 55.7499 57.3387C55.9004 57.2905 56.0631 57.3959 56.0932 57.5616C56.1233 57.7422 56.0058 57.9199 55.8281 57.9862C52.8952 59.0913 50.2573 60.9975 48.1103 63.3976C47.5141 64.0601 47.9417 65.0809 48.7969 65.3519L61.5707 69.357C66.0966 70.7693 67.6083 76.8824 65.2685 81.7698C61.4352 89.78 55.4939 86.8921 43.488 83.4953C42.6087 83.2484 41.7595 83.9861 41.9161 84.8865C42.7562 89.78 45.1923 94.1013 48.8119 96.7181C49.0046 96.8567 49.086 97.0976 49.0227 97.3234C48.9685 97.5222 48.7186 97.5583 48.5529 97.4469ZM20.0332 117.888C19.0455 118.818 16.0492 113.997 13.8028 107.062C13.7396 106.866 13.9293 106.707 14.1311 106.686C15.1489 106.595 16.1667 106.517 17.1303 106.394C17.3622 106.36 17.6212 106.433 17.6754 106.659C17.8591 107.442 18.0487 108.234 18.2535 109.029C19.9609 115.608 20.4337 117.518 20.0332 117.888ZM12.3996 101.925C11.8365 99.4374 11.412 96.8265 11.2283 94.1946C10.3189 80.7761 13.1404 70.0225 14.9171 67.0232C15.4561 66.1078 16.6756 67.4809 16.6064 68.5439C16.5552 69.2787 16.4498 70.3959 16.248 72.1244C15.1489 81.5439 14.8147 90.9153 16.6214 101.431C16.6636 101.684 16.5431 101.955 16.2902 101.994C15.8776 102.051 15.4651 102.117 15.0495 102.166C14.3268 102.259 13.583 102.325 12.8362 102.388C12.5923 102.413 12.4508 102.16 12.3996 101.925ZM129.972 61.8828C128.114 45.0374 121.986 34.1302 120.808 29.6494C126.75 32.3987 132.947 50.8011 133.898 60.594C135.744 79.7582 132.086 93.1075 129.848 97.4499C129.327 98.4527 128.773 95.61 128.936 94.4958C129.854 88.446 131.417 75.0756 129.972 61.8828ZM120.739 20.5159C123.112 21.7235 125.28 23.3315 126.939 25.4124C130.99 30.4835 134.272 36.196 136.777 42.282L136.81 42.297C135.287 38.4636 134.004 35.7594 133.633 34.07C134.907 34.6843 136.072 35.6118 137.135 36.8013C137.355 37.0513 137.876 36.8586 137.711 36.5695C135.877 33.3473 133.787 30.3058 131.453 27.4812C131.128 27.0867 131.935 26.2195 132.396 26.4513C134.573 27.5625 136.581 29.029 138.111 30.9382C139.791 33.0371 141.339 35.2505 142.757 37.5782C143.534 38.8581 145.049 39.4513 146.223 40.3818C146.726 40.7823 147.202 39.8398 146.859 39.2977C146.016 37.9848 145.133 36.708 144.209 35.4733C143.423 34.4163 144.501 32.8715 145.57 33.6424C148.217 35.5366 149.184 36.9338 149.921 37.9215C170.395 65.4242 167.013 104.394 149.187 131.984C148.16 133.577 146.263 134.402 144.399 134.059C142.965 133.797 142.357 132.129 143.158 130.921C145.233 127.798 147.115 124.531 148.78 121.146C152.002 114.621 154.357 107.863 155.92 101.054L154.926 100.765C154.161 102.834 153.234 104.256 152.15 104.78C152.035 103.521 152.008 103.452 152.496 100.064L151.3 99.7174C149.68 106.668 147.274 113.515 144.043 120.077C143.589 121.014 143.104 121.953 142.604 122.881C141.306 125.317 139.885 127.681 138.37 129.972C137.292 131.596 135.32 132.394 133.405 132.047C131.92 131.773 131.26 130.057 132.089 128.804C138.421 119.252 142.794 108.724 145.272 97.9739L143.98 97.5975C143.245 99.6964 142.369 101.115 141.369 101.591C141.252 100.362 141.222 100.238 141.701 96.938L140.309 96.5344C137.647 107.737 133.061 118.343 126.957 127.663C125.807 129.406 123.696 130.271 121.642 129.888C120.08 129.605 119.303 127.813 120.185 126.485C134.067 105.511 140.559 77.9002 134.19 51.2377C131.525 40.0807 126.765 29.9776 119.821 21.6723C119.468 21.2477 120.251 20.269 120.739 20.5159ZM181.464 51.4485C183.199 52.3339 184.777 53.5143 186.005 55.029C186.328 55.4265 186.644 55.827 186.963 56.2336C189.486 59.5189 192.651 62.2894 194.949 65.7404C195.934 67.219 193.398 62.5423 192.407 61.0728C191.314 59.4406 190.155 57.8958 188.938 56.4263C188.688 56.1161 189.294 55.4386 189.649 55.6192C191.314 56.4684 192.832 57.6037 194 59.0612C194.184 59.2931 194.377 59.534 194.557 59.7809C197.132 63.1115 200.441 65.8398 202.775 69.3389C203.868 70.9771 200.986 65.8337 199.86 64.2257C198.842 62.7592 197.749 61.3468 196.578 59.9797C196.4 59.7659 196.71 59.2178 196.96 59.3443C198.081 59.9164 199.11 60.6572 199.948 61.5998C220.584 84.8112 218.425 118.827 202.667 142.78C201.965 143.834 200.697 144.376 199.454 144.15C198.487 143.972 198.047 142.861 198.571 142.036C203.504 134.294 207.003 125.498 208.906 116.406L208.56 116.304C207.897 118.541 207.018 120.098 205.937 120.67C205.789 119.213 205.856 119.348 206.331 115.66L205.862 115.521C204.202 122.36 201.02 131.975 195.133 141.277C194.395 142.442 192.979 142.963 191.618 142.716C190.531 142.515 190.043 141.253 190.655 140.331C195.816 132.538 199.595 123.658 201.634 114.298L200.986 114.109C200.288 116.361 199.403 117.906 198.379 118.439C198.246 117.078 198.294 116.876 198.788 113.47L198.355 113.347C196.632 120.541 193.323 130.246 187.198 139.648C186.394 140.88 184.915 141.482 183.476 141.22C182.359 141.018 181.853 139.726 182.482 138.787C200.595 111.654 199.812 75.0605 180.724 52.2676C180.462 51.9514 181.097 51.2648 181.464 51.4485ZM181.705 58.6005C186.68 60.8891 192.45 76.1325 193.476 84.7781C195.888 105.144 190.956 115.536 189.884 116.738C189.818 116.813 189.73 116.897 189.622 116.897H189.562L189.501 116.852C188.779 116.34 189.131 115.202 189.441 114.196C189.562 113.814 189.67 113.455 189.715 113.169C194.127 82.8027 186.827 75.1508 181.705 58.6005ZM341.932 266.971C335.5 268.021 328.628 265.782 317.468 261.394C296.525 253.149 284.001 239.905 279.596 223.216C276.301 210.757 266.488 209.346 261.118 201.086C262.389 200.999 263.627 200.962 264.853 201.007C266.756 201.086 268.204 198.866 266.578 197.872C263.085 195.741 258.722 194.523 254.391 194.039C253.292 193.915 252.946 192.452 253.937 191.967C256.885 190.527 260.712 189.597 264.166 188.521C264.678 188.363 264.235 187.537 263.711 187.652C256.996 189.145 248.715 190.272 242.425 190.681C239.829 190.85 238.594 193.702 239.208 196.228C240.124 200.061 239.311 204.539 237.14 206.229C237.796 208.614 237.36 210.099 238.6 213.369C239.973 216.961 239.883 224.086 236.065 227.155C232.903 229.702 229.702 233.605 226.215 236.884C225.293 237.764 226.179 239.305 227.374 238.869C227.618 238.772 227.859 238.685 228.1 238.598C229.07 238.23 229.961 239.315 229.377 240.17C219.602 254.54 211.77 259.259 193.988 266.091C187.734 268.5 176.842 273.49 168.07 273.18C165.197 275.161 162.213 276.951 159.103 278.275C157.612 278.91 157.546 281.25 159.163 281.184C161.43 281.097 163.65 280.57 165.926 279.646C173.795 279.757 181.54 279.007 189.137 277.462C189.703 277.348 189.971 278.128 189.462 278.408C179.968 283.602 169.678 287.499 159.178 287.592C154.083 289.228 147.979 291.085 143.833 289.791C137.126 287.689 131.694 279.396 133.688 272.337C129.071 270.795 125.699 267.645 124.69 262.033C127.015 263.282 130.095 264.606 133.073 265.55C134.717 266.07 135.826 263.896 134.452 262.863C131.661 260.765 128.523 258.003 124.741 252.724C113.642 237.176 109.528 223.818 111.217 211.131C111.32 210.409 110.29 210.21 110.034 210.89C109.227 213.052 108.426 215.401 107.797 217.561C107.667 217.997 107.011 217.94 107.044 217.488C107.408 212.417 108.742 204.873 109.992 202.474C104.933 194.367 101.708 179.066 100.317 165.452C102.674 165.169 105.02 164.724 107.589 164.079C111.38 162.884 118.914 160.36 127.108 155.466C127.533 163.85 127.457 165.774 128.057 169.511C128.12 169.918 128.147 170.291 128.15 170.646C129.466 177.756 131.053 184.842 132.847 192.108C134.817 200.067 136.247 198.818 135.07 192.425C134.802 190.961 134.537 189.504 134.281 188.041C134.112 187.071 135.247 186.351 135.898 187.089C147.588 200.285 157.13 213.788 158.895 233.821C159.407 239.666 163.047 248.03 167.357 249.445C167.366 249.074 167.336 248.692 167.293 248.31C170.985 242.513 177.206 238.872 181.853 236.803C192.534 232.043 174.831 230.356 164.029 221.77C161.674 219.901 159.756 217.997 158.214 216.088C156.947 212.902 155.465 209.873 153.779 206.976C151.77 195.656 162.704 185.137 181.985 179.835C201.128 174.571 212.426 178.414 220.487 183.325C221.4 183.885 222.442 182.684 221.623 181.999C216.988 178.121 209.891 174.074 205.01 173.351C207.452 169.625 209.282 167.03 211.679 164.687C212.757 163.633 211.734 161.809 210.312 162.299C210.165 162.347 210.017 162.396 209.876 162.446C217.708 138.175 251.007 116.069 273.401 121.505C279.578 123.004 299.831 128.816 310.055 139.034C319.676 143.43 328.797 141.955 340.547 143.018C342.076 143.147 342.865 141.148 341.513 140.416C332.892 135.757 318.348 128.629 316.161 125.793C320.224 122.661 326.279 118.909 331.971 116.557C332.82 116.211 332.549 114.925 331.636 115.024C322.699 115.94 311.033 118.27 303.99 121.899C296.492 117.09 272.317 115.732 263.814 115.422C263.235 115.503 262.648 115.584 262.064 115.669C241.587 118.599 201.781 139.253 199.954 168.139C199.207 169.303 197.837 171.376 196.593 172.613C176.67 173.378 157.022 179.416 147.422 197.523C142.992 191.678 138.006 186.188 133.031 180.578C132.459 177.007 131.935 173.43 131.462 169.845C134.19 170.108 137.738 170.448 142.474 170.905C147.958 171.432 152.032 171.974 157.425 171.607C166.227 171.011 173.912 168.205 181.645 163.907C184.265 162.452 185.743 161.492 186.879 160.686C197.252 153.368 208.25 138.955 212.146 125.443C216.07 111.802 217.232 98.8472 213.188 84.4198C209.695 71.995 202.748 61.657 194.202 54.5683C192.925 53.5053 192.055 52.8608 190.7 51.9183C186.894 49.2924 185.515 48.6901 176.595 44.134C168.103 39.8006 172.47 42.041 170.503 41.0292C163.349 37.3674 157.341 33.7659 146.187 32.4469C142.511 28.6556 139.027 25.6383 133.944 22.5426C131.748 21.2056 104.8 7.48282 101.425 5.77237C101.16 5.63687 100.889 5.50735 100.624 5.38089C91.0329 0.851807 79.7377 -1.21396 66.9307 0.731384C41.07 4.82983 19.0304 25.8792 8.63854 49.9157C3.46518 62.0816 0.613514 72.6906 0.0624512 86.1212C-0.584972 105.156 3.8386 121.197 11.6017 133.827C21.0179 149.058 36.821 160.715 56.063 162.564C65.7804 163.5 73.173 164.32 79.1444 164.898C79.0872 165.696 79.0391 166.488 78.9788 167.291C76.892 195.021 78.7469 233.485 88.0759 259.589C91.5027 269.172 100.061 278.366 108.658 286.28C109.097 288.517 109.625 290.706 110.23 292.781C112.389 294.009 114.587 295.15 116.957 295.804C124.259 297.771 133.588 296.09 141.716 294.281C147.783 294.172 153.984 292.488 159.672 290.498C173.054 290.357 188.688 285.819 198.668 276.794C199.514 276.028 200.324 275.2 201.11 274.345C207.027 272.463 212.842 270.121 218.533 267.311C229.512 261.9 238.88 253.808 246.586 244.847C248.327 258.497 254.888 269.458 264.837 280.149C268.46 299.557 282.938 332.555 296.32 346.588C297.392 347.706 299.079 346.353 298.579 344.874C296.787 339.577 296.543 333.943 298.326 327.761C294.595 323.846 292.466 318.073 293.508 308.338C293.881 304.862 298.889 305.585 304.071 306.898C303.873 304.941 303.897 302.929 304.15 300.924C284.344 287.857 276.223 275.661 274.928 254.101C276.783 255.705 278.623 257.064 280.4 258.021C291.812 264.122 323.458 274.134 336.545 272.054C339.204 271.632 341.483 270.669 343.471 269.341C344.766 268.48 343.465 266.714 341.932 266.971Z" fill="#1B326D"/>
</svg>
