<svg width="31" height="31" viewBox="0 0 31 31" fill="#1b326d" xmlns="http://www.w3.org/2000/svg">
<path d="M7.75596 1.6115C7.3733 0.696029 6.37549 0.211654 5.42611 0.468373L5.15971 0.541029C2.03064 1.39353 -0.643106 4.42572 0.136738 8.11665C1.93377 16.5932 8.60361 23.2631 17.0802 25.0601C20.776 25.8448 23.8033 23.1662 24.6558 20.0371L24.7285 19.7707C24.99 18.8165 24.5008 17.8187 23.5902 17.4409L18.8772 15.4791C18.078 15.1449 17.1528 15.3774 16.6006 16.0507L14.731 18.337C11.3258 16.6465 8.58424 13.8177 7.01002 10.3448L9.15096 8.60103C9.82424 8.05368 10.0519 7.12853 9.72252 6.32446L7.75596 1.6115Z" />
</svg>
