<svg width="353" height="353" viewBox="0 0 353 353" fill="none" xmlns="http://www.w3.org/2000/svg">
<g clip-path="url(#clip0_406_362)">
<path opacity="0.92549" d="M163.5 47L171.5 48L179 54.5C181 57.1667 181.667 61.1667 181 66.5C180 70.8333 177.833 74 174.5 76L165.5 79L163.5 78C162.367 79.8 159.7 80.1333 155.5 79L154 77.5V67.5L152 60.5V49.5L153.5 48H162.5L163.5 47ZM164 54L160 55C161.333 58.3333 161.667 63.3333 161 70L162 72L171 70L173 66C173.667 62 173 59.3333 171 58C170.333 54.6667 168 53.3333 164 54Z" fill="#A6368A" stroke="#A6368A"/>
<path opacity="0.92549" d="M191 48L211 51L210 56.5C211.533 57.3667 211.367 58.2 209.5 59C206.433 56.9333 202.267 56.2667 197 57C195.6 60.4667 196.433 61.8 199.5 61C201.5 62.8667 204.333 63.5333 208 63L205.5 70L195 69L194 73L207 75L206 82L196.5 81L187.5 78C186.7 79.5333 185.867 79.3667 185 77.5L191 48Z" fill="#A6368A" stroke="#A6368A"/>
<path opacity="0.92549" d="M127.5 55C130.033 54.5333 131.533 55.0333 132 56.5L146 75C147.8 74.2667 148.467 74.7667 148 76.5L151 79.5L149.5 81L142.5 82L138.5 78L137.5 79L129 82.5L130 88L122 91L121 58.5L127.5 55ZM130 66L129 75L135 73L130 66Z" fill="#A6368A" stroke="#A6368A"/>
<path opacity="0.92549" d="M225.5 56L232 58L233 61.5L233.5 76L245.5 68H249.5L254 71.5L242 95.5L239.5 98L234 94.5L240 80.5L238.5 81L228.5 87L227 85.5C228 79.5 227.5 75 225.5 72L219 86L212 83.5V80.5L225.5 56Z" fill="#A6368A" stroke="#A6368A"/>
<path opacity="0.92549" d="M100.5 70L106 71L105 78C99.5333 77 95.8667 78.1667 94 81.5L93 88.5L97.5 94L102.5 95L108 93L110 86H117V92.5L110.5 100C108.167 102.333 104.5 103.333 99.5 103L95.5 102L89 97.5C85.6667 94.8333 84.3333 90.1667 85 83.5C86.2 78.7 88.7 75.2 92.5 73L100.5 70Z" fill="#A6368A" stroke="#A6368A"/>
<path opacity="0.92549" d="M263.5 80L270 84.5L268 88C266.2 87.2667 265.533 87.7667 266 89.5L261 96C259.2 95.2667 258.533 95.7667 259 97.5L249.5 107L247.5 105L245 103.5L248 97.5L263.5 80Z" fill="#A6368A" stroke="#A6368A"/>
<path opacity="0.92549" d="M161.5 89H189.5L209.5 94L229.5 104L242 114.5L233.5 117L221.5 108L203.5 100L183.5 96H167.5L147.5 100L129 108C129.867 110 129.033 110.667 126.5 110L110 124.5L99 139.5L90 160.5V162.5L88 171.5V195.5C92.3333 218.167 101.833 235.667 116.5 248C125.833 256.467 137.333 262.467 151 266L154 257.5V251.5L150 230.5V228.5L148 213.5L145.5 209C139.9 207.6 135.733 204.767 133 200.5L126 187.5V183.5L128 177.5V175.5L130 167.5L137 153.5L136 151C134 150.2 133.333 151.033 134 153.5L132 162.5L125.5 172C123.167 173.667 119.5 174 114.5 173C110.433 172.067 107.6 169.9 106 166.5L104 161.5L103 152L99 150.5L100.5 147C103.3 147.867 104.133 146.7 103 143.5L106 133.5L112.5 127L123.5 126L129 130.5C131.667 133.833 133 138.5 133 144.5L134.5 146H136.5L141.5 142H147.5L149 145H164.5L165.5 144H206.5L209 141.5C208.533 140.033 209.033 139.533 210.5 140L214.5 138L216.5 140L222 141L222.5 144L226 143C226.667 132.4 230.5 124.733 237.5 120H239.5C242.7 119.133 244.7 119.467 245.5 121L247.5 120L251.5 121L254 123.5C258.4 127.967 260.4 134.467 260 143L268 144V149.5L266.5 150L260 151L259 161.5L253 172C250.2 174.267 245.367 174.933 238.5 174L231 168.5L226 155.5V149C223.533 148 222.533 148.5 223 150.5C221.333 151.5 221 153.833 222 157.5L226 173.5L225 175.5L226 176.5V187.5L218 201.5L211.5 208L206 210L204 219.5L193 236.5L191 244.5L192 248.5V250.5C195.4 254.633 197.067 260.133 197 267L217.5 260L241 243L251 229.5L257 218.5L263 200.5V198.5L264 193.5V171.5L262 164.5V162.5C261.467 158.633 262.3 156.133 264.5 155C267.433 154 268.6 154.5 268 156.5L271 165.5L272 189.5L268 211.5L259 231.5L239.5 254L236.5 256L222.5 266L211.5 271H208.5L206.5 273L186.5 277H164.5C163.367 275.2 160.7 274.867 156.5 276L137.5 270L118.5 259L106 249L94 233.5L85 214.5L80 193.5V173.5L83 157.5L87 146.5L95 131.5L104 119C105.8 119.733 106.467 119.233 106 117.5L126.5 101L141.5 94L161.5 89ZM243 130L239 140L240 142L239 143V154V156L241 162H242L241 158V139L243 134V130ZM114 144L112 148V150L113 154H114V144ZM250 144C248 148 248.333 150.667 251 152H252C250 150.667 249.333 148 250 144ZM195 149L194 150H161L160 151C156.667 151.667 154.667 151.333 154 150L151 154L146 156L143 161V181L142 183L150 186L151 189L163 195C162.333 196.333 163.667 196.667 167 196L169 191H168L164 190C162 188.667 161.333 186.333 162 183C164 181.667 163.667 180.667 161 180C161 176.667 162 175 164 175V169L167 164L172 162C177.333 160.667 181.333 161 184 163L189 170V178L185 186L187 193L199 190L207 183H210V168C212.667 164.667 213.333 160.333 212 155L207 151V149H195ZM113 155V159H114L113 155ZM115 159L114 162H115V159ZM243 162L242 165H243V162ZM147 201V202H150L147 201ZM150 204L149 207H150V204ZM151 207C149 213 150 217.333 154 220H155C151.667 217.333 150.333 213 151 207ZM167 211L165 214L166 219L167 215V211ZM167 231L169 233H170L167 231ZM166 240L165 242H168L166 240ZM159 241V242H162L159 241Z" fill="#A6368A" stroke="#A6368A"/>
<path opacity="0.92549" d="M67.5 99L77.5 101L98 108L93.5 115L86 114L81 121.5L84 126.5L79.5 132L77 130.5L62 105.5L65 100L67.5 99ZM74 108L78 115C80 114.333 80.6667 112.667 80 110L74 108Z" fill="#A6368A" stroke="#A6368A"/>
<path opacity="0.92549" d="M282.5 101C285.167 100.667 286.667 101.5 287 103.5L290 108.5L275 130.5L274 134C271.467 134.533 269.8 133.7 269 131.5L267 128.5L270 123.5L263.5 115L258.5 117L253 110L272.5 104H276.5L282.5 101ZM279 110C277 112 274.333 112.667 271 112L275 118L280 111L279 110Z" fill="#A6368A" stroke="#A6368A"/>
<path opacity="0.92549" d="M96.5 255L105 262.5L102.5 266L96.5 262L95 263.5L100 268.5L97.5 271L91.5 267C91.1667 269.333 89.5 270.333 86.5 270L85 267.5L96.5 255Z" fill="#A6368A" stroke="#A6368A"/>
<path opacity="0.92549" d="M254 255L260 258.5C259.533 260.033 260.033 260.533 261.5 260L268 267.5L264.5 270L259 265.5L261 272.5L258.5 273L253.5 271L254 272.5L257 277.5L256 280C253.533 281 252.533 280.5 253 278.5C248.467 275.7 245.133 271.7 243 266.5C243.533 264.367 245.367 263.533 248.5 264L255 267C253.2 265.267 252.533 262.1 253 257.5L254 255Z" fill="#A6368A" stroke="#A6368A"/>
<path opacity="0.92549" d="M108.5 266L112 268.5L101.5 282L98 279.5L108.5 266Z" fill="#A6368A" stroke="#A6368A"/>
<path opacity="0.92549" d="M238.5 270L240 275.5V282.5L243 287.5L239.5 290L234.5 283L225 277.5L230.5 276L235.5 279L235 277.5C234.2 274.033 234.7 271.867 236.5 271L238.5 270Z" fill="#A6368A" stroke="#A6368A"/>
<path opacity="0.92549" d="M114 271L127 277L126 281L120.5 280L115 290L110 288.5L116 278.5V276L113 274.5L114 271Z" fill="#A6368A" stroke="#A6368A"/>
<path opacity="0.92549" d="M130 280L134 281.5L136.5 292L140 283L144 284.5V287.5C141.133 291.033 139.467 295.533 139 301L134 298.5L133 291.5L131.5 290L129 297L125 295.5L126 289.5L130 280Z" fill="#A6368A" stroke="#A6368A"/>
<path opacity="0.92549" d="M217.5 280L224 282.5L221.5 286L216.5 285C214.433 285.933 213.6 288.1 214 291.5C214.333 294.167 216.167 295.333 219.5 295L224 293L223.5 291L219 292L218 289.5C220.133 287.167 223.133 286 227 286L228 293.5L227 296L222.5 299H215.5L210 294.5L209 287.5L213.5 282L217.5 280Z" fill="#A6368A" stroke="#A6368A"/>
<path opacity="0.92549" d="M149 286L158.5 287L160 288.5C161.2 292.033 160.033 293.2 156.5 292L153.5 290L153 293L158 294V299H156.5L151 297C150 299.533 150.5 300.533 152.5 300L158 301L156.5 305L147.5 304L145 302.5L147 298.5V293.5L149 286Z" fill="#A6368A" stroke="#A6368A"/>
<path opacity="0.92549" d="M187.5 288C191.367 287.467 193.867 288.3 195 290.5C194.667 292.5 193.167 293.333 190.5 293L187 292L188.5 295C192.233 294.933 194.733 296.1 196 298.5C196.867 302.033 196.367 304.2 194.5 305L187.5 307L183 304.5L184.5 301L190.5 303L192 300C188.133 300 185.133 298.833 183 296.5C182 292.5 182.5 290 184.5 289L187.5 288Z" fill="#A6368A" stroke="#A6368A"/>
<path opacity="0.92549" d="M167.5 289C172.7 287.867 175.867 288.7 177 291.5C177.533 293.033 177.033 293.533 175.5 293L173.5 294L169.5 293L171.5 296L177 298.5C178 302.5 177.5 305 175.5 306L167.5 307L164 302.5L167.5 301C168.367 303 170.2 303.667 173 303C174.133 300.267 173.3 299.267 170.5 300L165 296.5L164 292.5L167.5 289Z" fill="#A6368A" stroke="#A6368A"/>
<path opacity="0.12549" d="M158.5 47L162 47.5L158.5 48V47Z" fill="#AD86B9" stroke="#AD86B9"/>
<path opacity="0.12549" d="M190 47C193.067 46.2 195.067 46.7 196 48.5L194.5 48C191.567 47 190.4 47.5 191 49.5L189 50.5L190 47Z" fill="#AD86B9" stroke="#AD86B9"/>
<path opacity="0.12549" d="M151 48L153 48.5L151.5 57L151 48Z" fill="#AD86B9" stroke="#AD86B9"/>
<path opacity="0.12549" d="M172.5 48L180 54.5L181 58.5H180C179.6 54.3 177.767 51.4667 174.5 50L172.5 48Z" fill="#AD86B9" stroke="#AD86B9"/>
<path opacity="0.12549" d="M200.5 49L209 50.5L205.5 51L200.5 50V49Z" fill="#AD86B9" stroke="#AD86B9"/>
<path opacity="0.12549" d="M211.5 51L212 57L210 56.5L211.5 51Z" fill="#AD86B9" stroke="#AD86B9"/>
<path opacity="0.12549" d="M129.5 53L131.5 56C130.367 53.9333 129.2 53.4333 128 54.5L129.5 53Z" fill="#AD86B9" stroke="#AD86B9"/>
<path opacity="0.12549" d="M163 54C166.333 53.4667 168.667 54.3 170 56.5L168.5 57L165.5 55L163 56V54Z" fill="#AD86B9" stroke="#AD86B9"/>
<path opacity="0.12549" d="M160 55L162 55.5L160.5 58L160 55Z" fill="#AD86B9" stroke="#AD86B9"/>
<path opacity="0.12549" d="M226.5 55L230 57.5L228.5 57L226.5 55Z" fill="#AD86B9" stroke="#AD86B9"/>
<path opacity="0.12549" d="M122.5 56L124 56.5L121 58.5L120.5 69L120 58.5L122.5 56Z" fill="#AD86B9" stroke="#AD86B9"/>
<path opacity="0.12549" d="M224.5 56L224 57.5L222.5 61L223 59.5L224.5 56Z" fill="#AD86B9" stroke="#AD86B9"/>
<path opacity="0.12549" d="M132.5 57L137 63C138.8 62.2667 139.467 62.7667 139 64.5L148 74.5L146 75L132.5 57Z" fill="#AD86B9" stroke="#AD86B9"/>
<path opacity="0.12549" d="M197.5 57L198 60.5H197L197.5 57Z" fill="#AD86B9" stroke="#AD86B9"/>
<path opacity="0.12549" d="M199.5 57L205 57.5L199.5 58V57Z" fill="#AD86B9" stroke="#AD86B9"/>
<path opacity="0.12549" d="M206.5 58L209.5 59L211 58.5C211.533 60.0333 211.033 60.5333 209.5 60L206.5 59V58Z" fill="#AD86B9" stroke="#AD86B9"/>
<path opacity="0.12549" d="M232.5 58L233 60.5H232L232.5 58Z" fill="#AD86B9" stroke="#AD86B9"/>
<path opacity="0.12549" d="M171.5 59C173.367 59.8667 173.867 62.0333 173 65.5H172L171.5 59Z" fill="#AD86B9" stroke="#AD86B9"/>
<path opacity="0.12549" d="M152.5 61L153 65.5H152L152.5 61Z" fill="#AD86B9" stroke="#AD86B9"/>
<path opacity="0.12549" d="M181.5 61L182 64.5H181L181.5 61Z" fill="#AD86B9" stroke="#AD86B9"/>
<path opacity="0.12549" d="M200.5 61L206 62.5L203.5 63L200.5 62V61Z" fill="#AD86B9" stroke="#AD86B9"/>
<path opacity="0.12549" d="M207.5 62L209 64.5H208L207.5 62Z" fill="#AD86B9" stroke="#AD86B9"/>
<path opacity="0.12549" d="M221.5 62L221 63.5L219.5 67L219 65.5L221.5 62Z" fill="#AD86B9" stroke="#AD86B9"/>
<path opacity="0.12549" d="M187.5 63L188 66.5H187L187.5 63Z" fill="#AD86B9" stroke="#AD86B9"/>
<path opacity="0.12549" d="M233.5 63L234 74L237.5 72L235.5 75L233.5 76V63Z" fill="#AD86B9" stroke="#AD86B9"/>
<path opacity="0.12549" d="M128.5 65L135 72.5L133.5 72C132.033 72.5333 131.533 72.0333 132 70.5L129 69.5L128.5 65Z" fill="#AD86B9" stroke="#AD86B9"/>
<path opacity="0.12549" d="M161.5 66C163.367 66.8667 163.533 67.7 162 68.5L161.5 70V66Z" fill="#AD86B9" stroke="#AD86B9"/>
<path opacity="0.12549" d="M153.5 67L154 71.5H153L153.5 67Z" fill="#AD86B9" stroke="#AD86B9"/>
<path opacity="0.12549" d="M245.5 67L249 67.5L245.5 68L239.5 72L240.5 70L245.5 67Z" fill="#AD86B9" stroke="#AD86B9"/>
<path opacity="0.12549" d="M186.5 68L187 71.5H186L186.5 68Z" fill="#AD86B9" stroke="#AD86B9"/>
<path opacity="0.12549" d="M250.5 68L255 71.5L252.5 75L253 73.5L254 71.5L250.5 68Z" fill="#AD86B9" stroke="#AD86B9"/>
<path opacity="0.12549" d="M169.5 69L171 69.5L162.5 72V71L169.5 69Z" fill="#AD86B9" stroke="#AD86B9"/>
<path opacity="0.12549" d="M195.5 69L196 70.5L195.5 72L198 72.5L194 73L195.5 69Z" fill="#AD86B9" stroke="#AD86B9"/>
<path opacity="0.12549" d="M199.5 69L204 70.5L202.5 71L199.5 70V69Z" fill="#AD86B9" stroke="#AD86B9"/>
<path opacity="0.12549" d="M206.5 69L208 69.5L205.5 71L206.5 69Z" fill="#AD86B9" stroke="#AD86B9"/>
<path opacity="0.12549" d="M96.5 70L100 70.5C94.2 71.3667 90.0333 73.8667 87.5 78L92.5 72L96.5 70Z" fill="#AD86B9" stroke="#AD86B9"/>
<path opacity="0.12549" d="M102.5 70C106.7 68.5333 108.2 69.7 107 73.5L106 76.5L104.5 79C100.433 78.5333 97.6 78.8667 96 80L93.5 85L93 83.5L96.5 79L105 78L106 71C103.067 71.6667 101.9 71.3333 102.5 70Z" fill="#AD86B9" stroke="#AD86B9"/>
<path opacity="0.12549" d="M179.5 70L180 71.5C177.6 76.1 173.1 78.6 166.5 79V78C172.567 77.7333 176.733 75.5667 179 71.5L179.5 70Z" fill="#AD86B9" stroke="#AD86B9"/>
<path opacity="0.12549" d="M217.5 70L217 71.5L214.5 76L215 74.5L217.5 70Z" fill="#AD86B9" stroke="#AD86B9"/>
<path opacity="0.12549" d="M129.5 72L130.5 74L132.5 73V74L129 75L129.5 72Z" fill="#AD86B9" stroke="#AD86B9"/>
<path opacity="0.12549" d="M225.5 72L226 74.5L225 77L223 76.5L225.5 72Z" fill="#AD86B9" stroke="#AD86B9"/>
<path opacity="0.12549" d="M121.5 73L122 90.5H121L121.5 73Z" fill="#AD86B9" stroke="#AD86B9"/>
<path opacity="0.12549" d="M200.5 73L205 74.5L203.5 75L200.5 74V73Z" fill="#AD86B9" stroke="#AD86B9"/>
<path opacity="0.12549" d="M148.5 76L151 77L150.5 79L148.5 76Z" fill="#AD86B9" stroke="#AD86B9"/>
<path opacity="0.12549" d="M251.5 76L252 77.5L247.5 85L247 83.5L251.5 76Z" fill="#AD86B9" stroke="#AD86B9"/>
<path opacity="0.12549" d="M206.5 77L207 80.5H206L206.5 77Z" fill="#AD86B9" stroke="#AD86B9"/>
<path opacity="0.12549" d="M213.5 77L214 78.5C212.2 79.0333 211.533 80.7 212 83.5L212.5 85C211.033 84.5333 210.533 83.0333 211 80.5L213.5 77Z" fill="#AD86B9" stroke="#AD86B9"/>
<path opacity="0.12549" d="M138.5 78L142.5 82H145.5L148.5 81V82L142.5 83L138.5 79L137.5 80L129.5 83L130.5 81L138.5 78Z" fill="#AD86B9" stroke="#AD86B9"/>
<path opacity="0.12549" d="M154.5 78L158 79.5L154 80L154.5 78Z" fill="#AD86B9" stroke="#AD86B9"/>
<path opacity="0.12549" d="M86.5 79L86 80.5L85.5 83L85 80.5L86.5 79Z" fill="#AD86B9" stroke="#AD86B9"/>
<path opacity="0.12549" d="M190.5 79L196 80.5L193.5 81L190.5 80V79Z" fill="#AD86B9" stroke="#AD86B9"/>
<path opacity="0.12549" d="M222.5 79L222 80.5L218.5 87L214 85.5L215.5 85L219 86L222.5 79Z" fill="#AD86B9" stroke="#AD86B9"/>
<path opacity="0.12549" d="M226.5 79L227 85.5H226L226.5 79Z" fill="#AD86B9" stroke="#AD86B9"/>
<path opacity="0.12549" d="M240.5 79L240 80.5L239.5 82L239 80.5L240.5 79Z" fill="#AD86B9" stroke="#AD86B9"/>
<path opacity="0.12549" d="M263.5 79L267 81.5L264.5 80L262.5 81L263.5 79Z" fill="#AD86B9" stroke="#AD86B9"/>
<path opacity="0.12549" d="M197.5 81C201.1 79.7333 202.6 80.2333 202 82.5L200.5 82C197.833 82.5333 196.833 82.2 197.5 81Z" fill="#AD86B9" stroke="#AD86B9"/>
<path opacity="0.12549" d="M237.5 81L236.5 83L231.5 86L233.5 83L237.5 81Z" fill="#AD86B9" stroke="#AD86B9"/>
<path opacity="0.12549" d="M260.5 82L260 83.5L254.5 90L257 86.5L259 83.5L260.5 82Z" fill="#AD86B9" stroke="#AD86B9"/>
<path opacity="0.12549" d="M268.5 82L271 86C269.2 85.2667 268.533 85.7667 269 87.5L264 94C262.2 93.2667 261.533 93.7667 262 95.5L254 105L251 106.5C251.467 108.5 250.467 109 248 108C248.733 106.2 248.233 105.533 246.5 106C244.5 105.667 243.667 104.167 244 101.5L245 99C246.8 99.7333 247.467 99.2333 247 97.5L252 91L254 91.5C249.867 94.3 246.867 98.3 245 103.5L249.5 107L259 97.5V96C260.8 96.7333 261.467 96.2333 261 94.5L266 88C267.8 88.7333 268.467 88.2333 268 86.5L270 84.5L268.5 82Z" fill="#AD86B9" stroke="#AD86B9"/>
<path opacity="0.12549" d="M130.5 84L131 87.5L128.5 89V88H130L130.5 84Z" fill="#AD86B9" stroke="#AD86B9"/>
<path opacity="0.12549" d="M84.5 85L85 88.5H84L84.5 85Z" fill="#AD86B9" stroke="#AD86B9"/>
<path opacity="0.12549" d="M109 85H118V91.5H117V86H110L109.5 88L109 85Z" fill="#AD86B9" stroke="#AD86B9"/>
<path opacity="0.12549" d="M237.5 85L237 86.5L234 94.5L234.5 96C232.5 96.6 232 95.4333 233 92.5L237.5 85Z" fill="#AD86B9" stroke="#AD86B9"/>
<path opacity="0.12549" d="M229.5 86L228.5 88L227 87.5L229.5 86Z" fill="#AD86B9" stroke="#AD86B9"/>
<path opacity="0.12549" d="M246.5 86L247 87.5L245 88.5L246.5 86Z" fill="#AD86B9" stroke="#AD86B9"/>
<path opacity="0.12549" d="M93.5 87L98 93.5L95 91.5L93.5 87Z" fill="#AD86B9" stroke="#AD86B9"/>
<path opacity="0.12549" d="M166.5 88L183 88.5L166.5 89V88Z" fill="#AD86B9" stroke="#AD86B9"/>
<path opacity="0.12549" d="M108.5 89L109 90.5L108 93L105.5 94L108 90.5L108.5 89Z" fill="#AD86B9" stroke="#AD86B9"/>
<path opacity="0.12549" d="M125.5 89L127 89.5L124.5 91L125.5 89Z" fill="#AD86B9" stroke="#AD86B9"/>
<path opacity="0.12549" d="M156.5 89L161 89.5L153.5 91V90L156.5 89Z" fill="#AD86B9" stroke="#AD86B9"/>
<path opacity="0.12549" d="M190.5 89L194 89.5L190.5 90V89Z" fill="#AD86B9" stroke="#AD86B9"/>
<path opacity="0.12549" d="M85.5 90L90 98.5L87 96.5C85 94.8333 84.5 92.6667 85.5 90Z" fill="#AD86B9" stroke="#AD86B9"/>
<path opacity="0.12549" d="M195.5 90L205 92.5L203.5 93L195.5 91V90Z" fill="#AD86B9" stroke="#AD86B9"/>
<path opacity="0.12549" d="M244.5 90L245 91.5L242.5 95L242 93.5L244.5 90Z" fill="#AD86B9" stroke="#AD86B9"/>
<path opacity="0.12549" d="M148.5 91L152 91.5L143.5 94V93L148.5 91Z" fill="#AD86B9" stroke="#AD86B9"/>
<path opacity="0.12549" d="M116.5 93L117 94.5L115 98L107.5 103H104.5V102H107.5L115 95.5L116.5 93Z" fill="#AD86B9" stroke="#AD86B9"/>
<path opacity="0.12549" d="M100.5 94L103 94.5L100.5 95V94Z" fill="#AD86B9" stroke="#AD86B9"/>
<path opacity="0.12549" d="M139.5 94L141 94.5L135.5 97V96L139.5 94Z" fill="#AD86B9" stroke="#AD86B9"/>
<path opacity="0.12549" d="M212.5 95L216 96.5L214.5 97L212.5 95Z" fill="#AD86B9" stroke="#AD86B9"/>
<path opacity="0.12549" d="M167.5 96L184 96.5L163.5 98V97L167.5 96Z" fill="#AD86B9" stroke="#AD86B9"/>
<path opacity="0.12549" d="M236.5 96L237.5 98" stroke="#AD86B9"/>
<path opacity="0.12549" d="M241.5 96L242 98L239.5 99L241.5 96Z" fill="#AD86B9" stroke="#AD86B9"/>
<path opacity="0.12549" d="M185.5 97L189 97.5L185.5 98V97Z" fill="#AD86B9" stroke="#AD86B9"/>
<path opacity="0.12549" d="M217.5 97L220 98.5L218.5 99L217.5 97Z" fill="#AD86B9" stroke="#AD86B9"/>
<path opacity="0.12549" d="M67.5 98L76 100.5L74.5 101L67.5 99L65.5 100V99L67.5 98Z" fill="#AD86B9" stroke="#AD86B9"/>
<path opacity="0.12549" d="M91.5 99L95 101.5L93.5 101C90.8333 101.667 90.1667 101 91.5 99Z" fill="#AD86B9" stroke="#AD86B9"/>
<path opacity="0.12549" d="M128.5 99L130 99.5L127.5 101L128.5 99Z" fill="#AD86B9" stroke="#AD86B9"/>
<path opacity="0.12549" d="M151.5 99L153 99.5L145.5 102V101L151.5 99Z" fill="#AD86B9" stroke="#AD86B9"/>
<path opacity="0.12549" d="M198.5 99L206 101.5L204.5 102L198.5 100V99Z" fill="#AD86B9" stroke="#AD86B9"/>
<path opacity="0.12549" d="M77.5 100L80 101.5L78.5 102L77.5 100Z" fill="#AD86B9" stroke="#AD86B9"/>
<path opacity="0.12549" d="M64.5 101L63 103.5L62 105.5L64 109.5H63L61 105.5L64.5 101Z" fill="#AD86B9" stroke="#AD86B9"/>
<path opacity="0.12549" d="M81.5 101L83.5 103L89 104.5L87.5 105L81 103L81.5 101Z" fill="#AD86B9" stroke="#AD86B9"/>
<path opacity="0.12549" d="M125.5 101L124.5 103L117.5 108L117 106L125.5 101Z" fill="#AD86B9" stroke="#AD86B9"/>
<path opacity="0.12549" d="M225.5 101L230 103.5L228.5 104L225.5 101Z" fill="#AD86B9" stroke="#AD86B9"/>
<path opacity="0.12549" d="M285.5 101L291 108.5L288.5 112L289 110.5L290 107.5L285.5 101Z" fill="#AD86B9" stroke="#AD86B9"/>
<path opacity="0.12549" d="M96.5 102L99 102.5L96.5 103V102Z" fill="#AD86B9" stroke="#AD86B9"/>
<path opacity="0.12549" d="M277.5 102L279 102.5L271.5 105L272.5 103L277.5 102Z" fill="#AD86B9" stroke="#AD86B9"/>
<path opacity="0.12549" d="M139.5 103L142 103.5L132.5 108V107L139.5 103Z" fill="#AD86B9" stroke="#AD86B9"/>
<path opacity="0.12549" d="M211.5 103L217 106.5L215.5 106C212.833 105.667 211.5 104.667 211.5 103Z" fill="#AD86B9" stroke="#AD86B9"/>
<path opacity="0.12549" d="M93.5 106L99 108.5L94.5 115L95 113.5L98 108C94.5333 108.2 93.0333 107.533 93.5 106Z" fill="#AD86B9" stroke="#AD86B9"/>
<path opacity="0.12549" d="M233.5 106L240 111.5L238.5 111L233.5 106Z" fill="#AD86B9" stroke="#AD86B9"/>
<path opacity="0.12549" d="M262.5 106L264 106.5L261.5 108L262.5 106Z" fill="#AD86B9" stroke="#AD86B9"/>
<path opacity="0.12549" d="M72.5 107L73.5 109" stroke="#AD86B9"/>
<path opacity="0.12549" d="M258.5 107L260 107.5L253 110L259 117.5L257.5 117C256.033 117.533 255.533 117.033 256 115.5L252 110.5L258.5 107Z" fill="#AD86B9" stroke="#AD86B9"/>
<path opacity="0.12549" d="M115.5 108L110.5 114L106.5 117L109.5 113L112.5 111L115.5 108Z" fill="#AD86B9" stroke="#AD86B9"/>
<path opacity="0.12549" d="M129 108L131 108.5L129 109.5V108Z" fill="#AD86B9" stroke="#AD86B9"/>
<path opacity="0.12549" d="M221.5 108L226 111.5L224.5 111L221.5 108Z" fill="#AD86B9" stroke="#AD86B9"/>
<path opacity="0.12549" d="M79.5 110L80 112.5C78.3333 115.833 76.6667 115.833 75 112.5L75.5 111L76 113C78.8667 114 80.0333 113 79.5 110Z" fill="#AD86B9" stroke="#AD86B9"/>
<path opacity="0.12549" d="M126.5 110L128 110.5L124.5 113L126.5 110Z" fill="#AD86B9" stroke="#AD86B9"/>
<path opacity="0.12549" d="M278.5 110L280 110.5L274.5 118L271 112C274.533 112.667 277.033 112 278.5 110ZM273 113L275 116L276 115C276.667 113 275.667 112.333 273 113Z" fill="#AD86B9" stroke="#AD86B9"/>
<path opacity="0.12549" d="M65.5 111L68 114.5L65 112.5L65.5 111Z" fill="#AD86B9" stroke="#AD86B9"/>
<path opacity="0.12549" d="M227.5 112L235 117.5L233.5 118L227.5 112Z" fill="#AD86B9" stroke="#AD86B9"/>
<path opacity="0.12549" d="M122.5 113L116.5 120H115V122C113.2 121.267 112.533 121.767 113 123.5L110.5 125L117.5 117L122.5 113Z" fill="#AD86B9" stroke="#AD86B9"/>
<path opacity="0.12549" d="M241.5 113L243 116L236.5 117V116L242 114.5L241.5 113Z" fill="#AD86B9" stroke="#AD86B9"/>
<path opacity="0.12549" d="M287.5 113L286 115.5L283 122L281 121.5L287.5 113Z" fill="#AD86B9" stroke="#AD86B9"/>
<path opacity="0.12549" d="M86 114L88 114.5L84 117.5L86 114Z" fill="#AD86B9" stroke="#AD86B9"/>
<path opacity="0.12549" d="M262.5 115L265 116.5L268 121.5H267L262.5 116L260.5 117V116L262.5 115Z" fill="#AD86B9" stroke="#AD86B9"/>
<path opacity="0.12549" d="M68.5 116L76 127.5L74 126.5L68.5 116Z" fill="#AD86B9" stroke="#AD86B9"/>
<path opacity="0.12549" d="M104.5 118L106 118.5L104 119L94.5 133L94 131.5L104.5 118Z" fill="#AD86B9" stroke="#AD86B9"/>
<path opacity="0.12549" d="M83.5 119L82 121.5L84 123.5L83.5 126L81 121.5L83.5 119Z" fill="#AD86B9" stroke="#AD86B9"/>
<path opacity="0.12549" d="M236.5 120L231.5 126L234 122.5C233.533 121.033 234.033 120.533 235.5 121L236.5 120Z" fill="#AD86B9" stroke="#AD86B9"/>
<path opacity="0.12549" d="M248.5 120C252.367 119.533 254.533 120.7 255 123.5L260 132.5L258 131.5L251.5 121C248.833 121.533 247.833 121.2 248.5 120Z" fill="#AD86B9" stroke="#AD86B9"/>
<path opacity="0.12549" d="M269.5 123L270 124.5L267.5 128L268 126.5L269.5 123Z" fill="#AD86B9" stroke="#AD86B9"/>
<path opacity="0.12549" d="M280.5 123L281 124.5L278.5 128L278 126.5L280.5 123Z" fill="#AD86B9" stroke="#AD86B9"/>
<path opacity="0.12549" d="M120.5 125L123 125.5L120.5 126V125Z" fill="#AD86B9" stroke="#AD86B9"/>
<path opacity="0.12549" d="M124.5 126L128 128.5L126.5 128L124.5 126Z" fill="#AD86B9" stroke="#AD86B9"/>
<path opacity="0.12549" d="M83.5 127L82 129.5L79.5 133L77 131.5L78.5 132L81 130.5L83.5 127Z" fill="#AD86B9" stroke="#AD86B9"/>
<path opacity="0.12549" d="M111.5 127L107.5 132L109 129.5C108.533 128.033 109.033 127.533 110.5 128L111.5 127Z" fill="#AD86B9" stroke="#AD86B9"/>
<path opacity="0.12549" d="M230.5 127L229 129.5L226.5 138L226 135.5L228 129.5L230.5 127Z" fill="#AD86B9" stroke="#AD86B9"/>
<path opacity="0.12549" d="M107.5 128L106 130.5L105 134L103 133.5L107.5 128Z" fill="#AD86B9" stroke="#AD86B9"/>
<path opacity="0.12549" d="M244.5 128L243 130.5L240 148.5L241 149.5V157C239.2 157.733 238.533 157.233 239 155.5L240 153.5L239 152.5V143.5L240 141.5L239 139.5L241 135.5C240.933 131.767 242.1 129.267 244.5 128Z" fill="#AD86B9" stroke="#AD86B9"/>
<path opacity="0.12549" d="M267.5 129L268.5 131C266.633 131.467 266.3 130.8 267.5 129Z" fill="#AD86B9" stroke="#AD86B9"/>
<path opacity="0.12549" d="M276.5 129L276 130.5L274.5 133L275 131.5L276.5 129Z" fill="#AD86B9" stroke="#AD86B9"/>
<path opacity="0.12549" d="M129.5 130L131 132.5L129 131.5L129.5 130Z" fill="#AD86B9" stroke="#AD86B9"/>
<path opacity="0.12549" d="M269.5 132L274 134.5L271.5 135L269.5 132Z" fill="#AD86B9" stroke="#AD86B9"/>
<path opacity="0.12549" d="M93.5 134L92 136.5L87.5 146L87 144.5L93.5 134Z" fill="#AD86B9" stroke="#AD86B9"/>
<path opacity="0.12549" d="M131.5 134L133 136.5L131 135.5L131.5 134Z" fill="#AD86B9" stroke="#AD86B9"/>
<path opacity="0.12549" d="M102.5 135L102 136.5L98.5 143L98 141.5L102.5 135Z" fill="#AD86B9" stroke="#AD86B9"/>
<path opacity="0.12549" d="M104.5 137L104 138.5L102.5 147L102 143.5L104.5 137Z" fill="#AD86B9" stroke="#AD86B9"/>
<path opacity="0.12549" d="M213.5 137L212.5 139L209 140L206.5 144L177 143.5L194.5 142L195.5 143H206.5L209.5 139L213.5 137Z" fill="#AD86B9" stroke="#AD86B9"/>
<path opacity="0.12549" d="M132.5 138C134.1 139.533 134.6 141.867 134 145H136.5L140.5 142L139.5 144L134.5 146L133 144.5L132.5 138Z" fill="#AD86B9" stroke="#AD86B9"/>
<path opacity="0.12549" d="M215.5 138L218 139.5L216.5 140L215.5 138Z" fill="#AD86B9" stroke="#AD86B9"/>
<path opacity="0.12549" d="M219.5 139L222 140.5L220.5 141L219.5 139Z" fill="#AD86B9" stroke="#AD86B9"/>
<path opacity="0.12549" d="M260.5 139L261 142.5H260L260.5 139Z" fill="#AD86B9" stroke="#AD86B9"/>
<path opacity="0.12549" d="M143.5 141L147 141.5L143.5 142V141Z" fill="#AD86B9" stroke="#AD86B9"/>
<path opacity="0.12549" d="M148.5 142C149.7 144.533 152.7 145.2 157.5 144H159.5L164 144.5L149 145L148.5 142Z" fill="#AD86B9" stroke="#AD86B9"/>
<path opacity="0.12549" d="M250.5 142L251 143.5C249.467 144.367 249.133 146.367 250 149.5L251.5 152L249 150.5C248.267 146.433 248.767 143.6 250.5 142Z" fill="#AD86B9" stroke="#AD86B9"/>
<path opacity="0.12549" d="M170.5 143L173 143.5L170.5 144V143Z" fill="#AD86B9" stroke="#AD86B9"/>
<path opacity="0.12549" d="M266.5 143L269 144.5L268.5 146L268 144L266.5 143Z" fill="#AD86B9" stroke="#AD86B9"/>
<path opacity="0.12549" d="M97.5 144L97 145.5L96.5 147L96 145.5L97.5 144Z" fill="#AD86B9" stroke="#AD86B9"/>
<path opacity="0.12549" d="M113.5 144L114 153.5H113L112 146.5L113.5 144Z" fill="#AD86B9" stroke="#AD86B9"/>
<path opacity="0.12549" d="M86.5 147L87 148.5L85.5 151L85 149.5L86.5 147Z" fill="#AD86B9" stroke="#AD86B9"/>
<path opacity="0.12549" d="M99.5 147L99 148.5L98.5 150L98 148.5L99.5 147Z" fill="#AD86B9" stroke="#AD86B9"/>
<path opacity="0.12549" d="M95.5 148L96 149.5L93.5 154L93 151.5L95.5 148Z" fill="#AD86B9" stroke="#AD86B9"/>
<path opacity="0.12549" d="M268.5 148L269 149.5L266.5 151V150C268.167 150.467 268.833 149.8 268.5 148Z" fill="#AD86B9" stroke="#AD86B9"/>
<path opacity="0.12549" d="M194.5 149L207 149.5L189.5 151V150L194.5 149Z" fill="#AD86B9" stroke="#AD86B9"/>
<path opacity="0.12549" d="M223.5 149L224 150.5L222.5 153L222 151.5L223.5 149Z" fill="#AD86B9" stroke="#AD86B9"/>
<path opacity="0.12549" d="M160.5 150L188 150.5L160.5 151V150Z" fill="#AD86B9" stroke="#AD86B9"/>
<path opacity="0.12549" d="M99.5 151L103 152L105 163.5H104L102 153L99.5 151Z" fill="#AD86B9" stroke="#AD86B9"/>
<path opacity="0.12549" d="M134 151C135.8 150.267 136.467 150.767 136 152.5V154.5L135.5 156L135 154.5L135.5 153C133.767 153.467 133.267 152.8 134 151Z" fill="#AD86B9" stroke="#AD86B9"/>
<path opacity="0.12549" d="M207.5 151L208.5 153" stroke="#AD86B9"/>
<path opacity="0.12549" d="M260.5 151L261 154.5H260L260.5 151Z" fill="#AD86B9" stroke="#AD86B9"/>
<path opacity="0.12549" d="M210.5 153L211.5 155" stroke="#AD86B9"/>
<path opacity="0.12549" d="M133.5 154L135 158.5L133 159.5V161.5L128.5 172L128 170.5L129 167.5L132 162.5L133.5 154Z" fill="#AD86B9" stroke="#AD86B9"/>
<path opacity="0.12549" d="M149.5 154L151 154.5L148.5 156L149.5 154Z" fill="#AD86B9" stroke="#AD86B9"/>
<path opacity="0.12549" d="M112.5 155L118 165.5L115 163.5L112.5 155Z" fill="#AD86B9" stroke="#AD86B9"/>
<path opacity="0.12549" d="M222.5 155L223 157.5H222L222.5 155Z" fill="#AD86B9" stroke="#AD86B9"/>
<path opacity="0.12549" d="M268.5 155L269.5 157C267.633 157.467 267.3 156.8 268.5 155Z" fill="#AD86B9" stroke="#AD86B9"/>
<path opacity="0.12549" d="M145.5 156L147 156.5L145 157L144.5 159L144 157.5L145.5 156Z" fill="#AD86B9" stroke="#AD86B9"/>
<path opacity="0.12549" d="M226.5 157L231 167.5L229 166.5L226.5 157Z" fill="#AD86B9" stroke="#AD86B9"/>
<path opacity="0.12549" d="M259.5 157L260 159.5H259L259.5 157Z" fill="#AD86B9" stroke="#AD86B9"/>
<path opacity="0.12549" d="M82.5 158L83 160.5H82L82.5 158Z" fill="#AD86B9" stroke="#AD86B9"/>
<path opacity="0.12549" d="M241.5 158L244 165.5L242 164.5L240 159.5L241.5 158Z" fill="#A6368A" stroke="#A6368A"/>
<path opacity="0.12549" d="M223.5 159L226 170.5H225L223 163.5L223.5 159Z" fill="#AD86B9" stroke="#AD86B9"/>
<path opacity="0.12549" d="M269.5 159C271.167 159.667 271.667 161.5 271 164.5H270L269.5 159Z" fill="#AD86B9" stroke="#AD86B9"/>
<path opacity="0.12549" d="M143.5 160L144 178.5H143L143.5 160Z" fill="#AD86B9" stroke="#AD86B9"/>
<path opacity="0.12549" d="M211.5 160L212 163.5L210.5 167L210 163.5L211.5 160Z" fill="#AD86B9" stroke="#AD86B9"/>
<path opacity="0.12549" d="M171.5 161H181.5L183 162.5L181.5 162H171.5L170.5 163L171.5 161Z" fill="#AD86B9" stroke="#AD86B9"/>
<path opacity="0.12549" d="M258.5 162L258 163.5C257.4 167.9 255.567 171.067 252.5 173L249.5 175H237.5L233 171.5L235.5 173C238.633 174.533 242.967 174.867 248.5 174L253 172L258.5 162Z" fill="#AD86B9" stroke="#AD86B9"/>
<path opacity="0.12549" d="M81.5 163L82 166.5H81L81.5 163Z" fill="#AD86B9" stroke="#AD86B9"/>
<path opacity="0.12549" d="M184.5 163L189 168.5H188L184.5 163Z" fill="#AD86B9" stroke="#AD86B9"/>
<path opacity="0.12549" d="M261 163L263 163.5L261 164.5V163Z" fill="#AD86B9" stroke="#AD86B9"/>
<path opacity="0.12549" d="M166.5 164L167 165.5L164 167.5L166.5 164Z" fill="#AD86B9" stroke="#AD86B9"/>
<path opacity="0.12549" d="M89.5 165L90 168.5H89L89.5 165Z" fill="#AD86B9" stroke="#AD86B9"/>
<path opacity="0.12549" d="M106.5 167C107.567 170.267 110.067 172.1 114 172.5L111.5 173L106.5 167Z" fill="#AD86B9" stroke="#AD86B9"/>
<path opacity="0.12549" d="M80.5 168L81 171.5H80L80.5 168Z" fill="#AD86B9" stroke="#AD86B9"/>
<path opacity="0.12549" d="M271.5 168L272 174.5H271L271.5 168Z" fill="#AD86B9" stroke="#AD86B9"/>
<path opacity="0.12549" d="M163.5 169L164 174.5L161 176.5C162.867 175.033 163.7 172.533 163.5 169Z" fill="#AD86B9" stroke="#AD86B9"/>
<path opacity="0.12549" d="M209.5 170L210 174.5H209L209.5 170Z" fill="#AD86B9" stroke="#AD86B9"/>
<path opacity="0.12549" d="M126.5 171L125.5 173L124 172.5L126.5 171Z" fill="#AD86B9" stroke="#AD86B9"/>
<path opacity="0.12549" d="M189.5 171L190 175.5H189L189.5 171Z" fill="#AD86B9" stroke="#AD86B9"/>
<path opacity="0.12549" d="M263.5 171L264 175.5H263L263.5 171Z" fill="#AD86B9" stroke="#AD86B9"/>
<path opacity="0.12549" d="M226.5 172L227 173.5L225.5 176L225 174.5L226.5 172Z" fill="#AD86B9" stroke="#AD86B9"/>
<path opacity="0.12549" d="M79.5 173L80 185.5H79L79.5 173Z" fill="#AD86B9" stroke="#AD86B9"/>
<path opacity="0.12549" d="M127.5 173L128 175.5H127L127.5 173Z" fill="#AD86B9" stroke="#AD86B9"/>
<path opacity="0.12549" d="M88.5 174L89 179.5H88L88.5 174Z" fill="#AD86B9" stroke="#AD86B9"/>
<path opacity="0.12549" d="M209.5 177L210 183L208 182.5L209.5 177Z" fill="#AD86B9" stroke="#AD86B9"/>
<path opacity="0.12549" d="M160.5 178L163 181.5L161.5 184L160.5 178Z" fill="#AD86B9" stroke="#AD86B9"/>
<path opacity="0.12549" d="M188.5 178L189 179.5L187 180.5L188.5 178Z" fill="#AD86B9" stroke="#AD86B9"/>
<path opacity="0.12549" d="M226.5 178L227 187.5L223.5 192L224 190.5L226 187.5L226.5 178Z" fill="#AD86B9" stroke="#AD86B9"/>
<path opacity="0.12549" d="M126.5 179L127 182.5H126L126.5 179Z" fill="#AD86B9" stroke="#AD86B9"/>
<path opacity="0.12549" d="M272.5 179L273 185.5H272L272.5 179Z" fill="#AD86B9" stroke="#AD86B9"/>
<path opacity="0.12549" d="M142.5 181L143.5 183" stroke="#AD86B9"/>
<path opacity="0.12549" d="M186.5 182L187 185.5H186L186.5 182Z" fill="#AD86B9" stroke="#AD86B9"/>
<path opacity="0.12549" d="M204.5 183L206 183.5L198.5 190L204.5 183Z" fill="#AD86B9" stroke="#AD86B9"/>
<path opacity="0.12549" d="M147.5 184L152 187.5L153 189.5L151 188.5L149.5 186L147.5 184Z" fill="#AD86B9" stroke="#AD86B9"/>
<path opacity="0.12549" d="M161.5 185L163 189.5L161 188.5L161.5 185Z" fill="#AD86B9" stroke="#AD86B9"/>
<path opacity="0.12549" d="M79.5 187L80 193.5H79L79.5 187Z" fill="#AD86B9" stroke="#AD86B9"/>
<path opacity="0.12549" d="M88.5 187L89 195.5H88L88.5 187Z" fill="#AD86B9" stroke="#AD86B9"/>
<path opacity="0.12549" d="M186.5 187L187 190.5H186L186.5 187Z" fill="#AD86B9" stroke="#AD86B9"/>
<path opacity="0.12549" d="M263.5 187L264 193.5H263L263.5 187Z" fill="#AD86B9" stroke="#AD86B9"/>
<path opacity="0.12549" d="M126.5 188L127.5 190" stroke="#AD86B9"/>
<path opacity="0.12549" d="M154.5 190C157.033 189.533 158.533 190.033 159 191.5L157.5 191C154.833 191.533 153.833 191.2 154.5 190Z" fill="#AD86B9" stroke="#AD86B9"/>
<path opacity="0.12549" d="M168.5 190L169 192.5L166.5 196L167 194.5L168.5 190Z" fill="#AD86B9" stroke="#AD86B9"/>
<path opacity="0.12549" d="M192.5 190L195 190.5L187.5 193V192L192.5 190Z" fill="#AD86B9" stroke="#AD86B9"/>
<path opacity="0.12549" d="M271.5 190L272 197.5H271L271.5 190Z" fill="#AD86B9" stroke="#AD86B9"/>
<path opacity="0.12549" d="M127.5 191L130 194.5H129L127.5 191Z" fill="#AD86B9" stroke="#AD86B9"/>
<path opacity="0.12549" d="M80.5 195L81 197.5H80L80.5 195Z" fill="#AD86B9" stroke="#AD86B9"/>
<path opacity="0.12549" d="M221.5 195L221 196.5C221.333 199.167 220.5 200.667 218.5 201L219 199.5L221.5 195Z" fill="#AD86B9" stroke="#AD86B9"/>
<path opacity="0.12549" d="M130.5 196L136 203.5L132 200.5L130.5 196Z" fill="#AD86B9" stroke="#AD86B9"/>
<path opacity="0.12549" d="M143.5 198C144.433 200.4 146.6 201.567 150 201.5L146.5 202L143.5 198Z" fill="#AD86B9" stroke="#AD86B9"/>
<path opacity="0.12549" d="M81.5 199L82 203.5H81L81.5 199Z" fill="#AD86B9" stroke="#AD86B9"/>
<path opacity="0.12549" d="M270.5 200L271 204.5L269 205.5L270.5 200Z" fill="#AD86B9" stroke="#AD86B9"/>
<path opacity="0.12549" d="M217.5 202L211.5 209L208.5 210V209C212.833 208 215.833 205.667 217.5 202Z" fill="#AD86B9" stroke="#AD86B9"/>
<path opacity="0.12549" d="M261.5 203L262 204.5L257.5 216L257 214.5L261.5 203Z" fill="#AD86B9" stroke="#AD86B9"/>
<path opacity="0.12549" d="M149.5 204L152 215.5L155.5 220L157 220.5L155.5 221L151 217.5L149.5 204Z" fill="#AD86B9" stroke="#AD86B9"/>
<path opacity="0.12549" d="M82.5 205L87 217.5L85 218L84 211.5L82 208.5L82.5 205Z" fill="#AD86B9" stroke="#AD86B9"/>
<path opacity="0.12549" d="M139.5 206L147 210.5L145.5 210C141.767 209.8 139.767 208.467 139.5 206Z" fill="#AD86B9" stroke="#AD86B9"/>
<path opacity="0.12549" d="M91.5 208L94 214.5H93L91.5 208Z" fill="#AD86B9" stroke="#AD86B9"/>
<path opacity="0.12549" d="M268 208L270 208.5L268.5 211L268 208Z" fill="#AD86B9" stroke="#AD86B9"/>
<path opacity="0.12549" d="M166.5 211L167 214.5L165.5 219L165 213.5L166.5 211Z" fill="#AD86B9" stroke="#AD86B9"/>
<path opacity="0.12549" d="M205.5 212L206 214.5H205L205.5 212Z" fill="#AD86B9" stroke="#AD86B9"/>
<path opacity="0.12549" d="M190.5 213L188 216.5L186.5 219L187 217.5L190.5 213Z" fill="#AD86B9" stroke="#AD86B9"/>
<path opacity="0.12549" d="M147.5 214L149 222.5H148L147.5 214Z" fill="#AD86B9" stroke="#AD86B9"/>
<path opacity="0.12549" d="M94.5 216L96 218.5H95L94.5 216Z" fill="#AD86B9" stroke="#AD86B9"/>
<path opacity="0.12549" d="M256.5 217L257 218.5L255 219.5L256.5 217Z" fill="#AD86B9" stroke="#AD86B9"/>
<path opacity="0.12549" d="M184.5 219L183.5 221L181.5 222L182.5 220L184.5 219Z" fill="#AD86B9" stroke="#AD86B9"/>
<path opacity="0.12549" d="M87.5 220L90 225.5H89L87.5 220Z" fill="#AD86B9" stroke="#AD86B9"/>
<path opacity="0.12549" d="M96.5 220L98 222.5H97L96.5 220Z" fill="#AD86B9" stroke="#AD86B9"/>
<path opacity="0.12549" d="M203.5 220L204 221.5L202 222.5L203.5 220Z" fill="#AD86B9" stroke="#AD86B9"/>
<path opacity="0.12549" d="M264.5 220L265 221.5L259.5 231L260 229.5L264.5 220Z" fill="#AD86B9" stroke="#AD86B9"/>
<path opacity="0.12549" d="M253.5 223L253 224.5L248.5 232L250 229.5L253.5 223Z" fill="#AD86B9" stroke="#AD86B9"/>
<path opacity="0.12549" d="M98.5 224C103.3 232.867 109.3 240.533 116.5 247L122 250C121.267 251.8 121.767 252.467 123.5 252L127 254.5L125.5 255L108 239.5L100 228.5L98.5 224Z" fill="#AD86B9" stroke="#AD86B9"/>
<path opacity="0.12549" d="M201.5 224L202 225.5L198.5 230L199 228.5L201.5 224Z" fill="#AD86B9" stroke="#AD86B9"/>
<path opacity="0.12549" d="M90.5 227L94 232.5L92 231.5L90.5 227Z" fill="#AD86B9" stroke="#AD86B9"/>
<path opacity="0.12549" d="M165.5 230L170 232.5L168.5 233L165.5 230Z" fill="#AD86B9" stroke="#AD86B9"/>
<path opacity="0.12549" d="M150.5 231L151 234.5H150L150.5 231Z" fill="#AD86B9" stroke="#AD86B9"/>
<path opacity="0.12549" d="M156.5 231L160 232.5L158.5 233L156.5 231Z" fill="#AD86B9" stroke="#AD86B9"/>
<path opacity="0.12549" d="M197.5 231L196 233.5L195.5 235L195 233.5L197.5 231Z" fill="#AD86B9" stroke="#AD86B9"/>
<path opacity="0.12549" d="M258.5 232L257 234.5L254.5 238L256 235.5L258.5 232Z" fill="#AD86B9" stroke="#AD86B9"/>
<path opacity="0.12549" d="M247.5 233L245.5 236" stroke="#AD86B9"/>
<path opacity="0.12549" d="M94.5 234L100 241.5H99L94.5 234Z" fill="#AD86B9" stroke="#AD86B9"/>
<path opacity="0.12549" d="M193.5 236L194 238.5L192 244.5L193 247.5H192L191 242.5L193.5 236Z" fill="#AD86B9" stroke="#AD86B9"/>
<path opacity="0.12549" d="M151.5 237L152 241.5H151L151.5 237Z" fill="#AD86B9" stroke="#AD86B9"/>
<path opacity="0.12549" d="M244.5 237L241 241.5C241.533 243.033 241.033 243.533 239.5 243L238 243.5L244.5 237Z" fill="#AD86B9" stroke="#AD86B9"/>
<path opacity="0.12549" d="M253.5 239L251 242.5L249.5 245L249 243.5L253.5 239Z" fill="#AD86B9" stroke="#AD86B9"/>
<path opacity="0.12549" d="M157.5 240L162 241.5L158.5 242L157.5 240Z" fill="#AD86B9" stroke="#AD86B9"/>
<path opacity="0.12549" d="M165.5 240L168 241.5L165 242L165.5 240Z" fill="#AD86B9" stroke="#AD86B9"/>
<path opacity="0.12549" d="M101.5 243L105.5 248L103 247L101.5 243Z" fill="#AD86B9" stroke="#AD86B9"/>
<path opacity="0.12549" d="M152.5 243L153 249.5H152L152.5 243Z" fill="#AD86B9" stroke="#AD86B9"/>
<path opacity="0.12549" d="M236.5 245L232.5 250" stroke="#AD86B9"/>
<path opacity="0.12549" d="M247.5 246L238.5 256L238 254L247.5 246Z" fill="#AD86B9" stroke="#AD86B9"/>
<path opacity="0.12549" d="M106.5 249L127 264.5L125.5 264C117.433 260.133 111.1 255.133 106.5 249Z" fill="#AD86B9" stroke="#AD86B9"/>
<path opacity="0.12549" d="M191.5 249C193.233 248.467 193.733 249.3 193 251.5L194.5 254L191.5 249Z" fill="#AD86B9" stroke="#AD86B9"/>
<path opacity="0.12549" d="M230.5 250L228.5 253L225.5 255L227.5 252L230.5 250Z" fill="#AD86B9" stroke="#AD86B9"/>
<path opacity="0.12549" d="M153.5 251L154 257.5L151 266L140 262.5L141.5 262L150 265L153 257.5L153.5 251Z" fill="#AD86B9" stroke="#AD86B9"/>
<path opacity="0.12549" d="M97.5 254L106 262.5V264.5L102.5 267L98.5 264L98 265.5L101 267L97.5 272L91.5 268L90 271C86.8667 271.667 84.8667 270.833 84 268.5V266.5L95.5 255L86 265.5L85 268.5L88.5 270L92.5 267L97.5 271L100 268.5L95 263.5L96.5 262L102.5 266L105 262.5L97.5 254Z" fill="#AD86B9" stroke="#AD86B9"/>
<path opacity="0.12549" d="M194.5 255L196 257.5H195L194.5 255Z" fill="#AD86B9" stroke="#AD86B9"/>
<path opacity="0.12549" d="M223.5 255L222.5 257L212.5 262V261L223.5 255Z" fill="#AD86B9" stroke="#AD86B9"/>
<path opacity="0.12549" d="M256.5 255L269 266.5C269.733 268.7 269.233 269.533 267.5 269L264.5 271C262.7 267.4 260.867 266.233 259 267.5L259.5 265L265.5 270L268 266.5L260 260L258.5 257L256.5 255Z" fill="#AD86B9" stroke="#AD86B9"/>
<path opacity="0.12549" d="M129.5 256L139 261.5L137.5 261L130.5 258L129.5 256Z" fill="#AD86B9" stroke="#AD86B9"/>
<path opacity="0.12549" d="M236.5 256L234.5 259" stroke="#AD86B9"/>
<path opacity="0.12549" d="M252 256L254 256.5L252.5 262L251 259.5L252 256Z" fill="#AD86B9" stroke="#AD86B9"/>
<path opacity="0.12549" d="M196.5 259L198.5 266L205.5 264V265L197 267L196.5 259Z" fill="#AD86B9" stroke="#AD86B9"/>
<path opacity="0.12549" d="M232.5 259L230.5 262L223.5 266L224.5 264L232.5 259Z" fill="#AD86B9" stroke="#AD86B9"/>
<path opacity="0.12549" d="M209.5 262L211 262.5L207.5 264V263L209.5 262Z" fill="#AD86B9" stroke="#AD86B9"/>
<path opacity="0.12549" d="M245.5 263L248 263.5L243 266.5L253 280L255 280.5L253.5 281L249.5 276C248.033 276.533 247.533 276.033 248 274.5L242 266.5L245.5 263Z" fill="#AD86B9" stroke="#AD86B9"/>
<path opacity="0.12549" d="M249.5 264L255 265C255.733 266.8 255.233 267.467 253.5 267L249.5 265V264Z" fill="#AD86B9" stroke="#AD86B9"/>
<path opacity="0.12549" d="M108.5 265L113 267V269.5L105 280L103 279.5L112 268.5L108.5 266L98 279.5L101.5 282L103 281.5L99 283C99.6667 281 99 280.333 97 281V278.5L108.5 265Z" fill="#AD86B9" stroke="#AD86B9"/>
<path opacity="0.12549" d="M128.5 265L140 270.5L137.5 271L129.5 267L128.5 265Z" fill="#AD86B9" stroke="#AD86B9"/>
<path opacity="0.12549" d="M220.5 266L222 266.5L219.5 268L220.5 266Z" fill="#AD86B9" stroke="#AD86B9"/>
<path opacity="0.12549" d="M216.5 268L218 268.5L212.5 271V270L216.5 268Z" fill="#AD86B9" stroke="#AD86B9"/>
<path opacity="0.12549" d="M237.5 269L241 270.5L239.5 275L238.5 270L235 272.5L234.5 274L234 272.5L237.5 269Z" fill="#AD86B9" stroke="#AD86B9"/>
<path opacity="0.12549" d="M260.5 269L262 274C259 274.533 256.833 273.867 255.5 272L255 274C256.8 273.267 257.467 273.767 257 275.5L258 278.5L256 279.5L257 276.5L252 270.5L253.5 271L260.5 273L260 271.5L260.5 269Z" fill="#AD86B9" stroke="#AD86B9"/>
<path opacity="0.12549" d="M114.5 270L123 274.5L121.5 275L114 271L113 274.5L113.5 276L112 273.5L114.5 270Z" fill="#AD86B9" stroke="#AD86B9"/>
<path opacity="0.12549" d="M141.5 271L149 273.5L145.5 274L141.5 272V271Z" fill="#AD86B9" stroke="#AD86B9"/>
<path opacity="0.12549" d="M208.5 271L211 271.5L207.5 273L208.5 271Z" fill="#AD86B9" stroke="#AD86B9"/>
<path opacity="0.12549" d="M202.5 273L206 273.5L196.5 276V275L202.5 273Z" fill="#AD86B9" stroke="#AD86B9"/>
<path opacity="0.12549" d="M150.5 274L156 275.5L153.5 276L150.5 275V274Z" fill="#AD86B9" stroke="#AD86B9"/>
<path opacity="0.12549" d="M124.5 275L128 277.5L125.5 282L124 281.5L126 281L127 277L124.5 275Z" fill="#AD86B9" stroke="#AD86B9"/>
<path opacity="0.12549" d="M227.5 275L230 275.5L226.5 277L227.5 275Z" fill="#AD86B9" stroke="#AD86B9"/>
<path opacity="0.12549" d="M234.5 275L236 278.5L234.5 279L231 276.5L232.5 276L234 276.5L234.5 275Z" fill="#AD86B9" stroke="#AD86B9"/>
<path opacity="0.12549" d="M115.5 276L116 278.5L110.5 288L110 286.5L115.5 276Z" fill="#AD86B9" stroke="#AD86B9"/>
<path opacity="0.12549" d="M161.5 276L168 277.5L164.5 278L161.5 277V276Z" fill="#AD86B9" stroke="#AD86B9"/>
<path opacity="0.12549" d="M188.5 276L192 276.5L188.5 277V276Z" fill="#AD86B9" stroke="#AD86B9"/>
<path opacity="0.12549" d="M225.5 278L229 280.5L227.5 281L225.5 278Z" fill="#AD86B9" stroke="#AD86B9"/>
<path opacity="0.12549" d="M130.5 279C133.433 278 134.6 278.5 134 280.5C135.867 281.833 136.533 284 136 287L139 285.5L139.5 283L140 285.5L136.5 292C136.3 286.867 134.967 282.867 132.5 280C130.5 280.333 129.833 280 130.5 279Z" fill="#AD86B9" stroke="#AD86B9"/>
<path opacity="0.12549" d="M220.5 279L224 281.5L222.5 282L220 281L220.5 279Z" fill="#AD86B9" stroke="#AD86B9"/>
<path opacity="0.12549" d="M120.5 280L123 280.5L119 283.5L114.5 291L110 289.5L111.5 289L115 290L120.5 280Z" fill="#AD86B9" stroke="#AD86B9"/>
<path opacity="0.12549" d="M215.5 280L217 280.5L210 285.5L209.5 287L209 285.5L215.5 280Z" fill="#AD86B9" stroke="#AD86B9"/>
<path opacity="0.12549" d="M129.5 281L129 282.5L127.5 287L127 284.5L129.5 281Z" fill="#AD86B9" stroke="#AD86B9"/>
<path opacity="0.12549" d="M230.5 281L236 284.5L238 287.5L235 285.5C235.533 284.033 235.033 283.533 233.5 284L230.5 281Z" fill="#AD86B9" stroke="#AD86B9"/>
<path opacity="0.12549" d="M240.5 282L241.5 284" stroke="#AD86B9"/>
<path opacity="0.12549" d="M143.5 283C145.5 282.4 146 283.567 145 286.5H144L143.5 283Z" fill="#AD86B9" stroke="#AD86B9"/>
<path opacity="0.12549" d="M150.5 284L151.5 286L149 285.5L150.5 284Z" fill="#AD86B9" stroke="#AD86B9"/>
<path opacity="0.12549" d="M216.5 285L221.5 286L224.5 285L227 285.5L218 289.5L218.5 291C216.633 290.2 216.467 289.367 218 288.5C217.533 287.033 218.033 286.533 219.5 287V286C216.567 285 215.4 285.5 216 287.5L215 291.5C215.333 293.5 216.833 294.333 219.5 294V292L223.5 291L224 293L217.5 295C214.7 294.533 213.533 292.367 214 288.5L216.5 285Z" fill="#AD86B9" stroke="#AD86B9"/>
<path opacity="0.12549" d="M242.5 285L244 287.5L239.5 291L238.5 289H240.5L243 287.5L242.5 285Z" fill="#AD86B9" stroke="#AD86B9"/>
<path opacity="0.12549" d="M154.5 286L161 287C161.867 290.067 161.367 292.067 159.5 293L158 293.5L160 297.5L156.5 301L153 300.5L156 299.5L152.5 299L151 299.5C150.267 297.3 150.767 296.467 152.5 297L158 299V294H155.5L153 293L153.5 290L156 291L156.5 293L160 292C160.667 289.467 160.167 287.8 158.5 287C155.167 287.667 153.833 287.333 154.5 286Z" fill="#AD86B9" stroke="#AD86B9"/>
<path opacity="0.12549" d="M170.5 287L172.5 288C173.5 286.333 174.5 286.667 175.5 289C177.033 288.533 177.533 289.033 177 290.5L178 292.5L174 295.5L179 299.5L178 301.5V303.5L176.5 306L177 304.5C178 300.5 177.5 298 175.5 297C172.367 296.867 170.2 295.7 169 293.5L170.5 294L172.5 293L174.5 294L177 293L174.5 289L165.5 290V289L170.5 287Z" fill="#AD86B9" stroke="#AD86B9"/>
<path opacity="0.12549" d="M227.5 287L228 289.5H227L227.5 287Z" fill="#AD86B9" stroke="#AD86B9"/>
<path opacity="0.12549" d="M126.5 288L126 289.5L125.5 292L125 289.5L126.5 288Z" fill="#AD86B9" stroke="#AD86B9"/>
<path opacity="0.12549" d="M184.5 288L187 288.5L183.5 290L184.5 288Z" fill="#AD86B9" stroke="#AD86B9"/>
<path opacity="0.12549" d="M192.5 288L196 290.5L192.5 295L196 296.5L197 298.5L193.5 296L187 293.5C186.467 291.767 187.3 291.267 189.5 292L192.5 293C195.5 291.667 195.833 290.333 193.5 289L192.5 288Z" fill="#AD86B9" stroke="#AD86B9"/>
<path opacity="0.12549" d="M131.5 290C133.367 290.867 133.867 293.033 133 296.5L135.5 300L137 300.5L135.5 301C133.033 299.467 131.7 296.8 131.5 293L128.5 298L124 297L124.5 294L126.5 297C129.033 297.867 129.867 297.033 129 294.5L130 292L132 291.5L131.5 290Z" fill="#AD86B9" stroke="#AD86B9"/>
<path opacity="0.12549" d="M142.5 291L143 292.5L140.5 297L140 295.5L142.5 291Z" fill="#AD86B9" stroke="#AD86B9"/>
<path opacity="0.12549" d="M182.5 291L184 297.5L181 295.5L182.5 291Z" fill="#AD86B9" stroke="#AD86B9"/>
<path opacity="0.12549" d="M209.5 292L213.5 298L222 299.5L214.5 300L209 294.5L209.5 292Z" fill="#AD86B9" stroke="#AD86B9"/>
<path opacity="0.12549" d="M146.5 296L147 299C145.2 299.733 144.533 299.233 145 297.5L146.5 296Z" fill="#AD86B9" stroke="#AD86B9"/>
<path opacity="0.12549" d="M164.5 296L170 299.5L168 300.5L170.5 301L173 300C174.2 303 173.033 304 169.5 303L165.5 301L164 303.5L166.5 307L163 304.5C162 301.567 162.5 300.4 164.5 301L167 299.5L164.5 296Z" fill="#AD86B9" stroke="#AD86B9"/>
<path opacity="0.12549" d="M225.5 296L227 296.5L224.5 298L225.5 296Z" fill="#AD86B9" stroke="#AD86B9"/>
<path opacity="0.12549" d="M139.5 298L140 300.5H139L139.5 298Z" fill="#AD86B9" stroke="#AD86B9"/>
<path opacity="0.12549" d="M185.5 298L189 299.5L187 300.5L189.5 302L190 300C191.8 299.267 192.467 299.767 192 301.5L188.5 303L184.5 301L183 304.5L183.5 306L182 302.5L186 299.5L185.5 298Z" fill="#AD86B9" stroke="#AD86B9"/>
<path opacity="0.12549" d="M145.5 303L150 304.5L147.5 305L145.5 303Z" fill="#AD86B9" stroke="#AD86B9"/>
<path opacity="0.12549" d="M193.5 305L192.5 307L191 306.5L193.5 305Z" fill="#AD86B9" stroke="#AD86B9"/>
</g>
<defs>
<clipPath id="clip0_406_362">
<rect width="353" height="353" fill="white"/>
</clipPath>
</defs>
</svg>
