<svg width="26" height="26" viewBox="0 0 26 26" fill="none" xmlns="http://www.w3.org/2000/svg">
<path d="M7.43846 5.58187C6.93064 5.07406 6.10596 5.07406 5.59814 5.58187C5.09033 6.08969 5.09033 6.91437 5.59814 7.42219L11.18 13L5.60221 18.5819C5.09439 19.0897 5.09439 19.9144 5.60221 20.4222C6.11002 20.93 6.93471 20.93 7.44252 20.4222L13.0203 14.8403L18.6022 20.4181C19.11 20.9259 19.9347 20.9259 20.4425 20.4181C20.9503 19.9103 20.9503 19.0856 20.4425 18.5778L14.8606 13L20.4385 7.41812C20.9463 6.91031 20.9463 6.08562 20.4385 5.57781C19.9306 5.07 19.106 5.07 18.5981 5.57781L13.0203 11.1597L7.43846 5.58187Z" fill="#C00000"/>
</svg>
