<svg width="42" height="42" viewBox="0 0 42 42" fill="none" xmlns="http://www.w3.org/2000/svg">
<path d="M6.30005 10.5C6.30005 9.33846 7.23849 8.40002 8.40005 8.40002H33.6C34.7616 8.40002 35.7001 9.33846 35.7001 10.5C35.7001 11.6616 34.7616 12.6 33.6 12.6H8.40005C7.23849 12.6 6.30005 11.6616 6.30005 10.5ZM6.30005 21C6.30005 19.8385 7.23849 18.9 8.40005 18.9H33.6C34.7616 18.9 35.7001 19.8385 35.7001 21C35.7001 22.1616 34.7616 23.1 33.6 23.1H8.40005C7.23849 23.1 6.30005 22.1616 6.30005 21ZM35.7001 31.5C35.7001 32.6616 34.7616 33.6 33.6 33.6H8.40005C7.23849 33.6 6.30005 32.6616 6.30005 31.5C6.30005 30.3385 7.23849 29.4 8.40005 29.4H33.6C34.7616 29.4 35.7001 30.3385 35.7001 31.5Z" fill="black"/>
</svg>
