<svg width="316" height="480" viewBox="0 0 316 480" fill="none" xmlns="http://www.w3.org/2000/svg">
<path d="M427.654 199.124C427.603 201.063 427.322 202.999 426.838 204.857C426.338 206.699 425.618 208.492 424.573 209.953C424.313 210.345 424.049 210.627 423.8 210.931L423.255 211.461C423.255 211.461 423.115 211.594 423.101 211.609L423.036 211.663L422.75 211.902C421.992 212.543 421.19 213.17 420.385 213.792C418.665 215.112 416.909 216.404 415.136 217.68C410.865 218.187 406.235 213.135 403.688 210.042C406.368 211.568 408.852 212.951 410.369 213.169C417.732 214.219 422.991 214.747 425.622 206.857C426.804 203.307 426.173 199.147 424.818 195.202C423.743 192.074 422.215 189.081 420.774 186.636C425.072 196.919 406.183 206.467 406.792 191.78C406.916 188.795 407.039 185.812 407.163 182.827C406.301 191.025 401.881 198.757 395.361 203.779C391.166 203.623 385.453 205.906 382.188 206.691C375.837 208.217 369.592 210.154 363.228 211.637C352.251 214.197 341.208 216.711 330.422 220.006C311.488 225.791 278.88 242.621 278.88 242.621C290.451 238.415 287.295 248.933 287.295 248.933C290.391 248.456 293.486 247.981 296.583 247.504C300.192 246.949 302.898 247.019 305.793 247.517C303.145 247.903 300.751 248.553 298.278 249.178C295.567 249.897 292.885 250.662 290.198 251.465L289.539 251.664L289.408 252.36C289.333 252.756 289.175 253.313 289.025 253.797C288.871 254.298 288.691 254.8 288.509 255.299C288.138 256.302 287.72 257.293 287.278 258.279C286.84 259.264 286.361 260.239 285.882 261.201L285.126 262.662L284.345 264.03C283.242 265.834 281.917 267.505 280.435 269.026C279.683 269.776 278.9 270.494 278.076 271.163C277.259 271.82 276.366 272.466 275.519 272.965L274.665 273.468L275.168 274.306C277.006 277.367 278.738 280.697 279.507 284.097C279.618 284.522 279.639 284.939 279.704 285.359C279.689 285.773 279.785 286.04 279.683 286.543C279.598 287.314 279.292 288.281 279.045 289.085C278.813 289.822 278.503 290.486 278.12 291.077C276.99 291.979 275.777 292.757 274.509 293.401C273.418 293.667 272.239 293.791 271.01 293.936L265.509 294.602C264.316 294.741 263.12 294.864 261.924 294.992C267.397 294.277 272.961 293.282 274.671 292.063C278.352 289.432 276.774 285.751 274.671 279.439C272.568 273.127 267.834 269.971 267.834 269.971C267.834 269.971 269.937 274.179 270.464 277.335C270.99 280.491 265.73 276.81 263.627 275.757C261.522 274.705 259.418 276.81 256.789 278.913C254.159 281.017 252.056 276.283 252.056 276.283C252.056 276.283 249.952 279.439 246.796 280.491C243.787 281.494 237.831 276.58 238.305 273.576C238.628 271.53 239.472 269.609 240.334 267.726C242.471 263.057 244.763 258.459 247.206 253.942C242.81 260.235 238.024 267.784 236.671 275.462C236.508 276.383 236.563 277.402 236.847 278.286C237.399 280.124 238.347 281.728 239.274 283.337L242.164 288.062C242.259 288.227 242.352 288.389 242.443 288.55C243.193 292.207 244.626 300.543 242.588 302.581C239.957 305.21 222.076 316.781 219.972 320.463C218.17 323.617 217.143 327.532 216.883 328.594C212.153 329.704 205.729 331.314 202.614 332.561C197.355 334.665 192.621 335.19 190.518 332.034C189.394 330.35 189.621 321.92 190.076 314.427C192.062 304.479 194.204 294.55 196.401 284.642L196.447 284.432L196.406 284.241C195.924 281.965 195.268 279.832 194.5 277.695C194.106 276.635 193.7 275.581 193.239 274.547C192.805 273.502 192.296 272.488 191.787 271.476C191.264 270.47 190.718 269.475 190.115 268.51C189.548 267.526 188.871 266.605 188.229 265.666C187.523 264.765 186.87 263.841 186.066 262.985C185.301 262.077 184.503 261.31 183.702 260.547L181.293 258.264C180.532 257.482 179.754 256.719 179.033 255.897C177.554 254.293 176.176 252.59 174.86 250.844C173.542 249.097 172.306 247.288 171.145 245.432C170.637 244.619 170.143 243.785 169.662 242.95C170.691 243.265 171.671 243.756 172.634 244.242C175.191 245.536 177.747 246.828 180.301 248.122C182.906 251.881 186.517 257.131 189.467 261.555C194.726 269.445 199.458 282.595 199.985 285.225C200.511 287.854 200.511 287.854 200.511 287.854C200.511 287.854 205.77 282.069 208.401 282.069C211.03 282.069 211.03 282.069 211.03 282.069C211.03 282.069 207.875 278.913 206.296 268.393C204.933 259.303 203.572 247.483 203.227 244.433C203.489 247.016 204.075 255.566 200.511 257.349C196.304 259.452 189.992 256.296 189.992 256.296L179.988 246.292C173.57 233.582 179.971 219.813 183.68 206.855C184.737 203.164 197.188 185.071 200.398 188.836C201.393 190.004 201.428 191.684 201.413 193.217C201.318 202.598 201.224 211.98 201.129 221.361C203.223 208.162 205.321 194.771 203.862 181.486C203.578 178.902 203.16 176.323 203.13 173.722C203.036 164.839 208.1 158.676 212.608 151.631C212.608 151.631 193.674 158.993 177.368 167.409C161.065 175.824 154.227 167.409 155.279 161.099C156.331 154.787 173.161 150.053 173.161 150.053C168.546 150.262 163.716 151.281 159.453 153.04C156.518 154.25 147.253 162.261 144.881 161.501C143.126 160.941 142.836 158.919 143.179 156.962C143.564 156.641 143.93 156.3 144.324 155.991C145.321 155.204 146.343 154.447 147.404 153.752C148.448 153.03 149.546 152.397 150.639 151.757C151.758 151.17 152.877 150.569 154.007 150.095C155.06 149.579 156.463 149.115 157.552 148.725C158.748 148.391 159.932 148.023 161.182 147.829C162.405 147.554 163.675 147.444 164.93 147.281C166.198 147.181 167.468 147.073 168.747 147.045C171.303 146.956 173.876 147.052 176.447 147.207C179.017 147.396 181.586 147.656 184.146 148.016C185.156 148.161 186.168 148.326 187.18 148.495L173.161 150.053C173.161 150.053 190.518 152.156 201.563 149.002C207.285 147.366 213.527 144.745 218.225 142.595L226.024 140.36L226.548 140.21L226.811 139.784C227.216 139.129 227.407 138.645 227.632 138.064C227.84 137.505 227.992 136.935 228.126 136.365C228.35 135.333 228.439 134.286 228.447 133.246C230.164 131.462 233.662 127.341 234.631 122.493C235.932 115.996 235.932 88.0505 237.881 84.1501C239.831 80.2515 243.08 77.0008 243.08 77.0008C243.08 77.0008 239.71 75.3281 236.487 78.989C237.404 77.7025 238.548 76.5404 239.979 75.7458C245.606 72.6214 250.607 78.8721 250.607 78.8721C250.607 78.8721 246.232 96.3748 245.606 104.501C244.981 112.626 245.606 115.127 245.606 115.127L249.356 98.8755L254.358 110.751C254.358 110.751 259.359 108.876 264.358 108.251C267.657 107.838 271.649 108.208 273.99 108.509C271.068 109.043 268.32 110.009 265.624 111.097C262.712 112.311 259.873 113.677 257.113 115.188C254.322 116.649 251.707 118.439 249.106 120.169L233.467 130.612L249.403 120.624C252.057 118.938 254.662 117.24 257.463 115.849C260.233 114.409 263.079 113.115 265.977 111.98C268.873 110.879 271.875 109.901 274.877 109.507L277.233 109.26C278.033 109.138 278.839 109.002 279.615 108.767C281.176 108.338 282.682 107.723 284.098 106.973C286.948 105.492 289.486 103.546 292.055 101.851C292.718 101.417 293.291 101.066 294.015 100.693C294.606 100.387 295.3 99.9949 295.894 99.5512C296.38 100.856 297.81 104.395 299.917 106.923C302.548 110.079 302.548 110.079 302.548 110.079C302.548 110.079 297.814 100.086 300.442 95.3537C300.906 94.522 301.361 93.8185 301.811 93.1743C302.043 92.9162 302.271 92.6378 302.51 92.402C303.073 91.8339 303.648 91.4385 304.246 90.9261C304.82 90.4249 305.432 89.9719 306.075 89.5616C308.574 87.8314 311.314 86.4372 314.217 85.5071C320.015 83.6043 326.258 83.1679 332.355 83.8585C335.398 84.1927 338.459 84.7552 341.385 85.5609C342.879 85.9916 344.416 86.4037 345.738 86.9607C347.108 87.5065 348.408 88.2491 349.674 89.0474C352.18 90.7015 354.441 92.7696 356.509 95.0067C358.566 97.24 360.477 99.7183 362.064 102.237L362.275 102.575L362.619 102.75L363.165 103.026C362.985 106.156 362.313 113.504 359.877 117.969C356.721 123.754 355.143 125.859 355.143 125.859C355.143 125.859 357.341 123.657 359.725 120.412C361.295 119.181 363.064 117.887 364.919 116.813C367.862 115.112 370.988 113.976 373.756 114.577C383.53 116.707 385.953 125.163 381.042 133.092C388.351 121.292 402.57 139.07 406.3 145.909C411.128 154.759 415.942 163.007 418.268 166.948C419.796 171.621 421.188 176.357 422.408 181.098C419.18 178.724 414.576 177.402 414.576 177.402C418.32 180.211 422.423 184.488 425.15 187.512C425.184 187.594 425.221 187.674 425.252 187.754C425.999 189.617 426.645 191.515 427.096 193.41C427.22 193.893 427.3 194.342 427.382 194.786C427.473 195.189 427.525 195.844 427.58 196.225C427.645 197.186 427.699 198.153 427.654 199.124ZM400.494 235.008C399.323 236.456 398.103 237.882 396.832 239.204C392.348 241.699 383.016 246.056 369.87 247.881C350.936 250.511 319.378 243.674 316.748 241.571C314.119 239.465 335.156 231.05 363.558 224.213C368.274 223.078 400.977 214.401 401.309 221.944C401.399 223.964 400.236 225.804 399.091 227.471C396.035 231.915 392.779 236.222 389.337 240.373C395.452 233.723 402.204 227.658 409.463 222.28C406.697 226.659 403.719 230.979 400.494 235.008ZM333.322 264.316C331.631 267.561 329.089 270.234 326.617 272.898C324.107 275.544 321.498 278.098 318.851 280.606C317.52 281.854 316.2 283.111 314.826 284.31C313.467 285.543 312.175 286.844 310.937 288.197C308.46 290.902 306.214 293.821 304.339 297.001C303.387 298.545 302.633 300.29 301.944 301.976C301.294 303.695 300.695 305.429 300.158 307.182C299.08 310.683 298.159 314.227 297.312 317.786C296.466 321.346 295.695 324.916 295.007 328.516L294.964 328.744L295.112 328.952C297.606 332.403 299.83 336.109 301.866 339.879C302.891 341.764 303.851 343.685 304.768 345.623C305.694 347.56 306.537 349.531 307.363 351.51C308.137 353.51 308.951 355.496 309.608 357.536C310.332 359.554 310.918 361.613 311.518 363.668C312.058 365.742 312.598 367.778 313.018 369.897L313.634 373.073C313.818 374.088 313.891 375.169 314.024 376.212C314.36 378.306 314.258 380.438 314.323 382.552C314.314 383.612 314.186 384.67 314.124 385.728C314.058 386.787 313.982 387.845 313.788 388.892L313.309 392.042L312.615 395.156C312.409 396.199 312.112 397.222 311.809 398.243C311.498 399.26 311.256 400.298 310.889 401.3L309.838 404.317C309.468 405.316 309.051 406.298 308.659 407.289C308.28 408.286 307.822 409.25 307.385 410.223C306.958 411.199 306.506 412.164 306.017 413.113C305.08 415.029 304.07 416.91 302.997 418.749C301.939 420.587 300.793 422.421 299.603 424.115L299.535 424.213L299.464 424.371C299.252 424.837 298.887 425.481 298.547 426.03C298.2 426.604 297.825 427.17 297.44 427.731C296.668 428.85 295.846 429.951 294.999 431.032C294.162 432.107 293.26 433.194 292.38 434.175C291.455 435.166 290.499 436.141 289.497 437.084C285.559 440.804 281.297 444.283 276.979 447.597C279.925 441.777 286.558 435.944 290.976 431.967C296.236 427.233 300.97 410.928 299.392 404.091C299.392 404.091 306.229 393.572 307.282 383.579C308.332 373.585 308.512 362.879 308.512 362.879C304.87 355.739 301.226 348.601 297.582 341.461C295.781 337.932 293.967 334.371 292.948 330.541C291.21 323.999 291.901 317.012 293.703 310.488C299.457 289.657 315.636 273.585 331.351 258.752C326.8 256.842 321.643 255.852 317.273 253.665C314.579 252.319 312.314 251.328 310.517 250.608C311.88 250.968 313.239 251.295 314.603 251.618C317.336 252.254 320.084 252.826 322.844 253.331C327.573 254.204 332.344 254.88 337.158 255.273C336.148 258.396 334.885 261.438 333.322 264.316ZM211.557 353.073C207.935 353.073 213.788 348.087 217.785 344.981C214.878 347.19 210.385 350.678 205.824 354.516C200.503 358.992 195.11 363.924 192.096 367.801C184.733 377.267 173.687 392.519 173.687 392.519L163.168 396.203C163.168 396.203 163.168 396.203 162.643 393.047C162.294 390.951 162.639 384.238 162.91 379.949C163.595 377.514 164.323 375.087 165.099 372.678C166.02 369.819 167 366.978 168.088 364.188C168.634 362.796 169.194 361.407 169.816 360.055C170.431 358.687 171.097 357.386 171.858 356.205C172.636 354.995 173.765 354.065 174.901 353.129C176.052 352.212 177.27 351.358 178.516 350.543C181.014 348.933 183.632 347.448 186.279 346.106L186.715 345.887L186.719 345.395C186.721 345.261 186.729 345.13 186.73 344.996L196.993 339.933L189.467 344.133C189.467 344.133 230.491 323.093 236.803 322.041C243.113 320.99 258.893 322.568 268.359 327.302C277.827 332.034 289.398 334.139 296.236 344.658C299.997 350.443 305.36 356.764 308.451 362.768C307.629 361.283 297.732 343.795 284.139 336.243C269.937 328.353 243.113 323.619 243.113 323.619C243.113 323.619 252.056 328.353 252.056 333.612C252.056 338.871 246.269 350.97 246.269 350.97C246.269 350.97 265.73 358.333 278.352 370.957C284.492 377.094 289.63 385.095 293.295 391.699C290.219 387.141 286.187 382.205 281.508 377.267C272.042 367.273 254.159 358.858 245.218 355.177C236.276 351.495 216.816 353.073 211.557 353.073ZM148.441 440.383C148.017 442.672 147.731 445.54 147.548 448.731C147.565 448.289 147.57 447.848 147.591 447.406C147.673 445.672 147.791 443.932 147.961 442.211L148.263 439.636L148.734 437.082C149.539 433.712 150.655 430.417 151.889 427.174C154.32 420.868 157.192 414.719 160.318 408.734C160.448 409.476 160.538 409.877 160.538 409.877C160.538 409.877 151.071 426.181 148.441 440.383ZM133.324 257.167C131.889 257.718 130.512 258.424 129.031 258.852L124.608 260.191L120.077 261.132C118.571 261.468 117.016 261.548 115.489 261.771C113.961 262.008 112.411 262.045 110.866 262.125L108.548 262.24L106.223 262.211C103.125 262.218 100.026 261.969 96.9419 261.644C90.7704 260.959 84.6573 259.688 78.6941 257.948C75.7201 257.102 72.7338 256.075 69.9448 254.937C69.2639 254.683 68.5081 254.298 67.8346 254.005C67.0209 253.621 66.205 253.341 65.3893 253.095C63.7634 252.65 62.1564 252.386 60.5639 252.16C57.3847 251.731 54.257 251.482 51.2148 251.018C48.2118 250.537 45.1444 249.882 42.9441 248.397C40.8034 246.743 39.2326 244.088 38.0085 241.351C36.8085 238.591 35.8555 235.608 35.2232 232.682L35.1028 232.123L34.6379 231.776C33.5437 230.959 32.4566 230.053 31.3956 229.106C37.063 230.998 42.3706 224.87 46.7006 221.675C45.3822 223.904 44.0639 226.134 42.7454 228.362C40.6786 231.856 38.5379 235.919 39.7968 239.781C41.2124 244.119 46.5599 250.19 51.5369 250.274C57.938 250.381 58.2339 242.248 59.2135 237.702C58.476 245.438 75.3895 250.712 80.7812 253.407C83.1452 254.588 85.5122 255.772 87.964 256.758C103.036 262.825 119.658 261.364 135.194 256.365C134.572 256.649 133.95 256.923 133.324 257.167ZM19.1242 213.818C19.4069 214.331 19.7138 214.889 20.0459 215.491C20.0285 215.463 20.0095 215.437 19.9928 215.409C19.7043 214.88 19.4114 214.357 19.1242 213.818ZM17.8 211.086C17.8102 211.1 17.7558 210.969 17.7369 210.917L17.6346 210.649C17.7426 210.918 17.8514 211.173 17.9609 211.427L17.9008 211.301L17.8 211.086ZM16.7375 208.216C16.9269 208.772 17.1198 209.303 17.3141 209.818L16.9196 208.795C16.8558 208.603 16.8006 208.407 16.7375 208.216ZM15.8043 205.245C15.8158 205.286 15.8282 205.325 15.8405 205.366C15.831 205.334 15.821 205.305 15.8115 205.275C15.8093 205.266 15.8065 205.254 15.8043 205.245ZM3.31809 105.746C3.36376 105.161 3.42539 104.488 3.50522 103.893C3.58932 103.338 3.69959 102.776 3.86927 102.215C4.19564 101.092 4.6605 99.9708 5.21874 98.8847C5.49795 98.3408 5.80036 97.8062 6.11652 97.2808C6.43063 96.7666 6.78671 96.2226 7.10787 95.7808L7.20441 95.6508L7.26029 95.5356C7.32842 95.3964 7.37557 95.2665 7.43925 95.131C8.45455 95.454 9.81868 96.1093 11.1661 97.4571C13.7956 100.086 13.7956 100.086 13.7956 100.086C13.7956 100.086 10.3088 92.1087 10.1304 88.7801C10.1842 88.6984 10.2219 88.6204 10.2776 88.5369C11.6614 86.4632 13.2799 84.4025 14.8993 82.4328L15.1378 82.1413L15.2271 81.7849L15.6157 80.2384L15.8043 79.5107C15.8355 79.3919 15.8978 79.2601 15.9645 79.1227C16.2794 78.5639 16.9 77.9995 17.6223 77.5967C18.3519 77.1957 19.1851 76.9377 20.0342 76.8337L20.6725 76.791C20.8769 76.8022 21.0146 76.7817 21.2751 76.8059L22.0516 76.8819C22.3882 76.9135 22.7174 76.9525 23.0879 76.9246C23.5478 76.9209 24.0408 76.8152 24.5254 76.6629L30.6263 83.7806L29.4907 73.0205C29.5 73.0187 29.5044 73.015 29.5146 73.0113L29.8852 72.8646C29.8096 72.8999 29.9793 72.859 30.0127 72.8535C30.2657 72.7811 30.6103 72.8015 30.9786 72.8572C31.7307 72.9834 32.593 73.3547 33.4262 73.8058C35.1092 74.7303 36.7344 76.0075 38.2972 77.3423C39.0804 78.0125 39.8462 78.718 40.6062 79.4272C41.3364 80.1271 42.1371 80.8919 42.8295 81.6122C43.5816 82.3956 44.2416 83.2497 44.8057 84.1575C45.1161 86.3036 45.0189 88.6482 43.2944 89.2219C39.939 90.3413 37.1419 92.0196 35.4638 90.9001C33.7858 89.7807 30.9896 88.1043 30.9896 88.1043C30.9896 88.1043 36.5829 96.4936 35.4638 98.1719C34.3457 99.8483 33.2268 103.205 29.8705 101.526C26.5144 99.8482 22.0401 96.4936 22.0401 96.4936C22.0401 96.4936 29.8705 104.883 27.6335 106.561C25.3962 108.239 23.1583 109.918 20.9211 108.239C18.684 106.561 15.3279 103.205 15.3279 103.205C15.3279 103.205 24.2774 114.951 20.3621 114.392C16.4468 113.833 10.2943 117.748 6.93819 114.951C5.51688 113.766 4.30573 113.076 3.32904 112.212C3.25293 111.327 3.20281 110.428 3.19408 109.52C3.18387 108.265 3.22378 106.999 3.31809 105.746ZM80.5339 181.731L81.5926 183.523L83.0409 182.008C83.6812 181.338 84.4846 180.604 85.2701 179.951C86.0684 179.288 86.8871 178.642 87.7379 178.037C89.4325 176.819 91.2143 175.714 93.0585 174.727C93.9773 174.226 94.9243 173.782 95.8699 173.334C96.8214 172.932 97.7336 172.516 98.7736 172.144L99.5314 171.86L99.7206 171.788L99.7685 171.771C99.7193 171.79 99.781 171.769 99.781 171.769L99.8708 171.745L100.229 171.645L101.66 171.242C102.658 171.088 103.635 170.839 104.669 170.793C105.688 170.693 106.717 170.635 107.761 170.654C108.796 170.615 109.846 170.711 110.889 170.752C112.981 170.908 115.079 171.153 117.165 171.521C119.255 171.86 121.331 172.321 123.396 172.82C125.299 173.286 127.213 173.826 129.052 174.417C129.024 174.445 129.002 174.482 128.975 174.51C129.529 174.623 130.072 174.781 130.621 174.922L130.762 174.968L130.766 174.959C137.582 176.743 143.829 180.599 148.464 185.906C148.903 186.796 149.272 187.729 149.524 188.732C150.872 194.093 148.528 201.592 142.01 201.259C137.585 201.033 133.045 195.681 138.345 192.84C126.532 199.173 114.116 204.38 101.321 208.368C98.8345 209.144 96.3043 209.877 93.7031 209.992C86.7146 210.302 80.3895 206.194 74.6112 202.251C77.0994 197.168 79.5867 192.087 82.0742 187.004C74.4343 191.377 67.4169 196.837 61.2978 203.166C57.7661 196.642 55.9096 189.22 55.9525 181.802C55.9625 180.094 56.0633 178.338 55.4824 176.734C54.8254 174.918 53.3809 173.524 52.0901 172.089C46.789 166.191 43.5649 158.722 38.7206 152.444C33.8758 146.165 26.3447 140.859 18.5375 142.252C13.9246 144.847 12.0717 150.593 11.235 156.023C11.3168 155.123 11.4206 154.235 11.5454 153.363C11.6634 152.182 11.9376 150.936 12.1951 149.698L13.0036 145.972C13.2037 144.689 13.4685 143.414 13.5932 142.122C13.6259 141.875 13.6454 141.626 13.6744 141.377C14.7303 139.246 15.5395 137.883 15.8876 137.883C17.5657 137.883 22.0401 142.918 27.6335 141.24C33.2268 139.562 46.6505 141.799 50.5658 147.392C51.096 148.15 51.9915 149.043 53.1329 150.017C54.4296 152.59 55.5515 155.056 56.2026 157.009C58.703 164.511 59.3281 168.261 59.3281 168.261V154.77C59.5993 155.026 59.859 155.288 60.1382 155.544L62.0127 157.146C62.5791 157.658 63.176 158.113 63.7199 158.67C65.9447 160.82 67.9781 163.267 69.9159 165.784C73.7693 170.841 77.2901 176.251 80.5339 181.731ZM163.339 79.9934C163.443 79.3752 163.625 78.7236 163.846 78.072C164.291 76.7687 164.861 75.4636 165.459 74.1697C166.066 72.8776 166.708 71.5892 167.356 70.2952C168.012 68.9808 168.654 67.7482 169.283 66.2779C169.4 66.0069 169.567 65.5724 169.668 65.0786C170.139 64.6888 170.672 64.414 171.292 64.3602C178.657 63.7308 180.613 74.5298 180.235 79.5924C180.378 77.684 188.139 77.1196 189.348 78.2465C189.35 78.2483 198.723 86.9978 198.723 86.9978C198.723 86.9978 212.414 97.5778 212.476 97.6242C208.232 94.3457 201.705 88.8487 201.866 82.7595C202.005 77.5392 209.457 73.2433 213.101 70.1207C213.101 70.1207 198.459 70.7296 198.105 70.7464C197.193 70.7835 193.764 64.7853 193.104 63.8645C196.974 60.5804 198.296 56.6818 202.924 54.3222C207.09 54.4689 211.286 54.2443 215.383 54.9868C220.392 55.8965 225.517 58.722 227.155 63.5414C226.113 60.4801 231.976 53.0822 233.803 50.9788C236.935 47.3717 240.967 43.9056 245.925 43.4229C247.682 43.254 249.592 43.7126 250.765 45.0307C251.823 46.2206 252.122 47.8841 252.351 49.4583C253.062 54.3371 253.374 59.7765 250.414 63.7196C248.419 66.3799 236.847 77.1456 233.729 73.2451C232.123 71.2383 231.297 69.2444 230.907 68.0638C231.315 69.6139 232.045 72.8423 232.479 77.6208C232.843 81.6233 232.992 84.3171 233.056 85.9026C232.375 88.1953 231.796 91.0319 231.382 94.5481L220.78 114.149L220.522 113.729L219.4 114.332C217.991 115.092 216.545 115.812 215.088 116.508C213.701 116.651 211.455 116.957 208.1 117.628C201.849 118.877 194.347 118.253 188.722 115.753C183.097 113.252 183.721 107.001 183.721 107.001C185.821 106.16 188.288 104.629 190.499 104.291C194.823 103.632 196.544 105.733 199.88 108.962C198.614 106.494 197.349 104.025 196.085 101.556C193.774 97.0432 185.576 99.0165 181.22 99.4992C176.804 99.9912 174.322 97.0209 173.455 95.7195C179.858 94.4441 188.47 93.1334 193.454 95.894C187.983 92.8642 181.85 91.0356 175.612 90.5789C174.669 86.8271 179.123 83.4464 181.22 80.7472C181.22 80.7472 175.595 84.4972 171.845 82.6222C169.161 81.28 165.507 81.5157 163.64 81.757C163.552 81.6457 163.463 81.5231 163.374 81.3839C163.281 81.2001 163.229 80.5949 163.339 79.9934ZM164.275 50.058C164.2 50.0468 164.119 50.0394 164.044 50.0302C163.961 50.019 163.942 49.8519 163.974 49.5753C164.067 49.7442 164.165 49.9057 164.275 50.058ZM173.405 21.4851C173.555 21.3051 173.707 21.125 173.86 20.9468C173.691 21.1918 173.512 21.4499 173.329 21.7154C173.355 21.6393 173.381 21.5594 173.405 21.4851ZM185.071 11.516C189.099 9.01535 193.399 6.93979 197.834 5.2207C199.488 4.60437 201.164 4.03812 202.85 3.52017C210.218 2.79059 218.058 4.90512 222.525 10.805C224.038 12.8062 225.066 15.2883 224.845 17.789C224.16 25.4655 216.478 32.6926 210.259 36.1735C204.01 39.6692 199.508 41.9155 192.517 43.9242C194.86 44.9973 196.326 46.126 197.76 48.1384C198.019 48.506 198.846 50.5926 199.453 52.2096C197.223 51.0307 194.927 49.527 193.657 49.0443C189.99 47.6464 186.201 46.3599 182.472 45.1161C181.551 44.8097 177.953 48.6879 176.884 49.1446C175.868 49.5771 174.741 49.8704 173.568 50.0709C179.171 46.4917 183.639 41.1618 186.159 35.002C184.56 36.3591 182.964 37.718 181.367 39.0751C179.99 40.2466 178.581 41.4365 176.91 42.1271C168.988 45.4038 169.694 36.0695 171.493 28.3021C172.954 24.6616 174.316 21.4369 175.25 19.4561C178.154 16.4171 181.462 13.7382 185.071 11.516ZM268.753 78.6957C269.118 79.8374 269.657 80.9365 270.136 82.041C270.748 83.0825 271.309 84.1574 272.059 85.1079C272.204 85.3084 272.361 85.4979 272.512 85.6928C271.773 84.8091 271.088 83.9291 270.435 83.0603C267.841 78.072 266.094 72.109 265.691 66.7086C266.248 70.8113 267.375 74.8138 268.753 78.6957ZM278.809 107.623C278.415 107.736 278.044 107.842 277.69 107.941C276.748 108.121 275.792 108.228 274.747 108.356C274.697 108.366 274.649 108.379 274.599 108.386C271.404 107.371 263.441 104.441 259.983 99.4992C255.607 93.2485 256.858 86.9978 256.858 86.9978C258.941 85.9564 261.813 83.6228 264.087 83.3072C264.291 83.2794 264.542 83.2812 264.817 83.3016C267.535 87.5436 271.571 93.2726 275.456 96.6031C282.164 102.353 282.164 106.665 278.809 107.623ZM430.887 195.926C430.799 195.285 430.777 194.906 430.658 194.298C430.556 193.726 430.445 193.16 430.311 192.642C429.795 190.52 429.091 188.502 428.297 186.534C427.521 184.622 426.684 182.786 425.722 180.931C424.209 175.081 422.479 169.354 420.529 163.659C419.547 160.783 418.474 157.933 417.355 155.098L415.567 150.882C414.906 149.499 414.318 148.09 413.595 146.729C412.884 145.365 412.207 143.986 411.381 142.666C410.976 142.003 410.608 141.325 410.172 140.676L408.817 138.749C408.397 138.09 407.835 137.503 407.311 136.896C406.788 136.304 406.249 135.652 405.709 135.154L402.455 131.982C400.262 129.884 398.038 127.82 395.76 125.807C393.523 123.836 391.29 121.92 388.882 120.06C387.241 117.965 385.552 115.981 383.775 114.032C381.954 112.04 380.046 110.115 377.961 108.327C376.917 107.436 375.835 106.574 374.641 105.804C374.075 105.395 373.396 105.074 372.781 104.716L370.995 103.829L364.154 100.459C362.428 97.8432 360.534 95.4763 358.418 93.2281C356.205 90.8983 353.778 88.7299 351.025 86.9644C349.631 86.1086 348.189 85.3085 346.639 84.7144C345.055 84.0832 343.547 83.7119 342.027 83.2924C338.899 82.4755 335.767 81.9464 332.578 81.6364C326.225 81.0034 319.681 81.5361 313.579 83.6302C310.523 84.6568 307.632 86.1717 305.007 88.0393C304.335 88.4848 303.693 88.9731 303.091 89.5096C302.505 90.0238 301.803 90.5493 301.27 91.1043C300.08 92.3036 299.143 93.5752 298.177 94.7968C297.22 96.0109 296.245 97.1694 295.101 98.0753C294.749 98.3705 294.388 98.6044 294.008 98.8309C290.752 98.3092 283.381 96.5011 276.893 90.3747C276.542 90.0424 276.208 89.7027 275.87 89.3629C276.24 89.7027 276.615 90.0387 277.001 90.3581C280.693 93.4491 284.92 95.8773 289.4 97.6112C284.939 95.8327 280.742 93.3618 277.095 90.2466C275.265 88.7002 273.615 86.9328 272.237 84.9798C271.504 84.0312 270.96 82.9619 270.366 81.926C269.9 80.8233 269.387 79.752 269.029 78.5992C267.472 74.0713 266.213 69.3967 265.864 64.6256C265.675 62.2419 265.784 59.8508 266.081 57.4782C266.391 55.1131 266.924 52.7554 267.149 50.3439C267.694 45.5393 267.42 40.6438 266.451 35.9005C265.45 31.1591 263.696 26.5811 261.345 22.3447C260.127 20.2561 258.897 18.1621 257.436 16.2295C256.088 14.2134 254.487 12.3829 252.696 10.6898C249.104 7.37421 244.776 4.90137 240.193 3.27325C235.613 1.61169 230.797 0.698395 225.969 0.280701C221.134 -0.140717 216.269 -0.0720825 211.444 0.382751C209.025 0.64267 206.639 0.872864 204.211 1.50037C201.846 2.11298 199.551 2.88901 197.268 3.71515C192.721 5.41382 188.316 7.50784 184.163 10.0568C180.003 12.5853 176.16 15.693 172.868 19.3316C169.63 22.9814 166.794 27.1678 165.307 31.9073C163.846 36.218 162.717 40.5807 161.848 45.0511C160.862 48.9143 159.917 53.5351 161.061 56.6985C161.078 56.8285 161.085 56.9603 161.104 57.0921C161.23 57.7326 161.373 58.3767 161.622 59.0247C161.755 59.3495 161.893 59.6744 162.099 60.0012C162.208 60.1646 162.294 60.3242 162.446 60.4894C162.606 60.6658 162.676 60.7864 163.053 61.0315L163.118 61.0761L163.281 61.1243C164.509 61.5012 165.834 62.0841 166.755 62.849C167.212 63.2332 167.535 63.6695 167.624 64.0594C167.709 64.4789 167.64 64.7519 167.321 65.5353C166.799 66.7253 166.109 68.0656 165.461 69.3391C164.806 70.6294 164.147 71.9308 163.515 73.2563C162.892 74.5892 162.288 75.9408 161.789 77.374C161.542 78.0943 161.323 78.8368 161.182 79.6462C161.085 80.4612 160.922 81.3709 161.488 82.5108C161.887 83.1884 162.613 83.9328 163.207 84.3969C163.835 84.913 164.501 85.3195 165.173 85.7001C166.231 86.2849 167.31 86.7379 168.428 87.1463C168.082 89.0381 167.839 90.9168 167.819 92.8976C167.819 93.475 167.841 94.0635 167.919 94.6724C167.995 95.2776 168.127 95.9145 168.437 96.5958L168.738 97.1136C168.838 97.2733 168.905 97.3458 168.99 97.4665L169.478 98.1199L170.453 99.4269L170.553 99.5605L170.715 99.6812C171.671 100.387 172.645 101.261 173.499 102.158C174.355 103.069 175.129 104.046 175.746 105.087C176.384 106.16 176.767 107.155 177.04 108.421C177.342 109.726 177.712 111.061 178.137 112.348C179.026 114.919 180.101 117.49 181.889 119.759C182.782 120.882 183.871 121.935 185.241 122.668C185.936 123.039 186.654 123.277 187.471 123.462C188.106 123.579 188.776 123.683 189.506 123.754C192.272 124.016 194.958 123.96 197.648 123.771C200.335 123.579 203.002 123.238 205.664 122.707C206.99 122.432 208.336 122.104 209.656 121.651C210.92 121.218 212.216 120.702 213.437 120.18C215.511 119.287 217.52 118.311 219.521 117.279C221.407 120.49 223.175 123.839 224.478 127.251C224.816 128.196 225.144 129.152 225.335 130.083C225.423 130.448 225.532 131.117 225.577 131.538C225.633 131.985 225.655 132.459 225.67 132.94C225.677 133.894 225.588 134.841 225.382 135.754C225.272 136.207 225.15 136.658 224.988 137.085C224.899 137.325 224.788 137.577 224.676 137.807L208.533 142.404L200.182 144.771C198.81 145.146 197.418 145.502 196.037 145.816C195.344 145.968 194.654 146.119 193.969 146.243C193.363 146.356 192.621 146.466 192.172 146.499C189.617 145.942 187.105 145.514 184.555 145.142C181.931 144.767 179.293 144.494 176.646 144.296C173.995 144.13 171.335 144.026 168.66 144.114C167.323 144.14 165.983 144.249 164.644 144.355C163.304 144.524 161.963 144.639 160.629 144.934C159.288 145.142 157.966 145.539 156.645 145.913C155.272 146.399 154.178 146.748 152.869 147.361C151.583 147.897 150.395 148.534 149.198 149.16C148.031 149.839 146.859 150.513 145.749 151.276C144.62 152.013 143.536 152.815 142.479 153.645C141.417 154.471 140.392 155.342 139.399 156.246C138.401 157.146 137.441 158.087 136.512 159.062C135.579 160.05 134.703 161.022 133.822 162.151L133.747 162.248L133.679 162.381L129.21 171.298C127.518 170.771 125.837 170.292 124.127 169.868C121.995 169.349 119.852 168.868 117.678 168.511C115.511 168.125 113.313 167.863 111.099 167.693C109.986 167.646 108.88 167.546 107.755 167.581C106.636 167.563 105.51 167.62 104.378 167.73C103.252 167.782 102.114 168.051 100.985 168.233L99.2957 168.704L98.8744 168.823L98.7684 168.853L98.6366 168.897L98.4473 168.968L97.688 169.252C96.6909 169.603 95.6314 170.073 94.5958 170.513C93.5878 170.986 92.5792 171.459 91.5993 171.99C89.6333 173.037 87.7342 174.209 85.9199 175.51C85.0089 176.154 84.1293 176.845 83.2657 177.56C82.9052 177.86 82.5608 178.165 82.2162 178.473C79.1907 173.442 75.9921 168.561 72.4286 163.865C70.4329 161.264 68.3384 158.72 65.9222 156.374C65.3384 155.776 64.6524 155.24 64.0201 154.671L62.2158 153.123C61.1129 152.098 59.9983 150.999 58.9561 149.824C57.906 148.662 56.9017 147.45 55.9517 146.193C54.9879 144.947 54.0851 143.651 53.2105 142.337C51.4673 139.706 49.8993 136.95 48.5599 134.115C47.8849 132.698 47.2828 131.256 46.7897 129.806C46.5402 129.102 46.3271 128.347 46.106 127.565C45.9079 126.828 45.7208 126.076 45.5491 125.31C45.211 123.782 44.937 122.237 44.7369 120.685C44.6049 119.646 44.5128 118.589 44.4482 117.55C44.662 117.525 44.8754 117.501 45.0929 117.472C45.8368 117.373 46.5801 117.238 47.3242 117.087C48.069 116.928 48.8151 116.731 49.5629 116.497C50.312 116.245 51.0633 115.957 51.8154 115.552C52.5572 115.116 53.3375 114.663 53.9908 113.805C54.344 113.447 54.5689 112.873 54.7957 112.368C54.8748 112.095 54.9118 111.804 54.9554 111.518L55.0061 111.087C55.0126 111.13 55.0163 110.944 55.0213 110.885L55.0502 110.35L55.1126 109.964C55.1323 109.738 55.2344 109.407 55.2947 109.125C55.4709 108.529 55.6863 107.924 55.951 107.272C56.2098 106.613 56.4985 105.928 56.745 105.137C56.9843 104.345 57.1692 103.439 57.133 102.464C57.1018 101.476 56.7654 100.524 56.3418 99.7072C55.8407 98.855 55.444 98.3501 55.0075 97.7505C53.4128 95.5951 51.766 93.5363 50.053 91.4905C50.1286 90.462 50.0655 89.569 49.937 88.6037C49.7638 87.4248 49.4716 86.2646 49.0327 85.1637C48.1865 82.9452 46.8246 80.9606 45.2125 79.2953C44.43 78.4859 43.6889 77.7843 42.8824 77.0138C42.0892 76.275 41.2877 75.5398 40.4538 74.8306C38.7823 73.4141 37.0535 72.0348 35.0042 70.9079C33.9701 70.3584 32.8655 69.8423 31.5176 69.6084C30.8416 69.5063 30.0998 69.4524 29.3188 69.6362C29.0939 69.6938 28.9996 69.6956 28.6712 69.807L28.3005 69.9536C28.1033 70.0168 27.6507 70.2637 27.3463 70.4289C26.1583 71.1474 25.3164 72.1573 24.6798 72.7922C24.0069 73.4382 23.6645 73.622 22.9654 73.6517C22.8037 73.6721 22.6043 73.6425 22.4114 73.6276L21.6007 73.5497C21.3323 73.5237 20.9363 73.5255 20.6108 73.5199C20.2865 73.5348 19.9748 73.5533 19.6587 73.5867C18.3983 73.739 17.1632 74.1214 16.0313 74.747C14.9102 75.3893 13.855 76.2508 13.1124 77.5503C12.9362 77.8863 12.7773 78.2391 12.6678 78.6345L12.4584 79.4494L12.1573 80.6581C10.554 82.6277 9.0152 84.5938 7.57273 86.7603C7.19346 87.3283 6.83014 87.9316 6.47909 88.587C6.30885 88.9434 6.13323 89.2831 5.98248 89.7843L5.72128 90.7015C5.54584 91.2733 5.33922 91.8507 5.11218 92.4225C4.89831 92.9608 4.65326 93.5215 4.41452 94.0171C4.02596 94.5611 3.69662 95.0697 3.36599 95.6118C3.0114 96.2021 2.67279 96.8037 2.35793 97.42C1.7271 98.6527 1.18539 99.9503 0.786434 101.332C0.582037 102.018 0.436305 102.739 0.329559 103.472C0.238963 104.17 0.183829 104.794 0.127392 105.51C0.0286283 106.856 -0.0111022 108.199 0.0026356 109.55C0.0186012 110.902 0.0845062 112.257 0.264397 113.644C0.35722 114.338 0.466752 115.032 0.666136 115.762C0.853267 116.48 1.09479 117.24 1.6625 118.075C1.84536 118.294 1.94245 118.491 2.21795 118.706C2.4617 118.901 2.7968 119.146 3.00918 119.232C3.26945 119.358 3.66989 119.521 4.04044 119.657C4.73141 119.904 5.40308 120.086 6.07382 120.251C7.07167 120.492 8.05058 120.67 9.04639 120.828C9.59665 122.815 10.0181 124.951 10.3125 127.045C10.6468 129.481 10.8607 131.939 10.8804 134.397C10.8861 136.853 10.818 139.317 10.4959 141.75C10.3829 142.972 10.1311 144.175 9.9477 145.387L9.15518 149.067C8.90121 150.303 8.63147 151.525 8.48871 152.859C8.30158 154.17 8.14211 155.473 8.06803 156.747C7.83746 159.314 7.77434 161.874 7.75114 164.431C7.72292 166.987 7.81054 169.536 7.89984 172.085C8.04706 174.628 8.18907 177.174 8.43283 179.708C8.64818 182.245 8.93537 184.776 9.26675 187.301C9.58513 189.827 9.99263 192.343 10.4126 194.856C10.873 197.366 11.372 199.871 11.9608 202.364C12.2553 203.611 12.6076 204.85 12.929 206.092C13.2995 207.33 13.6846 208.565 14.103 209.795L14.8144 211.631L14.9928 212.09L15.1024 212.361L15.2032 212.576L15.6092 213.43C16.111 214.563 16.7752 215.734 17.417 216.896C18.7484 219.145 20.2214 221.283 21.8298 223.316C23.4499 225.338 25.1917 227.252 27.0336 229.062C28.7531 230.742 30.5255 232.305 32.4798 233.796C33.1744 236.82 34.1094 239.692 35.3458 242.534C36.7032 245.491 38.3523 248.488 41.2276 250.73C44.306 252.772 47.6224 253.327 50.7796 253.862C53.9633 254.341 57.1163 254.586 60.1767 254.995C61.6995 255.206 63.2042 255.457 64.6162 255.839C65.3102 256.049 65.9809 256.279 66.5945 256.567C67.3625 256.903 68.0108 257.235 68.8025 257.54C71.8432 258.774 74.8238 259.784 77.9051 260.659C80.9624 261.565 84.0706 262.279 87.1932 262.914C90.3202 263.525 93.4725 264.015 96.6459 264.351C99.8186 264.669 103.007 264.904 106.204 264.88L108.6 264.895L110.997 264.763C112.595 264.672 114.195 264.62 115.78 264.368C117.365 264.13 118.97 264.036 120.536 263.677L125.244 262.669L129.851 261.249C131.391 260.789 132.835 260.048 134.331 259.461C135.84 258.863 137.255 258.158 138.66 257.466L142.9 255.371C145.728 253.962 148.539 252.533 151.332 251.055C154.127 249.585 156.903 248.068 159.645 246.473C161.018 245.683 162.375 244.853 163.723 243.995C164.289 243.626 164.854 243.247 165.416 242.855C165.905 242.74 166.398 242.664 166.896 242.632C167.642 243.993 168.415 245.324 169.241 246.631C170.445 248.534 171.726 250.387 173.097 252.176C174.461 253.968 175.89 255.713 177.429 257.365C178.179 258.21 178.991 258.997 179.783 259.801L182.221 262.086C183.034 262.851 183.84 263.62 184.504 264.414C185.23 265.174 185.867 266.063 186.537 266.904C187.15 267.795 187.8 268.66 188.345 269.599C188.925 270.515 189.452 271.463 189.959 272.425C190.453 273.392 190.946 274.361 191.372 275.366C191.819 276.357 192.218 277.372 192.602 278.392C193.33 280.371 193.965 282.433 194.414 284.447C192.259 294.457 190.156 304.471 188.212 314.528L186.803 322.147C186.37 324.703 185.914 327.228 185.665 329.873C185.293 334.899 185.151 339.896 185.136 344.922C182.579 346.266 180.103 347.703 177.691 349.29C176.423 350.138 175.179 351.027 173.986 352C172.816 352.979 171.591 354.018 170.733 355.359C169.866 356.712 169.179 358.112 168.574 359.497C167.952 360.889 167.397 362.302 166.859 363.718C165.788 366.553 164.832 369.421 163.933 372.306C163.036 375.193 162.194 378.095 161.429 381.019C161.052 382.483 160.69 383.952 160.356 385.43C160.044 386.909 159.715 388.407 159.554 389.924C159.206 392.971 159.18 395.998 159.244 399.024C159.31 402.01 159.489 404.98 159.76 407.954C156.596 414.134 153.72 420.446 151.291 426.947C150.083 430.222 148.993 433.549 148.214 436.963L147.764 439.545L147.483 442.161C147.329 443.904 147.23 445.644 147.165 447.387C147.033 450.872 147.021 454.356 147.057 457.839C147.091 461.322 147.188 464.803 147.311 468.283C147.364 469.68 147.443 471.074 147.504 472.47C147.844 482.632 148.441 490.875 148.441 490.875L161.59 494.031C161.59 494.031 161.065 476.673 164.746 463.525C168.428 450.376 173.687 438.279 167.902 444.589C162.116 450.901 164.219 444.589 167.375 433.018C170.531 421.449 175.79 405.669 181.577 397.253C187.362 388.838 215.238 363.067 232.069 363.067C248.9 363.067 233.12 388.313 229.965 395.15C226.81 401.987 194.726 438.805 194.726 438.805C194.726 438.805 228.387 407.247 235.75 405.143C243.113 403.04 205.77 492.978 205.77 492.978L269.937 490.349C269.937 490.349 270.076 489.282 270.308 487.511L271.487 487.624C272.09 481.063 272.757 474.488 273.598 467.97C273.813 466.34 274.04 464.715 274.298 463.108C274.435 462.309 274.56 461.498 274.723 460.722C274.875 459.915 275.046 459.218 275.269 458.454C275.51 457.644 275.748 456.933 276.019 456.161C276.286 455.403 276.57 454.65 276.875 453.905C277.175 453.159 277.496 452.422 277.832 451.694C278.131 451.048 278.454 450.393 278.774 449.793C283.118 446.37 287.328 442.844 291.322 438.975C292.341 437.993 293.328 436.963 294.292 435.901C295.263 434.791 296.128 433.716 296.993 432.578C297.854 431.449 298.69 430.304 299.486 429.116C299.884 428.52 300.272 427.917 300.641 427.293C300.99 426.693 301.306 426.147 301.63 425.427C302.871 423.606 303.97 421.79 305.024 419.91C306.101 418.01 307.109 416.072 308.043 414.101C308.529 413.124 308.98 412.131 309.407 411.125C309.84 410.124 310.296 409.133 310.673 408.106C311.061 407.087 311.475 406.075 311.841 405.047L312.879 401.939C313.241 400.909 313.478 399.838 313.785 398.789C314.082 397.738 314.371 396.683 314.574 395.607L315.246 392.393L315.699 389.139C315.883 388.058 315.949 386.963 316.005 385.868C316.055 384.772 316.17 383.681 316.167 382.584C316.077 380.389 316.148 378.188 315.777 376.012C315.621 374.918 315.537 373.84 315.322 372.735L314.667 369.566C314.223 367.459 313.631 365.324 313.057 363.234C312.422 361.154 311.798 359.072 311.039 357.035C310.347 354.974 309.498 352.975 308.689 350.961C307.827 348.969 306.949 346.984 305.988 345.039C305.035 343.089 304.042 341.16 302.98 339.269C300.908 335.55 298.682 331.938 296.141 328.486C296.768 324.983 297.478 321.482 298.255 318.003C299.056 314.45 299.926 310.911 300.953 307.423C301.463 305.676 302.037 303.953 302.655 302.249C303.329 300.552 303.997 298.92 304.942 297.339C306.738 294.205 308.93 291.277 311.349 288.569C312.558 287.213 313.824 285.905 315.153 284.668C316.514 283.45 317.823 282.171 319.139 280.907C321.758 278.36 324.337 275.77 326.819 273.088C329.26 270.39 331.785 267.665 333.443 264.383C334.976 261.474 336.202 258.412 337.171 255.275C337.973 255.34 338.771 255.416 339.573 255.464C342.358 255.641 345.28 255.694 348.036 255.615C350.868 255.524 353.71 255.323 356.496 255.024C359.296 254.727 362.086 254.363 364.858 253.903C367.635 253.469 370.394 252.928 373.145 252.358C378.638 251.142 384.096 249.784 389.441 247.728C392.094 246.717 394.864 245.38 397.082 243.303C399.288 241.326 401.139 239.187 402.938 236.987C406.428 232.663 409.55 228.158 412.513 223.479C415.846 221.177 419.133 218.853 422.377 216.389C423.208 215.751 424.036 215.109 424.859 214.422L425.169 214.164L425.38 213.978L425.521 213.844L426.09 213.298C426.518 212.823 426.945 212.335 427.259 211.867C428.624 209.962 429.457 207.85 430.049 205.722C430.617 203.585 430.942 201.408 430.985 199.217C431.03 198.122 430.968 197.025 430.887 195.926Z" fill="#1B326D" fill-opacity="0.8"/>
<path d="M214.75 186.668C214.951 186.833 215.174 187.004 215.426 187.182C215.189 187.013 214.977 186.838 214.75 186.668Z" fill="#1B326D" fill-opacity="0.8"/>
<path d="M202.227 244.433C202.179 243.967 202.141 243.674 202.141 243.674C202.141 243.674 202.173 243.954 202.227 244.433Z" fill="#1B326D" fill-opacity="0.8"/>
<path d="M221.601 248.933C215.816 252.089 211.608 258.927 205.823 234.206C205.823 234.206 206.875 251.037 206.875 256.823C206.875 262.608 212.66 281.542 212.66 281.542C212.66 281.542 214.238 277.861 221.076 280.491C227.913 283.12 233.698 285.751 233.698 285.751C233.698 285.751 224.232 279.964 226.335 273.127C228.438 266.289 236.328 247.881 236.328 247.881C236.328 247.881 227.388 245.777 221.601 248.933Z" fill="#1B326D" fill-opacity="0.8"/>
<path d="M361.506 158.993C342.8 168.693 333.677 177.48 329.628 182.349C325.395 178.497 319.488 172.785 317.853 169.512C315.222 164.255 317.853 154.259 321.534 145.319C325.215 136.378 339.943 131.119 339.943 131.119C339.943 131.119 326.793 132.697 318.378 128.488C309.963 124.281 305.754 114.288 305.754 114.288C305.754 114.288 307.332 122.703 306.807 129.015C306.281 135.325 289.451 139.007 277.879 140.059C266.308 141.112 238.431 151.631 225.282 158.993C212.135 166.358 211.607 164.78 212.66 160.571C213.713 156.365 223.179 143.215 223.179 143.215C212.211 153.921 199.013 174.781 214.75 186.668C208.849 181.776 225.31 181.796 227.907 181.611C242.64 180.558 277.879 180.558 277.879 180.558C277.879 180.558 275.249 175.824 284.189 173.195C293.132 170.565 312.066 172.668 312.066 172.668C312.066 172.668 300.495 172.143 289.976 174.773C279.457 177.402 286.295 182.663 286.295 182.663L277.879 186.345C277.879 186.345 272.093 192.655 276.301 194.76C280.508 196.863 293.657 198.967 293.657 198.967C293.657 198.967 281.561 200.545 278.405 204.753C275.249 208.96 281.561 210.538 281.561 210.538C281.561 210.538 274.723 213.694 266.833 215.272C258.943 216.85 243.165 214.747 238.957 210.538C234.75 206.331 210.029 187.395 210.029 187.395C210.029 187.395 226.335 202.648 232.119 210.013C237.906 217.375 250.528 231.577 250.528 231.577C250.528 231.577 251.581 235.259 249.477 241.043C247.374 246.83 243.165 259.452 243.165 259.452L249.477 255.245L256.315 241.043C256.315 241.043 264.73 231.577 270.515 226.843C276.301 222.109 323.637 201.07 323.637 201.07C323.637 201.07 340.993 193.182 361.506 187.395C361.506 187.395 339.696 191.84 327.93 195.062L334.156 186.345C334.156 186.345 334.052 186.255 333.904 186.127C336.568 182.383 340.347 177.294 343.624 173.721C349.409 167.409 361.506 158.993 361.506 158.993Z" fill="#1B326D" fill-opacity="0.8"/>
<path d="M216.785 344.981C218.772 343.472 220.023 342.555 220.023 342.555C220.023 342.555 218.593 343.576 216.785 344.981Z" fill="#1B326D" fill-opacity="0.8"/>
<path d="M197.933 293.641C207.401 289.957 204.77 297.322 204.77 297.322L208.452 288.907C208.452 288.907 208.452 288.907 204.77 289.957C201.089 291.01 197.933 293.641 197.933 293.641Z" fill="#1B326D" fill-opacity="0.8"/>
<path d="M215.289 198.967C225.282 211.063 241.062 238.94 241.062 238.94C241.062 238.94 243.166 229.999 238.957 223.687C234.75 217.375 215.289 198.967 215.289 198.967Z" fill="#1B326D" fill-opacity="0.8"/>
<path d="M229.907 68.0638C229.727 67.3843 229.604 66.9944 229.604 66.9944C229.604 66.9944 229.689 67.4066 229.907 68.0638Z" fill="#1B326D" fill-opacity="0.8"/>
<path d="M232.329 67.0669C232.329 67.0669 238.898 67.0669 242.837 64.0019C246.778 60.9369 246.34 58.31 245.902 56.1194C245.464 53.9306 239.772 54.3687 238.021 52.18C236.269 49.9893 244.151 47.3643 244.151 47.3643C240.648 46.9261 236.269 48.2387 233.642 52.6181C231.015 56.9956 234.518 58.7481 234.518 58.7481C234.518 58.7481 241.963 58.7481 240.648 61.8113C239.334 64.8763 232.329 67.0669 232.329 67.0669Z" fill="#1B326D" fill-opacity="0.8"/>
</svg>
