<svg width="275" height="323" viewBox="0 0 275 323" fill="none" xmlns="http://www.w3.org/2000/svg">
<path d="M105.356 77.353C105.559 74.3211 104.082 76.0123 103.554 76.4735C102.674 77.2443 103.118 77.2402 103.602 77.0865C103.651 78.4948 104.169 81.8239 104.579 83.1625C104.869 84.493 104.325 84.8804 103.656 84.9111C103.061 84.9378 102.512 85.5138 102.931 85.9382C103.81 86.8217 105.014 87.4695 106.456 88.2423C106.762 83.347 105.099 81.1987 105.356 77.353Z" fill="#1B326D" fill-opacity="0.94"/>
<path d="M99.0685 85.1079C98.3926 84.7573 97.5597 84.6015 96.8488 84.5523C94.8805 84.4273 93.2719 86.2887 91.47 86.8647C87.3877 88.1746 82.5592 94.9538 82.4526 100.319C83.3112 102.875 84.7307 90.6161 89.5233 91.0056C91.6014 91.1757 94.3137 92.3545 95.3089 89.6301C95.4257 89.3082 96.7398 86.8913 96.9946 86.6597C97.7928 85.9402 98.4927 85.809 99.2093 85.9668C99.5625 86.0427 99.8516 85.6286 99.5617 85.4154C99.4055 85.3006 99.2423 85.196 99.0685 85.1079Z" fill="#1B326D" fill-opacity="0.94"/>
<path d="M101.546 67.913C100.174 68.4193 98.5649 67.7388 97.1379 67.3595C97.1082 67.3534 97.0994 67.4026 97.1283 67.4169C97.2172 67.4497 97.1931 67.583 97.0971 67.5871C95.7661 67.6301 94.521 66.9085 93.3992 66.2484C93.2518 66.1603 93.1204 66.0762 93.0091 65.9983C92.7217 65.8016 92.5583 65.4633 92.2644 65.2727C92.2508 65.2645 92.2941 65.2604 92.3084 65.2645C93.95 65.9635 95.566 66.4514 97.2876 66.7978C97.4798 66.8347 97.576 66.8511 97.7656 66.886C99.0212 67.173 100.238 67.9212 101.511 67.8228C101.564 67.8187 101.611 67.8146 101.652 67.8084C101.683 67.8023 101.704 67.8453 101.676 67.8576C101.637 67.8761 101.595 67.8925 101.546 67.913ZM93.9644 66.8265C92.5206 66.4657 90.8831 65.9635 89.8838 64.7889C89.8846 64.7848 90.1457 64.916 90.5387 65.0738C91.7312 65.5658 92.9716 66.0045 94.0214 66.765C94.0581 66.7896 94.0054 66.8388 93.9644 66.8265ZM90.8784 73.1711C90.8415 73.1732 90.8456 73.1178 90.8815 73.1055C91.7023 72.8042 92.4343 72.1871 92.7024 71.3262C92.8666 71.3549 93.0276 71.3856 93.1877 71.4184C92.9556 72.5131 91.9224 73.1301 90.8784 73.1711ZM89.7013 71.4307C89.3825 71.4471 88.975 71.4861 88.7555 71.3508C88.2294 71.0207 87.7065 71.7116 88.0341 72.1257C88.1245 72.6504 88.9965 72.8206 89.465 73.0768C89.5275 73.1117 89.4859 73.1978 89.4162 73.2019C88.311 73.247 87.1973 73.2675 86.1258 72.9313C85.9296 72.8677 85.7246 72.8206 85.5372 72.8411C85.4604 72.8493 85.4058 72.7714 85.4395 72.7017C86.1643 71.2155 87.6216 71.0494 89.1158 71.0699C89.3338 71.154 89.5724 71.2278 89.7357 71.3077C89.7964 71.3385 89.7686 71.4266 89.7013 71.4307ZM84.4754 70.0162C84.3993 70.0101 84.3721 69.9138 84.4354 69.8707C86.6543 68.4009 89.4322 68.5505 91.9563 68.9503C91.9825 68.9523 91.9706 68.9913 91.945 68.9933C89.6115 69.1799 87.4191 69.514 85.1248 70.0224C84.8575 70.0286 84.6517 70.0367 84.4754 70.0162ZM99.4816 63.9361C98.6834 63.8684 97.7978 63.9709 96.9633 63.9709C95.1976 63.973 93.3472 63.768 91.6455 63.2945C90.1025 62.866 88.5786 62.1608 87.118 61.3634C86.7928 61.1892 85.5893 60.3917 85.6566 61.0252C85.6885 61.3327 86.789 61.8574 87.118 62.1444C87.6905 62.6467 87.3678 63.2473 87.126 63.2555C86.1131 63.2924 85.3964 62.9316 84.2368 62.3638C83.5603 62.0317 83.1021 61.5438 82.2862 61.7918C81.676 61.9743 81.6583 62.4253 81.3789 62.9767C81.1963 63.3293 81.0282 63.7045 80.8535 64.0775C83.1062 64.9365 85.5061 65.1784 87.7707 65.9881C87.7826 65.9942 87.7746 66.0188 87.7602 66.0127C85.386 65.4572 82.9555 65.1517 80.5678 64.6577C80.4854 64.8135 80.3988 64.9693 80.3074 65.1251C81.3996 65.4879 82.6681 65.7359 83.8069 65.863C83.878 65.8733 83.8485 65.9881 83.778 65.9881C82.9693 65.9553 82.0956 65.8794 81.21 65.7605C81.0491 65.7421 81.2797 66.0824 81.4406 66.0967C82.54 66.1828 83.6011 66.3571 84.4018 66.5723C84.4194 66.5805 84.4274 66.6133 84.4081 66.6133C82.4455 66.4493 80.4628 66.5252 78.525 66.886C77.9957 67.1607 77.4047 67.3226 76.8049 67.3923C76.2852 67.4497 76.0105 68.12 76.491 68.3291C77.7491 68.8806 79.2433 68.9031 80.5965 68.7207C80.6157 68.7186 80.6157 68.7514 80.5973 68.7535C80.3683 68.8273 79.9407 68.9421 79.3562 69.0466C79.1719 69.0774 79.1904 69.35 79.3761 69.3418C81.1795 69.2598 82.9332 68.7391 84.7669 68.7781C84.8013 68.7801 84.8327 68.8334 84.7974 68.8437C83.8604 69.1225 83.3545 69.3685 82.3967 69.5263C82.0372 69.5878 81.6544 69.6186 81.3029 69.6616C80.4509 69.7621 79.7277 70.9264 80.5388 71.2114C81.0138 71.3795 81.5286 71.5004 81.5046 71.7341C80.6815 72.1625 79.5676 72.7878 79.7759 73.5524C79.9151 74.0628 80.603 74.3908 81.1089 73.8394C83.263 74.7865 85.5565 76.0657 87.9908 75.793C88.0308 75.7869 88.0556 75.836 88.0195 75.8524C87.0339 76.2501 84.7396 76.0124 86.077 76.5597C88.4025 77.5088 91.0481 77.3961 93.3992 76.8262C95.4707 76.326 96.9186 74.5671 98.1045 72.8595C98.231 72.6156 98.0042 72.3696 98.0042 72.3696C98.0042 72.3696 97.4917 72.0949 96.3171 72.2507C96.1138 72.2773 95.7222 72.386 95.3883 72.5172C95.3754 72.5213 95.3754 72.4905 95.3883 72.4864C95.8159 72.2261 96.2603 71.9165 96.2298 71.4758C96.2226 71.3856 96.3108 71.3221 96.3899 71.3631C96.804 71.5783 96.8183 71.9432 97.1148 71.8899C97.4757 71.8264 96.0193 70.5226 96.1746 70.5697C97.2531 70.8998 97.6441 72.2015 98.6186 72.6279C99.3168 72.9313 99.316 73.575 99.5618 73.0461C99.5858 72.9928 99.6659 72.9825 99.6698 73.0379C99.7036 73.3925 99.6731 73.7307 99.5929 74.0587C99.4441 74.6635 99.8822 75.3707 100.432 75.0735C102.561 73.9296 103.861 71.3877 103.513 68.9872C103.341 67.8023 104.396 67.091 105.346 66.8839C105.363 66.6994 105.375 66.6051 105.401 66.4145C104.427 66.3571 103.361 66.2894 102.501 65.8364C101.5 65.3157 100.649 64.0324 99.4816 63.9361Z" fill="#1B326D" fill-opacity="0.94"/>
<path d="M243.439 173.065C239.762 184.297 233.347 194.337 225.027 201.285C224.963 201.34 224.867 201.297 224.857 201.215C224.76 200.45 224.629 199.667 224.463 198.868C231.888 192.123 237.72 182.968 241.104 172.743C243.042 166.893 244.579 160.312 244.807 153.025C245.034 145.75 244.089 138.526 241.992 132.581C237.991 121.234 230.459 112.411 217.362 110.285C216.962 109.654 216.017 108.604 216.075 108.11C224.008 108.293 230.035 111.7 234.264 116.001C242.136 124 247.037 136.732 246.98 152.137C246.951 159.829 245.477 166.841 243.439 173.065ZM221.54 190.094C221.788 189.84 222.034 189.579 222.272 189.323C227.38 183.784 231.515 177.169 234.104 168.959C236.638 160.911 237.732 149.62 235.391 140.791C233.423 133.37 229.904 127.267 224.686 123.321C223.633 122.53 221.942 121.835 222.03 120.347C229.295 124.463 233.868 131.554 236.035 140.547C238.403 150.378 236.898 162.092 234.184 170.167C231.533 178.047 227.13 185.176 221.792 190.674C221.708 190.482 221.626 190.287 221.54 190.094ZM163.922 269.695C163.315 270.147 162.395 270.368 162.591 268.537C162.831 266.317 163.155 264.087 163.227 261.861C163.415 255.959 162.542 250.016 163.604 244.159C163.649 243.916 163.323 243.824 163.241 244.057C161.404 249.327 161.021 255.022 160.757 260.557C160.47 266.553 158.979 271.6 155.427 275.005C152.003 278.285 147.905 280.937 151.437 280.937C156.942 280.937 151.064 285.833 150.811 289.586C150.586 292.921 146.266 292.384 143.281 291.536C139.251 290.39 134.026 287.602 129.892 285.046C127.793 283.746 127.652 282.272 129.115 282.598C129.483 282.678 129.976 282.694 129.999 282.18C130.019 281.69 129.294 281.376 128.935 281.2C122.178 277.887 108.207 272.528 115.945 273.557C119.666 274.055 123.553 274.564 126.58 276.36C127.996 277.198 128.919 276.866 127.082 275.47C118.723 269.124 105.363 267.201 95.0985 264.519C85.2403 261.947 61.581 256.142 55.8907 240.782C55.8907 240.777 55.8907 240.775 55.8883 240.773C54.6048 237.751 55.8698 232.7 61.3407 235.581C63.1969 236.561 62.6187 234.451 61.7339 233.555C55.3598 227.08 51.2246 226.87 45.7322 225.251C39.3757 223.377 36.2721 222.487 30.8533 219.406C29.0179 218.362 27.7791 218.672 30.2167 221.013C33.4878 224.156 37.4115 228.318 41.1358 234.215C45.5994 241.285 46.8076 245.871 55.0876 250.133C59.1618 252.23 63.1529 255.883 65.4935 259.807C67.0974 262.496 68.9239 265.522 69.4741 269.104C69.4741 269.104 85.2851 271.319 98.4721 277.805C101.704 282.573 107.156 289.326 108.903 294.873C109.934 298.142 109.631 300.816 106.368 301.919C105.976 302.054 104.871 302.354 105.515 302.995C105.824 303.3 106.58 303.356 106.989 303.471C107.487 303.616 107.983 303.766 108.479 303.918C112.3 305.104 117.992 307.21 123.633 308.864C123.654 308.868 123.633 308.905 123.61 308.903C108.482 307.567 93.1797 306.982 78.4498 305.727C74.1752 305.367 69.8833 305.192 65.6015 304.947C65.8939 302.827 67.449 302.476 72.3655 302.145C81.2244 301.556 76.1717 295.32 67.7669 290.744C59.6751 286.343 55.1997 283.5 46.6588 273.031C46.6202 272.984 46.6668 272.916 46.7236 272.934C49.3901 273.726 52.6909 274.181 55.6673 274.662C59.1489 275.229 58.4058 274.24 56.673 273.662C24.0341 262.707 23.0083 243.891 15.3017 229.047C15.2609 228.934 15.2265 228.82 15.1849 228.705C14.2079 226.044 12.6304 224.146 11.2227 222.18C10.5659 221.292 9.85583 220.411 9.14859 219.544C7.81469 217.495 6.60625 215.331 6.00479 213.186C5.03906 209.741 3.62582 192.332 5.168 183.434C6.6247 175.025 8.05884 171.731 10.3866 163.566C10.429 163.42 10.4604 163.291 10.5003 163.15C10.5139 163.104 10.5301 163.059 10.5444 163.014C10.7326 162.358 10.9304 161.622 11.0745 160.849C12.1538 155.874 11.2346 154.57 11.9113 148.328C11.9794 147.695 12.0739 147.062 12.178 146.43C12.5511 144.973 12.9787 143.519 13.4207 142.078C14.8526 137.656 16.6198 133.317 18.6161 129.09C19.0724 128.132 19.5425 127.181 20.023 126.234C21.7246 123.239 23.4205 120.578 24.8188 118.424C27.0649 114.961 29.8756 111.489 31.7565 110.415C32.221 110.15 32.7222 109.287 32.8591 108.801C33.0217 108.227 33.2099 107.625 33.411 107.022C33.6783 106.563 33.9403 106.114 34.2004 105.691L34.2486 105.612L34.2869 105.532C35.5601 102.735 37.3555 100.111 39.1957 97.4322C40.7867 95.165 42.3522 92.7009 43.68 90.1815C45.7843 86.6556 47.7887 82.4881 49.6943 79.0524C50.9411 80.6513 51.7644 82.648 53.2859 84.0707C55.3799 86.0243 58.703 86.1206 59.3652 89.1074C60.1204 92.5103 59.8777 96.2884 61.2942 99.517C62.4321 102.106 64.7264 103.254 66.5833 104.802C67.2319 105.343 67.3649 105.259 66.8875 104.539C65.6569 102.686 64.4597 100.735 63.8558 98.6478C63.8439 98.6069 63.8894 98.5535 63.9167 98.5904C66.3807 101.567 69.0664 104.55 71.4406 107.592C73.5002 110.232 75.3749 114.312 75.816 116.851C76.2028 119.074 72.8645 114.238 70.9025 111.495C70.3668 110.745 70.2219 110.902 70.4886 111.466C71.5687 113.744 72.5617 116.589 71.0747 118.498C67.5914 122.964 65.0507 126.123 66.8202 131.443C67.0045 131.994 66.9533 132.49 66.6739 132.15C63.2849 127.993 60.146 123.585 57.0149 119.264C53.4484 114.342 52.4771 107.686 52.0622 101.426C51.9382 99.5662 51.3056 99.515 51.2439 101.307C51.0957 105.564 51.485 109.931 51.485 114.086C51.485 117.817 49.5623 125.5 47.2801 130.379C47.2649 130.41 47.22 130.385 47.225 130.348C47.6532 126.964 47.8238 122.276 45.1965 123.577C43.4276 124.457 42.9512 130.453 42.2506 135.362C41.6218 139.774 41.1782 145.672 43.4781 149.694C46.6627 155.259 60.1868 157.17 63.3755 157.908C66.8387 158.707 70.1908 160.054 73.3225 161.756C76.3365 163.396 81.0514 166.991 80.2451 164.765C79.6613 163.145 75.6262 160.776 72.8516 159.492C72.2534 159.214 72.4024 158.826 73.0014 158.841C79.4604 158.992 89.9303 162.584 95.3674 172.997C100.507 182.831 99.9277 190.639 97.9764 194.11C97.6728 194.651 97.8673 194.985 98.5561 195.026C102.54 195.252 111.583 199.999 113.279 200.969C118.708 204.068 123.81 208.851 126.569 214.722C130.96 224.066 133.646 235.925 122.564 240.436C114.76 243.614 126.996 248.202 129.892 259.579C130.625 262.461 126.7 247.466 136.833 236.561C138.844 234.394 144.671 230.134 145.915 228.198C151.831 219.021 155.56 212.859 157.969 208.234C158.362 208.265 158.76 208.29 159.156 208.32C159.859 212.012 161.804 215.184 164.883 216.141C165.964 216.477 165.012 218.527 164.436 220.306C163.098 224.46 161.199 230.175 161.193 230.24C161.128 230.749 161.896 231.044 162.216 230.665C163.514 229.101 164.922 224.423 166.341 220.798C167.532 217.756 168.85 216.637 169.535 216.516C170.611 216.323 174.973 216.784 179.057 217.629C180.893 218.01 181.787 220.18 181.949 221.432C183.515 233.631 179.083 258.448 163.922 269.695ZM144.587 296.081C134.852 293.856 117.219 285.046 104.163 274.601C104.143 274.585 104.18 274.56 104.203 274.57C108.221 276.46 108.587 276.325 109.171 276.795C119.53 285.087 138.844 293.987 144.589 296.054C144.601 296.056 144.601 296.083 144.587 296.081ZM84.9199 122.96C83.5378 127.536 79.7142 130.982 75.1481 132.275C74.8384 130.617 76.9683 131.037 78.6148 130.139C80.9866 128.846 81.6192 125.935 83.392 124.02C83.8309 123.549 84.2993 123.13 84.7925 122.864C84.8598 122.825 84.9432 122.884 84.9199 122.96ZM103.173 101.03C102.189 100.132 101.796 98.9799 102.222 97.6844C102.281 97.504 102.233 97.2928 102.135 97.1083C102.108 97.0571 102.146 96.9915 102.199 97.014C104.032 97.8135 106.274 97.916 107.354 99.8512C107.334 102.496 104.61 103.471 102.481 102.58C100.04 101.563 97.8403 101.405 95.0312 101.489C94.9045 101.53 94.7373 101.372 94.6331 101.29C93.9324 101.354 93.5296 101.3 93.3271 101.249C93.275 101.239 93.3111 101.161 93.364 101.151C96.8329 100.495 99.8236 100.558 103.154 101.438C103.334 101.489 103.394 101.231 103.173 101.03ZM45.6418 37.5224L45.6106 36.4155V35.8415C45.6121 35.6221 45.6137 35.6488 45.6434 35.4807C45.7539 34.9559 46.0758 34.2671 46.405 33.6234C46.6508 33.1683 46.8757 32.703 47.1048 32.2418C48.4484 29.9663 49.591 27.5699 50.6402 25.1448C51.8677 22.2995 52.6213 19.3763 54.3797 16.7667C56.2527 13.9828 59.1618 11.4368 62.0229 9.70462C62.6404 9.33359 68.7925 12.0272 69.7959 12.304C70.9226 12.6115 76.0083 15.7479 74.0912 16.4879C70.7545 17.7691 69.7312 17.0865 67.1247 16.5453C66.6466 16.4469 66.4039 17.0824 66.7962 17.3776C73.806 22.6111 82.6354 25.766 85.6638 33.564C85.9233 34.2323 86.8386 38.0513 87.3335 38.8159C90.8688 44.2668 99.5387 39.8471 103.797 44.357C106.064 46.7554 107.878 49.5105 111.467 49.8242C115.001 50.1317 119.429 47.7558 122.231 45.7099C122.248 45.6976 122.265 45.7223 122.251 45.7386C119.874 48.2457 120.589 49.5228 122.225 48.5655C124.832 47.0444 125.936 43.5555 128.599 41.815C128.627 41.8007 128.657 41.8355 128.634 41.8622C126.543 44.3488 125.582 48.1555 122.525 49.5126C120.803 50.2793 118.809 50.6769 116.945 51.0214C114.709 51.4334 112.375 51.1136 110.714 53.0857C107.235 52.8028 104.858 51.0644 102.152 49.1046C100.536 47.9341 98.838 46.9481 96.8489 47.272C91.5102 48.1371 86.2123 44.5312 81.6319 42.387C80.3733 45.3204 83.5954 47.0895 85.3042 48.8259C86.8899 50.4392 87.5616 52.444 88.931 54.1578C90.1056 55.6235 93.0797 57.8477 95.3826 59.0531C95.7975 59.2704 96.1962 58.7599 95.9199 58.3848C95.5669 57.9051 95.2985 57.4623 95.3018 57.204C95.3283 54.9306 104.08 59.0818 105.027 59.2396C108.312 59.7787 111.313 60.3363 114.352 59.3728C116.146 58.8029 118.117 58.8952 119.928 58.6984C120.185 58.6718 120.294 59.0059 120.085 59.1555C116.986 61.3716 115.991 66.5415 112.43 67.2672C109.413 67.8822 111.231 69.0097 110.572 69.9649C110.36 70.2724 109.16 71.9841 109.531 72.9927C109.904 74.0116 110.016 73.9213 110.466 75.6761C110.841 77.1398 110.853 78.4415 110.688 79.9113C110.39 82.5701 110.557 85.274 111.161 87.8836C111.533 89.4846 112.449 91.5325 111.726 93.1027C111.561 93.4615 111.359 93.7874 111.129 94.0888C110.983 94.2835 111.213 94.5746 111.391 94.4126C112.035 93.8223 112.576 93.0884 113.07 92.4057C113.079 92.3934 113.112 92.3873 113.104 92.4016C112.497 93.5476 111.741 94.5397 110.779 95.37C109.799 96.2166 108.072 96.0588 106.857 95.7513C105.768 95.4725 104.903 94.5623 103.699 93.3815C103.669 93.3528 103.683 93.2831 103.724 93.3016C103.875 93.3631 104.117 93.4697 104.396 93.6234C104.635 93.7505 104.948 93.4574 104.741 93.279C103.239 91.9937 100.995 92.0367 99.0229 91.9998C97.4703 91.9732 96.8233 92.6927 96.6206 90.0155C96.5246 88.7281 95.9303 89.1238 95.719 89.4067C95.0359 90.325 95.6181 92.0408 96.2604 92.951C97.3637 94.5172 98.7306 95.9255 100.232 97.1391C100.219 97.9242 100.289 98.3301 100.347 99.1521C96.9161 99.0435 93.4833 100.962 90.1761 99.392C90.1056 99.3571 90.0863 99.2567 90.161 99.2362C91.1025 98.9656 92.3782 98.9471 93.0797 98.2235C91.6039 96.0341 88.2408 98.2194 87.3591 99.7528C87.2701 99.9045 87.1941 100.093 87.134 100.298C86.9858 100.794 87.6858 100.931 88.0942 100.62C88.3984 100.382 88.7508 100.247 89.1448 100.294C89.9535 100.649 90.6886 101.432 91.4701 101.885C93.7674 103.221 96.5086 103.783 99.0301 104.177C100.834 104.462 102.798 105.284 104.587 105.193C106.729 105.085 108.659 103.488 110.849 102.91C110.938 102.887 111.022 102.973 110.989 103.057C110.588 104.117 109.92 105.058 109.187 105.901C108.979 106.134 109.266 106.485 109.521 106.304C109.89 106.042 110.235 105.743 110.545 105.419C111.242 104.685 111.883 103.863 112.453 102.973C112.47 102.945 112.518 102.957 112.508 102.988C111.397 106.573 107.986 108.455 104.386 108.592C100.875 108.719 97.1427 108.481 94.0245 106.743C93.7963 106.616 93.5795 106.915 93.7492 107.116C93.9837 107.391 94.2143 107.67 94.4474 107.953C92.9805 108.908 91.246 109.039 89.5812 109.359C90.3979 114.361 100.889 111.85 104.162 111.759C105.915 111.71 109.393 112.385 108.466 114.982C107.33 118.161 104.604 120.236 101.279 120.761C94.4185 121.843 87.7355 119.088 83.5154 113.549C74.5662 106.587 63.7613 99.1009 61.8155 86.9303C61.7083 86.2436 60.0451 79.0442 59.768 79.325C59.6887 79.405 59.5845 79.4296 59.4541 79.405C59.2844 80.3152 59.3605 81.1925 58.6854 81.7645C57.8991 82.4348 55.5312 82.1457 54.7905 81.5144C53.3043 80.2434 53.0255 77.8224 52.4491 75.8852C52.4361 75.8421 52.5067 75.836 52.5372 75.8688C53.1288 76.5125 53.9465 76.8876 53.7342 76.3813C53.1112 74.8848 52.1559 73.745 51.4216 72.4495C49.6519 69.3192 49.6103 62.8065 50.4856 59.3831C50.6713 58.6574 51.898 55.9084 51.5081 55.5764C51.4089 55.4944 51.2494 55.6419 51.1246 55.7916C51.0758 55.849 50.9813 55.8101 50.9756 55.7321C50.8651 54.2377 51.6836 52.8151 52.9743 52.444C54.6167 51.9705 56.8179 53.4095 57.7933 55.0495C59.35 57.6653 59.8914 60.6336 59.8281 63.5773C59.8176 64.0467 60.4935 64.7253 60.7417 65.1517C61.2911 66.109 61.6697 67.1832 62.2152 68.161C62.5602 67.6382 63.116 67.1032 63.4091 66.685C63.9552 65.906 63.3683 63.5507 64.4165 62.1567C66.1589 59.8402 68.7925 58.5242 70.3988 55.9371C71.4238 54.2849 72.2823 48.955 75.0377 50.513C75.1691 49.9964 75.1186 49.2031 75.3267 48.6496C76.6842 45.0294 78.8686 42.1574 81.0042 38.9738C80.5166 36.19 78.9998 33.6829 77.4425 31.4095C75.2707 28.2444 72.187 23.6648 68.4499 21.8055C67.9846 21.5739 67.5633 22.1622 67.895 22.5598C71.2221 26.5695 74.7624 30.1139 75.9827 34.6095C77.597 40.5625 72.7042 46.0912 69.0137 50.5765C68.5932 51.087 64.358 54.6723 61.9196 55.5866C61.287 55.8244 60.793 56.4435 61.0621 57.0605C61.5994 58.2966 62.0117 59.6107 61.6827 60.896C61.6697 60.9411 61.605 60.939 61.597 60.8919C61.2583 58.7927 60.4191 53.9323 57.8158 54.0942C56.6267 52.3989 54.3084 50.718 52.3747 51.8393C50.1109 53.1492 50.0227 54.9142 50.1285 57.5587C49.1771 59.7767 48.3949 64.551 48.836 67.835C48.8393 67.8658 48.7928 67.8678 48.7792 67.8391C48.4453 67.1299 48.0706 66.8757 47.8039 66.562C46.3199 64.8319 46.5323 61.3716 46.4081 58.9936C46.3624 58.1121 46.34 57.1876 46.3111 56.2754C46.3744 54.6375 46.4433 52.9852 46.44 51.3268C46.4025 48.2006 46.1375 45.1298 45.9204 42.0753C45.8115 40.5502 45.701 39.0271 45.6418 37.5224ZM127.262 65.7482C127.327 65.701 127.419 65.7564 127.401 65.8343C127.348 66.0803 127.175 66.4226 126.896 66.6891C126.274 67.2836 125.556 67.2488 124.373 67.0745C123.583 66.9556 123.182 66.6973 122.042 66.5969C122.01 66.5948 122.021 66.5436 122.054 66.5395C123.826 66.2361 125.711 66.8839 127.262 65.7482ZM125.137 72.3572C125.103 73.9767 125.407 75.6454 125.328 77.2751C125.312 77.5949 125.761 77.7363 125.844 77.4288C125.992 76.8856 126.014 76.4305 126.027 76.1845C126.03 76.1496 126.081 76.1414 126.087 76.1783C126.575 78.6977 124.87 81.1064 122.235 81.2028C119.545 81.3053 119.46 78.9212 122.444 78.9048C122.933 78.9007 122.525 77.2443 120.598 76.2911C120.543 76.2624 120.527 76.1824 120.589 76.1722C120.95 76.1066 121.471 75.9856 121.867 75.754C122.496 75.3871 122.746 75.2046 123.248 74.4871C123.737 73.7881 124.074 72.4433 125.137 72.3572ZM118.755 74.1058C118.708 74.0976 118.704 74.0238 118.751 74.0238C118.871 74.028 119.096 73.9931 120.357 73.2121C120.809 72.9312 121.165 72.4802 121.594 72.101C121.648 72.0518 121.747 72.0764 121.729 72.1481C121.527 72.9394 120.192 74.3334 118.755 74.1058ZM118.669 71.7423C119.12 71.2421 118.89 70.83 119.701 70.8218C119.514 71.2749 119.153 71.7177 118.705 71.8694C118.629 71.894 118.536 71.8878 118.669 71.7423ZM116.735 71.2503C116.539 71.238 116.357 71.1539 116.16 71.0289C116.113 71.0022 116.165 70.9858 116.183 70.9817C116.446 70.9407 116.963 70.828 116.735 71.2503ZM117.671 67.4271C115.575 68.6858 114.314 68.1118 114.193 68.1179C114.261 68.0851 115.097 67.7489 117.046 66.6358C118.748 65.6621 121.084 64.8196 123.029 65.5924C123.071 65.6088 123.064 65.6682 123.022 65.6682C121 65.6621 119.293 66.4513 117.671 67.4271ZM121.814 68.9564C121.843 68.9666 121.829 69.0076 121.797 69.0035C120.845 68.8887 119.919 68.8272 118.98 68.8764C118.961 68.8764 118.958 68.8477 118.977 68.8436C119.616 68.7083 120.268 68.6222 120.93 68.6099C121.142 68.6858 121.568 68.8518 121.814 68.9564ZM121.495 67.7203C121.716 67.6485 122.68 68.2717 122.894 68.3619C123.412 68.5812 122.872 68.5792 121.856 68.1344C121.515 67.9335 121.525 67.751 121.495 67.7203ZM118.476 73.4171C117.343 73.7553 115.221 73.9603 113.711 72.6032C113.458 72.1481 113.935 72.4023 114.036 72.4577C114.235 71.9924 114.95 71.0842 115.276 71.0883C115.216 71.8816 116.065 72.3757 116.738 72.4515C116.797 72.4577 116.817 72.5376 116.761 72.5622C116.556 72.6401 116.379 72.636 116.258 72.9066C116.15 73.1465 116.337 73.1875 116.598 73.2264C117.219 73.3187 117.863 73.2223 118.493 73.3125C118.549 73.3228 118.529 73.4007 118.476 73.4171ZM118.079 80.147C116.858 80.1737 115.541 79.7473 114.977 79.1713C113.481 77.6461 112.049 75.957 112.054 73.6692C112.054 73.6077 112.126 73.5687 112.155 73.62C112.448 74.0894 112.936 74.5302 113.496 74.8582C114.045 75.8257 114.965 77.6133 115.39 78.3144C116.129 79.5259 116.989 79.8478 118.095 80.0958C118.124 80.0999 118.109 80.147 118.079 80.147ZM113.802 91.0692C113.778 91.0999 113.726 91.0774 113.742 91.0425C113.82 90.8662 113.937 90.5977 113.998 90.4316C114.692 88.4821 113.795 87.5453 113.401 87.2501C113.363 87.2194 113.403 87.1661 113.448 87.1763C113.835 87.285 114.607 87.6786 114.586 89.0828C114.571 90.0422 114.056 90.7658 113.802 91.0692ZM92.487 145.879C91.2964 145.532 90.1609 144.981 89.147 144.263C85.2595 141.537 84.3721 137.113 85.2474 134.827C85.474 134.227 85.8848 133.632 86.5295 133.452C91.5119 134.616 94.2689 146.395 92.487 145.879ZM150.039 207.274C151.712 207.537 153.412 207.709 155.142 207.922C154.336 209.407 153.557 210.897 152.868 212.459C152.838 212.529 152.741 212.547 152.713 212.475C151.979 210.759 151.036 209.059 149.942 207.404C149.899 207.338 149.963 207.265 150.039 207.274ZM252.131 121.15C248.497 119.391 244.716 117.614 240.863 115.677C239.922 115.205 238.932 114.799 237.966 114.389C233.218 112.38 228.995 109.34 223.237 108.192C221.507 107.846 219.756 107.567 217.684 107.467C217.054 107.436 216.228 107.678 215.671 107.549C215.041 107.403 213.877 105.564 213.258 104.892C210.88 102.317 208.043 99.966 204.886 98.2932C202.721 97.1432 200.327 96.1592 198.045 95.0707C196.912 94.5336 195.676 94.1277 194.585 93.5435C191.393 91.8359 187.976 90.0258 184.524 88.5518C183.345 88.0517 182.246 87.6006 181.143 86.9447C180.09 86.3153 178.952 85.8008 177.843 85.2535C167.109 79.9441 160.775 77.9823 149.705 82.9842C148.79 83.3983 148.755 83.4823 149.728 83.0559C153.211 81.5226 156.96 80.5406 161.665 80.9076C167.013 81.3258 171.006 83.9579 173.899 87.1025C179.727 93.443 182.947 102.973 184.04 113.906C185.223 125.724 183.851 137.611 181.465 147.469C179.018 157.588 175.543 166.516 171.164 174.111C166.562 182.089 161.538 188.891 154.502 194.393C149.71 198.14 143.335 202.574 134.462 202.121C126.049 201.688 121.318 196.824 117.479 191.414C115.24 188.257 113.511 184.481 112.277 180.474C112.241 180.355 112.049 180.543 112.081 180.666C112.963 183.995 114.133 187.13 115.599 189.975C115.599 189.975 115.597 189.975 115.595 189.975C115.584 189.975 115.573 189.977 115.561 189.977C115.177 189.274 114.806 188.554 114.454 187.808C112.421 183.506 110.977 178.573 110.16 173.155C109.343 167.741 109.032 161.698 109.261 155.684C109.285 155.021 109.318 154.363 109.355 153.707C107.968 152.359 106.77 151.373 105.891 150.794C102.344 148.443 101.472 136.012 99.6274 131.783C96.386 124.332 92.7474 123.524 90.8831 122.421C90.8655 122.409 90.8633 122.368 90.8848 122.372C95.8336 124.075 103.41 123.772 107.546 120.533C109.839 118.737 111.393 116.052 112.25 113.243C114.392 109.859 116.045 106.345 117.58 102.647C118.36 100.112 117.199 97.588 118.289 95.1322C119.581 92.2171 121.63 89.5338 123.145 86.6925C123.746 85.565 124.517 83.6709 124.763 83.058C124.766 83.0498 124.787 83.0375 124.785 83.0457C124.65 83.4741 124.31 84.5401 124.011 85.399C123.013 88.2648 121.563 91.0446 120.077 93.6849C119.104 95.413 118.5 97.1698 118.317 99.0599C118.286 99.4104 118.783 99.5047 118.916 99.1767C119.241 98.367 119.665 97.3728 120.145 96.4072C121.022 94.6648 121.9 92.8403 122.792 91.1409C124.271 88.3202 125.34 85.1776 126.101 82.1314C126.881 79.0073 126.804 76.0881 126.197 72.8082C126.253 72.0456 126.288 70.9612 126.118 70.1884C125.715 70.5143 125.331 70.6599 124.991 70.8034C124.938 70.828 124.893 70.7644 124.922 70.7132C125.108 70.3934 125.179 69.9834 125.286 69.5734C126.049 69.8542 126.395 69.6247 127.164 68.8231C127.405 68.571 127.882 69.0589 128.213 68.3332C128.984 67.5727 129.249 66.2422 129.218 65.1783C129.213 64.9774 128.958 64.9323 128.803 65.0574C128.79 65.0717 128.774 65.0533 128.778 65.0369C128.853 64.7027 128.822 64.1349 129.035 63.9955C129.37 63.7782 129.565 63.1776 129.733 62.8537C130.471 61.4044 129.888 59.996 129.587 58.4975C129.255 56.8309 129.716 55.9105 129.803 53.7847C129.861 52.3723 130.1 50.8082 129.943 49.3322C129.92 49.1087 129.578 49.1703 129.574 49.3937C129.553 51.6527 129.176 53.9159 128.447 56.0417C128.151 56.9047 128.546 57.2983 128.258 57.9686C127.506 59.7152 130.111 61.1051 128.233 62.8147C128.041 62.991 126.897 62.4293 126.331 61.9517C125.56 61.2937 125.824 61.1235 126.773 60.6643C126.906 60.6008 127.252 60.5762 127.6 60.6274C127.806 60.6623 128.015 60.4573 127.856 60.324C127.031 59.6106 125.377 59.5656 125.314 58.2966C127.713 58.9977 127.615 56.4394 127.841 54.6026C128.072 52.7105 128.269 50.7938 128.295 48.8894C128.299 48.627 128.175 48.0592 128.314 47.8152C128.4 47.6676 128.813 47.5713 128.949 47.4503C129.733 46.7411 130.387 45.9149 131.006 45.0437C131.033 45.0027 131.102 45.015 131.095 45.0642C131.022 45.6935 131.178 46.4315 131.359 47.1572C131.515 47.7763 132.35 47.8911 132.643 47.3274C137.605 37.7726 136.105 26.3933 126.519 20.2414C125.591 19.6489 124.47 19.282 123.791 18.4169C123.437 17.9659 123.129 17.4801 122.955 17.2915C117.818 11.5947 111.511 6.86749 104.37 3.87662C100.798 2.40475 97.0131 1.39822 93.1469 1.00873C91.2132 0.822174 89.2608 0.791412 87.3189 0.924683C86.3485 0.996429 85.4045 1.05179 84.4018 1.22397C83.5361 1.41052 82.5304 1.6319 81.7802 2.49084C76.925 2.80856 72.0228 3.45023 67.3231 4.96515L67.2271 4.99792L67.1189 5.07376C66.1101 5.79535 64.5278 5.89786 62.9407 6.57846C61.4768 7.22214 60.1372 8.14255 58.9039 9.08963C56.4225 10.9858 54.1667 13.3187 52.4995 16.0308C49.2516 21.4365 47.4738 27.4285 44.5527 32.6599C44.1867 33.3774 43.8057 34.0703 43.5726 35.044C43.5158 35.2491 43.4814 35.6631 43.4861 35.8251L43.4797 36.4011L43.4973 37.5921C43.5398 39.1521 43.6335 40.6896 43.7247 42.223C43.9049 45.2856 44.1283 48.3339 44.1267 51.3412C44.1082 54.3197 43.8057 57.3905 43.7839 60.5249C43.7599 63.5957 44.0258 66.808 45.1709 69.8522C45.8499 72.8574 45.8675 75.9549 45.2158 78.956C44.5711 81.9612 43.3251 84.8619 41.8557 87.6786C40.4007 90.5526 38.7208 93.1273 36.8174 95.7841C34.9812 98.3916 33.0738 101.089 31.6164 104.14C30.3328 106.218 29.2959 108.186 27.7224 109.361C25.5994 111.105 24.2182 113.098 22.7937 115.088C20.0398 119.1 17.7112 123.311 15.5869 127.63C13.4752 131.953 11.6022 136.398 10.1055 141.006C9.35933 143.31 8.70027 145.655 8.19823 148.056C7.68718 150.454 7.37416 153.029 7.53508 155.581C7.6056 156.848 7.7577 157.998 7.71773 158.972C7.70174 159.943 7.44468 160.882 7.11463 162.018C6.47013 164.199 5.65097 166.393 4.80844 168.594C3.16213 173.03 1.2036 177.407 0.347542 182.499C0.0086857 185.111 0.032058 187.446 0.00069374 189.864C-0.0056611 192.262 0.0320568 194.651 0.0968352 197.037C0.256936 201.84 0.409249 206.51 0.931986 211.432C1.09373 212.672 1.3141 213.955 1.76078 215.276C2.19475 216.598 2.95713 217.893 3.74349 218.91C5.32339 220.915 6.76553 222.582 8.1597 224.478C9.5059 226.341 10.9583 228.223 11.571 230.062C12.3596 232.2 13.0228 234.432 13.6841 236.708C14.9686 241.261 16.5301 246.019 18.8787 250.356C20.0375 252.531 21.3403 254.614 22.7375 256.617C23.4566 257.619 24.1292 258.578 24.9398 259.573C25.7284 260.543 26.6533 261.531 27.5165 262.359C31.0207 265.795 34.9195 268.634 37.7798 271.932C40.661 275.426 43.2554 279.498 46.5883 283.183C48.2499 285.021 50.0676 286.716 51.9478 288.28C52.9023 289.07 53.8176 289.785 54.8354 290.544L56.3095 291.614C56.782 291.952 57.4146 292.372 57.5009 292.472C57.8302 292.761 58.2154 293.66 58.4019 294.627C58.6036 295.611 58.695 296.706 58.7367 297.829L58.7703 299.547C58.7822 300.109 58.7518 300.74 58.8224 301.492C58.8816 302.116 59.0425 302.672 59.2266 303.188C58.2674 303.725 57.7213 304.484 57.4106 305.375C57.0895 306.367 57.1832 307.418 57.6709 308.359C57.8302 308.611 57.8839 308.741 58.1738 309.071C58.2697 309.163 58.2754 309.204 58.6022 309.479C59.1522 309.926 59.5349 310.049 59.9873 310.199C60.8401 310.43 61.4336 310.405 61.8813 310.442L63.3507 310.526L66.2895 310.693L78.0341 311.389L89.7686 312.187L92.978 312.408C92.7066 313.165 92.6562 314.016 92.9364 314.811L93.0772 315.159L93.1158 315.246L93.135 315.288L93.2431 315.479L93.291 315.555C93.3855 315.684 93.3406 315.669 93.6082 315.99C93.838 316.254 94.0526 316.447 94.2656 316.598C93.8781 316.939 93.4913 317.404 93.275 317.99C93.151 318.318 93.0838 318.663 93.0637 318.986C93.0588 319.141 93.0485 319.311 93.0629 319.454L93.0838 319.669L93.0965 319.778L93.1028 319.835L93.1389 320.026L93.1957 320.258C93.2125 320.325 93.2238 320.393 93.3048 320.613C93.4329 320.985 93.6106 321.303 93.8173 321.572C94.2449 322.148 94.9142 322.57 95.5093 322.744C96.7071 323.078 97.5551 322.898 98.3015 322.771C99.0686 322.611 99.6307 322.438 100.248 322.285L102.071 321.819L105.733 320.946C110.626 319.831 115.567 318.915 120.537 318.204C125.506 317.492 130.504 316.982 135.51 316.701C138.012 316.564 140.518 316.48 143.016 316.471C144.265 316.469 145.514 316.484 146.75 316.527L147.683 316.568L147.868 316.57C147.716 316.613 148.371 316.489 148.287 316.504L148.301 316.5L148.358 316.481C148.327 316.494 148.497 316.441 148.636 316.377C148.772 316.313 148.902 316.238 149.021 316.154C149.353 315.898 149.589 315.598 149.744 315.215C149.897 314.844 149.955 314.372 149.833 313.899C149.781 313.667 149.671 313.458 149.549 313.261L149.422 313.087C149.402 313.061 149.274 312.916 149.195 312.845C148.91 312.618 148.708 312.505 148.544 312.433C148.869 311.734 149.058 311.176 149.252 310.568C149.645 309.259 149.927 307.985 150.185 306.71C150.654 304.34 151.01 301.986 151.312 299.606C151.636 299.66 151.969 299.709 152.288 299.754C153.631 299.932 155.011 299.992 156.403 299.899C159.172 299.727 162.042 298.79 164.305 297.011C165.439 296.142 166.417 295.086 167.232 294.016C167.597 293.539 168.077 292.877 168.204 292.749C168.255 292.715 168.331 292.669 168.383 292.639L168.795 292.388L169.651 291.829C171.865 290.334 173.844 288.582 175.668 286.714C179.307 282.959 182.371 278.766 184.975 274.273C190.149 265.288 193.091 255.198 194.523 245.074L195.02 241.275C195.194 240.006 195.266 238.77 195.602 237.686C196.26 235.227 196.889 232.759 197.469 230.277C198.605 225.46 199.398 220.718 200.962 216.157L204.773 215.408C208.293 215.776 211.778 216.116 215.257 216.602C218.795 217.081 222.362 217.584 225.976 217.783C233.265 218.281 240.606 216.406 246.914 212.881C253.252 209.361 258.642 204.353 262.959 198.616C266.546 193.786 269.291 188.393 271.288 182.749C271.69 181.65 272.071 180.543 272.413 179.422C274.976 171.038 276.001 159.525 273.783 149.804C270.695 136.281 263.322 126.566 252.131 121.15Z" fill="#1B326D" fill-opacity="0.94"/>
<path d="M133.424 157.488C133.388 157.428 133.445 157.356 133.512 157.375L142.987 159.868C142.987 159.868 145.683 160.093 147.37 157.869C147.37 157.869 157.891 172.139 156.612 174.109C154.553 177.278 141.563 190.582 131.744 185.197C121.029 179.322 136.26 162.309 133.424 157.488ZM140.579 152.941C144.45 149.07 147.378 142.043 147.743 135.479C147.876 133.046 147.68 130.756 147.179 128.956C146.398 126.16 144.74 123.214 141.384 123.163C138.411 123.116 136.197 125.166 134.49 127.171C134.458 127.134 134.427 127.093 134.391 127.056C134.382 127.046 134.369 127.04 134.361 127.031C136.072 124.791 138.263 122.589 141.303 122.276C142.64 122.138 143.644 122.435 144.442 122.923C149.526 126.021 148.994 136.588 147.018 143.042C146.1 146.037 144.549 149.304 142.751 151.573C140.807 154.031 136.765 157.945 132.61 156.083C129.896 154.866 128.671 151.903 128.217 148.281C128.256 148.275 128.294 148.267 128.332 148.261C128.745 150.965 129.707 153.359 131.323 154.714C134.36 157.26 138.41 155.11 140.579 152.941ZM154.082 126.599L143.093 121.935C143.093 121.935 138.216 120.055 133.187 122.302C133.121 122.331 133.07 122.251 133.101 122.185C135.813 116.386 149.501 93.6336 162.263 99.0783C174.631 104.357 173.173 129.573 172.925 133.542C172.694 137.261 158.147 143.367 156.331 144.112C156.257 144.144 156.171 144.087 156.191 144.007C158.758 133.784 156.507 128.391 154.082 126.599ZM174.784 130.408C173.602 147.758 167.827 161.907 160.297 172.983C156.372 178.756 151.897 183.684 146.052 187.228C143.067 189.04 139.366 190.609 135.185 190.609C130.809 190.609 127.386 189.145 124.642 186.828C119.682 182.638 116.768 175.611 115.468 167.51C114.197 159.603 114.649 150.206 116.029 142.964C116.111 142.539 116.155 141.697 116.514 141.752C117.01 141.953 117.311 141.785 117.56 141.996C117.839 142.236 117.6 142.947 117.479 143.607C117.106 145.649 116.793 147.638 116.594 149.482C115.685 157.947 116.504 167.094 118.768 173.305C120.285 177.468 122.503 181.156 125.93 184.01C129.07 186.619 133.512 188.923 139.372 187.954C144.209 187.152 147.901 184.699 151.284 181.997C154.802 179.19 157.505 176.132 159.896 172.743C164.865 165.691 168.653 157.188 171.244 148.275C173.862 139.268 175.592 127.294 173.899 116.48C173.124 111.528 171.642 106.969 169.393 103.123C167.214 99.394 164.289 95.8824 160.138 94.429C154.867 92.5882 149.251 94.3983 145.649 96.3621C141.67 98.5289 138.447 101.239 135.669 104.25C131.497 108.768 127.879 114.35 125.045 120.424C124.309 122.003 123.476 124.219 122.629 125.9C122.417 126.32 122.585 126.353 122.146 126.382C121.795 126.406 121.567 126.095 121.101 126.06C120.88 125.57 121.25 125.031 121.423 124.61C126.082 113.305 133.064 102.393 142.751 96.1202C146.107 93.9452 150.952 91.639 156.353 92.2581C164.699 93.2113 168.807 98.9881 171.566 105.536C174.422 112.311 175.399 121.386 174.784 130.408ZM163.758 83.8861C158.022 82.1088 151.591 83.675 147.097 85.8992C140.21 89.3041 134.978 94.591 130.46 100.505C129.109 102.27 128.902 102.166 130.201 100.347C132.01 97.8135 133.988 95.3864 136.118 93.1314C137.564 91.6001 137.491 91.5304 136.008 93.0207C127.634 101.442 121.408 112.395 116.754 124.61C115.322 124.498 114.739 123.604 113.214 123.727C112.568 123.778 111.943 124.264 111.443 124.692C109.89 126.015 108.656 128.255 107.901 131.211C107.375 133.269 106.986 136.26 107.785 138.154C107.985 138.628 108.259 139.034 108.626 139.339C109.33 139.926 110.19 140.004 111.133 140.206C111.442 140.272 111.761 140.352 112.087 140.467C110.797 145.85 110.053 151.99 109.882 158.187C109.929 158.182 109.977 158.187 110.024 158.201C110.232 153.785 110.744 149.413 111.488 145.407C111.489 145.401 111.489 145.417 111.488 145.422C109.52 157.051 110.004 171.569 113.295 181.515C114.904 186.375 117.308 191.002 120.699 194.393C124.176 197.869 128.506 200.43 134.945 200.43C141.227 200.43 145.988 197.741 149.914 195.039C153.98 192.236 157.487 188.922 160.459 185.299C166.589 177.819 171.601 169.271 175.268 159.542C178.917 149.86 181.955 138.739 182.351 125.98C182.765 112.612 180.516 101.13 175.026 92.8998C172.255 88.7425 168.647 85.401 163.758 83.8861Z" fill="#1B326D" fill-opacity="0.94"/>
<path d="M84.8872 165.942C84.8855 165.944 85.0737 166.14 85.4085 166.52C91.9578 173.986 93.2319 184.373 91.9827 194.176C91.6584 197.023 94.2464 197.322 94.5693 194.508C95.8985 184.073 92.9933 172.219 84.8872 165.942Z" fill="#1B326D" fill-opacity="0.94"/>
<path d="M84.8221 202.829C83.9107 204.517 83.4535 208.107 84.2071 211.143C84.432 211.922 86.3026 211.344 86.105 210.674C85.5572 208.468 84.8574 205.927 84.8157 203.616C84.8045 203.126 84.8221 202.829 84.8221 202.829Z" fill="#1B326D" fill-opacity="0.94"/>
<path d="M159.492 99.9701C155.599 100.273 153.143 105.983 151.477 124.043L154.923 125.238C154.923 125.238 155.454 104.822 159.646 100.825C159.959 100.526 159.922 99.9373 159.492 99.9701Z" fill="#1B326D" fill-opacity="0.94"/>
</svg>
